<svg width="24" height="34" viewBox="0 0 27 35" fill="none" xmlns="http://www.w3.org/2000/svg">
<path fill-rule="evenodd" clip-rule="evenodd" d="M18.907 29.0124C16.8397 29.0124 15.0672 27.8594 14.1323 26.1913H23.6818C22.7462 27.8594 20.9744 29.0124 18.907 29.0124ZM13.7387 25.2102C13.5661 24.6945 13.4922 24.1794 13.4922 23.6153C13.4922 20.6472 15.9289 18.2183 18.907 18.2183C21.8851 18.2183 24.3212 20.6472 24.3212 23.6153C24.3212 24.1794 24.2473 24.6945 24.0754 25.2102H13.7387Z" fill="#F8F3E3"/>
<mask id="mask0_498_777" style="mask-type:luminance" maskUnits="userSpaceOnUse" x="17" y="27" width="4" height="8">
<path d="M17.1367 27.8003H20.5922V34.7056H17.1367V27.8003Z" fill="white"/>
</mask>
<g mask="url(#mask0_498_777)">
<path fill-rule="evenodd" clip-rule="evenodd" d="M19.7182 34.7053H18.0942C17.626 34.7053 17.2324 34.3124 17.2324 33.8222V28.3761C17.2324 28.2291 17.3063 28.082 17.4051 28.0081C17.528 27.9101 17.6999 27.8852 17.8476 27.9101C18.5368 28.082 19.2749 28.082 19.964 27.9101C20.1118 27.8852 20.2844 27.9101 20.3824 28.0081C20.506 28.082 20.5799 28.2291 20.5799 28.3761V33.8222C20.5799 34.3124 20.1856 34.7053 19.7182 34.7053Z" fill="#F8F3E3"/>
</g>
<path fill-rule="evenodd" clip-rule="evenodd" d="M23.9862 18.4628C22.3864 18.4628 21.082 17.1627 21.082 15.5437C21.082 13.9495 22.3864 12.6487 23.9862 12.6487C25.5854 12.6487 26.8904 13.9495 26.8904 15.5437C26.8904 17.1627 25.5854 18.4628 23.9862 18.4628Z" fill="#F8F3E3"/>
<path d="M12.6488 24.8759C11.6573 20.3208 14.7569 16.865 19.8164 17.2866C18.6183 15.7407 16.8575 13.5451 14.9532 13.0668C16.7916 11.7622 17.9957 9.61938 17.9957 7.19923C17.9957 3.22994 14.7657 0 10.7965 0C6.82722 0 3.59724 3.22998 3.59724 7.19923C3.59724 9.62395 4.80584 11.7681 6.64875 13.0729C2.83547 14.0356 0 17.4844 0 21.5946V22.9307C0 25.135 1.79344 26.9299 3.99923 26.9299L13.492 26.984C12.6488 25.7191 12.7642 25.4063 12.6488 24.8759Z" fill="#F8F3E3"/>
</svg>
