<svg width="18" height="16" viewBox="0 0 18 16" fill="none" xmlns="http://www.w3.org/2000/svg">
<mask id="mask0_904_2127" style="mask-type:luminance" maskUnits="userSpaceOnUse" x="5" y="1" width="13" height="15">
<path d="M5 1H17.1302V15.9688H5V1Z" fill="white"/>
</mask>
<g mask="url(#mask0_904_2127)">
<path d="M5.28711 7.7813C5.28711 7.7813 6.38607 6.43755 6.73503 6.01047C7.08919 5.58339 8.08919 4.30734 8.08919 3.57297C8.08919 2.8438 7.92253 1.64589 8.25586 1.30734C8.58919 0.968801 9.67253 0.677135 10.4434 2.32818C11.209 3.98443 10.6934 5.55214 10.6934 5.55214C10.6934 5.55214 14.7819 5.55214 15.4954 5.55214C16.2298 5.55214 17.0475 6.01047 17.0475 7.00005C17.0475 7.98964 16.2819 8.31255 16.2819 8.31255C16.2819 8.31255 16.6986 8.46359 16.6986 9.72401C16.6986 10.8698 15.7663 10.8178 15.7663 10.8178C15.7663 10.8178 16.1621 11.0053 16.1465 12.1615C16.1309 13.4219 15.2142 13.3751 14.8288 13.3751C14.8288 13.3751 15.0788 13.9011 15.1152 14.6511C15.1465 15.5521 14.11 15.8126 13.86 15.8126C13.61 15.8126 9.02148 15.948 8.18815 15.8126C7.35482 15.6719 5.28711 14.4636 5.28711 14.4636V7.7813Z" fill="#F8DB52"/>
</g>
<path d="M1.3125 7.2915H5.03646C5.16667 7.2915 5.28646 7.40609 5.28646 7.54671V14.6873C5.28646 14.8228 5.16667 14.9425 5.03646 14.9425H1.3125C1.18229 14.9425 1.0625 14.8228 1.0625 14.6873V7.54671C1.0625 7.40609 1.18229 7.2915 1.3125 7.2915Z" fill="#484FA2"/>
<mask id="mask1_904_2127" style="mask-type:luminance" maskUnits="userSpaceOnUse" x="0" y="0" width="18" height="16">
<path d="M0.978516 0.671875H17.1296V15.9688H0.978516V0.671875Z" fill="white"/>
</mask>
<g mask="url(#mask1_904_2127)">
<path d="M17.1296 6.99987C17.1296 5.99466 16.3119 5.46341 15.4941 5.46341H10.8066C10.9056 5.07279 11.1921 3.72903 10.5254 2.29674C10.0723 1.32279 9.54102 1.05195 9.1556 0.984242C8.75456 0.916534 8.38998 1.06758 8.20247 1.25508C7.92122 1.54674 7.95247 2.28112 7.98893 2.99466C8.00456 3.19778 8.00456 3.40612 8.00456 3.57278C8.00456 4.29153 6.98893 5.56758 6.67122 5.9582C6.40039 6.28112 5.66602 7.17174 5.36914 7.54674C5.36914 7.35924 5.2181 7.20299 5.03581 7.20299H1.31185C1.12956 7.20299 0.978516 7.35924 0.978516 7.54674V14.6874C0.978516 14.8749 1.12956 15.0259 1.31185 15.0259H5.03581C5.2181 15.0259 5.36914 14.8749 5.36914 14.6874V14.6145C5.83268 14.8905 7.43685 15.7759 8.17122 15.8957C8.45248 15.9478 9.1556 15.9634 9.97331 15.9634C11.1921 15.9634 12.6764 15.927 13.4264 15.9113C13.6608 15.9113 13.8119 15.8957 13.8587 15.8957C14.0462 15.8957 14.5775 15.7759 14.9108 15.4165C15.1139 15.1978 15.2129 14.9426 15.1973 14.6509C15.1764 14.0884 15.0306 13.6613 14.9629 13.4582C15.3952 13.4582 16.2129 13.3749 16.2285 12.1613C16.2441 11.4113 16.0775 11.0572 15.9629 10.8853C16.1139 10.8488 16.2962 10.802 16.4629 10.6301C16.6816 10.427 16.7806 10.1197 16.7806 9.72383C16.7806 8.83841 16.5827 8.46341 16.4316 8.32799C16.666 8.17695 17.1296 7.78112 17.1296 6.99987ZM5.20247 14.6874C5.20247 14.7707 5.11914 14.854 5.03581 14.854H1.31185C1.22852 14.854 1.14518 14.7707 1.14518 14.6874V7.54674C1.14518 7.4582 1.22852 7.37487 1.31185 7.37487H5.03581C5.11914 7.37487 5.20247 7.4582 5.20247 7.54674V14.6874ZM16.6139 9.72383C16.6139 10.0676 16.5306 10.3384 16.3483 10.5103C16.1452 10.7134 15.8639 10.729 15.7962 10.729H15.7806L15.3952 10.7134L15.4264 10.729L13.291 10.7499V10.9165L15.7441 10.9009C15.8119 10.953 16.0775 11.2082 16.0619 12.1613C16.0462 13.2863 15.2806 13.2863 14.8796 13.2863H12.9577V13.4582H14.7806C14.8431 13.5936 15.0098 14.0572 15.0306 14.6509C15.0462 14.9061 14.9629 15.1301 14.7962 15.2967C14.4941 15.6249 14.0098 15.7238 13.8587 15.7238C13.8275 15.7238 13.6608 15.7238 13.4264 15.7395C12.3066 15.7759 8.88998 15.8436 8.20247 15.7395C7.45247 15.6249 5.66602 14.5988 5.36914 14.427V7.81758C5.52018 7.63008 6.4681 6.45299 6.80143 6.06237C7.2181 5.56758 8.17122 4.30716 8.17122 3.57278C8.17122 3.40612 8.1556 3.19778 8.1556 2.97903C8.11914 2.36445 8.08789 1.59883 8.32227 1.35924C8.47331 1.20299 8.79102 1.06758 9.12435 1.13528C9.45768 1.18737 9.95768 1.46341 10.3744 2.36445C11.1244 3.96341 10.6244 5.49987 10.6244 5.51549L10.5879 5.63528H15.4941C16.2285 5.63528 16.9629 6.09362 16.9629 6.99987C16.9629 7.85403 16.3639 8.17695 16.265 8.22383H13.5931V8.3957H16.265C16.3119 8.43216 16.6139 8.65091 16.6139 9.72383Z" fill="black"/>
</g>
</svg>
