<svg width="28" height="6" viewBox="0 0 28 6" fill="none" xmlns="http://www.w3.org/2000/svg">
<path d="M2.88034 5.8651e-05C4.47111 5.8651e-05 5.76068 1.28963 5.76068 2.8804C5.76068 4.47117 4.47111 5.76074 2.88034 5.76074C1.28957 5.76074 0 4.47117 0 2.8804C0 1.28963 1.28957 5.8651e-05 2.88034 5.8651e-05Z" fill="#F8F3E3"/>
<path d="M13.5776 5.8651e-05C15.1684 5.8651e-05 16.4579 1.28963 16.4579 2.8804C16.4579 4.47117 15.1684 5.76074 13.5776 5.76074C11.9868 5.76074 10.6973 4.47117 10.6973 2.8804C10.6973 1.28963 11.9868 5.8651e-05 13.5776 5.8651e-05Z" fill="#F8F3E3"/>
<path d="M25.1001 5.8651e-05C26.6908 5.8651e-05 27.9804 1.28963 27.9804 2.8804C27.9804 4.47117 26.6908 5.76074 25.1001 5.76074C23.5093 5.76074 22.2197 4.47117 22.2197 2.8804C22.2197 1.28963 23.5093 5.8651e-05 25.1001 5.8651e-05Z" fill="#F8F3E3"/>
</svg>
