<svg width="88" height="82" viewBox="0 0 88 82" fill="none" xmlns="http://www.w3.org/2000/svg">
<path d="M65.7826 51.1888C65.7357 51.0833 65.6849 50.9778 65.6263 50.8763V5.37627C67.1575 2.09897 70.4466 0.00517062 74.0638 0.00127062H78.1263C83.2982 0.0168956 87.4857 4.20437 87.5013 9.37627V46.8763C87.4857 52.0482 83.2982 56.2357 78.1263 56.2513H74.0638C70.5755 56.2395 67.3841 54.2904 65.7826 51.1888ZM2.03256 46.345C3.91146 48.6809 6.75526 50.0286 9.75136 50.0012H26.5954C27.697 49.9699 28.7477 50.4582 29.4392 51.3137C30.0017 51.966 30.2204 52.8489 30.0329 53.6887L27.6579 65.0007C26.8493 68.8835 27.8337 72.9265 30.3454 76.0007C33.0954 79.3601 37.2204 81.2937 41.5644 81.2507C44.7714 81.2858 47.5058 78.9304 47.9394 75.7507C48.6191 70.4929 50.6191 65.4967 53.7519 61.2197C55.3769 59.0439 57.2636 57.083 59.3769 55.3759V2.68787L58.1269 1.81287C56.4355 0.62537 54.4121 -0.00742964 52.3457 0.000370355H16.8457C12.3535 -0.0386916 8.4238 3.01597 7.34571 7.37537L0.220705 38.6254C-0.388675 41.3402 0.279299 44.184 2.0332 46.3442L2.03256 46.345Z" fill="#F8F3E3"/>
</svg>
