<svg width="27" height="29" viewBox="0 0 27 29" fill="none" xmlns="http://www.w3.org/2000/svg">
<path d="M14.0012 14.1605C12.1137 14.2651 10.3012 13.6859 8.86952 12.4338C4.10316 8.26096 6.83217 0.428391 13.0424 0.0207363L13.0627 0.0191751C16.8829 -0.271203 20.2722 2.77464 20.5376 6.56044C20.8092 10.4415 17.9008 13.8823 14.0012 14.1605Z" fill="#F8F3E3"/>
<path d="M18.7637 28.6076L4.38982 28.6107C3.84496 28.6107 3.20802 28.6576 2.67251 28.5795C1.22374 28.3656 0.107484 27.1214 0.0200775 25.6616C-0.290596 20.4692 3.02845 16.4055 8.28948 16.0821C8.87963 16.0338 9.49626 16.0837 10.0895 16.0837H16.8758C19.8326 16.0821 22.0822 16.2289 24.3491 18.4676C26.2865 20.3816 26.989 22.5002 26.9999 25.1855C27.0077 26.7358 26.2194 28.1158 24.6597 28.503C23.9541 28.6795 22.8503 28.6108 22.0947 28.6108L18.7637 28.6076Z" fill="#F8F3E3"/>
</svg>

