<svg width="36" height="36" viewBox="0 0 36 36" fill="none" xmlns="http://www.w3.org/2000/svg">
<path fill-rule="evenodd" clip-rule="evenodd" d="M25.1118 14.3491C25.1118 20.2943 20.2941 25.1119 14.3489 25.1119C8.40543 25.1119 3.58776 20.2943 3.58776 14.3491C3.58776 8.40561 8.40543 3.58794 14.3489 3.58794C20.2941 3.58794 25.1118 8.40561 25.1118 14.3491ZM23.1492 25.6856C20.7192 27.5739 17.6649 28.6995 14.3489 28.6995C6.42428 28.6995 0 22.2752 0 14.3489C0 6.42428 6.42428 0 14.3489 0C22.2752 0 28.6995 6.42428 28.6995 14.3489C28.6995 17.6648 27.5739 20.7192 25.6856 23.1492L35.4748 32.9383C36.1751 33.6386 36.1751 34.7743 35.4748 35.4746C34.7744 36.1749 33.6388 36.1749 32.9384 35.4746L23.1492 25.6856Z" fill="#F8F3E3"/>
</svg>
