<svg width="36" height="34" viewBox="0 0 36 34" fill="none" xmlns="http://www.w3.org/2000/svg">
<path d="M15.4372 30.7036H2.99573C1.76969 30.7036 0.724004 29.8279 0.508534 28.6205C-0.619758 22.2707 4.08065 19.495 6.42398 18.4376C8.46165 17.5186 11.6627 17.0367 15.1151 16.9961C15.1619 16.9941 15.2087 16.9927 15.2555 16.9927H15.376C15.4235 16.9927 15.4703 16.9941 15.5171 16.9961C16.2626 17.0051 16.9985 17.0367 17.7048 17.0897C17.8012 17.0994 19.2317 17.2446 20.4688 17.4911C21.2377 17.6453 21.7368 18.3929 21.5833 19.1625C21.4298 19.9308 20.6822 20.4285 19.9125 20.2764C18.8132 20.0574 17.4715 19.9211 17.4577 19.9191C16.8354 19.8736 16.147 19.844 15.4482 19.8365C15.4166 19.8358 15.3856 19.8351 15.3546 19.833L15.2562 19.8337C15.2252 19.8358 15.2156 19.8365 15.1846 19.8365C12.1191 19.8688 9.26846 20.3955 7.49031 21.0708C5.97514 21.6463 2.62262 23.4988 3.26352 27.8639H15.4379C16.2227 27.8639 16.8581 28.4993 16.8581 29.2841C16.8574 30.0675 16.2213 30.7036 15.4372 30.7036Z" fill="#F8F3E3"/>
<path d="M15.4397 31.0466H2.99821C1.60557 31.0466 0.416698 30.0512 0.172315 28.6799C-0.655145 24.0235 1.51608 20.2745 6.28533 18.1232C8.29271 17.2173 11.4284 16.6948 15.1141 16.6514C15.1533 16.6493 15.2056 16.6479 15.2587 16.6479H15.3791C15.4328 16.6479 15.4845 16.6493 15.5375 16.6521C16.2747 16.661 17.0175 16.6927 17.7328 16.7464C17.7555 16.7485 19.2431 16.8951 20.538 17.1532C21.4921 17.3439 22.1138 18.2753 21.9231 19.2295C21.7365 20.1622 20.8168 20.8052 19.8482 20.6138C18.9113 20.4273 17.7706 20.2986 17.4436 20.2634C16.8021 20.2159 16.1143 20.1877 15.4466 20.1801L15.3344 20.176L15.1905 20.1801C12.4073 20.2097 9.5043 20.6737 7.61463 21.3917C6.23783 21.9149 3.14277 23.5457 3.56889 27.5192H15.4404C16.4138 27.5192 17.2048 28.3109 17.2048 29.2836C17.2048 30.2563 16.4124 31.0466 15.4397 31.0466ZM15.258 17.335L15.1347 17.3384C11.5805 17.3804 8.46275 17.8946 6.56757 18.7496C3.41607 20.1712 -0.133336 23.0274 0.849014 28.5587C1.03488 29.6009 1.93876 30.3582 2.99752 30.3582H15.439C16.0324 30.3582 16.515 29.8756 16.515 29.2822C16.515 28.6888 16.0324 28.2062 15.439 28.2062H2.96792L2.92455 27.9123C2.21756 23.0997 6.14834 21.2114 7.36956 20.7474C9.35974 19.9915 12.2799 19.5213 15.1829 19.4904L15.3543 19.4869L15.4576 19.4904C16.1364 19.4979 16.8385 19.5269 17.4843 19.5744C17.9455 19.6232 19.0435 19.7499 19.9818 19.9371C20.5655 20.0528 21.1342 19.6632 21.2478 19.0932C21.3634 18.5115 20.9848 17.9435 20.4031 17.8272C19.1419 17.5759 17.688 17.4327 17.6736 17.4314C16.9804 17.3797 16.2513 17.3487 15.5154 17.3398L15.258 17.335Z" fill="#F8F3E3"/>
<path d="M27.6458 33.363C26.6951 33.363 25.9248 32.5927 25.9248 31.642V19.681C25.9248 18.7303 26.6951 17.96 27.6458 17.96C28.5965 17.96 29.3668 18.7303 29.3668 19.681V31.642C29.3668 32.5927 28.5965 33.363 27.6458 33.363Z" fill="#F8F3E3"/>
<path d="M33.6293 27.3844H21.6683C20.7176 27.3844 19.9473 26.6141 19.9473 25.6634C19.9473 24.7127 20.7176 23.9424 21.6683 23.9424H33.6293C34.5799 23.9424 35.3503 24.7127 35.3503 25.6634C35.3503 26.6141 34.5799 27.3844 33.6293 27.3844Z" fill="#F8F3E3"/>
<path d="M14.2751 14.4565C10.2893 14.4565 7.04688 11.2141 7.04688 7.22823C7.04688 3.24238 10.2893 0 14.2751 0C18.261 0 21.5033 3.24238 21.5033 7.22823C21.5033 11.2141 18.261 14.4565 14.2751 14.4565ZM14.2751 3.12328C12.0116 3.12328 10.1702 4.96476 10.1702 7.22823C10.1702 9.4917 12.0116 11.3332 14.2751 11.3332C16.5386 11.3332 18.38 9.4917 18.38 7.22823C18.38 4.96476 16.5393 3.12328 14.2751 3.12328Z" fill="#F8F3E3"/>
</svg>
