<svg width="36" height="31" viewBox="0 0 36 31" fill="none" xmlns="http://www.w3.org/2000/svg">
<path d="M23.4896 14.3319C25.2336 12.8751 26.3498 10.6898 26.3498 8.24224C26.3498 3.86137 22.7865 0.296875 18.4056 0.296875C14.0246 0.296875 10.4613 3.86137 10.4613 8.24224C10.4613 10.6878 11.5767 12.8711 13.3177 14.3283C10.0782 15.6098 7.77832 18.7667 7.77832 22.4573V23.529C7.77832 24.916 8.76369 26.1156 10.1266 26.3839L10.1281 26.3842C12.8733 26.9081 15.6573 27.1735 18.4056 27.1735C19.0838 27.1735 19.7409 27.1614 20.3773 27.1271M20.3773 27.1271C20.3772 27.1271 20.3771 27.1272 20.377 27.1272L20.3639 26.8775L20.3773 27.1271Z" fill="#F8F3E3" stroke="#F8F3E3" stroke-width="0.5"/>
<path d="M29.1904 15.9367L29.1907 15.9368C30.3293 16.0862 31.4836 16.7527 32.3437 17.7823L32.3446 17.7833C32.5894 18.0733 32.9393 18.2245 33.2909 18.2245C33.5708 18.2245 33.8524 18.1297 34.0838 17.9366L34.0841 17.9363C34.6073 17.4983 34.6754 16.719 34.2381 16.1953L34.2377 16.1948C33.6154 15.4533 32.8766 14.8345 32.0725 14.373C33.2695 13.1666 33.9886 11.5104 33.9886 9.75263C33.9886 7.04909 32.3616 4.65927 29.846 3.66705C29.2116 3.41591 28.4951 3.72654 28.2441 4.36265C27.993 4.99689 28.3046 5.7146 28.9398 5.96452C30.5071 6.58361 31.5171 8.06882 31.5171 9.75263L31.5171 9.75294C31.5192 11.4271 30.4698 12.9584 28.9083 13.5595C28.3807 13.7615 28.0583 14.2971 28.1255 14.8582C28.1927 15.4192 28.6305 15.8626 29.1904 15.9367Z" fill="#F8F3E3" stroke="#F8F3E3" stroke-width="0.5"/>
<path d="M4.30514 22.1214L4.30633 22.1216C4.97804 22.2425 5.42316 22.885 5.30402 23.5574L5.30382 23.5585C5.19539 24.1542 4.67554 24.5738 4.08909 24.5738C4.01452 24.5738 3.94159 24.5669 3.86834 24.5534C3.86801 24.5533 3.86767 24.5532 3.86733 24.5532L3.49282 24.4872C3.49246 24.4871 3.49211 24.487 3.49175 24.487C3.25673 24.4476 3.02597 24.4077 2.80297 24.362M4.30514 22.1214L7.95719 13.5587C6.39561 12.9576 5.34507 11.4271 5.34507 9.75295C5.34507 8.06924 6.35608 6.58397 7.92353 5.96483C8.55775 5.71485 8.86901 4.99717 8.61928 4.36323L8.61917 4.36296C8.36851 3.72878 7.65147 3.41487 7.01641 3.66731C4.50068 4.65948 2.87361 7.04934 2.87361 9.75295C2.87361 11.5073 3.59052 13.161 4.78406 14.3679C2.44286 15.7021 0.75 18.2994 0.75 21.0059V21.8499C0.75 23.0699 1.61312 24.1281 2.80297 24.362M4.30514 22.1214L3.91107 22.0524L3.9107 22.0524M4.30514 22.1214L3.9107 22.0524M2.80297 24.362C2.80262 24.3619 2.80228 24.3619 2.80194 24.3618L2.85214 24.1169M2.80297 24.362C2.80332 24.3621 2.80367 24.3622 2.80403 24.3622L2.85214 24.1169M2.85214 24.1169C3.07107 24.1618 3.29876 24.2012 3.53411 24.2406L2.85214 24.1169ZM3.9107 22.0524C3.87579 22.0463 3.84118 22.0403 3.80685 22.0344C3.62782 22.0036 3.45629 21.974 3.28834 21.9399L3.28758 21.9397M3.9107 22.0524L3.28758 21.9397M3.28758 21.9397C3.25644 21.9335 3.22036 21.8971 3.22036 21.8488V21.0048C3.22036 19.8476 3.74582 18.6554 4.5771 17.7094C5.40835 16.7634 6.52445 16.0874 7.67493 15.936L7.67512 15.936M3.28758 21.9397L7.67512 15.936M7.67512 15.936C8.23469 15.8619 8.67403 15.4176 8.74003 14.8571M7.67512 15.936L8.74003 14.8571M8.74003 14.8571C8.80705 14.2962 8.48486 13.7609 7.9576 13.5589L8.74003 14.8571Z" fill="#F8F3E3" stroke="#F8F3E3" stroke-width="0.5"/>
<path d="M29.814 19.1562C26.6012 19.1562 23.9883 21.7703 23.9883 24.982C23.9883 28.1937 26.6023 30.8077 29.814 30.8077C33.0257 30.8077 35.6397 28.1937 35.6397 24.982C35.6397 21.7703 33.0268 19.1562 29.814 19.1562ZM29.814 21.1277C30.5189 21.1277 31.1714 21.3313 31.7395 21.663L26.4939 26.9085C26.1622 26.3393 25.9586 25.6869 25.9586 24.9831C25.9597 22.8562 27.6882 21.1277 29.814 21.1277ZM29.814 28.8373C29.109 28.8373 28.4566 28.6337 27.8885 28.302L33.1341 23.0565C33.4657 23.6257 33.6693 24.2781 33.6693 24.982C33.6693 27.1089 31.9409 28.8373 29.814 28.8373Z" fill="#F8F3E3"/>
<path d="M29.814 19.1562C26.6012 19.1562 23.9883 21.7703 23.9883 24.982C23.9883 28.1937 26.6023 30.8077 29.814 30.8077C33.0257 30.8077 35.6397 28.1937 35.6397 24.982C35.6397 21.7703 33.0268 19.1562 29.814 19.1562ZM29.814 21.1277C30.5189 21.1277 31.1714 21.3313 31.7395 21.663L26.4939 26.9085C26.1622 26.3393 25.9586 25.6869 25.9586 24.9831C25.9597 22.8562 27.6882 21.1277 29.814 21.1277ZM29.814 28.8373C29.109 28.8373 28.4566 28.6337 27.8885 28.302L33.1341 23.0565C33.4657 23.6257 33.6693 24.2781 33.6693 24.982C33.6693 27.1089 31.9409 28.8373 29.814 28.8373Z" stroke="#F8F3E3"/>
</svg>
