<svg width="251" height="228" viewBox="0 0 251 228" fill="none" xmlns="http://www.w3.org/2000/svg">
<mask id="mask0_864_2491" style="mask-type:luminance" maskUnits="userSpaceOnUse" x="3" y="0" width="231" height="228">
<path d="M3.54736 0H233.808V227.61H3.54736V0Z" fill="white"/>
</mask>
<g mask="url(#mask0_864_2491)">
<path d="M118.541 0.0107422C122.266 0.0107422 125.972 0.186723 129.667 0.558233C133.373 0.919971 137.049 1.46746 140.695 2.19093C144.342 2.9144 147.94 3.82363 151.499 4.89906C155.057 5.97448 158.548 7.22589 161.989 8.65328C165.421 10.0807 168.784 11.6645 172.059 13.4145C175.334 15.1743 178.521 17.0807 181.611 19.1436C184.7 21.2163 187.692 23.4258 190.566 25.7917C193.431 28.1479 196.188 30.6409 198.818 33.2708C201.448 35.9007 203.941 38.6578 206.297 41.5321C208.653 44.4064 210.872 47.3883 212.935 50.4777C214.998 53.5769 216.904 56.7641 218.664 60.0392C220.414 63.3242 221.998 66.6776 223.426 70.1092C224.843 73.5505 226.095 77.0506 227.18 80.6093C228.255 84.168 229.155 87.7658 229.888 91.4222C230.611 95.0689 231.159 98.7449 231.521 102.44C231.882 106.146 232.068 109.851 232.068 113.576C232.068 117.291 231.882 121.006 231.521 124.702C231.159 128.407 230.611 132.083 229.888 135.73C229.155 139.377 228.255 142.984 227.18 146.543C226.095 150.102 224.843 153.592 223.426 157.033C221.998 160.465 220.414 163.828 218.664 167.103C216.904 170.388 214.998 173.575 212.935 176.665C210.872 179.754 208.653 182.746 206.297 185.62C203.941 188.494 201.448 191.242 198.818 193.872C196.188 196.501 193.431 199.004 190.566 201.36C187.692 203.717 184.7 205.936 181.611 207.999C178.521 210.062 175.334 211.978 172.059 213.728C168.784 215.478 165.421 217.071 161.989 218.489C158.548 219.916 155.057 221.168 151.499 222.243C147.94 223.329 144.342 224.228 140.695 224.951C137.049 225.685 133.373 226.222 129.667 226.594C125.972 226.956 122.266 227.141 118.541 227.141C114.826 227.141 111.121 226.956 107.416 226.594C103.72 226.222 100.044 225.685 96.3972 224.951C92.7505 224.228 89.1527 223.329 85.594 222.243C82.0353 221.168 78.5352 219.916 75.1036 218.489C71.6622 217.071 68.3088 215.478 65.0336 213.728C61.7487 211.978 58.5713 210.062 55.4721 207.999C52.3826 205.936 49.4007 203.717 46.5264 201.36C43.6521 199.004 40.9048 196.501 38.2749 193.872C35.645 191.242 33.1519 188.494 30.7957 185.62C28.4298 182.746 26.2202 179.754 24.1574 176.665C22.0847 173.575 20.1783 170.388 18.4282 167.103C16.6782 163.828 15.0846 160.465 13.667 157.033C12.2396 153.592 10.9882 150.102 9.91275 146.543C8.82754 142.984 7.92809 139.377 7.20461 135.73C6.48114 132.083 5.93364 128.407 5.57191 124.702C5.20039 121.006 5.02441 117.291 5.02441 113.576C5.02441 109.851 5.20039 106.146 5.57191 102.44C5.93364 98.7449 6.48114 95.0689 7.20461 91.4222C7.92809 87.7658 8.82754 84.168 9.91275 80.6093C10.9882 77.0506 12.2396 73.5505 13.667 70.1092C15.0846 66.6776 16.6782 63.3242 18.4282 60.0392C20.1783 56.7641 22.0847 53.5769 24.1574 50.4777C26.2202 47.3883 28.4298 44.4064 30.7957 41.5321C33.1519 38.6578 35.645 35.9007 38.2749 33.2708C40.9048 30.6409 43.6521 28.1479 46.5264 25.7917C49.4007 23.4258 52.3826 21.2163 55.4721 19.1436C58.5713 17.0807 61.7487 15.1743 65.0336 13.4145C68.3088 11.6645 71.6622 10.0807 75.1036 8.65328C78.5352 7.22589 82.0353 5.97448 85.594 4.89906C89.1527 3.82363 92.7505 2.9144 96.3972 2.19093C100.044 1.46746 103.72 0.919971 107.416 0.558233C111.121 0.186723 114.826 0.0107422 118.541 0.0107422Z" fill="#D0D8E7"/>
</g>
<mask id="mask1_864_2491" style="mask-type:luminance" maskUnits="userSpaceOnUse" x="0" y="31" width="127" height="103">
<path d="M0 31.0527H126.188V133.668H0V31.0527Z" fill="white"/>
</mask>
<g mask="url(#mask1_864_2491)">
<path d="M118.241 132.877H7.30494C6.41526 132.877 5.56469 132.71 4.74345 132.368C3.92221 132.026 3.19874 131.537 2.56325 130.912C1.93755 130.286 1.44871 129.553 1.11631 128.731C0.774124 127.91 0.598145 127.06 0.598145 126.17V40.1355C0.598145 39.2458 0.774124 38.3855 1.11631 37.5642C1.44871 36.743 1.93755 36.0195 2.56325 35.384C3.19874 34.7583 3.92221 34.2695 4.74345 33.9273C5.56469 33.5949 6.41526 33.4189 7.30494 33.4189H118.241C119.13 33.4189 119.991 33.5949 120.812 33.9273C121.633 34.2695 122.357 34.7583 122.982 35.384C123.618 36.0195 124.097 36.743 124.439 37.5642C124.781 38.3855 124.948 39.2458 124.948 40.1355V126.17C124.948 127.06 124.781 127.91 124.439 128.731C124.097 129.553 123.618 130.286 122.982 130.912C122.357 131.537 121.633 132.026 120.812 132.368C119.991 132.71 119.13 132.877 118.241 132.877Z" fill="#F8F3E3"/>
<path d="M118.22 133.48H7.2841C6.32599 133.48 5.3972 133.295 4.50753 132.923C3.61785 132.552 2.82594 132.034 2.14157 131.349C1.46698 130.665 0.93904 129.883 0.567525 128.983C0.19601 128.094 0.0102539 127.165 0.0102539 126.207V40.1723C0.0102539 39.2044 0.19601 38.2756 0.567525 37.3859C0.93904 36.4962 1.46698 35.7043 2.14157 35.02C2.82594 34.3454 3.61785 33.8175 4.50753 33.4459C5.3972 33.0744 6.32599 32.8887 7.2841 32.8887H118.22C119.188 32.8887 120.117 33.0744 121.006 33.4459C121.896 33.8175 122.678 34.3454 123.363 35.02C124.047 35.7043 124.575 36.4962 124.937 37.3859C125.308 38.2756 125.494 39.2044 125.494 40.1723V126.207C125.494 127.165 125.308 128.094 124.937 128.983C124.575 129.883 124.047 130.665 123.363 131.349C122.678 132.034 121.896 132.552 121.006 132.923C120.117 133.295 119.188 133.48 118.22 133.48ZM7.2841 34.0228C6.47264 34.0228 5.6905 34.1792 4.9377 34.492C4.18489 34.8049 3.52008 35.2546 2.95303 35.8314C2.37621 36.3985 1.92648 37.0633 1.61363 37.8161C1.31055 38.5689 1.15412 39.351 1.14435 40.1723V126.207C1.15412 127.018 1.31055 127.8 1.61363 128.553C1.92648 129.306 2.37621 129.971 2.95303 130.547C3.52008 131.124 4.18489 131.564 4.9377 131.877C5.6905 132.19 6.47264 132.346 7.2841 132.346H118.22C119.032 132.346 119.814 132.19 120.566 131.877C121.319 131.564 121.984 131.124 122.561 130.547C123.138 129.971 123.578 129.306 123.891 128.553C124.203 127.8 124.36 127.018 124.36 126.207V40.1723C124.36 39.351 124.203 38.5689 123.891 37.8161C123.578 37.0633 123.138 36.3985 122.561 35.8314C121.984 35.2546 121.319 34.8049 120.566 34.492C119.814 34.1792 119.032 34.0228 118.22 34.0228H7.2841Z" fill="#283245"/>
</g>
<path d="M44.234 40.7195C44.234 41.1497 44.1558 41.5701 43.9896 41.9709C43.8234 42.3718 43.5789 42.7237 43.2759 43.0366C42.963 43.3397 42.611 43.5841 42.2102 43.7503C41.8094 43.9165 41.389 43.9947 40.9588 43.9947C40.5188 43.9947 40.0984 43.9165 39.6976 43.7503C39.2968 43.5841 38.9448 43.3397 38.6319 43.0366C38.3289 42.7237 38.0942 42.3718 37.928 41.9709C37.752 41.5701 37.6738 41.1497 37.6738 40.7195C37.6738 40.2796 37.752 39.8592 37.928 39.4583C38.0942 39.0575 38.3289 38.7055 38.6319 38.3927C38.9448 38.0896 39.2968 37.8452 39.6976 37.679C40.0984 37.5128 40.5188 37.4346 40.9588 37.4346C41.389 37.4346 41.8094 37.5128 42.2102 37.679C42.611 37.8452 42.963 38.0896 43.2759 38.3927C43.5789 38.7055 43.8234 39.0575 43.9896 39.4583C44.1558 39.8592 44.234 40.2796 44.234 40.7195Z" fill="#31405B"/>
<path d="M29.2799 40.7195C29.2799 41.1497 29.2017 41.5701 29.0355 41.9709C28.8693 42.3718 28.6346 42.7237 28.3218 43.0366C28.0187 43.3397 27.6569 43.5841 27.2561 43.7503C26.8553 43.9165 26.4349 43.9947 26.0047 43.9947C25.5647 43.9947 25.1541 43.9165 24.7435 43.7503C24.3427 43.5841 23.9907 43.3397 23.6876 43.0366C23.3748 42.7237 23.1401 42.3718 22.9739 41.9709C22.8077 41.5701 22.7197 41.1497 22.7197 40.7195C22.7197 40.2796 22.8077 39.8592 22.9739 39.4583C23.1401 39.0575 23.3748 38.7055 23.6876 38.3927C23.9907 38.0896 24.3427 37.8452 24.7435 37.679C25.1541 37.5128 25.5647 37.4346 26.0047 37.4346C26.4349 37.4346 26.8553 37.5128 27.2561 37.679C27.6569 37.8452 28.0187 38.0896 28.3218 38.3927C28.6346 38.7055 28.8693 39.0575 29.0355 39.4583C29.2017 39.8592 29.2799 40.2796 29.2799 40.7195Z" fill="#31405B"/>
<path d="M14.274 40.7195C14.274 41.1497 14.186 41.5701 14.0198 41.9709C13.8536 42.3718 13.619 42.7237 13.3061 43.0366C13.003 43.3397 12.6511 43.5841 12.2502 43.7503C11.8396 43.9165 11.429 43.9947 10.9891 43.9947C10.5589 43.9947 10.1385 43.9165 9.73764 43.7503C9.3368 43.5841 8.97506 43.3397 8.67198 43.0366C8.35913 42.7237 8.12449 42.3718 7.95828 41.9709C7.79208 41.5701 7.71387 41.1497 7.71387 40.7195C7.71387 40.2796 7.79208 39.8592 7.95828 39.4583C8.12449 39.0575 8.35913 38.7055 8.67198 38.3927C8.97506 38.0896 9.3368 37.8452 9.73764 37.679C10.1385 37.5128 10.5589 37.4346 10.9891 37.4346C11.429 37.4346 11.8396 37.5128 12.2502 37.679C12.6511 37.8452 13.003 38.0896 13.3061 38.3927C13.619 38.7055 13.8536 39.0575 14.0198 39.4583C14.186 39.8592 14.274 40.2796 14.274 40.7195Z" fill="#31405B"/>
<path d="M98.5251 91.7547H27.038C25.8942 91.7547 24.7992 91.5396 23.7531 91.0997C22.6972 90.6597 21.7684 90.0438 20.9569 89.2324C20.1553 88.4307 19.5295 87.5019 19.0994 86.446C18.6594 85.3901 18.4443 84.2952 18.4443 83.1611C18.4443 82.0172 18.6594 80.9222 19.0994 79.8663C19.5295 78.8105 20.1553 77.8817 20.9569 77.08C21.7684 76.2685 22.6972 75.6526 23.7531 75.2127C24.7992 74.7727 25.8942 74.5576 27.038 74.5576H98.5251C99.6592 74.5576 100.754 74.7727 101.81 75.2127C102.866 75.6526 103.795 76.2685 104.596 77.08C105.408 77.8817 106.024 78.8105 106.464 79.8663C106.894 80.9222 107.119 82.0172 107.119 83.1611C107.119 84.2952 106.894 85.3901 106.464 86.446C106.024 87.5019 105.408 88.4307 104.596 89.2324C103.795 90.0438 102.866 90.6597 101.81 91.0997C100.754 91.5396 99.6592 91.7547 98.5251 91.7547Z" fill="#F8F3E3"/>
<path d="M98.5091 92.3292H27.0221C25.8098 92.3292 24.6366 92.1044 23.5123 91.6351C22.3879 91.1658 21.4005 90.5108 20.5401 89.6504C19.6798 88.7901 19.015 87.7929 18.5457 86.6783C18.0862 85.554 17.8516 84.3808 17.8516 83.1685C17.8516 81.9465 18.0862 80.783 18.5457 79.6587C19.015 78.5344 19.6798 77.5372 20.5401 76.6768C21.4005 75.8165 22.3879 75.1615 23.5123 74.6922C24.6366 74.2327 25.8098 73.998 27.0221 73.998H98.5091C99.7214 73.998 100.885 74.2327 102.009 74.702C103.133 75.1615 104.121 75.8263 104.981 76.6866C105.832 77.547 106.497 78.5344 106.966 79.6587C107.425 80.783 107.66 81.9465 107.66 83.1685C107.66 84.3808 107.425 85.5443 106.966 86.6686C106.497 87.7929 105.832 88.7803 104.981 89.6407C104.121 90.501 103.133 91.1658 102.009 91.6253C100.885 92.0946 99.7214 92.3292 98.5091 92.3292ZM27.0221 75.1321C25.9564 75.1321 24.9397 75.3374 23.9522 75.7481C22.9648 76.1489 22.1044 76.7355 21.3516 77.4883C20.5988 78.2411 20.0122 79.1112 19.6114 80.0889C19.2007 81.0763 18.9954 82.1029 18.9954 83.1685C18.9954 84.2342 19.2007 85.251 19.6114 86.2384C20.0122 87.2258 20.5988 88.0862 21.3516 88.839C22.1044 89.5918 22.9648 90.1784 23.9522 90.5792C24.9397 90.9898 25.9564 91.1952 27.0221 91.1952H98.5091C99.565 91.1952 100.592 90.9898 101.579 90.5792C102.557 90.1784 103.427 89.5918 104.18 88.839C104.932 88.0862 105.509 87.2258 105.92 86.2384C106.33 85.251 106.536 84.2342 106.536 83.1685C106.536 82.1029 106.33 81.0763 105.92 80.0889C105.509 79.1112 104.932 78.2411 104.18 77.4883C103.427 76.7355 102.557 76.1489 101.579 75.7481C100.592 75.3374 99.565 75.1321 98.5091 75.1321H27.0221Z" fill="#283245"/>
<path d="M30.6106 87.3891C29.8969 87.3891 29.2027 87.2522 28.5477 86.9785C27.8829 86.7047 27.3061 86.3137 26.7977 85.8151C26.2893 85.3067 25.908 84.7298 25.6343 84.065C25.3605 83.41 25.2236 82.7159 25.2236 82.0022C25.2236 81.2885 25.3605 80.6041 25.6343 79.9393C25.908 79.2843 26.2893 78.6977 26.7977 78.1991C27.3061 77.6907 27.8829 77.2996 28.5477 77.0259C29.2027 76.7521 29.8969 76.6152 30.6106 76.6152C31.3243 76.6152 32.0086 76.7521 32.6637 77.0259C33.3285 77.2996 33.9053 77.6907 34.4137 78.1991C34.9221 78.6977 35.3034 79.2843 35.5771 79.9393C35.8509 80.6041 35.9878 81.2885 35.9878 82.0022C35.9878 82.7159 35.8509 83.4002 35.5771 84.065C35.3034 84.7201 34.9123 85.3067 34.4137 85.8151C33.9053 86.3137 33.3285 86.7047 32.6637 86.9785C32.0086 87.2522 31.3243 87.3891 30.6106 87.3891ZM30.6106 79.4602C30.2684 79.4602 29.9458 79.5189 29.6329 79.6558C29.3201 79.7829 29.0463 79.9686 28.8019 80.2033C28.5673 80.4379 28.3815 80.7214 28.2544 81.0343C28.1273 81.3374 28.0589 81.6698 28.0589 82.0022C28.0589 82.3443 28.1273 82.667 28.2544 82.9798C28.3815 83.2927 28.5673 83.5664 28.8019 83.8108C29.0463 84.0455 29.3201 84.2312 29.6329 84.3583C29.9458 84.4854 30.2684 84.5539 30.6106 84.5539C30.943 84.5539 31.2656 84.4854 31.5785 84.3583C31.8913 84.2312 32.1651 84.0455 32.4095 83.8108C32.6441 83.5664 32.8299 83.2927 32.957 82.9798C33.0841 82.667 33.1525 82.3443 33.1525 82.0022C33.1525 81.6698 33.0841 81.3374 32.957 81.0343C32.8299 80.7214 32.6441 80.4379 32.4095 80.2033C32.1651 79.9686 31.8913 79.7829 31.5785 79.6558C31.2656 79.5189 30.943 79.4602 30.6106 79.4602Z" fill="#31405B"/>
<path d="M36.5175 90.4454C36.0873 90.4454 35.7256 90.2792 35.4518 89.9566L32.03 86.0264C31.766 85.7331 31.6585 85.3909 31.678 84.9998C31.7074 84.6088 31.8736 84.2861 32.1669 84.0319C32.4602 83.768 32.8023 83.6604 33.1934 83.68C33.5845 83.7093 33.9071 83.8657 34.1613 84.1688L37.5831 88.0892C37.984 88.5487 38.0622 89.0571 37.808 89.6144C37.5538 90.1717 37.1236 90.4454 36.5175 90.4454Z" fill="#31405B"/>
<path d="M82.9584 41.0974L81.9123 53.3279C81.883 53.7092 81.6777 53.9243 81.2964 53.983C80.9151 54.0319 80.6511 53.8852 80.5142 53.5235L76.496 42.9452C75.6748 43.0234 74.8633 43.0625 74.0421 43.0527C73.2208 43.0429 72.4094 42.9745 71.5979 42.8572C70.7865 42.7399 69.9848 42.5834 69.1929 42.3683C68.4009 42.1533 67.6286 41.8893 66.866 41.5764C66.1034 41.2734 65.3702 40.9116 64.6565 40.5108C63.9428 40.1099 63.2584 39.67 62.5936 39.1812C61.9386 38.6923 61.3128 38.1644 60.7165 37.6071C60.1201 37.0401 59.5628 36.4437 59.0447 35.8082C58.5265 35.1727 58.0474 34.5079 57.6075 33.8138C57.1675 33.1196 56.7765 32.406 56.4245 31.6629C56.0726 30.9199 55.7695 30.1671 55.5153 29.385C55.2611 28.6028 55.0558 27.8109 54.8993 27.0092C54.7429 26.2076 54.6354 25.3961 54.5865 24.5749C54.5278 23.7536 54.5181 22.9422 54.5669 22.1209C54.606 21.2997 54.7038 20.4882 54.8505 19.6768C54.9971 18.8751 55.1927 18.0832 55.4371 17.301C55.6815 16.5189 55.9748 15.7466 56.317 15.0035C56.6494 14.2605 57.0404 13.537 57.4608 12.8331C57.891 12.139 58.3603 11.4644 58.8785 10.8289C59.3868 10.1837 59.9343 9.57751 60.5209 9.01046C61.1075 8.43364 61.7332 7.9057 62.3785 7.4071C63.0335 6.90849 63.7179 6.45876 64.4218 6.04814C65.1355 5.63752 65.8688 5.26601 66.6216 4.95316C67.3744 4.63053 68.1467 4.35679 68.9289 4.13192C69.7208 3.90706 70.5225 3.73108 71.3339 3.60398C72.1356 3.47689 72.9569 3.40845 73.7781 3.37912C74.5896 3.35957 75.4108 3.37912 76.2223 3.45734C77.0435 3.53555 77.855 3.66264 78.6469 3.83862C79.4486 4.0146 80.2405 4.23947 81.0129 4.51321C81.7852 4.78696 82.538 5.10959 83.2615 5.4811C83.9947 5.84283 84.7084 6.26323 85.383 6.71295C86.0674 7.17246 86.7224 7.66129 87.3384 8.199C87.9543 8.73672 88.5409 9.31354 89.0884 9.91969C89.6457 10.5258 90.154 11.1711 90.6233 11.8359C91.0926 12.5105 91.513 13.2046 91.9041 13.9379C92.2854 14.6614 92.6178 15.4044 92.9111 16.167C93.2044 16.9393 93.4488 17.7214 93.6345 18.5134C93.8301 19.315 93.9767 20.1167 94.0745 20.9282C94.1625 21.7494 94.2114 22.5609 94.2016 23.3821C94.1918 24.2034 94.1332 25.0148 94.0256 25.8263C93.9181 26.6475 93.7616 27.4492 93.5563 28.2411C93.351 29.033 93.0968 29.8054 92.7938 30.5679C92.4809 31.3305 92.1387 32.0735 91.7379 32.7872C91.3468 33.5107 90.9069 34.1951 90.4278 34.8599C89.939 35.5247 89.4208 36.1602 88.8635 36.7566C88.3063 37.3529 87.7099 37.92 87.0842 38.4479C86.4487 38.9661 85.7936 39.4549 85.0995 39.8948C84.4151 40.3446 83.7014 40.7356 82.9584 41.0974Z" fill="#F8F3E3"/>
<path d="M81.1724 54.4831C80.5858 54.4929 80.1849 54.2094 79.9796 53.6521L76.1081 43.4746C75.5117 43.5333 74.9153 43.5528 74.3385 43.5528C73.5075 43.5528 72.6862 43.504 71.865 43.4062C71.0535 43.3084 70.2421 43.152 69.4404 42.9565C68.6387 42.7609 67.8468 42.5165 67.0744 42.2134C66.3021 41.9201 65.559 41.5877 64.8258 41.1967C64.0925 40.8154 63.3886 40.3852 62.714 39.9159C62.0297 39.4466 61.3844 38.9285 60.7685 38.381C60.1525 37.8335 59.5757 37.2469 59.0282 36.631C58.4807 36.0053 57.9723 35.36 57.5128 34.6756C57.0436 33.9913 56.6134 33.2874 56.2321 32.5541C55.8606 31.8209 55.5184 31.0681 55.2349 30.2957C54.9416 29.5234 54.6971 28.7314 54.5114 27.9298C54.3159 27.1281 54.1692 26.3166 54.0714 25.4954C53.9737 24.6741 53.9346 23.8529 53.9346 23.0219C53.9443 22.2007 53.9932 21.3794 54.1008 20.5582C54.2083 19.7369 54.355 18.9255 54.5603 18.1238C54.7656 17.3221 55.01 16.54 55.3131 15.7676C55.6064 14.9953 55.9583 14.2523 56.3396 13.519C56.7307 12.7955 57.1609 12.0916 57.6399 11.417C58.1092 10.7327 58.6274 10.0874 59.1749 9.48125C59.7321 8.86532 60.3187 8.2885 60.9347 7.74101C61.5604 7.2033 62.2154 6.69491 62.8998 6.23541C63.5841 5.76613 64.2881 5.34573 65.0213 4.97422C65.7643 4.59293 66.5171 4.26053 67.2895 3.97701C68.0619 3.69348 68.8538 3.45884 69.6555 3.26331C70.4571 3.07756 71.2686 2.93091 72.0899 2.84292C72.9111 2.75493 73.7421 2.71582 74.5633 2.71582C75.3846 2.7256 76.2156 2.78426 77.0271 2.8918C77.8483 2.99934 78.6598 3.16555 79.4615 3.37085C80.2534 3.57616 81.0355 3.83036 81.8079 4.13343C82.5802 4.43651 83.3232 4.77869 84.0467 5.16976C84.78 5.56082 85.4741 6.00077 86.1487 6.47983C86.8233 6.95888 87.4686 7.47704 88.0747 8.02453C88.6906 8.5818 89.2675 9.17818 89.8052 9.80388C90.3429 10.4296 90.8415 11.0846 91.301 11.769C91.7605 12.4533 92.1809 13.167 92.5524 13.9003C92.9239 14.6335 93.2563 15.3961 93.5399 16.1685C93.8136 16.9506 94.0483 17.7425 94.234 18.5442C94.4198 19.3459 94.5566 20.1573 94.6446 20.9786C94.7326 21.7998 94.7717 22.6308 94.762 23.4521C94.7424 24.2831 94.6837 25.1043 94.5664 25.9158C94.4589 26.737 94.2927 27.5485 94.0874 28.3502C93.8723 29.1421 93.6181 29.9242 93.315 30.6966C93.0022 31.4591 92.6502 32.2119 92.2591 32.9354C91.8583 33.6589 91.4281 34.353 90.9393 35.0276C90.4602 35.7022 89.9421 36.3377 89.3848 36.9438C88.8275 37.5598 88.2311 38.1268 87.6054 38.6645C86.9797 39.2022 86.3149 39.7008 85.6305 40.1506C84.9462 40.6101 84.2325 41.0207 83.4895 41.3922L82.4727 53.3001C82.4433 53.6423 82.3065 53.9161 82.0523 54.1507C81.8079 54.3756 81.5146 54.4831 81.1724 54.4831ZM76.4894 42.3014C76.7435 42.3014 76.9195 42.4285 77.0173 42.6729L81.0453 53.2513C81.0746 53.3295 81.1235 53.3588 81.2115 53.349C81.2897 53.3392 81.3386 53.2904 81.3386 53.2122L82.3847 40.9816C82.4042 40.7665 82.5118 40.6101 82.7073 40.5123C83.4112 40.1799 84.0956 39.7986 84.7506 39.3684C85.4155 38.948 86.0412 38.4885 86.6473 37.9899C87.2535 37.4913 87.8205 36.9536 88.3582 36.3866C88.896 35.8195 89.4043 35.2231 89.8638 34.5877C90.3331 33.962 90.7535 33.3069 91.1446 32.6226C91.5259 31.9382 91.8681 31.2343 92.1711 30.5108C92.4742 29.7873 92.7284 29.0541 92.9337 28.3013C93.1488 27.5485 93.3052 26.7761 93.4225 26.0038C93.5399 25.2314 93.6083 24.4493 93.6376 23.6672C93.6572 22.885 93.6376 22.1029 93.5594 21.3208C93.491 20.5484 93.3639 19.7761 93.1977 19.0037C93.0315 18.2411 92.8262 17.4883 92.5622 16.7551C92.308 16.012 92.0049 15.2886 91.6627 14.5847C91.3108 13.8807 90.9295 13.2061 90.4993 12.5511C90.0692 11.8961 89.5999 11.2704 89.1013 10.6642C88.5929 10.0679 88.0552 9.50081 87.4783 8.97287C86.9015 8.43515 86.3051 7.94632 85.6696 7.48682C85.0342 7.02732 84.3791 6.60692 83.6948 6.22563C83.0006 5.84434 82.2967 5.51194 81.5732 5.21864C80.8497 4.92534 80.1067 4.67115 79.3539 4.46584C78.5913 4.27031 77.8288 4.11388 77.0564 3.99656C76.2743 3.88902 75.5019 3.83036 74.7198 3.8108C73.9376 3.80103 73.1555 3.83036 72.3734 3.90857C71.5912 3.98678 70.8287 4.11388 70.0563 4.28986C69.2937 4.46584 68.5507 4.68092 67.8077 4.95467C67.0744 5.21864 66.3607 5.52172 65.6568 5.87367C64.9627 6.22563 64.2783 6.62648 63.633 7.05665C62.978 7.4966 62.3621 7.96587 61.7657 8.47426C61.1693 8.98264 60.612 9.53014 60.0841 10.107C59.5562 10.6838 59.0673 11.2997 58.6078 11.9352C58.1581 12.5707 57.7475 13.2355 57.376 13.9296C57.0044 14.614 56.672 15.3277 56.3885 16.0512C56.0952 16.7844 55.8606 17.5274 55.665 18.2802C55.4597 19.0428 55.3131 19.8054 55.2153 20.5875C55.1078 21.3599 55.0589 22.142 55.0491 22.9241C55.0393 23.7063 55.0784 24.4884 55.1664 25.2705C55.2544 26.0429 55.3913 26.8152 55.5673 27.5778C55.753 28.3404 55.9779 29.0932 56.2516 29.8264C56.5156 30.5597 56.8382 31.2734 57.1902 31.9675C57.5519 32.6617 57.9528 33.3362 58.3927 33.9815C58.8327 34.6268 59.3117 35.2525 59.8299 35.8391C60.3481 36.4257 60.8956 36.9829 61.4822 37.5011C62.059 38.029 62.6749 38.5081 63.3202 38.9578C63.9557 39.4075 64.6302 39.8182 65.3146 40.1799C66.0088 40.5416 66.7225 40.874 67.4557 41.1478C68.189 41.4313 68.932 41.6659 69.6946 41.8517C70.4474 42.0375 71.2197 42.1841 71.9921 42.2819C72.7742 42.3699 73.5564 42.4187 74.3385 42.4187C75.0326 42.4187 75.7268 42.3796 76.4209 42.3112C76.4405 42.3014 76.46 42.3014 76.4894 42.3014Z" fill="#283245"/>
<path d="M65.1469 16.1202L67.4737 13.7934C67.6986 13.5587 67.9723 13.4512 68.295 13.4512C68.6176 13.4512 68.8913 13.5587 69.1162 13.7934L83.5368 28.2139C83.7714 28.4485 83.879 28.7223 83.879 29.0449C83.879 29.3578 83.7714 29.6315 83.5368 29.8662L81.21 32.193C80.9851 32.4179 80.7113 32.5352 80.3887 32.5352C80.0759 32.5352 79.7923 32.4179 79.5675 32.193L65.1469 17.7627C64.922 17.5378 64.8047 17.2641 64.8047 16.9414C64.8047 16.6188 64.922 16.3451 65.1469 16.1202Z" fill="#31405B"/>
<path d="M81.21 13.7934L83.5368 16.1202C83.7714 16.3451 83.879 16.6188 83.879 16.9414C83.879 17.2641 83.7714 17.5378 83.5368 17.7627L69.1162 32.193C68.8913 32.4179 68.6176 32.5352 68.295 32.5352C67.9723 32.5352 67.6986 32.4179 67.4737 32.193L65.1469 29.8662C64.922 29.6315 64.8047 29.3578 64.8047 29.0449C64.8047 28.7223 64.922 28.4485 65.1469 28.2139L79.5675 13.7934C79.7923 13.5587 80.0661 13.4512 80.3887 13.4512C80.7113 13.4512 80.9851 13.5587 81.21 13.7934Z" fill="#31405B"/>
<path d="M157.041 80.7394C157.041 80.7394 162.203 93.8303 151.175 108.407C140.157 122.984 138.27 132.458 151.175 136.456C164.08 140.465 181.493 136.456 181.493 136.456L190.096 114.087L180.769 72.8301L157.041 80.7394Z" fill="#31405B"/>
<mask id="mask2_864_2491" style="mask-type:luminance" maskUnits="userSpaceOnUse" x="108" y="106" width="74" height="122">
<path d="M108.678 106.139H181.26V227.613H108.678V106.139Z" fill="white"/>
</mask>
<g mask="url(#mask2_864_2491)">
<path d="M180.772 108.584C180.772 108.584 155.47 105.66 141.539 125.126C127.607 144.591 110.458 227.204 110.458 227.204H145.615L180.772 108.584Z" fill="#5774A0"/>
</g>
<path d="M131.27 224.418C133.205 206.664 136.08 185.624 140.479 162.073C146.199 131.501 149.347 124.159 156.493 118.097C161.245 114.069 167.228 111.058 173.72 109.054C174.375 108.858 174.981 108.565 175.548 108.174C176.105 107.783 176.594 107.314 177.005 106.766C177.415 106.219 177.728 105.612 177.943 104.967C178.168 104.322 178.276 103.647 178.276 102.963V86.3818H201.515V101.154C201.515 101.917 201.642 102.66 201.896 103.383C202.15 104.107 202.512 104.772 202.981 105.368C203.46 105.964 204.018 106.473 204.663 106.883C205.308 107.294 206.002 107.587 206.745 107.763C213.071 109.318 218.614 112.026 222.564 115.937C234.286 127.522 229.779 149.07 227.374 162.786C225.38 174.186 222.593 177.481 220.931 189.819C219.406 201.424 219.817 212.96 222.173 224.428L131.27 224.418Z" fill="#F8F3E3"/>
<path d="M222.173 225.009H131.269C131.103 225.009 130.956 224.951 130.849 224.824C130.731 224.696 130.692 224.55 130.702 224.384C132.961 203.618 136.07 182.618 139.922 161.989C145.103 134.302 148.007 124.574 156.131 117.691C160.717 113.8 166.739 110.632 173.553 108.54C174.775 108.178 175.782 107.484 176.545 106.458C177.317 105.431 177.708 104.268 177.708 102.987V86.4059C177.708 86.0344 177.894 85.8389 178.275 85.8389H201.515C201.886 85.8389 202.082 86.0344 202.082 86.4059V101.178C202.082 101.882 202.199 102.567 202.434 103.222C202.658 103.887 202.991 104.493 203.431 105.04C203.861 105.588 204.379 106.057 204.966 106.428C205.562 106.81 206.198 107.074 206.882 107.24C213.559 108.882 219.122 111.757 222.965 115.55C234.345 126.793 230.698 147.314 228.293 160.894L227.931 162.908C227.188 167.063 226.171 171.14 224.871 175.158C223.287 179.968 222.163 184.896 221.498 189.921C219.973 201.457 220.384 212.935 222.72 224.335C222.759 224.511 222.72 224.667 222.613 224.804C222.495 224.941 222.349 225.009 222.173 225.009ZM131.905 223.875H221.479C219.23 212.573 218.858 201.203 220.374 189.765C221.048 184.681 222.182 179.695 223.786 174.826C225.067 170.856 226.083 166.819 226.817 162.713L227.169 160.699C229.535 147.353 233.123 127.184 222.163 116.362C218.467 112.705 213.09 109.938 206.608 108.345C205.797 108.149 205.054 107.827 204.35 107.387C203.656 106.937 203.05 106.389 202.531 105.744C202.023 105.089 201.632 104.375 201.358 103.593C201.084 102.811 200.948 102.009 200.938 101.178V86.973H178.852V102.987C178.842 103.73 178.725 104.463 178.49 105.167C178.256 105.881 177.914 106.526 177.464 107.132C177.024 107.729 176.486 108.237 175.88 108.667C175.264 109.088 174.599 109.41 173.886 109.625C167.228 111.669 161.342 114.758 156.865 118.551C149.014 125.219 146.159 134.81 141.046 162.194C137.223 182.588 134.153 203.344 131.905 223.875Z" fill="#283245"/>
<path d="M224.739 57.0873C224.72 55.6502 224.622 54.2228 224.436 52.7954C224.25 51.368 223.977 49.9602 223.635 48.5719C223.283 47.1836 222.862 45.8149 222.354 44.4657C221.845 43.1263 221.269 41.8162 220.614 40.5355C219.949 39.2645 219.225 38.0327 218.424 36.8399C217.622 35.6472 216.762 34.5033 215.833 33.4083C214.894 32.3231 213.907 31.2868 212.861 30.3091C211.805 29.3314 210.7 28.4124 209.546 27.5619C208.393 26.7113 207.19 25.9292 205.949 25.2253C204.697 24.5116 203.416 23.8761 202.097 23.309C200.777 22.742 199.428 22.2629 198.049 21.8523C196.68 21.4417 195.282 21.1191 193.865 20.8747C192.457 20.6302 191.029 20.464 189.602 20.376C188.165 20.2978 186.737 20.2978 185.3 20.376C183.873 20.464 182.445 20.6302 181.038 20.8747C179.62 21.1288 178.222 21.4515 176.853 21.8621C175.211 22.0087 173.598 22.2923 172.014 22.7127C170.42 23.1331 168.875 23.6903 167.38 24.3649C165.884 25.0493 164.447 25.851 163.088 26.77C161.719 27.689 160.448 28.7155 159.255 29.8496C158.062 30.9837 156.977 32.2058 155.99 33.5256C155.002 34.8455 154.132 36.2338 153.379 37.7002C152.627 39.157 152.001 40.6723 151.502 42.2464C151.013 43.8106 150.642 45.414 150.417 47.0369C147.631 66.7564 148.305 93.1925 170.498 97.7386C206.643 105.149 220.252 75.3599 220.252 75.3599C223.351 69.6601 224.837 63.5692 224.739 57.0873Z" fill="#F8F3E3"/>
<path d="M181.584 99.5151C177.81 99.5054 174.075 99.1045 170.38 98.3322C158.061 95.8098 144.511 84.8502 149.849 46.995C150.083 45.333 150.445 43.7101 150.944 42.1067C151.442 40.5034 152.078 38.9586 152.84 37.4726C153.603 35.9768 154.483 34.5592 155.49 33.21C156.487 31.8706 157.602 30.6192 158.814 29.4655C160.026 28.3021 161.326 27.256 162.715 26.3175C164.103 25.3789 165.56 24.5674 167.085 23.8733C168.61 23.1889 170.184 22.6219 171.807 22.2015C173.43 21.7713 175.072 21.4878 176.744 21.3411C178.524 20.8132 180.342 20.4221 182.18 20.1582C184.018 19.904 185.866 19.7769 187.723 19.7867C189.581 19.8062 191.429 19.9529 193.267 20.2364C195.105 20.5199 196.914 20.9403 198.683 21.4878C200.462 22.0451 202.193 22.7196 203.865 23.5311C205.537 24.3328 207.15 25.2616 208.685 26.2979C210.22 27.344 211.676 28.4976 213.045 29.7491C214.414 31.0102 215.685 32.3594 216.858 33.8064C218.031 35.2435 219.087 36.7687 220.035 38.372C220.984 39.9656 221.805 41.6277 222.509 43.3484C223.213 45.069 223.78 46.8386 224.22 48.6473C224.67 50.4462 224.973 52.2744 225.149 54.132C225.325 55.9798 225.354 57.8373 225.256 59.6949C225.158 61.5525 224.924 63.3905 224.552 65.2089C224.181 67.0371 223.672 68.8165 223.047 70.5665C222.411 72.3165 221.649 74.0079 220.769 75.6406C217.933 81.1742 214.111 85.8963 209.291 89.8069C203.523 94.5584 194.42 99.5151 181.584 99.5151ZM187.469 20.9207C187.293 20.9207 187.108 20.9207 186.932 20.9305C183.559 20.9794 180.244 21.478 177.008 22.4459C176.979 22.4557 176.94 22.4557 176.901 22.4655C175.288 22.6023 173.704 22.8761 172.139 23.2867C170.585 23.6973 169.06 24.2253 167.593 24.8901C166.117 25.5549 164.719 26.337 163.38 27.2462C162.04 28.1457 160.779 29.1527 159.616 30.2672C158.442 31.3817 157.377 32.5843 156.409 33.8748C155.441 35.1751 154.59 36.534 153.857 37.9712C153.124 39.4181 152.518 40.9042 152.029 42.4391C151.55 43.9838 151.198 45.5579 150.973 47.1515C145.752 84.1365 158.775 94.793 170.614 97.2274C189.034 101.001 201.401 94.8126 208.528 88.9564C213.211 85.1337 216.946 80.5387 219.732 75.1811C219.732 75.1615 219.742 75.142 219.752 75.1224C222.792 69.5106 224.259 63.5078 224.171 57.1236C224.132 54.7381 223.868 52.3722 223.379 50.0356C222.88 47.699 222.167 45.4308 221.228 43.231C220.29 41.0411 219.146 38.9489 217.806 36.974C216.457 34.9991 214.942 33.1807 213.241 31.4991C211.539 29.8175 209.692 28.3217 207.697 27.0116C205.703 25.6917 203.601 24.5772 201.391 23.668C199.182 22.7685 196.914 22.0842 194.567 21.6149C192.221 21.1554 189.855 20.9207 187.469 20.9207Z" fill="#283245"/>
<mask id="mask3_864_2491" style="mask-type:luminance" maskUnits="userSpaceOnUse" x="128" y="106" width="106" height="122">
<path d="M128.699 106.139H233.818V227.613H128.699V106.139Z" fill="white"/>
</mask>
<g mask="url(#mask3_864_2491)">
<path d="M175.331 107.717C175.331 107.717 179.154 113.525 190.094 114.052C201.044 114.58 204.075 106.485 204.075 106.485C204.075 106.485 223.52 107.835 230.335 121.229C233.004 126.479 232.73 131.582 232.554 133.928C231.43 149.395 228.36 182.831 223.52 226.963L130.319 227.061C132.803 206.794 136.831 173.885 137.437 168.929C140.731 141.935 142.306 128.893 152.913 118.804C160.295 111.775 169.113 108.978 175.331 107.717Z" fill="#5774A0"/>
</g>
<path d="M127.773 114.972C121.916 109.575 104.905 94.1475 95.0892 88.6921C93.3979 87.7633 87.5905 84.537 85.6645 86.3066C85.1855 86.7563 84.9508 87.3136 84.9704 87.9784C85.0486 88.9854 86.0849 89.5818 87.6981 90.6083C87.6981 90.6083 90.5235 92.3192 92.4789 93.8542C93.8671 94.9491 95.1479 96.1614 96.3113 97.4911C96.3113 97.4911 91.2177 101.011 90.6897 103.113C90.328 104.305 90.4453 105.449 91.0417 106.544C91.0417 106.544 88.9299 108.568 89.9858 111.032C89.9858 111.032 88.05 114.023 89.2819 116.575C90.5137 119.127 92.8406 119.254 93.8965 118.902C93.8965 118.902 98.4231 124.748 103.351 123.868L110.292 129.94C113.215 129.49 115.943 128.493 118.455 126.929C120.645 125.53 122.542 123.8 124.136 121.747C125.739 119.694 126.951 117.435 127.773 114.972Z" fill="#F8F3E3"/>
<path d="M110.28 130.435C110.143 130.435 110.016 130.386 109.909 130.298L103.163 124.403C98.6656 125.009 94.6865 120.668 93.6795 119.476C92.2325 119.759 89.9839 119.28 88.7618 116.748C87.6082 114.372 88.8791 111.733 89.3484 110.911C88.6054 108.819 89.7688 107.079 90.3456 106.385C89.8764 105.251 89.7981 104.097 90.1305 102.914C90.5998 101.008 94.0608 98.3386 95.4588 97.3219C94.4323 96.2073 93.3177 95.171 92.125 94.2325C90.2088 92.7366 87.4224 91.0453 87.3931 91.0257L87.1096 90.8497C85.5942 89.8818 84.4894 89.1877 84.3916 87.9461C84.3525 87.1053 84.6458 86.3916 85.2715 85.8148C87.266 83.9865 91.9783 86.2547 95.3513 88.1318C104.473 93.1961 119.813 106.815 128.152 114.48C128.328 114.646 128.377 114.851 128.299 115.086C127.448 117.608 126.207 119.925 124.574 122.027C122.931 124.139 120.986 125.909 118.747 127.346C116.166 128.949 113.37 129.976 110.368 130.426C110.339 130.435 110.31 130.435 110.28 130.435ZM103.339 123.23C103.476 123.23 103.603 123.279 103.71 123.377L110.456 129.262C113.213 128.812 115.775 127.854 118.151 126.378C122.433 123.631 125.415 119.867 127.106 115.066C118.747 107.392 103.72 94.076 94.794 89.1193C88.5858 85.6681 86.65 86.0885 86.0439 86.6458C85.6919 86.9782 85.516 87.379 85.516 87.8581C85.5746 88.5033 86.2688 88.9726 87.7157 89.8818L87.9895 90.0578C89.6613 91.0746 91.2646 92.1598 92.8191 93.333C94.2368 94.4475 95.5371 95.6892 96.7298 97.0481C96.8374 97.1752 96.8862 97.3219 96.8667 97.4881C96.8471 97.6543 96.7689 97.7911 96.6223 97.8889C95.2535 98.8275 91.6166 101.624 91.2255 103.188C90.9127 104.214 91.0007 105.212 91.4993 106.17C91.6753 106.424 91.6459 106.668 91.4211 106.883C91.3526 106.962 89.6124 108.673 90.4923 110.735C90.5705 110.921 90.5607 111.097 90.4532 111.273C90.4336 111.293 88.7129 114.03 89.7786 116.259C90.9225 118.625 93.0049 118.527 93.7088 118.293C93.963 118.205 94.1683 118.273 94.3345 118.488C94.3736 118.537 98.7145 124.041 103.241 123.24C103.27 123.24 103.3 123.23 103.339 123.23Z" fill="#283245"/>
<path d="M205.138 107.737C225.806 108.49 232.513 115.647 234.987 119.587C248.879 141.652 214.827 197.174 184.04 196.206C183.268 196.187 182.584 196.099 181.948 196.02C166.53 194.241 156.05 183.956 148.17 175.812C133.26 160.277 119.192 144.009 105.983 126.997L125.82 112.499L186.357 156.718C192.615 140.391 198.872 124.064 205.138 107.737Z" fill="#5774A0"/>
<mask id="mask4_864_2491" style="mask-type:luminance" maskUnits="userSpaceOnUse" x="148" y="13" width="103" height="151">
<path d="M148.722 13.5723H250.38V163.742H148.722V13.5723Z" fill="white"/>
</mask>
<g mask="url(#mask4_864_2491)">
<path d="M165.846 28.094C165.846 28.094 160.918 39.5229 170.235 45.3302L192.917 51.1277C192.917 51.1277 194.501 41.4586 197.141 39.6109C196.134 53.9727 198.304 58.47 200.885 59.4965C203.515 60.5524 206.038 57.7759 208.775 59.3792C211.874 61.1879 212.783 67.1419 210.633 70.9743C210.281 71.5902 208.912 74.0246 206.683 74.3081C204.591 74.5721 203.535 72.7439 201.99 73.0763C199.653 73.5749 198.852 78.4925 198.666 79.7342C196.261 95.5528 194.403 107.725 201.707 116.739C210.603 127.737 225.004 121.06 230.284 131.677C236.492 144.162 229.042 161.985 229.042 161.985C229.042 161.985 250.414 153.03 249.358 129.957C248.302 106.884 225.493 108.614 232.679 84.5345C239.865 60.4547 227.742 1.5602 172.093 19.295C171.565 19.2755 159.53 18.9919 153.371 28.7392C149.04 35.6122 150.545 42.8469 150.897 44.3623L165.846 28.094Z" fill="#31405B"/>
</g>
<path d="M196.181 60.0372C196.015 60.0372 195.888 59.9785 195.771 59.871C194.138 58.16 192.183 56.9966 189.905 56.3709C187.637 55.7452 185.359 55.755 183.081 56.3807C182.719 56.5078 182.484 56.3905 182.357 56.0287C182.23 55.667 182.347 55.4226 182.709 55.3053C183.931 54.9631 185.173 54.7969 186.434 54.7871C187.695 54.7871 188.947 54.9435 190.159 55.2759C191.381 55.6083 192.535 56.0972 193.63 56.7424C194.715 57.3779 195.702 58.16 196.582 59.0693C196.758 59.2453 196.797 59.4506 196.7 59.6852C196.602 59.9198 196.426 60.0372 196.181 60.0372Z" fill="#31405B"/>
<path d="M190.298 65.2337C189.496 65.1359 188.792 64.8231 188.196 64.2854C187.942 64.0899 187.678 63.9139 187.404 63.7574C186.71 63.4446 186.016 63.4544 185.331 63.7672C184.989 63.9334 184.735 63.8454 184.569 63.5033C184.403 63.1611 184.491 62.9069 184.833 62.7407C185.879 62.2616 186.915 62.2616 187.952 62.7602C188.264 62.946 188.577 63.1415 188.861 63.3664C189.897 64.129 190.357 64.3538 191.041 63.7281C191.315 63.4739 191.588 63.4935 191.843 63.777C192.097 64.0507 192.077 64.3245 191.804 64.5787C191.383 64.9893 190.885 65.2142 190.298 65.2337Z" fill="#31405B"/>
<path d="M189.671 65.8369C189.671 66.2964 189.583 66.7364 189.407 67.1665C189.231 67.5869 188.977 67.9584 188.654 68.2908C188.332 68.6135 187.96 68.8579 187.53 69.0339C187.109 69.2098 186.669 69.2978 186.21 69.2978C185.75 69.2978 185.301 69.2098 184.88 69.0339C184.46 68.8579 184.079 68.6135 183.756 68.2908C183.433 67.9584 183.179 67.5869 183.003 67.1665C182.827 66.7364 182.739 66.2964 182.739 65.8369C182.739 65.3774 182.827 64.9375 183.003 64.5073C183.179 64.0869 183.433 63.7154 183.756 63.383C184.079 63.0603 184.46 62.8159 184.88 62.6399C185.301 62.464 185.75 62.376 186.21 62.376C186.669 62.376 187.109 62.464 187.53 62.6399C187.96 62.8159 188.332 63.0603 188.654 63.383C188.977 63.7154 189.231 64.0869 189.407 64.5073C189.583 64.9375 189.671 65.3774 189.671 65.8369Z" fill="#31405B"/>
<path d="M152.81 57.0694C152.556 57.0694 152.38 56.9521 152.282 56.7077C152.194 56.4633 152.243 56.258 152.429 56.082C153.27 55.3194 154.208 54.6937 155.225 54.2049C156.252 53.716 157.327 53.3934 158.451 53.2174C159.576 53.0512 160.7 53.0512 161.824 53.2174C162.949 53.3739 164.024 53.7063 165.051 54.1853C165.393 54.3515 165.481 54.5959 165.324 54.9381C165.158 55.2803 164.914 55.3781 164.562 55.2119C163.643 54.7817 162.675 54.4884 161.658 54.3417C160.641 54.1853 159.634 54.1951 158.617 54.3417C157.61 54.4982 156.643 54.7915 155.714 55.2314C154.795 55.6714 153.954 56.2384 153.201 56.9228C153.084 57.0205 152.957 57.0694 152.81 57.0694Z" fill="#31405B"/>
<path d="M155.498 62.6471C154.785 62.6275 154.227 62.3342 153.817 61.7574C153.582 61.4641 153.602 61.2001 153.895 60.9557C154.188 60.7211 154.452 60.7406 154.697 61.0339C155.283 61.7476 155.762 61.5912 156.896 60.9948C157.219 60.8091 157.552 60.6526 157.894 60.5158C158.989 60.1834 160.015 60.33 160.973 60.9557C161.286 61.161 161.345 61.425 161.13 61.7378C160.915 62.0605 160.651 62.1094 160.338 61.8943C159.702 61.4836 159.018 61.3859 158.285 61.5814C157.991 61.6987 157.708 61.8356 157.424 61.992C156.838 62.3635 156.193 62.5884 155.498 62.6471Z" fill="#31405B"/>
<path d="M162.647 63.8076C162.647 64.2671 162.559 64.7071 162.383 65.1372C162.207 65.5576 161.953 65.9389 161.63 66.2615C161.308 66.5842 160.926 66.8384 160.506 67.0143C160.086 67.1903 159.636 67.2783 159.176 67.2783C158.717 67.2783 158.277 67.1903 157.856 67.0143C157.426 66.8384 157.055 66.5842 156.732 66.2615C156.409 65.9389 156.155 65.5576 155.979 65.1372C155.803 64.7071 155.715 64.2671 155.715 63.8076C155.715 63.3481 155.803 62.9082 155.979 62.4878C156.155 62.0576 156.409 61.6861 156.732 61.3634C157.055 61.031 157.426 60.7866 157.856 60.6106C158.277 60.4347 158.717 60.3467 159.176 60.3467C159.636 60.3467 160.086 60.4347 160.506 60.6106C160.926 60.7866 161.308 61.031 161.63 61.3634C161.953 61.6861 162.207 62.0576 162.383 62.4878C162.559 62.9082 162.647 63.3481 162.647 63.8076Z" fill="#31405B"/>
<path d="M173.572 73.6918C172.252 73.6918 169.349 73.5354 168.606 72.2449C167.804 70.837 170.366 65.0493 171.509 62.6344C171.676 62.302 171.92 62.2238 172.252 62.3802C172.585 62.5367 172.673 62.7811 172.536 63.1135C170.854 66.682 169.271 70.9739 169.593 71.6778C169.984 72.3622 172.477 72.587 174.042 72.5479C174.423 72.5284 174.628 72.7044 174.628 73.0954C174.648 73.4669 174.462 73.6625 174.081 73.682C173.973 73.682 173.797 73.6918 173.572 73.6918Z" fill="#31405B"/>
<path d="M191.347 71.9002C191.982 71.91 192.598 71.9882 193.175 72.1544C193.762 72.3206 194.28 72.5455 194.729 72.8486C195.169 73.1419 195.512 73.484 195.756 73.8751C195.991 74.2564 196.108 74.6572 196.108 75.0679C196.108 75.4883 195.981 75.8793 195.736 76.2606C195.482 76.6419 195.14 76.9743 194.681 77.2676C194.231 77.5609 193.713 77.776 193.126 77.9324C192.539 78.0791 191.924 78.1573 191.298 78.1475C190.662 78.1475 190.046 78.0595 189.46 77.8933C188.883 77.7369 188.365 77.5022 187.915 77.2089C187.475 76.9059 187.133 76.5637 186.889 76.1824C186.654 75.8011 186.537 75.4003 186.537 74.9799C186.537 74.5693 186.664 74.1684 186.908 73.7871C187.162 73.4058 187.505 73.0734 187.954 72.7899C188.414 72.4966 188.932 72.2717 189.519 72.1251C190.105 71.9687 190.711 71.8905 191.347 71.9002Z" fill="#5774A0"/>
<path d="M156.298 70.6924C156.934 70.7022 157.54 70.7901 158.127 70.9466C158.713 71.1128 159.231 71.3474 159.671 71.6407C160.121 71.934 160.463 72.2762 160.698 72.6673C160.942 73.0486 161.06 73.4494 161.05 73.86C161.05 74.2804 160.923 74.6715 160.678 75.0528C160.434 75.4341 160.082 75.7762 159.632 76.0598C159.183 76.3531 158.664 76.5681 158.078 76.7246C157.481 76.881 156.875 76.9494 156.24 76.9494C155.604 76.9397 154.998 76.8517 154.412 76.6952C153.825 76.529 153.307 76.2944 152.867 76.0011C152.417 75.698 152.075 75.3558 151.84 74.9746C151.596 74.5933 151.479 74.1924 151.488 73.772C151.488 73.3614 151.615 72.9606 151.86 72.5793C152.104 72.198 152.456 71.8656 152.906 71.5821C153.356 71.2888 153.874 71.0737 154.46 70.9172C155.057 70.7608 155.663 70.6924 156.298 70.6924Z" fill="#5774A0"/>
<path d="M174.517 86.9876C174.468 86.9876 174.429 86.9876 174.39 86.9778C174.019 86.8898 173.872 86.665 173.96 86.2934C173.999 86.137 174.859 82.4806 177.343 81.0434C178.486 80.3786 179.689 80.271 180.94 80.7012C181.312 80.799 181.449 81.0434 181.331 81.4149C181.224 81.7864 180.98 81.9037 180.608 81.7864C179.679 81.454 178.78 81.5322 177.91 82.021C175.857 83.2138 175.074 86.5183 175.065 86.5476C174.996 86.8409 174.82 86.9876 174.517 86.9876Z" fill="#31405B"/>
<path d="M190.098 178.086C189.902 178.086 189.755 178.007 189.638 177.851C189.531 177.685 189.501 177.519 189.56 177.333C192.405 168.993 184.153 160.947 184.075 160.869L142.055 125.028C141.762 124.783 141.742 124.51 141.987 124.226C142.241 123.943 142.505 123.913 142.788 124.158L184.838 160.028C186.431 161.632 187.79 163.43 188.905 165.415C191.32 169.697 191.916 173.95 190.635 177.704C190.547 177.958 190.371 178.086 190.098 178.086Z" fill="#F8F3E3"/>
<path d="M184.461 161.062C184.217 161.062 184.051 160.954 183.943 160.73C183.845 160.515 183.875 160.309 184.021 160.133L208.463 130.93C208.561 130.803 208.688 130.735 208.854 130.715C209.011 130.706 209.147 130.745 209.275 130.852C209.402 130.95 209.46 131.087 209.48 131.243C209.49 131.4 209.441 131.546 209.333 131.664L184.892 160.857C184.784 160.994 184.637 161.062 184.461 161.062Z" fill="#F8F3E3"/>
<path d="M183.995 199.553C183.125 199.553 182.264 199.494 181.404 199.357C163.659 196.542 131.259 158.383 129.89 156.76C129.656 156.467 129.675 156.203 129.959 155.969C130.242 155.724 130.506 155.744 130.751 156.027C130.839 156.125 139.217 166.029 149.659 176.138C163.405 189.463 174.443 197.099 181.58 198.233C190.535 199.651 201.651 192.455 209.404 186.169C214.732 181.798 219.709 177.047 224.314 171.914C224.411 171.787 224.548 171.719 224.705 171.709C224.861 171.689 225.008 171.738 225.125 171.846C225.242 171.953 225.311 172.08 225.321 172.247C225.33 172.403 225.282 172.54 225.164 172.657C224.167 173.811 201.563 199.553 183.995 199.553Z" fill="#F8F3E3"/>
<mask id="mask5_864_2491" style="mask-type:luminance" maskUnits="userSpaceOnUse" x="128" y="166" width="14" height="62">
<path d="M128.684 166.174H141.198V227.581H128.684V166.174Z" fill="white"/>
</mask>
<g mask="url(#mask5_864_2491)">
<path d="M130.31 227.587C130.134 227.587 129.997 227.518 129.88 227.382C129.763 227.255 129.724 227.098 129.753 226.932L138.875 167.637C138.933 167.265 139.148 167.109 139.52 167.167C139.882 167.226 140.038 167.431 139.999 167.803L130.877 227.108C130.828 227.421 130.633 227.587 130.31 227.587Z" fill="#F8F3E3"/>
</g>
<path d="M152.809 37.4871C152.613 37.4871 152.457 37.4088 152.35 37.2426C152.232 37.0862 152.213 36.9102 152.281 36.7245C153.044 34.7985 154.031 32.9996 155.234 31.318C157.873 27.5833 161.139 25.1294 164.668 24.2299C165.04 24.1419 165.264 24.2788 165.362 24.6405C165.45 25.0121 165.313 25.2467 164.952 25.3347C157.033 27.3487 153.386 37.0178 153.347 37.1155C153.259 37.36 153.073 37.4871 152.809 37.4871Z" fill="#F8F3E3"/>
<path d="M180.772 46.0848C180.694 46.0848 180.626 46.0751 180.547 46.036C171.035 41.9591 172.413 29.2202 172.433 29.0931C172.472 28.7118 172.677 28.5456 173.068 28.5847C173.449 28.6336 173.616 28.8486 173.557 29.2299C173.547 29.3473 172.266 41.2552 180.997 44.9996C181.281 45.117 181.388 45.332 181.329 45.6351C181.271 45.9382 181.085 46.0848 180.772 46.0848Z" fill="#F8F3E3"/>
<path d="M189.536 46.0342C189.477 46.0342 189.418 46.0245 189.36 46.0049C186.046 44.8708 183.406 42.1138 181.734 38.0272C180.971 36.1598 180.453 34.2143 180.199 32.2003C180.17 31.8288 180.336 31.6137 180.707 31.5746C181.089 31.5453 181.294 31.7115 181.333 32.083C181.343 32.1905 182.458 42.4364 189.722 44.9295C190.025 45.037 190.152 45.2423 190.103 45.5552C190.044 45.8778 189.858 46.0342 189.546 46.0342H189.536Z" fill="#F8F3E3"/>
<path d="M216.11 117.678C216.041 117.678 215.983 117.669 215.914 117.649C197.994 111.226 203.625 81.2212 203.684 80.9182C203.752 80.5467 203.977 80.4 204.349 80.4684C204.72 80.5467 204.867 80.7617 204.798 81.1333C204.74 81.4266 199.294 110.483 216.296 116.583C216.599 116.691 216.726 116.896 216.667 117.209C216.618 117.522 216.423 117.678 216.11 117.678Z" fill="#F8F3E3"/>
<path d="M238.171 143.089C237.976 143.089 237.82 143.011 237.712 142.845C237.595 142.688 237.575 142.512 237.634 142.327C237.702 142.16 243.461 125.217 229.988 117.631C215.871 109.692 212.166 95.4672 212.126 95.3205C212.038 94.9588 212.175 94.7242 212.537 94.6362C212.899 94.5482 213.133 94.6851 213.221 95.0468C213.261 95.1837 216.868 108.949 230.536 116.643C244.849 124.699 238.768 142.532 238.709 142.708C238.621 142.962 238.445 143.089 238.171 143.089Z" fill="#F8F3E3"/>
<path d="M157.306 108.976C157.022 108.976 156.846 108.849 156.758 108.585C156.68 108.312 156.748 108.106 156.973 107.95C161.402 104.88 160.874 96.257 160.864 96.169C160.845 95.7975 161.021 95.5922 161.392 95.5726C161.549 95.5531 161.686 95.6019 161.813 95.6997C161.93 95.8072 161.989 95.9343 161.998 96.1005C162.028 96.4721 162.575 105.447 157.628 108.879C157.531 108.947 157.423 108.976 157.306 108.976Z" fill="#F8F3E3"/>
<path d="M94.339 99.5349C94.0751 99.5349 93.8991 99.4176 93.8111 99.1732C93.7133 98.9287 93.7622 98.7234 93.9577 98.5474C94.1044 98.4203 97.4969 95.4678 101.789 97.0125C102.16 97.1396 102.278 97.384 102.151 97.7458C102.014 98.1075 101.769 98.2248 101.408 98.0782C97.7511 96.7583 94.7497 99.3687 94.7203 99.398C94.6128 99.4958 94.4857 99.5447 94.339 99.5349Z" fill="#31405B"/>
<path d="M91.0419 107.114C90.7681 107.114 90.5921 106.977 90.5041 106.723C90.4161 106.459 90.4846 106.253 90.6997 106.087C91.0516 105.833 94.1508 103.545 95.8031 103.203C97.514 102.851 100.691 103.77 100.828 103.809C101.2 103.907 101.327 104.142 101.219 104.513C101.112 104.885 100.877 105.012 100.506 104.895C99.6649 104.65 97.2207 104.073 96.0377 104.318C94.845 104.562 92.2737 106.341 91.384 106.997C91.2765 107.075 91.169 107.114 91.0419 107.114Z" fill="#31405B"/>
<path d="M89.9732 111.532C89.6506 111.532 89.4648 111.376 89.4159 111.053C89.3671 110.74 89.4942 110.525 89.7972 110.427C89.9439 110.379 93.5613 109.186 95.3797 109.401C96.6996 109.596 97.9803 109.948 99.222 110.437C99.5641 110.584 99.6717 110.828 99.525 111.18C99.3882 111.522 99.1437 111.63 98.7918 111.493C97.6479 111.034 96.4649 110.721 95.2526 110.525C93.9523 110.379 91.1269 111.18 90.1492 111.503C90.0905 111.522 90.0319 111.532 89.9732 111.532Z" fill="#31405B"/>
<path d="M93.8934 119.406C93.6392 119.406 93.473 119.289 93.3752 119.054C93.2775 118.82 93.3166 118.614 93.5023 118.438L94.1476 117.793C94.4115 117.529 94.5484 117.216 94.568 116.835C94.5778 116.463 94.4702 116.141 94.2258 115.857L93.4632 114.958C93.2188 114.664 93.2383 114.4 93.5316 114.156C93.8152 113.912 94.0889 113.931 94.3333 114.215L95.0959 115.114C95.5261 115.632 95.7216 116.219 95.6923 116.884C95.663 117.558 95.4185 118.125 94.9493 118.595L94.2942 119.24C94.1867 119.357 94.0498 119.406 93.8934 119.406Z" fill="#31405B"/>
<path d="M204.609 71.5658C204.316 71.5658 204.14 71.4289 204.062 71.1552C203.983 70.8814 204.062 70.6664 204.296 70.5197C204.912 70.1286 205.362 69.6007 205.626 68.9261C205.9 68.2515 205.948 67.5672 205.772 66.8535C205.597 66.1496 205.225 65.563 204.668 65.1035C204.12 64.6342 203.475 64.3702 202.751 64.3213C202.409 64.3018 202.233 64.116 202.224 63.7738C202.214 63.4317 202.38 63.2361 202.722 63.197L208.969 62.3758C209.351 62.3171 209.566 62.4833 209.615 62.8548C209.664 63.2361 209.497 63.4512 209.116 63.5001L205.117 64.028C205.421 64.2333 205.684 64.4778 205.929 64.7613C206.164 65.0448 206.369 65.3479 206.535 65.6803C206.701 66.0029 206.819 66.3549 206.907 66.7068C206.985 67.0686 207.014 67.4401 207.004 67.8018C206.995 68.1733 206.946 68.5351 206.838 68.887C206.74 69.2487 206.604 69.5812 206.418 69.9038C206.232 70.2264 206.017 70.5197 205.763 70.7837C205.509 71.0476 205.225 71.2823 204.912 71.4778C204.814 71.5365 204.717 71.5658 204.609 71.5658Z" fill="#31405B"/>
</svg>
