<svg width="35" height="36" viewBox="0 0 35 36" fill="none" xmlns="http://www.w3.org/2000/svg">
<path d="M13.6159 16.1038C12.0777 16.1038 10.5741 15.6477 9.29521 14.7932C8.01628 13.9386 7.01948 12.724 6.43086 11.303C5.84224 9.8819 5.68823 8.3182 5.9883 6.8096C6.28838 5.30101 7.02907 3.91528 8.1167 2.82764C9.20434 1.74001 10.5901 0.999319 12.0987 0.699241C13.6073 0.399163 15.171 0.553174 16.592 1.1418C18.0131 1.73042 19.2277 2.72722 20.0822 4.00615C20.9368 5.28507 21.3929 6.78868 21.3929 8.32682C21.3929 10.3894 20.5735 12.3675 19.1151 13.826C17.6566 15.2845 15.6785 16.1038 13.6159 16.1038ZM13.6159 4.43832C12.8468 4.43832 12.095 4.66637 11.4555 5.09365C10.8161 5.52092 10.3177 6.12822 10.0234 6.83876C9.72906 7.54929 9.65206 8.33114 9.80209 9.08543C9.95213 9.83973 10.3225 10.5326 10.8663 11.0764C11.4101 11.6202 12.103 11.9906 12.8573 12.1406C13.6116 12.2907 14.3934 12.2136 15.104 11.9193C15.8145 11.625 16.4218 11.1266 16.8491 10.4872C17.2763 9.8477 17.5044 9.0959 17.5044 8.32682C17.5044 7.29553 17.0947 6.30647 16.3655 5.57723C15.6362 4.848 14.6472 4.43832 13.6159 4.43832Z" fill="#F8F3E3"/>
<path d="M1.94425 35.5483C1.42861 35.5483 0.934077 35.3435 0.569459 34.9789C0.20484 34.6142 0 34.1197 0 33.6041V27.7713C0.0030872 25.194 1.02828 22.7232 2.8507 20.9007C4.67313 19.0783 7.14397 18.0531 9.72127 18.05H17.4983C18.333 18.0441 19.1646 18.1534 19.9694 18.3747C20.466 18.5145 20.8867 18.8457 21.139 19.2957C21.3913 19.7456 21.4546 20.2774 21.3148 20.7739C21.1751 21.2705 20.8438 21.6912 20.3939 21.9435C19.944 22.1959 19.4122 22.2591 18.9156 22.1194C18.454 21.9931 17.9769 21.9323 17.4983 21.9385H9.72127C8.17432 21.9385 6.69074 22.5531 5.59688 23.6469C4.50303 24.7408 3.88851 26.2244 3.88851 27.7713V33.6041C3.88851 34.1197 3.68367 34.6142 3.31905 34.9789C2.95443 35.3435 2.4599 35.5483 1.94425 35.5483Z" fill="#F8F3E3"/>
<path d="M27.2224 35.5467C26.7068 35.5466 26.2123 35.3417 25.8478 34.9771L20.0151 29.1443C19.6506 28.7797 19.4458 28.2853 19.4458 27.7697C19.4458 27.2542 19.6506 26.7597 20.0151 26.3951L25.8478 20.5624C26.2145 20.2082 26.7056 20.0122 27.2154 20.0167C27.7252 20.0211 28.2128 20.2256 28.5733 20.5861C28.9338 20.9465 29.1383 21.4342 29.1427 21.944C29.1471 22.4537 28.9511 22.9449 28.597 23.3116L24.1388 27.7697L28.597 32.2279C28.8688 32.4998 29.0539 32.8462 29.1289 33.2233C29.2039 33.6004 29.1654 33.9913 29.0183 34.3465C28.8711 34.7017 28.622 35.0053 28.3023 35.2189C27.9827 35.4326 27.6069 35.5467 27.2224 35.5467Z" fill="#F8F3E3"/>
<path d="M33.0556 29.7127H21.3901C20.8744 29.7127 20.3799 29.5079 20.0153 29.1433C19.6506 28.7787 19.4458 28.2841 19.4458 27.7685C19.4458 27.2528 19.6506 26.7583 20.0153 26.3937C20.3799 26.0291 20.8744 25.8242 21.3901 25.8242H33.0556C33.5712 25.8242 34.0658 26.0291 34.4304 26.3937C34.795 26.7583 34.9998 27.2528 34.9998 27.7685C34.9998 28.2841 34.795 28.7787 34.4304 29.1433C34.0658 29.5079 33.5712 29.7127 33.0556 29.7127Z" fill="#F8F3E3"/>
</svg>
