<svg width="301" height="201" viewBox="0 0 301 201" fill="none" xmlns="http://www.w3.org/2000/svg">
<path d="M283.808 21.8955H98.9951C93.7555 21.8955 89.5107 26.1038 89.5107 31.2913V166.724C89.5107 171.911 93.7555 176.119 98.9951 176.119H293.287V31.2913C293.287 26.1038 289.042 21.8955 283.808 21.8955Z" fill="#D0D8E7"/>
<path d="M98.9945 22.1348C93.8955 22.1348 89.7497 26.2441 89.7497 31.291V166.723C89.7497 171.77 93.8955 175.88 98.9945 175.88H293.047V31.291C293.047 26.2441 288.901 22.1348 283.807 22.1348H98.9945ZM293.286 176.364H98.9945C93.6299 176.364 89.2705 172.036 89.2705 166.723V31.291C89.2705 25.9785 93.6299 21.6504 98.9945 21.6504H283.807C289.166 21.6504 293.531 25.9785 293.531 31.291V176.119C293.531 176.255 293.422 176.364 293.286 176.364Z" fill="black"/>
<path d="M257.688 28.3906H244.287C244.151 28.3906 244.042 28.2813 244.042 28.1458C244.042 28.0156 244.151 27.9062 244.287 27.9062H257.688C257.818 27.9062 257.927 28.0156 257.927 28.1458C257.927 28.2813 257.818 28.3906 257.688 28.3906Z" fill="black"/>
<path d="M96.6195 59.4896C96.4893 59.4896 96.3799 59.3802 96.3799 59.25V33.5469C96.3799 30.4375 98.932 27.9062 102.067 27.9062H150.432C150.567 27.9062 150.672 28.0156 150.672 28.1458C150.672 28.2813 150.567 28.3906 150.432 28.3906H102.067C99.1976 28.3906 96.859 30.7031 96.859 33.5469V59.25C96.859 59.3802 96.7549 59.4896 96.6195 59.4896Z" fill="black"/>
<path d="M51.5781 191.02C43.5781 191.02 37.0938 184.588 37.0938 176.656V175.916H293.286V176.656C293.286 184.588 286.802 191.02 278.802 191.02H51.5781Z" fill="#D0D8E7"/>
<path d="M272.318 176.161H269.177C269.047 176.161 268.938 176.052 268.938 175.916C268.938 175.786 269.047 175.677 269.177 175.677H272.318C272.453 175.677 272.563 175.786 272.563 175.916C272.563 176.052 272.453 176.161 272.318 176.161Z" fill="black"/>
<path d="M278.802 191.26H51.5778C43.458 191.26 36.8486 184.708 36.8486 176.656V175.916C36.8486 175.786 36.958 175.677 37.0934 175.677H200.661C200.797 175.677 200.906 175.786 200.906 175.916C200.906 176.052 200.797 176.161 200.661 176.161H37.333V176.656C37.333 184.442 43.7236 190.776 51.5778 190.776H278.802C286.656 190.776 293.047 184.442 293.047 176.656V176.161H272.317C272.182 176.161 272.078 176.052 272.078 175.916C272.078 175.786 272.182 175.677 272.317 175.677H293.286C293.422 175.677 293.531 175.786 293.531 175.916V176.656C293.531 184.708 286.922 191.26 278.802 191.26Z" fill="black"/>
<path d="M198.495 167.781H124.667C124.531 167.781 124.422 167.672 124.422 167.542C124.422 167.406 124.531 167.297 124.667 167.297H198.495C198.625 167.297 198.734 167.406 198.734 167.542C198.734 167.672 198.625 167.781 198.495 167.781Z" fill="black"/>
<path d="M280.016 167.781H272.318C272.182 167.781 272.078 167.672 272.078 167.541C272.078 167.406 272.182 167.297 272.318 167.297H280.016C283.286 167.297 285.953 164.661 285.953 161.416V53.4528C285.953 53.3174 286.063 53.208 286.193 53.208C286.328 53.208 286.438 53.3174 286.438 53.4528V161.416C286.438 164.927 283.557 167.781 280.016 167.781Z" fill="black"/>
<path d="M38.6406 44.5723L41.3906 68.0618L39.5156 68.6816C39.5156 68.6816 47.4896 80.9889 59.2344 79.7962C70.9844 78.5983 66.2969 65.9681 66.2969 65.9681L60.3385 65.6921L58.1563 60.4056L56.2135 45.9733L38.6406 44.5723Z" fill="#D0D8E7"/>
<path d="M41.3903 68.3014C41.2705 68.3014 41.1663 68.2129 41.1507 68.0879L38.4007 44.5983C38.3903 44.5306 38.4163 44.4577 38.4684 44.4056C38.5153 44.3535 38.5882 44.3275 38.6611 44.3327L56.234 45.7337C56.3434 45.7441 56.4372 45.8275 56.4528 45.9369L59.1403 64.7389C59.1559 64.8744 59.0674 64.9941 58.932 65.015C58.8017 65.0358 58.6767 64.9421 58.6611 64.8066L55.9997 46.1973L38.9163 44.8379L41.6299 68.0358C41.6455 68.166 41.5517 68.2858 41.4163 68.3014C41.4059 68.3014 41.4007 68.3014 41.3903 68.3014Z" fill="black"/>
<path d="M62.5156 23.8801C64.4478 22.0676 65.776 19.5311 65.7916 16.8801C65.8124 13.703 63.9114 10.6926 61.2603 8.94255C58.6145 7.19776 55.3124 6.62484 52.151 6.88005C48.9895 7.14047 45.9426 8.18214 43.0364 9.45818C40.1197 10.7394 37.2656 12.2967 34.9843 14.5311C32.7083 16.7603 31.0312 19.7446 30.8801 22.9321C29.3749 22.7811 28.0937 24.0103 27.2812 25.2863C25.0156 28.8488 24.6406 33.5467 26.3124 37.4217C27.9843 41.2967 31.651 44.2446 35.7916 45.0311C40.6301 45.953 45.7343 43.9686 49.2812 40.5467C52.1718 37.7551 54.1041 34.1092 55.2812 30.2915C55.8437 28.479 55.6822 27.5884 57.526 26.8696C59.3489 26.1561 61.0728 25.2342 62.5156 23.8801Z" fill="black"/>
<path d="M37.307 40.7761C37.182 40.7605 37.0622 40.7032 36.9841 40.6042C36.1455 39.5261 34.1455 39.448 33.0205 40.2397C31.8434 41.0626 31.3226 42.5886 31.3539 44.0209C31.4007 45.9584 32.4059 47.8959 34.0726 48.8751C35.6351 49.7969 37.7445 49.7605 39.1976 48.7084C39.3799 48.5782 39.6247 48.5782 39.8018 48.7136C43.2341 51.2709 47.6143 52.5261 51.8695 52.1511C54.3382 51.9376 56.8747 51.1199 58.5362 49.2761C59.6924 47.9949 60.333 46.3022 60.583 44.5938C60.8278 42.8803 60.708 41.1355 60.4945 39.4167C59.8747 34.4688 58.4945 29.6147 56.4059 25.0834C56.0726 24.3542 55.7028 23.6094 55.1091 23.0626C54.2757 22.2917 53.1039 22.0105 51.9789 21.8594C49.4007 21.5157 46.7184 21.7344 44.3278 22.7501C41.9372 23.7657 39.8643 25.6251 38.8382 28.0157C37.8539 30.3074 37.8747 32.9219 38.3851 35.3646C38.9007 37.8386 40.1143 40.4324 42.4372 41.4272L37.307 40.7761Z" fill="#D0D8E7"/>
<path d="M49.7345 21.9532C47.8231 21.9532 46.0158 22.2917 44.422 22.974C41.9689 24.0157 40.0158 25.8855 39.0574 28.1095C38.2033 30.1042 38.0522 32.5938 38.6199 35.3178C38.9845 37.0417 39.9689 40.1042 42.5314 41.2084C44.7606 42.1667 47.2241 41.2292 48.4949 40.5834C49.5366 40.0522 50.5314 39.3803 51.4897 38.724C52.2658 38.198 53.0678 37.6511 53.9012 37.1772C55.5626 36.2345 57.5418 35.3438 59.6616 35.8178C58.922 32.1563 57.7553 28.5938 56.1876 25.1876C55.8543 24.4532 55.5053 23.7553 54.9481 23.2397C54.1147 22.474 52.9064 22.224 51.9429 22.099C51.1981 22.0001 50.4585 21.9532 49.7345 21.9532ZM50.3856 52.4584C46.4897 52.4584 42.5991 51.1563 39.5001 48.7865C37.9949 49.9792 35.6981 50.1147 33.9533 49.0834C32.2762 48.099 31.1616 46.1147 31.1147 44.0261C31.0783 42.3334 31.7345 40.8438 32.8803 40.0417C34.1772 39.1355 36.3387 39.3334 37.5158 40.4636C37.6095 40.5574 37.6095 40.7084 37.521 40.8074C37.4272 40.9011 37.2762 40.9063 37.1772 40.8126C36.1564 39.8282 34.2814 39.6511 33.1616 40.4376C32.1616 41.1355 31.5626 42.5053 31.5991 44.0157C31.6408 45.9376 32.6616 47.7657 34.1981 48.6667C35.8283 49.6303 37.9897 49.474 39.3335 48.2917C39.422 48.2188 39.5522 48.2136 39.6408 48.2865C43.0678 50.9688 47.521 52.2865 51.8491 51.9115C53.8231 51.7397 56.5574 51.1147 58.3595 49.1147C59.3908 47.9688 60.0783 46.3907 60.3439 44.5574C60.5991 42.7605 60.4428 40.9688 60.2553 39.448C60.1251 38.4063 59.9585 37.3699 59.7658 36.3386C57.7293 35.797 55.8595 36.6251 54.1408 37.599C53.3231 38.0626 52.5262 38.6042 51.7606 39.1251C50.7866 39.7865 49.7814 40.4688 48.7137 41.0157C47.3647 41.698 44.7501 42.6876 42.3439 41.6511C39.5783 40.4636 38.5262 37.2345 38.146 35.4167C37.5574 32.5938 37.7189 30.0053 38.6147 27.9167C39.6199 25.5834 41.6668 23.6199 44.2345 22.5261C46.5106 21.5574 49.1981 21.2449 52.0106 21.6199C53.0418 21.7553 54.3439 22.0261 55.2762 22.8855C55.896 23.4636 56.2866 24.2397 56.6303 24.9845C58.7293 29.5522 60.1095 34.3959 60.7345 39.3855C60.9272 40.9376 61.0887 42.7761 60.8231 44.6251C60.5418 46.5574 59.8126 48.2188 58.7189 49.4376C56.8126 51.5522 53.9533 52.2136 51.8908 52.3907C51.3908 52.4376 50.8908 52.4584 50.3856 52.4584Z" fill="black"/>
<path d="M35.5053 45.9375C35.4323 45.9375 35.3594 45.9011 35.3125 45.8386C35.2344 45.7292 35.2553 45.5782 35.3646 45.5C36.4271 44.7292 37.8907 44.573 39.0886 45.1042C39.2084 45.1615 39.2657 45.3021 39.2084 45.4219C39.1563 45.5469 39.0105 45.599 38.8907 45.5469C37.849 45.0834 36.573 45.2188 35.6511 45.8907C35.6042 45.9219 35.5573 45.9375 35.5053 45.9375Z" fill="black"/>
<path d="M39.4948 48.4733C42.9635 51.1921 47.4792 52.5358 51.8698 52.1504C54.3385 51.9369 56.875 51.1192 58.5365 49.2754C59.6927 47.9942 60.3333 46.3015 60.5833 44.5931C60.8281 42.8796 60.7083 41.1348 60.4948 39.416C60.3542 38.2858 60.1719 37.166 59.9531 36.0462C59.9531 36.0462 58.1979 35.6452 57.1875 36.0671C56.1771 36.489 54.5365 36.9629 52.7031 38.2025C50.8646 39.4369 49.1354 40.9942 46.5521 41.5879C43.9688 42.1817 42.1927 41.3119 42.1927 41.3119L36.9375 40.5983C36.9375 40.5983 38.5469 41.916 39.3698 44.3535C39.9427 46.0619 39.4948 48.4733 39.4948 48.4733Z" fill="black"/>
<path d="M19.5625 141.135L35.1771 176.969L107.266 160.802L98.7292 114.984L19.5625 141.135Z" fill="#5774A0"/>
<path d="M19.8857 141.281L35.318 176.693L106.985 160.615L98.542 115.302L19.8857 141.281ZM35.1774 177.214C35.0837 177.214 34.9951 177.156 34.9535 177.068L19.3389 141.229C19.3128 141.167 19.3128 141.099 19.3389 141.037C19.3701 140.974 19.4222 140.927 19.4847 140.906L98.6566 114.755C98.7191 114.735 98.792 114.74 98.8545 114.776C98.9118 114.813 98.9535 114.875 98.9691 114.943L107.506 160.755C107.526 160.886 107.448 161.005 107.318 161.037L35.2295 177.203C35.2139 177.208 35.193 177.214 35.1774 177.214Z" fill="black"/>
<path d="M166.589 100.39C177.469 88.3586 180.021 72.9419 180.261 56.494C180.271 55.8117 179.401 48.0513 177.537 47.2283C175.781 46.4523 174.682 50.3898 173.235 51.645C166.959 57.0929 156.584 70.7856 156.584 70.7856C156.584 70.7856 153.417 76.4992 150.771 79.8586C148.755 82.4263 164.266 102.963 166.589 100.39Z" fill="#D0D8E7"/>
<path d="M166.589 100.635C166.532 100.635 166.48 100.614 166.433 100.578C166.329 100.494 166.313 100.343 166.401 100.239C176.563 87.9319 180.454 75.4684 179.834 57.2131C179.719 53.7027 178.969 49.7756 178.276 47.4423C178.24 47.3121 178.313 47.1819 178.438 47.1402C178.568 47.1038 178.704 47.1767 178.74 47.3069C179.438 49.6663 180.198 53.6454 180.318 57.1975C180.943 75.5777 177.016 88.1402 166.771 100.546C166.724 100.604 166.657 100.635 166.589 100.635Z" fill="black"/>
<path d="M154.109 73.1979C151.182 81.9896 141.917 90.0208 128.193 89.2865C119.63 88.8281 107 81.3438 98.4427 73.9219C92.4427 68.7188 84.7657 65.8542 76.8229 65.8021L60.3386 65.6927L58.4323 61.1823L55.8594 65.0208L53.3229 62.375L40.3438 59.125L37.6615 66.6146C37.6615 66.6146 24.2188 66.6458 10.8073 73.6458C-6.43747 82.6458 1.46878 107.786 6.43753 118.188C11.4375 128.651 25.3177 161.219 53.1979 158.042C81.0834 154.865 94.5261 125.182 94.5261 125.182L97.3125 116.943L111.646 116.036C132.771 122.094 153.563 116.484 166.589 100.391L154.109 73.1979Z" fill="#5774A0"/>
<path d="M49.4483 158.5C39.4535 158.5 30.2869 153.854 22.1514 144.656C14.6462 136.177 9.85457 125.995 6.98998 119.911C6.71394 119.328 6.45873 118.786 6.22436 118.291C4.90665 115.541 0.578523 105.76 0.0524821 95.4008C-0.483977 84.7915 3.09415 77.4009 10.6983 73.4321C23.1931 66.9061 35.8806 66.4113 37.49 66.3748L40.115 59.0415C40.1567 58.9269 40.2817 58.8592 40.4014 58.8904L53.3858 62.1404C53.4275 62.1561 53.4691 62.1769 53.5004 62.2081L55.8285 64.6352L58.2296 61.0467C58.2816 60.9738 58.365 60.9321 58.4535 60.9425C58.5421 60.9529 58.6202 61.005 58.6566 61.0883L60.5004 65.4529L76.8285 65.5623C84.8494 65.6144 92.5785 68.5206 98.5994 73.7394C106.724 80.7863 119.454 88.5779 128.204 89.0467C142.032 89.7863 151.063 81.5831 153.881 73.1196C153.922 72.9946 154.058 72.9269 154.188 72.9686C154.313 73.0102 154.381 73.1456 154.339 73.2759C151.464 81.9061 142.261 90.2811 128.177 89.5311C119.313 89.0571 106.469 81.2029 98.2869 74.104C92.3494 68.9581 84.7296 66.0988 76.8233 66.0467L60.3389 65.9373C60.2452 65.9373 60.1566 65.88 60.1202 65.7915L58.3858 61.6873L56.0629 65.1561C56.0212 65.2133 55.9535 65.255 55.8806 65.2602C55.8077 65.2654 55.7348 65.2394 55.6879 65.1873L53.1983 62.5936L40.4952 59.4113L37.891 66.6977C37.8546 66.7915 37.766 66.854 37.6619 66.854C37.5317 66.854 24.1202 66.9686 10.9223 73.8592C3.5004 77.729 0.00560776 84.9738 0.536857 95.38C1.05769 105.646 5.35457 115.354 6.65665 118.083C6.89623 118.578 7.15144 119.12 7.42748 119.708C13.2191 132.005 26.7816 160.807 53.1723 157.802C67.5004 156.172 77.9223 147.364 84.141 140.26C90.8858 132.562 94.2764 125.156 94.3077 125.083L97.0837 116.864C97.115 116.771 97.1983 116.708 97.2973 116.703L111.631 115.791C111.662 115.791 111.688 115.791 111.714 115.802C133.105 121.937 153.542 116.12 166.401 100.239C166.48 100.135 166.636 100.12 166.74 100.208C166.844 100.291 166.86 100.443 166.776 100.547C160.391 108.432 151.901 114.036 142.219 116.75C132.657 119.432 122.079 119.271 111.62 116.276L97.49 117.172L94.7556 125.26C94.7139 125.354 91.2921 132.828 84.5004 140.583C78.2244 147.745 67.7087 156.63 53.2296 158.281C51.9535 158.427 50.6931 158.5 49.4483 158.5Z" fill="black"/>
<path d="M52.229 72.5152C52.2134 72.5152 52.1978 72.51 52.1822 72.51C47.4582 71.5673 42.8645 70.0204 38.5363 67.911C38.4165 67.8538 38.3645 67.7079 38.4218 67.5881C38.4843 67.4683 38.6249 67.4163 38.7499 67.4788C42.9738 69.536 47.4478 71.0517 52.052 71.9892L52.8072 68.9944C52.8436 68.8642 52.9738 68.786 53.104 68.8173C53.229 68.8485 53.3124 68.984 53.2759 69.109L52.4634 72.3329C52.4374 72.4371 52.3384 72.5152 52.229 72.5152Z" fill="black"/>
<path d="M58.6873 70.4895C58.6405 70.4895 58.5988 70.4739 58.5571 70.4531C58.4478 70.3802 58.4113 70.2291 58.4842 70.1197L60.3748 67.0885C60.4426 66.9739 60.5936 66.9374 60.7082 67.0104C60.8176 67.0781 60.854 67.2291 60.7863 67.3437L58.8905 70.3749C58.8436 70.4479 58.7655 70.4895 58.6873 70.4895Z" fill="black"/>
<path d="M70.8545 108.531L57.9743 70.1299L57.4587 66.0049L55.9639 66.2549L53.8857 66.6038L55.3649 70.833L65.3232 112.739L70.8545 108.531Z" fill="#004AAD"/>
<path d="M48.9118 126.427C48.8336 126.427 48.7555 126.385 48.7086 126.313L34.3961 104.099C33.3961 102.552 33.0941 100.641 33.568 98.8594C33.5993 98.7344 33.7295 98.6563 33.8597 98.6876C33.9899 98.724 34.068 98.8542 34.0316 98.9844C33.5993 100.635 33.8753 102.401 34.8024 103.833L49.1149 126.052C49.1878 126.167 49.1566 126.313 49.0472 126.385C49.0055 126.412 48.9586 126.427 48.9118 126.427Z" fill="black"/>
<path d="M46.7295 128.463C46.7295 128.463 66.1514 110.145 80.0264 103.604L46.7295 128.463Z" fill="#D0D8E7"/>
<path d="M46.7286 128.702C46.6661 128.702 46.6036 128.676 46.5516 128.629C46.463 128.53 46.4682 128.379 46.562 128.286C46.7599 128.103 66.1713 109.869 79.9213 103.385C80.0463 103.327 80.187 103.379 80.2443 103.499C80.3016 103.619 80.2495 103.765 80.1297 103.822C66.4474 110.275 47.088 128.452 46.8953 128.64C46.8484 128.682 46.7911 128.702 46.7286 128.702Z" fill="black"/>
<path d="M86.5363 135.328C86.4894 135.328 86.4373 135.312 86.3905 135.281C78.4894 129.354 73.1457 120.344 71.7342 110.557C71.7186 110.427 71.8071 110.302 71.9425 110.281C72.0727 110.265 72.1977 110.354 72.2134 110.489C73.6092 120.151 78.88 129.047 86.6821 134.896C86.7915 134.974 86.8123 135.125 86.729 135.234C86.6821 135.297 86.6144 135.328 86.5363 135.328Z" fill="black"/>
<path d="M175.073 84.77C175.067 84.77 175.067 84.77 175.062 84.77C164.515 84.494 158.823 82.9419 152.505 78.6138C152.396 78.5357 152.37 78.3898 152.442 78.2753C152.521 78.1659 152.672 78.1398 152.781 78.218C159.01 82.4836 164.635 84.0148 175.078 84.2857C175.213 84.2909 175.317 84.4003 175.312 84.5357C175.312 84.6659 175.203 84.77 175.073 84.77Z" fill="black"/>
<path d="M169.443 93.0677C169.438 93.0677 169.427 93.0677 169.417 93.0677C161.578 92.1198 155.563 89.4271 149.308 84.0729C149.203 83.9896 149.193 83.8333 149.282 83.7344C149.365 83.6302 149.521 83.6198 149.62 83.7083C155.797 88.9948 161.735 91.651 169.474 92.5885C169.604 92.6042 169.703 92.724 169.683 92.8542C169.672 92.9792 169.568 93.0677 169.443 93.0677Z" fill="black"/>
<path d="M175.182 56.8955L196.417 41.5205L177.719 15.6143L156.484 30.9893L175.182 56.8955Z" fill="#D0D8E7"/>
<path d="M156.823 31.0461L175.239 56.5566L196.083 41.4628L177.667 15.9524L156.823 31.0461ZM175.182 57.1347C175.172 57.1347 175.156 57.1347 175.146 57.1347C175.083 57.1243 175.026 57.0878 174.989 57.0357L156.286 31.1347C156.208 31.0253 156.234 30.8743 156.344 30.7961L177.578 15.4159C177.63 15.3795 177.693 15.3638 177.755 15.3743C177.818 15.3847 177.875 15.4211 177.911 15.4732L196.614 41.3743C196.693 41.4836 196.667 41.6347 196.557 41.7128L175.323 57.093C175.281 57.1191 175.234 57.1347 175.182 57.1347Z" fill="black"/>
<path d="M214.328 110.531L235.005 95.526L235.266 95.3333L216.766 69.7031L195.781 84.901L214.328 110.531Z" fill="#D0D8E7"/>
<path d="M196.119 84.953L214.38 110.198L234.927 95.2811L216.708 70.0415L196.119 84.953ZM214.328 110.776C214.312 110.776 214.302 110.776 214.286 110.771C214.224 110.76 214.166 110.729 214.13 110.677L195.588 85.0415C195.505 84.9374 195.531 84.7811 195.64 84.7082L216.619 69.5103C216.677 69.4686 216.739 69.4582 216.802 69.4686C216.864 69.4738 216.922 69.5103 216.958 69.5624L235.463 95.1926C235.541 95.3019 235.515 95.453 235.406 95.5311L235.146 95.7186L214.468 110.729C214.427 110.76 214.375 110.776 214.328 110.776Z" fill="black"/>
<path d="M195.781 84.9004L149.839 118.176C142.344 123.598 132.318 122.525 127.443 115.765L124.755 112.046C119.875 105.291 121.995 95.416 129.49 89.9889L175.182 56.8952L156.458 31.0098L111 63.9316C90.2762 78.9369 84.4116 106.244 97.896 124.932L106.61 136.999C120.094 155.676 147.828 158.661 168.547 143.656L214.313 110.51L195.781 84.9004Z" fill="#384B6C"/>
<path d="M156.401 31.3488L111.14 64.1249C90.562 79.0311 84.7078 106.245 98.0933 124.786L106.807 136.854C112.812 145.177 121.979 150.703 132.614 152.417C144.796 154.375 157.843 151.109 168.406 143.458L213.973 110.458L195.729 85.2395L149.979 118.37C146.088 121.187 141.281 122.39 136.791 121.667C132.859 121.036 129.468 118.989 127.244 115.911L124.557 112.187C119.609 105.333 121.76 95.2863 129.348 89.7915L174.848 56.8436L156.401 31.3488ZM139.64 153.453C137.26 153.453 134.88 153.265 132.536 152.89C121.776 151.161 112.5 145.568 106.416 137.14L97.7026 125.073C84.161 106.312 90.062 78.7967 110.854 63.7395L156.317 30.8176C156.364 30.7759 156.432 30.7603 156.494 30.7707C156.557 30.7811 156.614 30.8176 156.651 30.8697L175.38 56.7551C175.458 56.8645 175.432 57.0155 175.322 57.0936L129.63 90.1822C122.26 95.5207 120.156 105.265 124.947 111.906L127.635 115.625C129.786 118.604 133.062 120.578 136.869 121.193C141.234 121.89 145.906 120.719 149.692 117.979L195.64 84.7082C195.692 84.6665 195.755 84.6509 195.817 84.6613C195.885 84.6717 195.937 84.7082 195.979 84.7603L214.505 110.37C214.583 110.479 214.562 110.63 214.453 110.708L168.687 143.849C160.052 150.104 149.776 153.453 139.64 153.453Z" fill="black"/>
<path d="M226.609 68.1971C226.536 68.1971 226.463 68.1607 226.416 68.093C226.338 67.9836 226.364 67.8378 226.473 67.7596L251.057 50.343C251.166 50.2648 251.317 50.2909 251.39 50.4003C251.468 50.5096 251.442 50.6607 251.333 50.7388L226.75 68.1503C226.708 68.1815 226.661 68.1971 226.609 68.1971Z" fill="black"/>
<path d="M225.828 77.4322C225.75 77.4322 225.677 77.3957 225.63 77.328C225.552 77.2186 225.578 77.0676 225.687 76.9894L239.344 67.3176C239.453 67.2394 239.604 67.2655 239.682 67.3749C239.755 67.4842 239.729 67.6353 239.625 67.7134L225.969 77.3853C225.922 77.4165 225.875 77.4322 225.828 77.4322Z" fill="black"/>
<path d="M236.63 92.4009C236.557 92.4009 236.479 92.3644 236.432 92.2967C236.359 92.1874 236.385 92.0415 236.489 91.9634L244.328 86.4113C244.437 86.3332 244.588 86.3592 244.666 86.4686C244.745 86.578 244.718 86.729 244.609 86.8072L236.771 92.354C236.729 92.3853 236.682 92.4009 236.63 92.4009Z" fill="black"/>
<path d="M237.417 80.3901C237.339 80.3901 237.266 80.3536 237.219 80.2911C237.141 80.1817 237.167 80.0307 237.276 79.9526L243.656 75.4942C243.766 75.4213 243.917 75.4474 243.99 75.5567C244.068 75.6661 244.042 75.8172 243.932 75.8901L237.552 80.3484C237.511 80.3797 237.464 80.3901 237.417 80.3901Z" fill="black"/>
<path d="M183.079 17.9055C183.006 17.9055 182.927 17.869 182.881 17.8013C182.802 17.6919 182.834 17.5409 182.938 17.468L199.704 5.59296C199.808 5.51484 199.959 5.54088 200.037 5.65025C200.115 5.75963 200.089 5.91067 199.98 5.9888L183.219 17.8586C183.177 17.8898 183.125 17.9055 183.079 17.9055Z" fill="black"/>
<path d="M193.969 18.265C193.89 18.265 193.818 18.2286 193.771 18.1609C193.693 18.0515 193.719 17.9005 193.828 17.8223L197.859 14.9682C197.969 14.8952 198.114 14.9213 198.193 15.0255C198.271 15.1348 198.245 15.2859 198.135 15.364L194.109 18.2182C194.062 18.2494 194.015 18.265 193.969 18.265Z" fill="black"/>
<path d="M192.234 33.3019C192.156 33.3019 192.083 33.2655 192.036 33.1978C191.958 33.0884 191.984 32.9374 192.094 32.8644L199.489 27.6769C199.599 27.5988 199.75 27.6249 199.828 27.7342C199.906 27.8436 199.88 27.9947 199.771 28.0728L192.37 33.2551C192.328 33.2863 192.281 33.3019 192.234 33.3019Z" fill="black"/>
<path d="M198.427 38.2025C198.348 38.2025 198.276 38.1661 198.229 38.0984C198.151 37.989 198.177 37.838 198.286 37.7598L203.5 34.0671C203.609 33.989 203.76 34.0202 203.838 34.1244C203.916 34.2338 203.885 34.3848 203.781 34.463L198.562 38.1557C198.52 38.1869 198.473 38.2025 198.427 38.2025Z" fill="black"/>
<path d="M91.8122 129.422C91.8122 129.422 81.734 120.713 79.8799 104.276C81.2497 99.8955 86.2445 93.3434 93.4528 89.3955C95.8643 88.0726 107.234 82.6872 109.859 82.1455C113.067 81.4893 113.724 84.2393 112.526 86.4789C111.656 88.1039 104.989 91.458 101.328 92.8122C101.328 92.8122 108.76 90.1872 109.187 93.5101C109.573 96.4632 105.067 98.7966 105.067 98.7966C105.067 98.7966 109.677 97.2914 110.01 99.8747C110.385 102.755 105.5 105.297 105.5 105.297C105.5 105.297 108.744 103.896 109.786 106.062C110.38 107.291 110.135 108.786 107.505 110.776C105.797 112.067 105.703 114.015 105.979 116.151C106.396 119.369 104.729 122.494 101.828 123.937C96.5361 126.562 95.1038 128.328 91.8122 129.422Z" fill="#D0D8E7"/>
<path d="M80.1253 104.296C81.8597 119.541 90.8128 128.177 91.8701 129.145C93.542 128.572 94.7555 127.802 96.2764 126.838C97.6097 125.989 99.266 124.937 101.719 123.723C104.526 122.328 106.146 119.296 105.74 116.182C105.485 114.208 105.479 112.005 107.36 110.583C110.209 108.427 109.985 107.031 109.573 106.166C108.641 104.234 105.625 105.505 105.594 105.515C105.474 105.567 105.339 105.515 105.282 105.4C105.224 105.281 105.271 105.14 105.386 105.083C105.438 105.057 110.12 102.588 109.771 99.9057C109.714 99.4682 109.521 99.1505 109.177 98.9369C107.912 98.1349 105.172 99.0151 105.146 99.0255C105.026 99.0671 104.896 99.0046 104.849 98.8901C104.797 98.7755 104.849 98.6401 104.959 98.5828C105 98.5567 109.308 96.2911 108.948 93.5411C108.886 93.0619 108.667 92.713 108.266 92.4682C106.375 91.3015 101.459 93.0203 101.407 93.0359C101.282 93.0828 101.146 93.0151 101.099 92.8901C101.058 92.7651 101.12 92.6296 101.245 92.5828C105.042 91.1817 111.5 87.8796 112.313 86.364C112.969 85.1401 113.021 83.7911 112.438 83.0099C111.953 82.3588 111.078 82.1453 109.912 82.3849C107.37 82.9057 96.0264 88.2599 93.5732 89.6088C86.5889 93.4317 81.5316 99.8796 80.1253 104.296ZM91.8128 129.661C91.7555 129.661 91.6982 129.64 91.6514 129.604C91.5524 129.515 81.4847 120.645 79.6357 104.302C79.6357 104.27 79.6357 104.234 79.6462 104.203C81.0628 99.6869 86.2191 93.0828 93.3389 89.1817C95.8857 87.7911 107.177 82.4526 109.813 81.9109C111.157 81.6349 112.229 81.9213 112.828 82.7234C113.526 83.6609 113.495 85.1817 112.74 86.5932C112.037 87.9109 107.917 90.1765 104.453 91.7651C105.917 91.5151 107.537 91.4526 108.521 92.0567C109.042 92.3796 109.349 92.8536 109.427 93.4786C109.693 95.5411 107.792 97.2755 106.443 98.2286C107.407 98.0724 108.636 98.0203 109.438 98.5255C109.901 98.8171 110.177 99.2651 110.25 99.8484C110.511 101.843 108.479 103.635 107.021 104.645C108.157 104.51 109.422 104.739 110.006 105.958C110.771 107.552 110.006 109.187 107.651 110.968C105.974 112.239 105.969 114.192 106.219 116.119C106.651 119.437 104.927 122.666 101.933 124.156C99.5055 125.359 97.9274 126.359 96.5368 127.244C94.943 128.255 93.6878 129.052 91.8857 129.65C91.8649 129.656 91.8389 129.661 91.8128 129.661Z" fill="black"/>
<path d="M95.6198 95.7288C95.5417 95.7288 95.4584 95.6871 95.4115 95.6142C95.3438 95.4996 95.3855 95.3486 95.5001 95.2809C97.2865 94.2288 99.1771 93.3329 101.125 92.6298C101.25 92.5829 101.391 92.6454 101.438 92.7704C101.484 92.8954 101.417 93.0361 101.292 93.0829C99.3699 93.7757 97.5053 94.6559 95.7448 95.6975C95.7084 95.7184 95.6615 95.7288 95.6198 95.7288Z" fill="black"/>
<path d="M97.0056 102.124C96.9171 102.124 96.8285 102.067 96.7869 101.978C96.7348 101.853 96.7921 101.713 96.9119 101.661C99.4952 100.541 102.167 99.5357 104.849 98.6763C104.98 98.6346 105.115 98.7024 105.151 98.8326C105.193 98.9576 105.125 99.093 104.995 99.1346C102.329 99.9888 99.6775 100.989 97.1046 102.103C97.0733 102.114 97.0369 102.124 97.0056 102.124Z" fill="black"/>
<path d="M98.7294 108.567C98.6357 108.567 98.5523 108.515 98.5107 108.426C98.4534 108.307 98.5107 108.161 98.6304 108.109C99.3336 107.796 100.068 107.452 100.844 107.088C102.36 106.379 103.933 105.645 105.412 105.072C105.537 105.02 105.677 105.083 105.724 105.208C105.771 105.333 105.709 105.473 105.584 105.52C104.12 106.088 102.558 106.822 101.047 107.525C100.266 107.89 99.5315 108.234 98.8284 108.546C98.7971 108.562 98.7607 108.567 98.7294 108.567Z" fill="black"/>
<path d="M175.25 41.4475C174.896 41.1298 174.396 40.8278 173.979 41.0569C173.62 41.26 173.563 41.7444 173.547 42.1559C173.38 46.1923 173.208 50.234 173.042 54.2705C173.037 50.6611 172.042 46.9423 169.662 44.2288C169.078 43.5621 168.052 42.9423 167.38 43.5257C166.979 43.8746 166.958 44.484 166.99 45.0205C167.261 49.5465 169.146 54.1975 167.625 58.4684C167.297 55.7757 166.615 53.1246 165.599 50.609C165.182 49.5778 164.667 48.5205 163.755 47.8903C162.839 47.26 161.417 47.2444 160.75 48.135C160.047 49.083 160.516 50.4111 160.927 51.5153C162.12 54.7236 162.662 58.1715 162.505 61.5882C162.021 58.9267 161.427 56.0621 159.412 54.26C158.823 53.734 158.094 53.3121 157.307 53.26C156.516 53.208 155.667 53.5934 155.339 54.3121C154.974 55.109 155.302 56.0257 155.563 56.8538C156.583 60.0569 156.62 63.5569 155.729 66.7913C155.063 69.2184 152.089 72.5205 155.318 74.3538C156.427 74.984 157.781 75.01 159.037 74.8121C162.589 74.2444 165.651 72.0413 168.396 69.7132C171.203 67.3382 179.578 54.0205 179.578 54.0205C179.089 49.958 179.557 53.0882 179.328 51.3382C178.859 47.6871 177.995 43.8903 175.25 41.4475Z" fill="#D0D8E7"/>
<path d="M157.724 75.1609C156.745 75.1609 155.901 74.963 155.198 74.5619C152.599 73.088 153.708 70.7442 154.688 68.6817C155.021 67.9838 155.328 67.3276 155.495 66.7286C156.38 63.5099 156.323 60.0307 155.333 56.9265L155.297 56.8067C155.031 55.989 154.734 55.0515 155.12 54.213C155.469 53.4474 156.375 52.9578 157.323 53.0203C158.073 53.0672 158.854 53.4369 159.573 54.0776C161.026 55.3797 161.76 57.1922 162.255 59.2078C162.13 56.614 161.604 54.0203 160.698 51.5984C160.302 50.5307 159.755 49.0672 160.557 47.989C161.323 46.963 162.896 47.0047 163.891 47.6869C164.849 48.3536 165.385 49.4422 165.823 50.5203C166.703 52.7078 167.339 54.989 167.708 57.3172C168.276 54.8119 167.823 52.2026 167.349 49.463C167.099 48.0099 166.839 46.5047 166.75 45.0307C166.714 44.4682 166.74 43.7651 167.224 43.338C167.995 42.6713 169.125 43.2494 169.844 44.0724C171.385 45.8276 172.443 48.1192 172.948 50.7234L173.302 42.1453C173.323 41.6453 173.406 41.0984 173.865 40.8432C174.286 40.6088 174.839 40.7547 175.411 41.2651C178.193 43.739 179.042 46.5515 179.641 50.8797L180.036 53.8015C180.057 53.9369 179.964 54.0567 179.833 54.0776C179.698 54.0932 179.578 53.9994 179.557 53.8692L179.167 50.9474C178.568 46.6401 177.771 44.0151 175.089 41.6244C174.854 41.4161 174.411 41.0932 174.099 41.2651C173.849 41.4057 173.802 41.7963 173.786 42.1661L173.286 54.2807C173.281 54.4109 173.167 54.5151 173.036 54.5099C172.906 54.5099 172.802 54.4005 172.802 54.2703C172.792 50.3328 171.615 46.8224 169.479 44.3901C169.026 43.8692 168.094 43.2234 167.542 43.7078C167.214 43.989 167.203 44.5463 167.229 45.0047C167.318 46.4526 167.573 47.9422 167.823 49.3797C168.354 52.4369 168.901 55.5984 167.849 58.5515C167.813 58.6557 167.708 58.7234 167.594 58.7078C167.484 58.6974 167.396 58.6088 167.38 58.4994C167.057 55.8224 166.38 53.1974 165.375 50.6974C164.964 49.6922 164.474 48.6765 163.615 48.088C162.828 47.5411 161.536 47.489 160.948 48.2807C160.302 49.1453 160.792 50.4682 161.151 51.4317C162.354 54.6505 162.906 58.1661 162.745 61.5984C162.74 61.7234 162.641 61.8224 162.521 61.8328C162.396 61.838 162.286 61.7547 162.266 61.6349C161.755 58.8015 161.141 56.1244 159.25 54.4422C158.807 54.0411 158.104 53.5567 157.292 53.4994C156.536 53.4526 155.828 53.8276 155.557 54.4161C155.25 55.0828 155.51 55.8849 155.755 56.6609L155.797 56.7807C156.813 59.9734 156.87 63.5515 155.964 66.8536C155.786 67.4942 155.464 68.1713 155.125 68.8901C154.151 70.9474 153.229 72.8901 155.438 74.1453C156.344 74.6609 157.547 74.8067 159 74.5724C159.13 74.5515 159.255 74.6401 159.276 74.7755C159.297 74.9057 159.208 75.0307 159.073 75.0515C158.599 75.1244 158.151 75.1609 157.724 75.1609Z" fill="black"/>
<path d="M69.2555 199.927L67.5576 190.135L107.058 159.172C107.058 159.172 112.193 171.297 120.104 199.927H69.2555Z" fill="#7892B8"/>
<mask id="mask0_820_2526" style="mask-type:luminance" maskUnits="userSpaceOnUse" x="30" y="158" width="78" height="43">
<path d="M30.3643 158.786H107.698V201H30.3643V158.786Z" fill="white"/>
</mask>
<g mask="url(#mask0_820_2526)">
<path d="M95.0726 199.927L31.3018 200.313C32.5309 194.036 35.1768 176.969 35.1768 176.969L107.057 159.172L103.385 178.302L95.0726 199.927Z" fill="#7892B8"/>
</g>
<mask id="mask1_820_2526" style="mask-type:luminance" maskUnits="userSpaceOnUse" x="78" y="182" width="10" height="19">
<path d="M78.3643 182.786H87.6976V201H78.3643V182.786Z" fill="white"/>
</mask>
<g mask="url(#mask1_820_2526)">
<path d="M79.2497 200.166C79.1143 200.166 79.0049 200.062 79.0049 199.926V194.916C79.0049 192.64 79.9424 190.421 81.5726 188.838L86.4372 184.109C86.5361 184.015 86.6872 184.015 86.7809 184.114C86.8747 184.208 86.8695 184.359 86.7757 184.452L81.9059 189.187C80.3695 190.676 79.4893 192.765 79.4893 194.916V199.926C79.4893 200.062 79.3799 200.166 79.2497 200.166Z" fill="black"/>
</g>
<path d="M226.229 124.125C226.229 125.885 227.657 127.313 229.412 127.313C231.167 127.313 232.594 125.885 232.594 124.125C232.594 122.365 231.167 120.938 229.412 120.938C227.657 120.938 226.229 122.365 226.229 124.125Z" fill="black"/>
<path d="M226.229 47.7969C226.229 49.5573 227.657 50.9792 229.412 50.9792C231.167 50.9792 232.594 49.5573 232.594 47.7969C232.594 46.0365 231.167 44.6094 229.412 44.6094C227.657 44.6094 226.229 46.0365 226.229 47.7969Z" fill="black"/>
<mask id="mask2_820_2526" style="mask-type:luminance" maskUnits="userSpaceOnUse" x="203" y="0" width="39" height="38">
<path d="M203.698 0H241.032V37.4531H203.698V0Z" fill="white"/>
</mask>
<g mask="url(#mask2_820_2526)">
<path d="M203.782 18.401C203.782 28.5625 212.053 36.8021 222.261 36.8021C232.464 36.8021 240.735 28.5625 240.735 18.401C240.735 8.23958 232.464 0 222.261 0C212.053 0 203.782 8.23958 203.782 18.401Z" fill="#5774A0"/>
</g>
<mask id="mask3_820_2526" style="mask-type:luminance" maskUnits="userSpaceOnUse" x="206" y="18" width="33" height="17">
<path d="M206 18.3906H238.51V34.5938H206V18.3906Z" fill="white"/>
</mask>
<g mask="url(#mask3_820_2526)">
<mask id="mask4_820_2526" style="mask-type:luminance" maskUnits="userSpaceOnUse" x="206" y="2" width="33" height="33">
<path d="M206.073 18.4007C206.073 27.3018 213.323 34.5153 222.26 34.5153C231.198 34.5153 238.443 27.3018 238.443 18.4007C238.443 9.49967 231.198 2.28613 222.26 2.28613C213.323 2.28613 206.073 9.49967 206.073 18.4007Z" fill="white"/>
</mask>
<g mask="url(#mask4_820_2526)">
<path d="M236.536 30.9993C235.833 28.5827 233.875 26.7337 231.411 26.1712L226.203 24.9785V18.4316H218.312V24.9785L213.104 26.1712C210.646 26.7337 208.682 28.5827 207.979 30.9993L205.995 41.4525H238.521L236.536 30.9993Z" fill="#D0D8E7"/>
</g>
</g>
<mask id="mask5_820_2526" style="mask-type:luminance" maskUnits="userSpaceOnUse" x="214" y="7" width="16" height="15">
<path d="M214.536 7.44727H229.968V21.6764H214.536V7.44727Z" fill="white"/>
</mask>
<g mask="url(#mask5_820_2526)">
<mask id="mask6_820_2526" style="mask-type:luminance" maskUnits="userSpaceOnUse" x="206" y="2" width="33" height="33">
<path d="M206.072 18.4007C206.072 27.3018 213.322 34.5153 222.26 34.5153C231.197 34.5153 238.442 27.3018 238.442 18.4007C238.442 9.49967 231.197 2.28613 222.26 2.28613C213.322 2.28613 206.072 9.49967 206.072 18.4007Z" fill="white"/>
</mask>
<g mask="url(#mask6_820_2526)">
<path d="M215.713 13.4531C215.994 13.3802 216.286 13.4115 216.552 13.5104C216.781 9.91146 219.244 7.46875 222.26 7.46875C225.27 7.46875 227.739 9.91146 227.963 13.5104C228.234 13.4115 228.52 13.3802 228.802 13.4531C229.651 13.6615 230.135 14.6354 229.885 15.6302C229.64 16.6198 228.755 17.2552 227.906 17.0469C227.77 17.0156 227.645 16.9583 227.531 16.8906C226.661 19.5469 224.625 21.5833 222.26 21.5833C219.89 21.5833 217.859 19.5469 216.989 16.8906C216.869 16.9583 216.744 17.0156 216.609 17.0469C215.765 17.2552 214.88 16.6198 214.63 15.6302C214.38 14.6354 214.864 13.6615 215.713 13.4531Z" fill="#D0D8E7"/>
</g>
</g>
<mask id="mask7_820_2526" style="mask-type:luminance" maskUnits="userSpaceOnUse" x="214" y="7" width="17" height="15">
<path d="M214.317 7.11914H230.297V21.8952H214.317V7.11914Z" fill="white"/>
</mask>
<g mask="url(#mask7_820_2526)">
<mask id="mask8_820_2526" style="mask-type:luminance" maskUnits="userSpaceOnUse" x="206" y="2" width="33" height="33">
<path d="M206.072 18.4007C206.072 27.3018 213.322 34.5153 222.26 34.5153C231.197 34.5153 238.442 27.3018 238.442 18.4007C238.442 9.49967 231.197 2.28613 222.26 2.28613C213.322 2.28613 206.072 9.49967 206.072 18.4007Z" fill="white"/>
</mask>
<g mask="url(#mask8_820_2526)">
<path d="M216.989 16.6455C217.015 16.6455 217.041 16.6507 217.067 16.6611C217.14 16.6872 217.192 16.7445 217.218 16.8122C218.104 19.5205 220.13 21.3434 222.26 21.3434C224.385 21.3434 226.411 19.5205 227.302 16.8122C227.322 16.7445 227.374 16.6872 227.447 16.6611C227.515 16.6351 227.593 16.6455 227.656 16.682C227.755 16.7445 227.859 16.7861 227.963 16.8122C228.677 16.9893 229.437 16.432 229.651 15.5726C229.77 15.1038 229.708 14.6247 229.484 14.2497C229.307 13.9632 229.046 13.7601 228.744 13.6872C228.52 13.6299 228.281 13.6507 228.052 13.734C227.979 13.7653 227.901 13.7549 227.833 13.7132C227.77 13.6715 227.729 13.6038 227.723 13.5257C227.51 10.1559 225.213 7.70801 222.26 7.70801C219.302 7.70801 217.005 10.1559 216.791 13.5257C216.786 13.6038 216.744 13.6715 216.682 13.7132C216.619 13.7549 216.536 13.7653 216.463 13.734C216.234 13.6507 215.994 13.6299 215.77 13.6872C215.468 13.7601 215.208 13.9632 215.031 14.2497C214.807 14.6247 214.744 15.1038 214.864 15.5726C215.078 16.432 215.833 16.9893 216.552 16.8122C216.656 16.7861 216.76 16.7445 216.859 16.682C216.901 16.6559 216.942 16.6455 216.989 16.6455ZM222.26 21.8278C219.989 21.8278 217.843 19.9893 216.848 17.2236C216.786 17.2497 216.729 17.2653 216.666 17.2809C215.692 17.5205 214.677 16.807 214.395 15.6872C214.249 15.0986 214.328 14.4841 214.619 13.9997C214.859 13.6038 215.229 13.3226 215.656 13.2184C215.874 13.1611 216.109 13.1559 216.333 13.1976C216.677 9.71842 219.13 7.22363 222.26 7.22363C225.39 7.22363 227.838 9.71842 228.182 13.1976C228.411 13.1559 228.64 13.1611 228.864 13.2184C229.291 13.3226 229.656 13.6038 229.895 13.9997C230.187 14.4841 230.27 15.0986 230.119 15.6872C229.843 16.807 228.822 17.5205 227.848 17.2809C227.786 17.2653 227.729 17.2497 227.666 17.2236C226.671 19.9893 224.526 21.8278 222.26 21.8278Z" fill="#004AAD"/>
</g>
</g>
<mask id="mask9_820_2526" style="mask-type:luminance" maskUnits="userSpaceOnUse" x="215" y="4" width="14" height="12">
<path d="M215.521 4.48926H228.875V15.109H215.521V4.48926Z" fill="white"/>
</mask>
<g mask="url(#mask9_820_2526)">
<mask id="mask10_820_2526" style="mask-type:luminance" maskUnits="userSpaceOnUse" x="206" y="2" width="33" height="33">
<path d="M206.072 18.4007C206.072 27.3018 213.322 34.5153 222.26 34.5153C231.197 34.5153 238.442 27.3018 238.442 18.4007C238.442 9.49967 231.197 2.28613 222.26 2.28613C213.322 2.28613 206.072 9.49967 206.072 18.4007Z" fill="white"/>
</mask>
<g mask="url(#mask10_820_2526)">
<path d="M220.322 4.70261C223.755 3.99949 226.999 5.40053 228.26 7.91615C229.255 9.90053 228.697 11.9422 228.499 12.5724L227.874 14.4162L226.874 15.088C227.01 14.6818 227.291 13.6193 226.817 12.5255C226.109 10.8953 224.145 10.187 223.177 10.3589C223.052 10.3797 222.682 10.4682 222.156 10.4682C221.64 10.4682 221.275 10.3849 221.135 10.3589C220.275 10.2078 219.072 10.6349 218.354 11.2859C217.395 12.1609 217.067 13.6453 217.437 15.088C217.104 14.8641 216.77 14.6401 216.437 14.4162L215.817 12.5724C215.749 12.3537 214.812 8.92657 217.062 6.47865C218.239 5.20261 219.697 4.8224 220.322 4.70261Z" fill="#D0D8E7"/>
</g>
</g>
<mask id="mask11_820_2526" style="mask-type:luminance" maskUnits="userSpaceOnUse" x="215" y="4" width="15" height="12">
<path d="M215.302 4.27051H229.093V15.4372H215.302V4.27051Z" fill="white"/>
</mask>
<g mask="url(#mask11_820_2526)">
<mask id="mask12_820_2526" style="mask-type:luminance" maskUnits="userSpaceOnUse" x="206" y="2" width="33" height="33">
<path d="M206.072 18.4007C206.072 27.3018 213.322 34.5153 222.26 34.5153C231.197 34.5153 238.442 27.3018 238.442 18.4007C238.442 9.49967 231.197 2.28613 222.26 2.28613C213.322 2.28613 206.072 9.49967 206.072 18.4007Z" fill="white"/>
</mask>
<g mask="url(#mask12_820_2526)">
<path d="M216.64 14.2602L217.088 14.5623C216.905 13.2029 217.307 11.9112 218.192 11.1092C218.989 10.3852 220.27 9.96332 221.176 10.1196L221.239 10.1352C221.411 10.1664 221.728 10.2237 222.155 10.2237C222.593 10.2237 222.921 10.1612 223.077 10.1352L223.135 10.1196C224.234 9.92687 226.296 10.7289 227.036 12.4321C227.369 13.1977 227.359 13.9633 227.26 14.5362L227.671 14.2602L228.27 12.4998C228.562 11.5779 228.921 9.77061 228.041 8.02061C226.796 5.53624 223.64 4.26541 220.374 4.94249H220.369C219.504 5.10916 218.254 5.54145 217.244 6.64561C215.062 9.01541 216.004 12.3644 216.046 12.5102L216.64 14.2602ZM226.874 15.3331C226.822 15.3331 226.77 15.3123 226.728 15.281C226.645 15.2185 226.614 15.1144 226.645 15.0154C226.801 14.531 227.01 13.5779 226.593 12.6248C225.958 11.156 224.14 10.4321 223.218 10.5987L223.166 10.6092C222.994 10.6404 222.64 10.7081 222.155 10.7081C221.682 10.7081 221.322 10.6404 221.15 10.6092L221.093 10.5987C220.333 10.4633 219.202 10.8435 218.52 11.4685C217.64 12.2654 217.317 13.63 217.671 15.031C217.697 15.13 217.661 15.2289 217.577 15.2862C217.494 15.3435 217.385 15.3487 217.301 15.2914L216.301 14.6144C216.26 14.5883 216.228 14.5414 216.213 14.4946L215.588 12.6508C215.536 12.4894 214.525 8.8852 216.885 6.31749C217.989 5.11957 219.338 4.65082 220.275 4.46853C223.76 3.74978 227.129 5.12478 228.473 7.80707C229.426 9.70291 229.041 11.656 228.728 12.6508L228.098 14.4946C228.083 14.5414 228.051 14.5883 228.01 14.6144L227.01 15.2914C226.968 15.3175 226.921 15.3331 226.874 15.3331Z" fill="#004AAD"/>
</g>
</g>
<path d="M280.744 70.7546C280.744 79.5462 273.588 86.6764 264.755 86.6764C255.927 86.6764 248.771 79.5462 248.771 70.7546C248.771 61.9629 255.927 54.8379 264.755 54.8379C273.588 54.8379 280.744 61.9629 280.744 70.7546Z" fill="#D0D8E7"/>
<path d="M264.755 55.0781C256.073 55.0781 249.01 62.1094 249.01 70.7552C249.01 79.401 256.073 86.4375 264.755 86.4375C273.438 86.4375 280.505 79.401 280.505 70.7552C280.505 62.1094 273.438 55.0781 264.755 55.0781ZM264.755 86.9167C255.807 86.9167 248.531 79.6667 248.531 70.7552C248.531 61.8438 255.807 54.5938 264.755 54.5938C273.708 54.5938 280.99 61.8438 280.99 70.7552C280.99 79.6667 273.708 86.9167 264.755 86.9167Z" fill="black"/>
<mask id="mask13_820_2526" style="mask-type:luminance" maskUnits="userSpaceOnUse" x="250" y="70" width="29" height="15">
<path d="M250.656 70.4941H278.792V84.7233H250.656V70.4941Z" fill="white"/>
</mask>
<g mask="url(#mask13_820_2526)">
<mask id="mask14_820_2526" style="mask-type:luminance" maskUnits="userSpaceOnUse" x="250" y="56" width="29" height="29">
<path d="M278.761 70.7542C278.761 78.4574 272.49 84.7021 264.755 84.7021C257.026 84.7021 250.755 78.4574 250.755 70.7542C250.755 63.0563 257.026 56.8115 264.755 56.8115C272.49 56.8115 278.761 63.0563 278.761 70.7542Z" fill="white"/>
</mask>
<g mask="url(#mask14_820_2526)">
<path d="M250.979 90.4577H278.542L276.88 81.7181C276.292 79.7129 274.662 78.1816 272.625 77.7129L268.12 76.6816C268.011 76.6556 267.932 76.5618 267.932 76.4473V71.0254H261.583V76.4473C261.583 76.5618 261.505 76.6556 261.396 76.6816L256.891 77.7129C254.849 78.1868 253.219 79.7233 252.636 81.7285L250.979 90.4577ZM278.833 90.9421H250.682C250.609 90.9421 250.547 90.9108 250.5 90.8535C250.453 90.8014 250.432 90.7233 250.448 90.6556L252.167 81.6139C252.802 79.4212 254.568 77.7546 256.781 77.2441L261.104 76.2546V70.7806C261.104 70.6452 261.208 70.541 261.344 70.541H268.172C268.307 70.541 268.417 70.6452 268.417 70.7806V76.2546L272.734 77.2441C274.948 77.7546 276.714 79.4212 277.344 81.5931C277.349 81.5983 277.349 81.6087 277.349 81.6139L279.068 90.6556C279.083 90.7233 279.063 90.8014 279.016 90.8535C278.974 90.9108 278.901 90.9421 278.833 90.9421Z" fill="black"/>
</g>
</g>
<mask id="mask15_820_2526" style="mask-type:luminance" maskUnits="userSpaceOnUse" x="258" y="61" width="14" height="13">
<path d="M258.099 61.1924H271.453V73.557H258.099V61.1924Z" fill="white"/>
</mask>
<g mask="url(#mask15_820_2526)">
<mask id="mask16_820_2526" style="mask-type:luminance" maskUnits="userSpaceOnUse" x="250" y="56" width="29" height="29">
<path d="M278.76 70.7552C278.76 78.4583 272.489 84.7031 264.755 84.7031C257.026 84.7031 250.755 78.4583 250.755 70.7552C250.755 63.0573 257.026 56.8125 264.755 56.8125C272.489 56.8125 278.76 63.0573 278.76 70.7552Z" fill="white"/>
</mask>
<g mask="url(#mask16_820_2526)">
<path d="M270.422 66.474C270.177 66.4115 269.927 66.4375 269.698 66.526C269.5 63.4062 267.364 61.2969 264.755 61.2969C262.151 61.2969 260.015 63.4062 259.817 66.526C259.588 66.4375 259.338 66.4115 259.093 66.474C258.359 66.6563 257.942 67.5 258.156 68.3594C258.37 69.2187 259.135 69.7656 259.87 69.5833C259.989 69.5573 260.099 69.5052 260.198 69.4479C260.953 71.75 262.708 73.5104 264.755 73.5104C266.807 73.5104 268.567 71.75 269.317 69.4479C269.422 69.5052 269.526 69.5573 269.646 69.5833C270.375 69.7656 271.146 69.2187 271.359 68.3594C271.573 67.5 271.156 66.6563 270.422 66.474Z" fill="#D0D8E7"/>
</g>
</g>
<mask id="mask17_820_2526" style="mask-type:luminance" maskUnits="userSpaceOnUse" x="257" y="60" width="15" height="14">
<path d="M257.771 60.9736H271.672V73.7809H257.771V60.9736Z" fill="white"/>
</mask>
<g mask="url(#mask17_820_2526)">
<mask id="mask18_820_2526" style="mask-type:luminance" maskUnits="userSpaceOnUse" x="250" y="56" width="29" height="29">
<path d="M278.76 70.7552C278.76 78.4583 272.489 84.7031 264.755 84.7031C257.026 84.7031 250.755 78.4583 250.755 70.7552C250.755 63.0573 257.026 56.8125 264.755 56.8125C272.489 56.8125 278.76 63.0573 278.76 70.7552Z" fill="white"/>
</mask>
<g mask="url(#mask18_820_2526)">
<path d="M260.198 69.2028C260.224 69.2028 260.255 69.2132 260.281 69.2184C260.349 69.2445 260.401 69.3018 260.427 69.3695C261.193 71.7028 262.932 73.2705 264.755 73.2705C266.583 73.2705 268.328 71.7028 269.088 69.3695C269.114 69.3018 269.166 69.2445 269.234 69.2184C269.307 69.1924 269.38 69.2028 269.443 69.2393C269.531 69.2913 269.614 69.3278 269.703 69.3486C270.307 69.4997 270.943 69.0257 271.125 68.2965C271.224 67.9059 271.172 67.4945 270.984 67.182C270.838 66.9372 270.614 66.7705 270.364 66.708C270.177 66.6611 269.974 66.6768 269.781 66.7497C269.708 66.7757 269.63 66.7705 269.568 66.7288C269.5 66.6872 269.458 66.6143 269.453 66.5413C269.271 63.6403 267.297 61.5361 264.755 61.5361C262.219 61.5361 260.245 63.6403 260.062 66.5413C260.057 66.6143 260.015 66.6872 259.953 66.7288C259.885 66.7705 259.807 66.7757 259.734 66.7497C259.541 66.6768 259.338 66.6611 259.151 66.708C258.901 66.7705 258.682 66.9372 258.536 67.182C258.344 67.4945 258.291 67.9059 258.39 68.2965C258.573 69.0257 259.213 69.4997 259.812 69.3486C259.901 69.3278 259.984 69.2913 260.073 69.2393C260.109 69.2184 260.156 69.2028 260.198 69.2028ZM264.755 73.7549C262.791 73.7549 260.927 72.1663 260.057 69.7809C260.015 69.7965 259.969 69.807 259.927 69.8174C259.068 70.0309 258.172 69.4007 257.922 68.4163C257.791 67.8955 257.864 67.3538 258.12 66.932C258.333 66.5778 258.656 66.333 259.036 66.2393C259.219 66.1924 259.411 66.1872 259.604 66.2184C259.911 63.208 262.041 61.0518 264.755 61.0518C267.474 61.0518 269.599 63.208 269.911 66.2184C270.104 66.1872 270.297 66.1924 270.479 66.2393C270.859 66.333 271.182 66.5778 271.396 66.932C271.651 67.3591 271.724 67.8955 271.594 68.4163C271.349 69.4007 270.448 70.0309 269.588 69.8174C269.541 69.807 269.5 69.7965 269.458 69.7809C268.588 72.1663 266.724 73.7549 264.755 73.7549Z" fill="black"/>
</g>
</g>
<mask id="mask19_820_2526" style="mask-type:luminance" maskUnits="userSpaceOnUse" x="259" y="69" width="11" height="5">
<path d="M259.854 69.1816H269.594V73.7806H259.854V69.1816Z" fill="white"/>
</mask>
<g mask="url(#mask19_820_2526)">
<mask id="mask20_820_2526" style="mask-type:luminance" maskUnits="userSpaceOnUse" x="250" y="56" width="29" height="29">
<path d="M278.761 70.7542C278.761 78.4574 272.49 84.7021 264.756 84.7021C257.027 84.7021 250.756 78.4574 250.756 70.7542C250.756 63.0563 257.027 56.8115 264.756 56.8115C272.49 56.8115 278.761 63.0563 278.761 70.7542Z" fill="white"/>
</mask>
<g mask="url(#mask20_820_2526)">
<path d="M264.756 73.7538C262.725 73.7538 260.797 72.0507 259.969 69.5195C259.928 69.3945 259.995 69.259 260.12 69.2174C260.251 69.1757 260.386 69.2434 260.428 69.3684C261.193 71.7017 262.933 73.2695 264.756 73.2695C266.584 73.2695 268.329 71.7017 269.089 69.3684C269.131 69.2434 269.271 69.1757 269.396 69.2174C269.521 69.259 269.589 69.3945 269.547 69.5195C268.719 72.0507 266.797 73.7538 264.756 73.7538Z" fill="black"/>
</g>
</g>
<mask id="mask21_820_2526" style="mask-type:luminance" maskUnits="userSpaceOnUse" x="258" y="58" width="13" height="10">
<path d="M258.761 58.6719H270.797V67.9792H258.761V58.6719Z" fill="white"/>
</mask>
<g mask="url(#mask21_820_2526)">
<mask id="mask22_820_2526" style="mask-type:luminance" maskUnits="userSpaceOnUse" x="250" y="56" width="29" height="29">
<path d="M278.761 70.7552C278.761 78.4583 272.49 84.7031 264.756 84.7031C257.027 84.7031 250.756 78.4583 250.756 70.7552C250.756 63.0573 257.027 56.8125 264.756 56.8125C272.49 56.8125 278.761 63.0573 278.761 70.7552Z" fill="white"/>
</mask>
<g mask="url(#mask22_820_2526)">
<path d="M266.433 58.9064C262.199 58.198 257.282 59.073 259.36 65.7137L259.902 67.3074L260.766 67.8907C260.766 67.8907 260.522 63.5157 261.897 63.2866C263.199 63.073 263.282 63.9324 264.85 63.8907C266.412 63.9324 266.495 63.073 267.792 63.2866C269.173 63.5157 268.928 67.8907 268.928 67.8907L269.792 67.3074L270.334 65.7137C271.709 60.5574 269.506 58.5209 266.433 58.9064Z" fill="black"/>
</g>
</g>
<mask id="mask23_820_2526" style="mask-type:luminance" maskUnits="userSpaceOnUse" x="262" y="10" width="39" height="41">
<path d="M262.364 10.7861H300.531V50.7861H262.364V10.7861Z" fill="white"/>
</mask>
<g mask="url(#mask23_820_2526)">
<path d="M300.432 30.666C300.432 41.1243 291.916 49.6035 281.416 49.6035C270.911 49.6035 262.396 41.1243 262.396 30.666C262.396 20.2077 270.911 11.7285 281.416 11.7285C291.916 11.7285 300.432 20.2077 300.432 30.666Z" fill="#D0D8E7"/>
</g>
<mask id="mask24_820_2526" style="mask-type:luminance" maskUnits="userSpaceOnUse" x="261" y="10" width="40" height="41">
<path d="M261.031 10.7861H300.531V50.7861H261.031V10.7861Z" fill="white"/>
</mask>
<g mask="url(#mask24_820_2526)">
<path d="M281.417 11.9688C271.063 11.9688 262.641 20.3542 262.641 30.6667C262.641 40.974 271.063 49.3646 281.417 49.3646C291.771 49.3646 300.193 40.974 300.193 30.6667C300.193 20.3542 291.771 11.9688 281.417 11.9688ZM281.417 49.8438C270.797 49.8438 262.156 41.2396 262.156 30.6667C262.156 20.0885 270.797 11.4844 281.417 11.4844C292.036 11.4844 300.677 20.0885 300.677 30.6667C300.677 41.2396 292.036 49.8438 281.417 49.8438Z" fill="black"/>
</g>
<mask id="mask25_820_2526" style="mask-type:luminance" maskUnits="userSpaceOnUse" x="271" y="16" width="21" height="27">
<path d="M271.234 16.4219H291.594V42.0365H271.234V16.4219Z" fill="white"/>
</mask>
<g mask="url(#mask25_820_2526)">
<mask id="mask26_820_2526" style="mask-type:luminance" maskUnits="userSpaceOnUse" x="264" y="14" width="35" height="34">
<path d="M298.073 30.6667C298.073 39.8281 290.615 47.2552 281.417 47.2552C272.219 47.2552 264.755 39.8281 264.755 30.6667C264.755 21.5052 272.219 14.0781 281.417 14.0781C290.615 14.0781 298.073 21.5052 298.073 30.6667Z" fill="white"/>
</mask>
<g mask="url(#mask26_820_2526)">
<path d="M291.5 42.0313L290.792 27.9792C290.469 21.5365 286.37 16.5312 281.417 16.5312C276.464 16.5312 272.365 21.5365 272.037 27.9792L271.333 42.0313H291.5Z" fill="black"/>
</g>
</g>
<mask id="mask27_820_2526" style="mask-type:luminance" maskUnits="userSpaceOnUse" x="264" y="30" width="35" height="18">
<path d="M264.667 30.6504H298.162V47.291H264.667V30.6504Z" fill="white"/>
</mask>
<g mask="url(#mask27_820_2526)">
<mask id="mask28_820_2526" style="mask-type:luminance" maskUnits="userSpaceOnUse" x="264" y="14" width="35" height="34">
<path d="M298.074 30.6657C298.074 39.8272 290.615 47.2542 281.417 47.2542C272.219 47.2542 264.756 39.8272 264.756 30.6657C264.756 21.5042 272.219 14.0771 281.417 14.0771C290.615 14.0771 298.074 21.5042 298.074 30.6657Z" fill="white"/>
</mask>
<g mask="url(#mask28_820_2526)">
<path d="M296.115 43.6348C295.391 41.1504 293.37 39.2441 290.839 38.666L285.48 37.4368V30.6973H277.355V37.4368L271.995 38.666C269.459 39.2441 267.443 41.1504 266.719 43.6348L264.678 54.39H298.157L296.115 43.6348Z" fill="#D0D8E7"/>
</g>
</g>
<mask id="mask29_820_2526" style="mask-type:luminance" maskUnits="userSpaceOnUse" x="264" y="30" width="35" height="18">
<path d="M264.667 30.4316H298.162V47.291H264.667V30.4316Z" fill="white"/>
</mask>
<g mask="url(#mask29_820_2526)">
<mask id="mask30_820_2526" style="mask-type:luminance" maskUnits="userSpaceOnUse" x="264" y="14" width="35" height="34">
<path d="M298.074 30.6657C298.074 39.8272 290.615 47.2542 281.417 47.2542C272.219 47.2542 264.756 39.8272 264.756 30.6657C264.756 21.5042 272.219 14.0771 281.417 14.0771C290.615 14.0771 298.074 21.5042 298.074 30.6657Z" fill="white"/>
</mask>
<g mask="url(#mask30_820_2526)">
<path d="M264.964 54.1501H297.865L295.876 43.6917C295.178 41.2959 293.225 39.4574 290.782 38.9001L285.423 37.6709C285.313 37.6449 285.235 37.5459 285.235 37.4365V30.9365H277.594V37.4365C277.594 37.5459 277.516 37.6449 277.407 37.6709L272.048 38.9001C269.6 39.4626 267.647 41.3011 266.949 43.7021L264.964 54.1501ZM298.157 54.6344H264.678C264.605 54.6344 264.537 54.598 264.49 54.5459C264.443 54.4886 264.423 54.4157 264.438 54.3428L266.48 43.5876C267.235 40.999 269.324 39.0303 271.943 38.4261L277.115 37.2438V30.6969C277.115 30.5615 277.219 30.4521 277.355 30.4521H285.48C285.61 30.4521 285.719 30.5615 285.719 30.6969V37.2438L290.891 38.4261C293.511 39.0303 295.6 40.999 296.344 43.5667C296.35 43.5771 296.35 43.5824 296.35 43.5876L298.397 54.3428C298.407 54.4157 298.391 54.4886 298.344 54.5459C298.298 54.598 298.23 54.6344 298.157 54.6344Z" fill="black"/>
</g>
</g>
<mask id="mask31_820_2526" style="mask-type:luminance" maskUnits="userSpaceOnUse" x="273" y="19" width="17" height="15">
<path d="M273.317 19.1562H289.515V33.9375H273.317V19.1562Z" fill="white"/>
</mask>
<g mask="url(#mask31_820_2526)">
<mask id="mask32_820_2526" style="mask-type:luminance" maskUnits="userSpaceOnUse" x="264" y="14" width="35" height="34">
<path d="M298.073 30.6667C298.073 39.8281 290.614 47.2552 281.416 47.2552C272.218 47.2552 264.755 39.8281 264.755 30.6667C264.755 21.5052 272.218 14.0781 281.416 14.0781C290.614 14.0781 298.073 21.5052 298.073 30.6667Z" fill="white"/>
</mask>
<g mask="url(#mask32_820_2526)">
<path d="M288.219 25.4482C287.922 25.3753 287.625 25.4014 287.344 25.5107C287.109 21.766 284.547 19.2295 281.416 19.2295C278.286 19.2295 275.719 21.766 275.484 25.5107C275.208 25.4014 274.906 25.3753 274.609 25.4482C273.734 25.667 273.229 26.6774 273.484 27.7087C273.745 28.7399 274.666 29.4014 275.541 29.1826C275.687 29.1514 275.818 29.0941 275.937 29.016C276.844 31.7816 278.953 33.9014 281.416 33.9014C283.875 33.9014 285.989 31.7816 286.896 29.016C287.015 29.0941 287.146 29.1514 287.286 29.1826C288.166 29.4014 289.088 28.7399 289.344 27.7087C289.604 26.6774 289.099 25.667 288.219 25.4482Z" fill="#D0D8E7"/>
</g>
</g>
<mask id="mask33_820_2526" style="mask-type:luminance" maskUnits="userSpaceOnUse" x="273" y="18" width="17" height="17">
<path d="M273.099 18.9375H289.734V34.1563H273.099V18.9375Z" fill="white"/>
</mask>
<g mask="url(#mask33_820_2526)">
<mask id="mask34_820_2526" style="mask-type:luminance" maskUnits="userSpaceOnUse" x="264" y="14" width="35" height="34">
<path d="M298.073 30.6667C298.073 39.8281 290.614 47.2552 281.416 47.2552C272.218 47.2552 264.755 39.8281 264.755 30.6667C264.755 21.5052 272.218 14.0781 281.416 14.0781C290.614 14.0781 298.073 21.5052 298.073 30.6667Z" fill="white"/>
</mask>
<g mask="url(#mask34_820_2526)">
<path d="M275.937 28.776C275.963 28.776 275.994 28.7813 276.02 28.7917C276.088 28.8177 276.145 28.875 276.166 28.9427C277.088 31.7656 279.197 33.6563 281.416 33.6563C283.63 33.6563 285.739 31.7656 286.666 28.9427C286.687 28.875 286.739 28.8177 286.812 28.7917C286.88 28.7656 286.958 28.7708 287.02 28.8125C287.125 28.875 287.234 28.9219 287.343 28.9479C288.093 29.1354 288.885 28.5521 289.109 27.651C289.229 27.1615 289.166 26.6615 288.932 26.2708C288.75 25.9688 288.479 25.7604 288.161 25.6823C287.927 25.625 287.677 25.6406 287.432 25.7344C287.359 25.7604 287.281 25.7552 287.213 25.7135C287.151 25.6719 287.109 25.599 287.104 25.526C286.885 22.0156 284.489 19.4688 281.416 19.4688C278.338 19.4688 275.947 22.0156 275.723 25.526C275.718 25.599 275.682 25.6719 275.614 25.7135C275.552 25.7552 275.468 25.7604 275.401 25.7344C275.156 25.6406 274.906 25.625 274.666 25.6823C274.354 25.7604 274.083 25.9688 273.901 26.2708C273.666 26.6615 273.598 27.1667 273.718 27.651C273.947 28.5521 274.739 29.1354 275.484 28.9479C275.598 28.9219 275.703 28.875 275.812 28.8125C275.848 28.7865 275.89 28.776 275.937 28.776ZM281.416 34.1406C279.062 34.1406 276.833 32.2292 275.796 29.3542C275.734 29.3802 275.666 29.401 275.604 29.4167C274.598 29.6667 273.541 28.9271 273.255 27.7656C273.098 27.1563 273.187 26.5208 273.484 26.0208C273.734 25.6094 274.114 25.3229 274.552 25.2135C274.786 25.1563 275.026 25.151 275.265 25.1979C275.619 21.5781 278.166 18.9844 281.416 18.9844C284.666 18.9844 287.213 21.5781 287.562 25.1979C287.802 25.151 288.046 25.1563 288.276 25.2135C288.718 25.3229 289.098 25.6094 289.348 26.0208C289.645 26.5208 289.729 27.1563 289.578 27.7656C289.286 28.9271 288.234 29.6667 287.229 29.4167C287.161 29.401 287.098 29.3802 287.036 29.3542C286 32.2292 283.77 34.1406 281.416 34.1406Z" fill="black"/>
</g>
</g>
<mask id="mask35_820_2526" style="mask-type:luminance" maskUnits="userSpaceOnUse" x="275" y="18" width="13" height="9">
<path d="M275.067 18.1719H287.765V26.4896H275.067V18.1719Z" fill="white"/>
</mask>
<g mask="url(#mask35_820_2526)">
<mask id="mask36_820_2526" style="mask-type:luminance" maskUnits="userSpaceOnUse" x="264" y="14" width="35" height="34">
<path d="M298.073 30.6667C298.073 39.8281 290.614 47.2552 281.416 47.2552C272.218 47.2552 264.755 39.8281 264.755 30.6667C264.755 21.5052 272.218 14.0781 281.416 14.0781C290.614 14.0781 298.073 21.5052 298.073 30.6667Z" fill="white"/>
</mask>
<g mask="url(#mask36_820_2526)">
<path d="M275.385 26.448C278.349 25.8959 281.442 23.2605 283.297 20.8907C283.661 22.9949 285.531 25.4532 287.495 26.3178C287.495 26.3178 289.661 18.0105 281.416 18.2136C273.271 18.4115 275.385 26.448 275.385 26.448Z" fill="black"/>
</g>
</g>
<path d="M262.396 104.984C262.396 111.349 257.229 116.516 250.854 116.516C244.479 116.516 239.308 111.349 239.308 104.984C239.308 98.6146 244.479 93.4531 250.854 93.4531C257.229 93.4531 262.396 98.6146 262.396 104.984Z" fill="#D0D8E7"/>
<path d="M250.854 93.6921C244.619 93.6921 239.552 98.7598 239.552 104.984C239.552 111.208 244.619 116.27 250.854 116.27C257.083 116.27 262.156 111.208 262.156 104.984C262.156 98.7598 257.083 93.6921 250.854 93.6921ZM250.854 116.755C244.354 116.755 239.067 111.473 239.067 104.984C239.067 98.4941 244.354 93.2129 250.854 93.2129C257.349 93.2129 262.64 98.4941 262.64 104.984C262.64 111.473 257.349 116.755 250.854 116.755Z" fill="black"/>
<mask id="mask37_820_2526" style="mask-type:luminance" maskUnits="userSpaceOnUse" x="243" y="95" width="16" height="14">
<path d="M243.323 95.125H258.318V108.698H243.323V95.125Z" fill="white"/>
</mask>
<g mask="url(#mask37_820_2526)">
<mask id="mask38_820_2526" style="mask-type:luminance" maskUnits="userSpaceOnUse" x="240" y="94" width="21" height="22">
<path d="M260.964 104.985C260.964 110.563 256.438 115.084 250.855 115.084C245.271 115.084 240.74 110.563 240.74 104.985C240.74 99.4066 245.271 94.8857 250.855 94.8857C256.438 94.8857 260.964 99.4066 260.964 104.985Z" fill="white"/>
</mask>
<g mask="url(#mask38_820_2526)">
<path d="M256.318 100.203C256.469 99.9323 256.558 99.6198 256.558 99.2917C256.558 98.25 255.714 97.4115 254.672 97.4115C254.48 97.4115 254.292 97.4375 254.115 97.4948C254.12 97.4115 254.131 97.3333 254.131 97.25C254.131 96.1094 253.204 95.1875 252.063 95.1875C251.12 95.1875 250.329 95.8177 250.084 96.6771C249.761 96.3646 249.323 96.1719 248.839 96.1719C247.907 96.1719 247.146 96.8854 247.068 97.7969C246.787 97.6198 246.459 97.5104 246.105 97.5104C245.12 97.5104 244.323 98.3073 244.323 99.2917C244.323 99.849 244.579 100.349 244.985 100.672C244.068 100.906 243.391 101.734 243.391 102.719C243.391 103.505 243.823 104.187 244.464 104.552C244.37 104.75 244.323 104.964 244.323 105.193C244.323 106.047 245.016 106.74 245.87 106.74C246.047 106.74 246.214 106.708 246.375 106.656C246.349 106.76 246.334 106.875 246.334 106.984C246.334 107.812 247.006 108.484 247.834 108.484C248.657 108.484 249.329 107.812 249.329 106.984C249.329 106.161 250.928 105.917 250.928 106.87C250.928 107.823 251.704 108.594 252.657 108.594C253.615 108.594 254.386 107.823 254.386 106.87C254.386 106.677 254.355 106.495 254.297 106.323C254.329 106.323 254.355 106.328 254.386 106.328C255.297 106.328 256.042 105.589 256.042 104.677C256.042 104.641 256.037 104.604 256.032 104.573C256.063 104.573 256.089 104.573 256.115 104.573C257.329 104.573 258.313 103.594 258.313 102.385C258.313 101.24 257.438 100.302 256.318 100.203Z" fill="#D0D8E7"/>
</g>
</g>
<mask id="mask39_820_2526" style="mask-type:luminance" maskUnits="userSpaceOnUse" x="243" y="94" width="16" height="15">
<path d="M243.104 94.9062H258.651V108.917H243.104V94.9062Z" fill="white"/>
</mask>
<g mask="url(#mask39_820_2526)">
<mask id="mask40_820_2526" style="mask-type:luminance" maskUnits="userSpaceOnUse" x="240" y="94" width="21" height="22">
<path d="M260.964 104.985C260.964 110.563 256.438 115.084 250.855 115.084C245.271 115.084 240.74 110.563 240.74 104.985C240.74 99.4066 245.271 94.8857 250.855 94.8857C256.438 94.8857 260.964 99.4066 260.964 104.985Z" fill="white"/>
</mask>
<g mask="url(#mask40_820_2526)">
<path d="M250.25 106.011C250.802 106.011 251.172 106.355 251.172 106.87C251.172 107.688 251.839 108.355 252.657 108.355C253.479 108.355 254.146 107.688 254.146 106.87C254.146 106.714 254.12 106.553 254.068 106.402C254.042 106.324 254.058 106.24 254.104 106.178C254.157 106.115 254.229 106.079 254.313 106.084H254.344C254.354 106.084 254.37 106.084 254.386 106.084C255.167 106.084 255.797 105.454 255.797 104.678C255.797 104.657 255.797 104.631 255.792 104.61C255.792 104.542 255.813 104.464 255.86 104.412C255.907 104.365 255.974 104.329 256.042 104.329L256.115 104.334C257.193 104.334 258.068 103.459 258.068 102.386C258.068 101.37 257.308 100.537 256.297 100.443C256.214 100.438 256.141 100.386 256.104 100.318C256.068 100.245 256.068 100.157 256.11 100.084C256.245 99.8444 256.313 99.5684 256.313 99.2923C256.313 98.3861 255.578 97.6517 254.672 97.6517C254.506 97.6517 254.344 97.6777 254.183 97.7246C254.11 97.7454 254.021 97.7298 253.959 97.6777C253.896 97.6257 253.865 97.5475 253.875 97.4642C253.881 97.3965 253.891 97.3236 253.891 97.2507C253.891 96.2454 253.068 95.4277 252.063 95.4277C251.256 95.4277 250.537 95.9694 250.313 96.7454C250.292 96.8288 250.224 96.8913 250.146 96.9121C250.063 96.9329 249.974 96.9121 249.912 96.8496C249.625 96.5684 249.24 96.4121 248.839 96.4121C248.047 96.4121 247.375 97.0319 247.308 97.8184C247.297 97.9017 247.245 97.9746 247.172 98.0111C247.094 98.0527 247.006 98.0475 246.933 98.0007C246.683 97.8392 246.396 97.7559 246.104 97.7559C245.256 97.7559 244.563 98.4434 244.563 99.2923C244.563 99.7559 244.771 100.193 245.136 100.485C245.209 100.542 245.24 100.636 245.219 100.725C245.198 100.813 245.131 100.886 245.042 100.907C244.214 101.12 243.636 101.865 243.636 102.719C243.636 103.386 243.995 104.011 244.584 104.344C244.688 104.407 244.735 104.542 244.683 104.657C244.604 104.829 244.563 105.011 244.563 105.193C244.563 105.912 245.151 106.501 245.87 106.501C246.011 106.501 246.157 106.475 246.297 106.428C246.375 106.396 246.469 106.417 246.537 106.475C246.599 106.532 246.631 106.626 246.61 106.709C246.589 106.803 246.578 106.896 246.578 106.985C246.578 107.678 247.141 108.24 247.834 108.24C248.526 108.24 249.089 107.678 249.089 106.985C249.089 106.386 249.693 106.011 250.25 106.011ZM252.657 108.839C251.573 108.839 250.688 107.954 250.688 106.87C250.688 106.542 250.412 106.495 250.25 106.495C249.922 106.495 249.568 106.693 249.568 106.985C249.568 107.943 248.792 108.725 247.834 108.725C246.875 108.725 246.094 107.943 246.094 106.985C246.094 106.98 246.094 106.975 246.094 106.969C246.021 106.98 245.943 106.98 245.87 106.98C244.881 106.98 244.078 106.178 244.078 105.193C244.078 105.011 244.11 104.829 244.167 104.652C243.537 104.214 243.151 103.49 243.151 102.719C243.151 101.782 243.703 100.949 244.542 100.574C244.245 100.214 244.078 99.7663 244.078 99.2923C244.078 98.1777 244.99 97.2715 246.104 97.2715C246.375 97.2715 246.641 97.3236 246.886 97.4277C247.12 96.5684 247.917 95.9329 248.839 95.9329C249.25 95.9329 249.641 96.0527 249.974 96.2767C250.349 95.4798 251.162 94.9434 252.063 94.9434C253.318 94.9434 254.339 95.9486 254.37 97.1882C254.469 97.1725 254.568 97.1673 254.672 97.1673C255.844 97.1673 256.797 98.1204 256.797 99.2923C256.797 99.5371 256.756 99.7819 256.672 100.016C257.766 100.266 258.552 101.23 258.552 102.386C258.552 103.673 257.547 104.73 256.276 104.813C256.214 105.719 255.506 106.454 254.604 106.558C254.62 106.662 254.631 106.766 254.631 106.87C254.631 107.954 253.745 108.839 252.657 108.839Z" fill="black"/>
</g>
</g>
<mask id="mask41_820_2526" style="mask-type:luminance" maskUnits="userSpaceOnUse" x="240" y="108" width="22" height="8">
<path d="M240.698 108.479H261.032V115.156H240.698V108.479Z" fill="white"/>
</mask>
<g mask="url(#mask41_820_2526)">
<mask id="mask42_820_2526" style="mask-type:luminance" maskUnits="userSpaceOnUse" x="240" y="94" width="21" height="22">
<path d="M260.964 104.984C260.964 110.562 256.438 115.083 250.855 115.083C245.271 115.083 240.74 110.562 240.74 104.984C240.74 99.4056 245.271 94.8848 250.855 94.8848C256.438 94.8848 260.964 99.4056 260.964 104.984Z" fill="white"/>
</mask>
<g mask="url(#mask42_820_2526)">
<path d="M256.574 109.854L250.855 108.536L245.136 109.854C243.594 110.208 242.37 111.364 241.933 112.88L240.693 119.427H261.016L259.777 112.88C259.334 111.364 258.11 110.208 256.574 109.854Z" fill="#D0D8E7"/>
</g>
</g>
<mask id="mask43_820_2526" style="mask-type:luminance" maskUnits="userSpaceOnUse" x="240" y="108" width="22" height="8">
<path d="M240.698 108.26H261.032V115.156H240.698V108.26Z" fill="white"/>
</mask>
<g mask="url(#mask43_820_2526)">
<mask id="mask44_820_2526" style="mask-type:luminance" maskUnits="userSpaceOnUse" x="240" y="94" width="21" height="22">
<path d="M260.964 104.984C260.964 110.562 256.438 115.083 250.855 115.083C245.271 115.083 240.74 110.562 240.74 104.984C240.74 99.4056 245.271 94.8848 250.855 94.8848C256.438 94.8848 260.964 99.4056 260.964 104.984Z" fill="white"/>
</mask>
<g mask="url(#mask44_820_2526)">
<path d="M240.985 119.187H260.725L259.537 112.927C259.131 111.521 257.969 110.422 256.516 110.088L250.855 108.786L245.188 110.088C243.735 110.422 242.579 111.521 242.162 112.948L240.985 119.187ZM261.016 119.666H240.693C240.621 119.666 240.553 119.635 240.506 119.583C240.459 119.526 240.438 119.453 240.454 119.385L241.693 112.833C242.162 111.213 243.459 109.989 245.079 109.619L250.798 108.302C250.834 108.297 250.871 108.297 250.907 108.302L256.626 109.619C258.251 109.989 259.542 111.213 260.006 112.812L261.256 119.385C261.266 119.453 261.246 119.526 261.204 119.583C261.157 119.635 261.089 119.666 261.016 119.666Z" fill="black"/>
</g>
</g>
<mask id="mask45_820_2526" style="mask-type:luminance" maskUnits="userSpaceOnUse" x="248" y="104" width="6" height="6">
<path d="M248.359 104.974H253.286V109.453H248.359V104.974Z" fill="white"/>
</mask>
<g mask="url(#mask45_820_2526)">
<mask id="mask46_820_2526" style="mask-type:luminance" maskUnits="userSpaceOnUse" x="240" y="94" width="21" height="22">
<path d="M260.964 104.984C260.964 110.562 256.438 115.083 250.854 115.083C245.271 115.083 240.74 110.562 240.74 104.984C240.74 99.4056 245.271 94.8848 250.854 94.8848C256.438 94.8848 260.964 99.4056 260.964 104.984Z" fill="white"/>
</mask>
<g mask="url(#mask46_820_2526)">
<path d="M248.417 109.437L249.177 104.999H252.526L253.282 109.39L248.417 109.437Z" fill="#D0D8E7"/>
</g>
</g>
<mask id="mask47_820_2526" style="mask-type:luminance" maskUnits="userSpaceOnUse" x="245" y="97" width="11" height="11">
<path d="M245.953 97.9688H255.802V107.057H245.953V97.9688Z" fill="white"/>
</mask>
<g mask="url(#mask47_820_2526)">
<mask id="mask48_820_2526" style="mask-type:luminance" maskUnits="userSpaceOnUse" x="240" y="94" width="21" height="22">
<path d="M260.964 104.985C260.964 110.563 256.438 115.084 250.854 115.084C245.271 115.084 240.74 110.563 240.74 104.985C240.74 99.4066 245.271 94.8857 250.854 94.8857C256.438 94.8857 260.964 99.4066 260.964 104.985Z" fill="white"/>
</mask>
<g mask="url(#mask48_820_2526)">
<path d="M254.985 101.808C254.803 101.761 254.62 101.782 254.454 101.844C254.308 99.5684 252.756 98.0215 250.855 98.0215C248.954 98.0215 247.396 99.5684 247.256 101.844C247.084 101.782 246.901 101.761 246.724 101.808C246.188 101.938 245.886 102.558 246.042 103.183C246.198 103.813 246.756 104.214 247.287 104.084C247.375 104.063 247.454 104.027 247.526 103.98C248.079 105.662 249.36 106.954 250.855 106.954C252.349 106.954 253.631 105.662 254.178 103.98C254.25 104.027 254.329 104.063 254.417 104.084C254.948 104.214 255.511 103.813 255.667 103.183C255.823 102.558 255.516 101.938 254.985 101.808Z" fill="#D0D8E7"/>
</g>
</g>
<mask id="mask49_820_2526" style="mask-type:luminance" maskUnits="userSpaceOnUse" x="245" y="101" width="11" height="7">
<path d="M245.953 101.692H255.802V107.057H245.953V101.692Z" fill="white"/>
</mask>
<g mask="url(#mask49_820_2526)">
<mask id="mask50_820_2526" style="mask-type:luminance" maskUnits="userSpaceOnUse" x="240" y="94" width="21" height="22">
<path d="M260.964 104.984C260.964 110.562 256.438 115.083 250.854 115.083C245.271 115.083 240.74 110.562 240.74 104.984C240.74 99.4056 245.271 94.8848 250.854 94.8848C256.438 94.8848 260.964 99.4056 260.964 104.984Z" fill="white"/>
</mask>
<g mask="url(#mask50_820_2526)">
<path d="M247.256 101.843C247.084 101.781 246.901 101.76 246.724 101.807C246.188 101.937 245.886 102.557 246.042 103.182C246.198 103.812 246.756 104.213 247.287 104.083C247.375 104.062 247.454 104.026 247.526 103.979C248.079 105.661 249.36 106.953 250.855 106.953C252.349 106.953 253.631 105.661 254.178 103.979C254.25 104.026 254.329 104.062 254.417 104.083C254.948 104.213 255.511 103.812 255.667 103.182C255.823 102.557 255.516 101.937 254.985 101.807C254.803 101.76 254.62 101.781 254.454 101.843H247.256Z" fill="#D0D8E7"/>
</g>
</g>
<mask id="mask51_820_2526" style="mask-type:luminance" maskUnits="userSpaceOnUse" x="245" y="101" width="12" height="7">
<path d="M245.734 101.474H256.021V107.276H245.734V101.474Z" fill="white"/>
</mask>
<g mask="url(#mask51_820_2526)">
<mask id="mask52_820_2526" style="mask-type:luminance" maskUnits="userSpaceOnUse" x="240" y="94" width="21" height="22">
<path d="M260.964 104.984C260.964 110.562 256.438 115.083 250.854 115.083C245.271 115.083 240.74 110.562 240.74 104.984C240.74 99.4056 245.271 94.8848 250.854 94.8848C256.438 94.8848 260.964 99.4056 260.964 104.984Z" fill="white"/>
</mask>
<g mask="url(#mask52_820_2526)">
<path d="M250.854 107.192C249.406 107.192 248.042 106.041 247.386 104.307C247.37 104.307 247.36 104.312 247.349 104.317C246.682 104.479 245.995 104 245.807 103.244C245.714 102.885 245.75 102.515 245.906 102.203C246.068 101.875 246.339 101.656 246.667 101.573C246.886 101.52 247.115 101.531 247.339 101.619C247.464 101.666 247.526 101.807 247.479 101.932C247.432 102.052 247.292 102.114 247.167 102.067C247.037 102.02 246.906 102.01 246.781 102.041C246.594 102.088 246.438 102.218 246.339 102.416C246.235 102.625 246.214 102.88 246.276 103.125C246.396 103.625 246.828 103.948 247.229 103.849C247.287 103.833 247.344 103.807 247.401 103.776C247.464 103.734 247.542 103.729 247.61 103.755C247.677 103.781 247.735 103.833 247.755 103.906C248.302 105.583 249.547 106.713 250.854 106.713C252.156 106.713 253.401 105.583 253.948 103.906C253.974 103.833 254.026 103.781 254.094 103.755C254.162 103.729 254.24 103.734 254.302 103.776C254.36 103.807 254.417 103.833 254.474 103.849C254.88 103.948 255.307 103.625 255.432 103.125C255.495 102.88 255.469 102.625 255.365 102.416C255.271 102.218 255.115 102.088 254.927 102.041C254.797 102.01 254.672 102.02 254.537 102.067C254.417 102.114 254.276 102.052 254.229 101.932C254.177 101.807 254.24 101.666 254.365 101.619C254.589 101.531 254.823 101.52 255.042 101.573C255.37 101.656 255.641 101.875 255.797 102.203C255.953 102.515 255.99 102.885 255.901 103.244C255.714 104 255.021 104.479 254.36 104.317C254.344 104.312 254.334 104.307 254.323 104.307C253.667 106.041 252.297 107.192 250.854 107.192Z" fill="black"/>
</g>
</g>
<mask id="mask53_820_2526" style="mask-type:luminance" maskUnits="userSpaceOnUse" x="247" y="98" width="8" height="4">
<path d="M247.156 98.9531H254.49V101.911H247.156V98.9531Z" fill="white"/>
</mask>
<g mask="url(#mask53_820_2526)">
<mask id="mask54_820_2526" style="mask-type:luminance" maskUnits="userSpaceOnUse" x="240" y="94" width="21" height="22">
<path d="M260.964 104.985C260.964 110.563 256.438 115.084 250.854 115.084C245.271 115.084 240.74 110.563 240.74 104.985C240.74 99.4066 245.271 94.8857 250.854 94.8857C256.438 94.8857 260.964 99.4066 260.964 104.985Z" fill="white"/>
</mask>
<g mask="url(#mask54_820_2526)">
<path d="M247.255 101.844C249.052 101.505 250.87 100.474 251.995 99.0312C252.214 100.318 253.261 101.318 254.453 101.844H247.255Z" fill="#D0D8E7"/>
</g>
</g>
<mask id="mask55_820_2526" style="mask-type:luminance" maskUnits="userSpaceOnUse" x="246" y="98" width="9" height="5">
<path d="M246.938 98.7861H254.708V102.13H246.938V98.7861Z" fill="white"/>
</mask>
<g mask="url(#mask55_820_2526)">
<mask id="mask56_820_2526" style="mask-type:luminance" maskUnits="userSpaceOnUse" x="240" y="94" width="21" height="22">
<path d="M260.964 104.984C260.964 110.562 256.438 115.083 250.854 115.083C245.271 115.083 240.74 110.562 240.74 104.984C240.74 99.4056 245.271 94.8848 250.854 94.8848C256.438 94.8848 260.964 99.4056 260.964 104.984Z" fill="white"/>
</mask>
<g mask="url(#mask56_820_2526)">
<path d="M254.453 102.083C254.422 102.083 254.386 102.078 254.354 102.062C253.125 101.52 252.229 100.604 251.875 99.5463C250.735 100.817 249.057 101.749 247.297 102.078C247.167 102.104 247.042 102.02 247.016 101.89C246.99 101.76 247.078 101.63 247.208 101.609C248.995 101.27 250.755 100.229 251.807 98.8849C251.865 98.8067 251.964 98.7755 252.057 98.7963C252.146 98.8224 252.219 98.9005 252.235 98.9942C252.422 100.083 253.287 101.067 254.552 101.624C254.672 101.677 254.729 101.817 254.672 101.942C254.636 102.031 254.547 102.083 254.453 102.083Z" fill="black"/>
</g>
</g>
<mask id="mask57_820_2526" style="mask-type:luminance" maskUnits="userSpaceOnUse" x="252" y="105" width="2" height="5">
<path d="M252.411 105.958H253.505V109.354H252.411V105.958Z" fill="white"/>
</mask>
<g mask="url(#mask57_820_2526)">
<mask id="mask58_820_2526" style="mask-type:luminance" maskUnits="userSpaceOnUse" x="240" y="94" width="21" height="22">
<path d="M260.963 104.984C260.963 110.562 256.437 115.083 250.854 115.083C245.271 115.083 240.739 110.562 240.739 104.984C240.739 99.4056 245.271 94.8848 250.854 94.8848C256.437 94.8848 260.963 99.4056 260.963 104.984Z" fill="white"/>
</mask>
<g mask="url(#mask58_820_2526)">
<path d="M253.229 109.328C253.114 109.328 253.01 109.244 252.989 109.125L252.494 106.255C252.473 106.125 252.562 106 252.692 105.979C252.822 105.958 252.947 106.041 252.973 106.177L253.463 109.041C253.489 109.177 253.4 109.302 253.27 109.323C253.255 109.323 253.239 109.328 253.229 109.328Z" fill="black"/>
</g>
</g>
<mask id="mask59_820_2526" style="mask-type:luminance" maskUnits="userSpaceOnUse" x="248" y="105" width="2" height="5">
<path d="M248.141 105.958H249.234V109.354H248.141V105.958Z" fill="white"/>
</mask>
<g mask="url(#mask59_820_2526)">
<mask id="mask60_820_2526" style="mask-type:luminance" maskUnits="userSpaceOnUse" x="240" y="94" width="21" height="22">
<path d="M260.964 104.984C260.964 110.562 256.438 115.083 250.854 115.083C245.271 115.083 240.74 110.562 240.74 104.984C240.74 99.4056 245.271 94.8848 250.854 94.8848C256.438 94.8848 260.964 99.4056 260.964 104.984Z" fill="white"/>
</mask>
<g mask="url(#mask60_820_2526)">
<path d="M248.479 109.328C248.463 109.328 248.448 109.323 248.437 109.323C248.302 109.302 248.219 109.177 248.24 109.041L248.729 106.203C248.75 106.073 248.875 105.984 249.005 106.005C249.135 106.026 249.224 106.151 249.203 106.286L248.713 109.125C248.698 109.245 248.594 109.328 248.479 109.328Z" fill="black"/>
</g>
</g>
<path d="M250.151 172.573C246.542 172.739 243.474 169.948 243.307 166.333C243.141 162.718 245.927 159.656 249.542 159.489C253.156 159.317 256.219 162.109 256.385 165.724C256.557 169.338 253.766 172.401 250.151 172.573ZM250.687 184.02C252.63 183.927 254.135 182.276 254.042 180.333C254.036 180.187 254.021 180.041 253.995 179.906C255.391 179.489 256.698 178.869 257.88 178.078C257.969 178.187 258.068 178.291 258.177 178.385C259.615 179.698 261.844 179.593 263.156 178.156C264.469 176.718 264.365 174.484 262.922 173.171C262.818 173.078 262.703 172.989 262.588 172.906C263.266 171.656 263.76 170.296 264.042 168.869C264.187 168.88 264.328 168.885 264.474 168.875C266.417 168.786 267.922 167.135 267.828 165.192C267.74 163.244 266.088 161.739 264.146 161.833C264 161.838 263.854 161.854 263.719 161.88C263.302 160.484 262.682 159.177 261.891 157.994C262 157.901 262.104 157.807 262.203 157.698C263.516 156.255 263.406 154.026 261.969 152.713C260.531 151.406 258.297 151.505 256.99 152.948C256.891 153.057 256.802 153.166 256.724 153.281C255.474 152.609 254.115 152.109 252.687 151.828C252.693 151.687 252.703 151.541 252.693 151.395C252.604 149.453 250.953 147.948 249.005 148.041C247.062 148.13 245.557 149.781 245.651 151.729C245.656 151.869 245.672 152.015 245.698 152.156C244.302 152.573 242.995 153.192 241.812 153.979C241.724 153.869 241.625 153.77 241.516 153.671C240.078 152.359 237.849 152.463 236.536 153.901C235.224 155.343 235.328 157.573 236.771 158.885C236.875 158.979 236.99 159.067 237.104 159.151C236.427 160.401 235.932 161.76 235.651 163.187C235.51 163.177 235.365 163.171 235.219 163.182C233.276 163.27 231.771 164.921 231.865 166.869C231.953 168.812 233.604 170.317 235.552 170.229C235.693 170.218 235.838 170.203 235.974 170.177C236.391 171.578 237.01 172.88 237.802 174.062C237.693 174.156 237.588 174.255 237.49 174.359C236.182 175.802 236.286 178.031 237.724 179.343C239.161 180.656 241.396 180.552 242.703 179.109C242.802 179.005 242.891 178.89 242.974 178.776C244.219 179.453 245.578 179.948 247.01 180.229C247 180.369 246.995 180.515 247 180.661C247.088 182.604 248.74 184.109 250.687 184.02Z" fill="#F8F3E3"/>
<path d="M249.849 159.723C249.75 159.723 249.651 159.723 249.552 159.728C246.078 159.89 243.386 162.848 243.547 166.322C243.709 169.796 246.667 172.494 250.141 172.327C251.823 172.249 253.375 171.52 254.511 170.275C255.641 169.031 256.224 167.416 256.146 165.734C255.99 162.359 253.193 159.723 249.849 159.723ZM249.844 172.817C246.245 172.817 243.235 169.978 243.068 166.343C242.891 162.603 245.792 159.421 249.532 159.244C253.266 159.072 256.453 161.973 256.631 165.713C256.714 167.525 256.089 169.26 254.865 170.603C253.646 171.942 251.974 172.728 250.162 172.812C250.058 172.817 249.948 172.817 249.844 172.817ZM242.974 178.531C243.011 178.531 243.052 178.541 243.089 178.562C244.334 179.234 245.667 179.718 247.058 179.994C247.177 180.015 247.261 180.124 247.25 180.249C247.24 180.4 247.235 180.525 247.24 180.645C247.328 182.458 248.865 183.864 250.672 183.775C252.485 183.692 253.886 182.15 253.802 180.343C253.797 180.223 253.782 180.093 253.756 179.947C253.74 179.822 253.808 179.708 253.927 179.671C255.287 179.265 256.568 178.666 257.745 177.88C257.849 177.812 257.985 177.827 258.063 177.921C258.162 178.036 258.25 178.13 258.339 178.208C258.985 178.801 259.823 179.103 260.703 179.062C261.578 179.02 262.386 178.64 262.979 177.994C264.198 176.656 264.099 174.572 262.761 173.353C262.672 173.27 262.568 173.187 262.448 173.103C262.349 173.031 262.318 172.9 262.375 172.791C263.047 171.546 263.532 170.213 263.808 168.822C263.828 168.702 263.938 168.619 264.063 168.624C264.209 168.64 264.344 168.64 264.464 168.635C265.339 168.593 266.146 168.213 266.735 167.567C267.328 166.916 267.631 166.077 267.589 165.202C267.506 163.39 265.964 161.984 264.157 162.072C264.037 162.077 263.907 162.093 263.761 162.119C263.641 162.14 263.521 162.067 263.485 161.947C263.078 160.588 262.479 159.301 261.693 158.13C261.625 158.025 261.641 157.89 261.735 157.812C261.849 157.713 261.943 157.624 262.021 157.536C263.245 156.197 263.146 154.114 261.808 152.895C261.157 152.301 260.318 151.999 259.443 152.041C258.568 152.083 257.756 152.463 257.167 153.109C257.084 153.197 257.006 153.301 256.917 153.421C256.849 153.52 256.714 153.551 256.61 153.494C255.365 152.822 254.026 152.338 252.636 152.062C252.516 152.041 252.433 151.932 252.443 151.812C252.453 151.656 252.459 151.531 252.453 151.411C252.412 150.531 252.032 149.723 251.381 149.135C250.735 148.541 249.896 148.239 249.021 148.281C248.141 148.322 247.334 148.702 246.745 149.348C246.151 149.999 245.849 150.838 245.891 151.713C245.896 151.838 245.912 151.968 245.938 152.114C245.959 152.234 245.886 152.348 245.766 152.385C244.412 152.791 243.125 153.395 241.948 154.176C241.849 154.249 241.714 154.228 241.631 154.135C241.537 154.025 241.443 153.932 241.354 153.848C240.709 153.26 239.87 152.952 238.99 152.994C238.115 153.036 237.308 153.416 236.714 154.062C235.495 155.406 235.594 157.484 236.933 158.708C237.021 158.786 237.125 158.869 237.245 158.952C237.344 159.025 237.375 159.161 237.318 159.265C236.646 160.51 236.162 161.843 235.886 163.234C235.865 163.353 235.756 163.437 235.631 163.432C235.485 163.416 235.354 163.416 235.235 163.421C234.354 163.463 233.547 163.843 232.959 164.489C232.365 165.14 232.063 165.978 232.104 166.859C232.146 167.734 232.526 168.541 233.172 169.135C233.823 169.723 234.662 170.025 235.537 169.984C235.657 169.978 235.787 169.963 235.938 169.942C236.058 169.921 236.172 169.994 236.209 170.109C236.615 171.468 237.219 172.755 238 173.926C238.068 174.031 238.052 174.166 237.959 174.244C237.844 174.343 237.75 174.432 237.672 174.52C236.453 175.864 236.547 177.942 237.886 179.161C238.537 179.755 239.375 180.057 240.25 180.015C241.125 179.973 241.938 179.593 242.526 178.947C242.61 178.859 242.688 178.755 242.776 178.635C242.823 178.567 242.896 178.531 242.974 178.531ZM250.521 184.265C248.521 184.265 246.854 182.687 246.761 180.671C246.756 180.593 246.756 180.51 246.756 180.426C245.464 180.145 244.214 179.697 243.042 179.083C242.99 179.15 242.938 179.213 242.886 179.27C242.203 180.015 241.282 180.452 240.276 180.499C239.271 180.546 238.308 180.197 237.563 179.52C236.026 178.119 235.917 175.734 237.313 174.197C237.365 174.14 237.422 174.083 237.485 174.02C236.766 172.911 236.203 171.713 235.808 170.447C235.719 170.458 235.641 170.463 235.563 170.468C234.552 170.515 233.594 170.166 232.849 169.489C232.104 168.812 231.672 167.885 231.625 166.88C231.578 165.874 231.922 164.911 232.599 164.166C233.276 163.421 234.203 162.984 235.209 162.937C235.287 162.937 235.37 162.937 235.453 162.937C235.735 161.64 236.183 160.395 236.797 159.218C236.729 159.166 236.667 159.114 236.604 159.062C235.073 157.661 234.959 155.275 236.36 153.739C237.037 152.994 237.964 152.557 238.969 152.51C239.969 152.463 240.938 152.812 241.683 153.489C241.74 153.541 241.797 153.598 241.854 153.661C242.964 152.942 244.167 152.38 245.427 151.984C245.422 151.895 245.412 151.817 245.407 151.739C245.36 150.734 245.709 149.77 246.386 149.025C247.063 148.281 247.99 147.843 248.995 147.796C250 147.749 250.964 148.098 251.709 148.775C252.453 149.452 252.886 150.38 252.938 151.385C252.938 151.463 252.938 151.546 252.938 151.63C254.229 151.911 255.479 152.359 256.651 152.973C256.703 152.906 256.756 152.843 256.808 152.786C257.49 152.041 258.417 151.603 259.417 151.557C260.422 151.51 261.386 151.859 262.131 152.536C263.667 153.937 263.782 156.322 262.381 157.859C262.328 157.916 262.271 157.973 262.209 158.036C262.927 159.145 263.49 160.348 263.886 161.609C263.974 161.598 264.052 161.593 264.131 161.588C266.214 161.494 267.974 163.103 268.073 165.176C268.12 166.182 267.771 167.145 267.094 167.89C266.417 168.635 265.49 169.072 264.485 169.119C264.407 169.119 264.323 169.124 264.24 169.119C263.959 170.416 263.511 171.666 262.901 172.838C262.969 172.89 263.026 172.942 263.089 172.994C264.62 174.395 264.735 176.781 263.334 178.317C262.657 179.062 261.729 179.499 260.724 179.546C259.724 179.593 258.756 179.244 258.011 178.567C257.953 178.515 257.896 178.458 257.839 178.395C256.729 179.114 255.526 179.676 254.266 180.072C254.276 180.161 254.282 180.239 254.287 180.317C254.381 182.395 252.771 184.161 250.698 184.26C250.641 184.26 250.578 184.265 250.521 184.265Z" fill="black"/>
<path d="M217.625 179.411C215.219 179.52 213.172 177.661 213.063 175.249C212.948 172.843 214.807 170.796 217.219 170.687C219.625 170.572 221.667 172.437 221.781 174.843C221.891 177.254 220.031 179.296 217.625 179.411ZM217.979 187.041C219.276 186.978 220.281 185.879 220.219 184.583C220.214 184.484 220.203 184.39 220.188 184.296C221.12 184.02 221.99 183.609 222.776 183.083C222.839 183.15 222.901 183.223 222.974 183.286C223.932 184.161 225.422 184.093 226.297 183.135C227.167 182.171 227.099 180.687 226.141 179.812C226.068 179.744 225.995 179.687 225.917 179.635C226.365 178.801 226.698 177.895 226.886 176.942C226.979 176.947 227.073 176.952 227.172 176.947C228.469 176.885 229.469 175.786 229.412 174.489C229.349 173.192 228.25 172.187 226.953 172.249C226.854 172.254 226.761 172.265 226.667 172.28C226.391 171.348 225.979 170.478 225.453 169.692C225.521 169.629 225.594 169.567 225.656 169.494C226.531 168.536 226.464 167.046 225.505 166.171C224.542 165.296 223.057 165.369 222.182 166.327C222.12 166.4 222.057 166.473 222.005 166.551C221.172 166.098 220.266 165.77 219.313 165.577C219.318 165.484 219.323 165.39 219.318 165.291C219.261 163.994 218.156 162.994 216.86 163.056C215.563 163.114 214.563 164.213 214.625 165.51C214.63 165.609 214.641 165.702 214.656 165.796C213.724 166.077 212.854 166.489 212.068 167.015C212.005 166.942 211.938 166.874 211.87 166.806C210.906 165.931 209.422 166.004 208.547 166.963C207.672 167.921 207.745 169.411 208.703 170.286C208.776 170.348 208.849 170.405 208.927 170.463C208.474 171.296 208.146 172.202 207.958 173.155C207.865 173.145 207.766 173.145 207.672 173.15C206.375 173.208 205.37 174.312 205.432 175.609C205.495 176.905 206.594 177.905 207.891 177.848C207.985 177.843 208.078 177.827 208.172 177.812C208.453 178.744 208.865 179.614 209.391 180.405C209.318 180.468 209.25 180.53 209.182 180.603C208.313 181.562 208.38 183.051 209.339 183.926C210.297 184.796 211.787 184.728 212.662 183.77C212.724 183.697 212.781 183.619 212.839 183.546C213.672 183.994 214.573 184.327 215.531 184.515C215.521 184.609 215.521 184.702 215.521 184.801C215.583 186.098 216.682 187.103 217.979 187.041Z" fill="#F8F3E3"/>
<path d="M217.614 179.166C218.713 179.114 219.729 178.64 220.468 177.823C221.213 177.01 221.588 175.958 221.541 174.854C221.432 172.583 219.5 170.823 217.229 170.927C214.958 171.036 213.198 172.969 213.302 175.239C213.406 177.51 215.338 179.276 217.614 179.166ZM217.416 179.656C214.974 179.656 212.932 177.729 212.817 175.26C212.703 172.724 214.666 170.562 217.208 170.448C219.734 170.328 221.906 172.297 222.021 174.833C222.078 176.062 221.656 177.239 220.828 178.151C220 179.062 218.864 179.594 217.635 179.651C217.562 179.656 217.489 179.656 217.416 179.656ZM212.838 183.302C212.875 183.302 212.916 183.312 212.953 183.333C213.776 183.776 214.656 184.094 215.578 184.281C215.692 184.302 215.781 184.411 215.771 184.536C215.76 184.63 215.76 184.713 215.765 184.791C215.791 185.354 216.036 185.875 216.448 186.25C216.869 186.63 217.406 186.828 217.968 186.802C219.13 186.745 220.031 185.755 219.979 184.594C219.974 184.515 219.963 184.432 219.948 184.338C219.927 184.219 220 184.104 220.119 184.067C221.015 183.802 221.864 183.401 222.64 182.88C222.744 182.812 222.88 182.833 222.958 182.922C223.021 182.995 223.078 183.057 223.135 183.109C223.552 183.489 224.088 183.682 224.656 183.656C225.218 183.63 225.734 183.385 226.114 182.969C226.901 182.109 226.838 180.771 225.974 179.989C225.916 179.937 225.854 179.885 225.776 179.828C225.677 179.76 225.646 179.625 225.703 179.521C226.146 178.692 226.463 177.812 226.651 176.896C226.672 176.776 226.781 176.692 226.901 176.698C227 176.708 227.083 176.708 227.161 176.703C228.323 176.651 229.224 175.661 229.166 174.5C229.114 173.338 228.125 172.437 226.963 172.489C226.885 172.495 226.802 172.505 226.708 172.521C226.588 172.541 226.474 172.469 226.437 172.349C226.166 171.453 225.771 170.604 225.25 169.828C225.182 169.724 225.203 169.588 225.291 169.51C225.364 169.442 225.427 169.39 225.479 169.333C226.26 168.469 226.198 167.135 225.338 166.349C224.922 165.974 224.39 165.776 223.823 165.802C223.26 165.828 222.739 166.073 222.359 166.489C222.307 166.547 222.255 166.609 222.198 166.692C222.13 166.791 221.994 166.823 221.89 166.765C221.067 166.317 220.182 166 219.265 165.817C219.146 165.791 219.062 165.682 219.073 165.562C219.078 165.463 219.083 165.385 219.078 165.307C219.052 164.745 218.807 164.224 218.39 163.844C217.974 163.463 217.432 163.271 216.875 163.297C215.708 163.349 214.807 164.338 214.864 165.5C214.869 165.578 214.88 165.661 214.896 165.755C214.911 165.88 214.843 165.995 214.724 166.031C213.828 166.297 212.979 166.698 212.198 167.213C212.099 167.281 211.963 167.265 211.885 167.172C211.817 167.099 211.765 167.041 211.703 166.989C211.291 166.609 210.755 166.411 210.187 166.437C209.625 166.463 209.104 166.708 208.724 167.125C207.942 167.984 208.005 169.323 208.864 170.104C208.922 170.156 208.989 170.213 209.067 170.265C209.166 170.338 209.198 170.469 209.14 170.578C208.692 171.401 208.375 172.281 208.192 173.203C208.172 173.323 208.057 173.406 207.937 173.396C207.843 173.39 207.76 173.385 207.682 173.39C206.521 173.442 205.619 174.432 205.672 175.599C205.698 176.161 205.942 176.677 206.359 177.057C206.776 177.437 207.312 177.63 207.88 177.604C207.958 177.604 208.036 177.594 208.135 177.578C208.25 177.557 208.369 177.63 208.406 177.745C208.672 178.64 209.073 179.495 209.593 180.271C209.656 180.37 209.64 180.51 209.547 180.588C209.474 180.651 209.416 180.708 209.364 180.765C208.578 181.625 208.64 182.963 209.5 183.745C209.916 184.125 210.458 184.323 211.021 184.291C211.583 184.265 212.104 184.021 212.479 183.604C212.536 183.547 212.583 183.484 212.64 183.406C212.687 183.338 212.76 183.302 212.838 183.302ZM217.869 187.286C217.218 187.286 216.609 187.047 216.125 186.609C215.614 186.146 215.312 185.505 215.281 184.812C215.281 184.781 215.281 184.745 215.281 184.708C214.453 184.526 213.656 184.239 212.906 183.854C212.885 183.88 212.859 183.906 212.838 183.932C212.369 184.442 211.734 184.745 211.041 184.776C210.354 184.807 209.687 184.567 209.177 184.104C208.119 183.14 208.041 181.495 209.005 180.442C209.026 180.416 209.052 180.39 209.078 180.364C208.619 179.651 208.26 178.885 208.005 178.078C207.968 178.083 207.932 178.088 207.901 178.088C207.208 178.12 206.547 177.88 206.036 177.416C205.521 176.948 205.224 176.312 205.192 175.62C205.125 174.192 206.229 172.974 207.661 172.906C207.692 172.906 207.724 172.906 207.76 172.906C207.942 172.078 208.229 171.281 208.619 170.531C208.588 170.51 208.562 170.484 208.541 170.463C207.484 169.5 207.406 167.859 208.369 166.802C208.833 166.286 209.474 165.989 210.166 165.958C210.854 165.927 211.521 166.161 212.031 166.63C212.057 166.651 212.078 166.677 212.104 166.703C212.817 166.245 213.583 165.885 214.39 165.625C214.385 165.594 214.385 165.557 214.38 165.526C214.312 164.099 215.422 162.88 216.849 162.812C217.541 162.781 218.203 163.021 218.718 163.489C219.229 163.953 219.526 164.594 219.562 165.281C219.562 165.317 219.562 165.349 219.562 165.385C220.385 165.567 221.182 165.854 221.937 166.239C221.958 166.213 221.979 166.187 222.005 166.166C222.468 165.651 223.109 165.354 223.797 165.323C224.489 165.286 225.151 165.526 225.666 165.995C226.718 166.958 226.797 168.599 225.833 169.656C225.812 169.682 225.791 169.703 225.765 169.729C226.218 170.442 226.578 171.208 226.838 172.015C226.875 172.015 226.906 172.01 226.942 172.01C228.369 171.937 229.583 173.052 229.651 174.479C229.718 175.906 228.609 177.12 227.182 177.187C227.151 177.187 227.114 177.192 227.078 177.192C226.896 178.015 226.609 178.812 226.224 179.567C226.25 179.588 226.276 179.609 226.302 179.635C227.359 180.594 227.437 182.239 226.474 183.297C226.005 183.807 225.369 184.109 224.677 184.14C223.984 184.172 223.323 183.932 222.812 183.463C222.786 183.442 222.76 183.422 222.739 183.396C222.026 183.849 221.26 184.208 220.453 184.469C220.453 184.505 220.458 184.536 220.458 184.573C220.526 186 219.416 187.213 217.989 187.281C217.948 187.281 217.911 187.286 217.869 187.286Z" fill="black"/>
</svg>
