<svg xmlns="http://www.w3.org/2000/svg" width="55" height="54" fill="none" viewBox="0 0 55 54">
  <g clip-path="url(#a)" filter="url(#b)">
    <path fill="#D6192E" d="M29.844 35.594a.781.781 0 0 0 1.562 0v-.39a3.52 3.52 0 0 0-3.515-3.517h-.782a3.52 3.52 0 0 0-3.515 3.516v.39a.781.781 0 0 0 1.562 0v-.39c0-1.077.877-1.953 1.953-1.953h.782c1.077 0 1.953.876 1.953 1.953v.39Z"/>
    <path fill="#D6192E" d="m38.933 24.053-10.937-8.985a.78.78 0 0 0-.992 0l-10.937 8.985a.781.781 0 0 0-.286.603v3.125c0 .432.35.782.781.782h1.172v9.765c0 .432.35.781.782.781h5.859a.781.781 0 0 0 0-1.562h-5.078v-9.766a.781.781 0 0 0-.781-.78h-1.172v-1.975L27.5 16.683l10.156 8.343V27h-1.172a.781.781 0 0 0-.78.781v9.766h-5.079a.781.781 0 0 0 0 1.563h5.86c.43 0 .78-.35.78-.782v-9.765h1.172c.432 0 .782-.35.782-.782v-3.125a.781.781 0 0 0-.286-.603Z"/>
  </g>
  <defs>
    <clipPath id="a">
      <path fill="#fff" d="M15 14.5h25v25H15z"/>
    </clipPath>
    <filter id="b" width="54.8" height="54.8" x=".1" y="-.4" color-interpolation-filters="sRGB" filterUnits="userSpaceOnUse">
      <feFlood flood-opacity="0" result="BackgroundImageFix"/>
      <feColorMatrix in="SourceAlpha" result="hardAlpha" values="0 0 0 0 0 0 0 0 0 0 0 0 0 0 0 0 0 0 127 0"/>
      <feOffset/>
      <feGaussianBlur stdDeviation="7.45"/>
      <feColorMatrix values="0 0 0 0 1 0 0 0 0 0.0917806 0 0 0 0 0.0917806 0 0 0 1 0"/>
      <feBlend in2="BackgroundImageFix" result="effect1_dropShadow_199_139"/>
      <feBlend in="SourceGraphic" in2="effect1_dropShadow_199_139" result="shape"/>
    </filter>
  </defs>
</svg>
