<svg xmlns="http://www.w3.org/2000/svg" width="25" height="26" fill="none" viewBox="0 0 25 26">
  <g clip-path="url(#a)">
    <path fill="#F8F3E3" d="M14.844 21.594a.781.781 0 0 0 1.562 0v-.39a3.52 3.52 0 0 0-3.515-3.517h-.782a3.52 3.52 0 0 0-3.515 3.516v.39a.781.781 0 0 0 1.562 0v-.39c0-1.077.877-1.953 1.953-1.953h.782c1.076 0 1.953.876 1.953 1.953v.39Z"/>
    <path fill="#F8F3E3" d="M23.933 10.053 12.996 1.068a.78.78 0 0 0-.992 0L1.067 10.053a.781.781 0 0 0-.286.603v3.125c0 .432.35.782.781.782h1.172v9.765c0 .432.35.782.782.782h5.859a.781.781 0 0 0 0-1.563H4.297v-9.766a.781.781 0 0 0-.781-.78H2.344v-1.975L12.5 2.683l10.156 8.343V13h-1.172a.781.781 0 0 0-.78.781v9.766h-5.079a.781.781 0 0 0 0 1.563h5.86c.43 0 .78-.35.78-.782v-9.765h1.172c.432 0 .782-.35.782-.782v-3.125a.781.781 0 0 0-.286-.603Z"/>
  </g>
  <defs>
    <clipPath id="a">
      <path fill="#fff" d="M0 .5h25v25H0z"/>
    </clipPath>
  </defs>
</svg>
