<svg xmlns="http://www.w3.org/2000/svg" width="31" height="31" fill="none" viewBox="0 0 31 31">
  <path fill="#F8F3E3" d="M19.981 14.587a1.292 1.292 0 1 0-1.826 1.826 1.292 1.292 0 0 0 1.826-1.826Zm.914-2.74a1.292 1.292 0 1 1 1.827 1.826 1.292 1.292 0 0 1-1.827-1.826Zm4.567 2.74a1.292 1.292 0 1 0-1.827 1.827 1.292 1.292 0 0 0 1.827-1.827Zm-4.567 2.739a1.292 1.292 0 1 1 1.827 1.827 1.292 1.292 0 0 1-1.827-1.826ZM7.75 16.792H5.167v-2.584H7.75v-2.583h2.584v2.583h2.583v2.584h-2.583v2.583H7.75v-2.583Z"/>
  <path fill="#F8F3E3" fill-rule="evenodd" d="M9.042 6.458a9.042 9.042 0 0 0 0 18.084h12.916a9.042 9.042 0 1 0 0-18.084H9.042Zm12.916 2.584H9.042a6.458 6.458 0 1 0 0 12.917h12.916a6.458 6.458 0 0 0 0-12.917Z" clip-rule="evenodd"/>
</svg>
