<svg xmlns="http://www.w3.org/2000/svg" width="25" height="21" fill="none" viewBox="0 0 25 21">
  <path fill="#F8F3E3" d="M1.729 5.006h6.27V1.761c0-.287.116-.562.323-.765a1.12 1.12 0 0 1 .783-.317h7.375c.293 0 .574.114.782.317.207.203.324.478.324.765v7.572h6.27c.293 0 .574.114.782.317.207.203.324.478.324.765v8.654c0 .287-.117.562-.324.765a1.12 1.12 0 0 1-.782.317H1.729a1.12 1.12 0 0 1-.783-.317 1.07 1.07 0 0 1-.324-.765V6.088c0-.287.117-.562.324-.765a1.12 1.12 0 0 1 .783-.317Zm15.857 12.981h5.163v-6.49h-5.163v6.49Zm-7.375 0h5.162V2.843h-5.162v15.144Zm-7.376 0h5.163V7.17H2.835v10.817Z"/>
</svg>
