<svg xmlns="http://www.w3.org/2000/svg" width="35" height="35" fill="none" viewBox="0 0 35 35">
  <path fill="#F8F3E3" d="M23.55 19.735a10.378 10.378 0 0 0 1.627-5.585c0-5.75-4.655-10.411-10.398-10.411-5.749 0-10.404 4.662-10.404 10.41 0 5.75 4.655 10.412 10.398 10.412 2.084 0 4.026-.615 5.653-1.668l.472-.328 7.423 7.424 2.304-2.345-7.417-7.424.342-.485ZM20.603 8.333a8.165 8.165 0 0 1 2.407 5.81 8.165 8.165 0 0 1-2.407 5.81 8.165 8.165 0 0 1-5.81 2.407 8.165 8.165 0 0 1-5.81-2.406 8.165 8.165 0 0 1-2.407-5.81c0-2.195.855-4.26 2.406-5.811a8.165 8.165 0 0 1 5.811-2.407c2.194 0 4.259.855 5.81 2.407Z"/>
</svg>
