<svg xmlns="http://www.w3.org/2000/svg" viewBox="0 0 200 200">
    <!-- Face shape -->
    <path d="M100 10 C40 10 30 90 30 140 C30 190 170 190 170 140 C170 90 160 10 100 10" fill="#2c7fb8"/>
    
    <!-- Darker blue patterns -->
    <path d="M100 10 C80 10 70 30 65 50 C85 45 115 45 135 50 C130 30 120 10 100 10" fill="#1b4b82" opacity="0.6"/>
    
    <!-- Large eyes -->
    <ellipse cx="70" cy="90" rx="20" ry="15" fill="#f0f9ff"/>
    <ellipse cx="130" cy="90" rx="20" ry="15" fill="#f0f9ff"/>
    
    <!-- Eye pupils -->
    <circle cx="70" cy="90" r="8" fill="#000000"/>
    <circle cx="130" cy="90" r="8" fill="#000000"/>
    
    <!-- Eye highlights -->
    <circle cx="74" cy="87" r="3" fill="#ffffff"/>
    <circle cx="134" cy="87" r="3" fill="#ffffff"/>
    
    <!-- Nose -->
    <path d="M100 95 C95 95 95 105 100 110 C105 105 105 95 100 95" fill="#1b4b82"/>
    
    <!-- Facial markings -->
    <path d="M60 70 C70 60 80 60 90 70" stroke="#1b4b82" fill="none" stroke-width="2"/>
    <path d="M110 70 C120 60 130 60 140 70" stroke="#1b4b82" fill="none" stroke-width="2"/>
    
    <!-- Bioluminescent dots -->
    <circle cx="50" cy="60" r="2" fill="#a8e6ff"/>
    <circle cx="150" cy="60" r="2" fill="#a8e6ff"/>
    <circle cx="100" cy="50" r="2" fill="#a8e6ff"/>
    <circle cx="75" cy="45" r="2" fill="#a8e6ff"/>
    <circle cx="125" cy="45" r="2" fill="#a8e6ff"/>
    
    <!-- Small facial stripes -->
    <path d="M85 120 L115 120" stroke="#1b4b82" stroke-width="2"/>
    <path d="M90 125 L110 125" stroke="#1b4b82" stroke-width="2"/>
</svg>