<svg width="605" height="774" viewBox="0 0 605 774" fill="none" xmlns="http://www.w3.org/2000/svg">
<path d="M108.897 289.903C108.897 293.081 108.587 296.218 107.968 299.329C107.348 302.44 106.432 305.456 105.22 308.392C104.008 311.327 102.514 314.115 100.75 316.741C98.9856 319.38 96.9791 321.831 94.7303 324.067C92.4814 326.315 90.0305 328.308 87.3912 330.072C84.7518 331.837 81.9643 333.331 79.0287 334.543C76.093 335.755 73.0631 336.671 69.939 337.29C66.8283 337.91 63.6772 338.219 60.4991 338.219C57.3211 338.219 54.17 337.91 51.0593 337.29C47.9486 336.671 44.9187 335.755 41.9831 334.543C39.0475 333.331 36.26 331.837 33.6071 330.072C30.9677 328.308 28.5303 326.315 26.2815 324.067C24.0326 321.831 22.0262 319.38 20.2621 316.741C18.498 314.115 17.0033 311.327 15.7913 308.392C14.5659 305.456 13.6502 302.44 13.0307 299.329C12.4113 296.218 12.1016 293.081 12.1016 289.903C12.1016 286.725 12.4113 283.587 13.0307 280.476C13.6502 277.366 14.5659 274.349 15.7913 271.414C17.0033 268.478 18.498 265.704 20.2621 263.065C22.0262 260.425 24.0326 257.988 26.2815 255.739C28.5303 253.49 30.9677 251.497 33.6071 249.733C36.26 247.969 39.0475 246.474 41.9831 245.262C44.9187 244.05 47.9486 243.135 51.0593 242.515C54.17 241.896 57.3211 241.586 60.4991 241.586C63.6772 241.586 66.8283 241.896 69.939 242.515C73.0631 243.135 76.093 244.05 79.0287 245.262C81.9643 246.474 84.7518 247.969 87.3912 249.733C90.0305 251.497 92.4814 253.49 94.7303 255.739C96.9791 257.988 98.9856 260.425 100.75 263.065C102.514 265.704 104.008 268.478 105.22 271.414C106.432 274.349 107.348 277.366 107.968 280.476C108.587 283.587 108.897 286.725 108.897 289.903Z" fill="#EBF5F7"/>
<path d="M459.816 567.723H592.916V603.96H459.816V567.723Z" fill="#8949F5"/>
<path d="M592.916 471.815V567.721H459.816V483.167C459.816 429.773 516.442 398.612 556.612 398.612L557.702 397.4C563.223 401.912 568.179 406.961 572.569 412.577C576.959 418.179 580.676 424.212 583.719 430.635C586.762 437.072 589.065 443.765 590.614 450.713C592.162 457.662 592.93 464.691 592.916 471.815Z" fill="#FDFEFF"/>
<path d="M125.36 463.358C119.219 469.391 113.981 476.11 109.618 483.53L108.891 483.167V471.815C108.877 464.691 109.645 457.662 111.194 450.713C112.742 443.765 115.045 437.072 118.088 430.635C121.132 424.212 124.848 418.179 129.238 412.577C133.628 406.961 138.584 401.912 144.105 397.4L145.196 398.612C153.356 398.814 161.382 399.932 169.287 401.952C177.191 403.972 184.773 406.854 192.018 410.584C199.276 414.314 206.009 418.812 212.244 424.077C218.479 429.329 224.04 435.214 228.929 441.731C224.593 439.967 220.149 438.526 215.584 437.409C211.032 436.304 206.427 435.537 201.754 435.106C197.081 434.688 192.408 434.608 187.735 434.877C183.049 435.146 178.417 435.752 173.825 436.708C169.233 437.678 164.749 438.957 160.345 440.587C155.955 442.216 151.7 444.155 147.593 446.417C143.486 448.666 139.567 451.225 135.837 454.053C132.12 456.894 128.619 459.991 125.36 463.358Z" fill="#E1EAF2"/>
<path d="M291.129 363.83C299.72 379.909 311.53 393.119 326.585 403.448C325.252 427.849 313.51 446.93 299.478 446.93C299.478 446.93 254.097 422.772 254.097 374.455C254.07 372.462 254.231 370.496 254.581 368.53C258.823 354.404 264.748 347.886 272.007 346.311L302.494 339.551V362.376L291.129 363.83Z" fill="#FDFEFF"/>
<path d="M429.799 346.311C437.058 347.886 442.996 354.404 447.225 368.53C447.575 370.496 447.736 372.462 447.71 374.455C447.71 422.772 402.342 446.93 402.342 446.93C388.297 446.93 376.568 427.849 375.234 403.448C390.276 393.119 402.099 379.909 410.691 363.83L399.312 362.376V339.551L429.799 346.311Z" fill="#FDFEFF"/>
<path d="M220.95 649.259L266.453 639.348L283.999 621.707L301.667 604.201L302.017 604.565L254.104 652.276V662.779C254.118 664.866 254.387 666.913 254.912 668.92C255.451 670.926 256.232 672.838 257.255 674.643C258.292 676.461 259.531 678.104 260.985 679.599C262.44 681.08 264.056 682.373 265.847 683.436L298.395 703.003C300.711 704.376 303.189 705.346 305.814 705.898C308.454 706.45 311.107 706.558 313.773 706.235C316.453 705.898 318.998 705.144 321.422 703.972C323.832 702.801 326 701.279 327.913 699.38L347.156 673.66L350.913 676.434L468.648 752.653C477.226 757.299 486.383 759.992 496.106 760.746V760.988H181.508L203.767 650.094C209.531 650.404 215.254 650.121 220.95 649.259Z" fill="#2357D1"/>
<path d="M193.723 375.901L254.105 368.414L254.59 368.522C254.24 370.488 254.078 372.454 254.105 374.447C254.105 422.764 299.486 446.922 299.486 446.922C313.518 446.922 325.261 427.84 326.594 403.44C330.203 405.796 334.081 407.601 338.215 408.84C342.363 410.065 346.591 410.685 350.914 410.685C355.237 410.685 359.465 410.065 363.599 408.84C367.747 407.601 371.612 405.796 375.234 403.44C376.567 427.84 388.296 446.922 402.341 446.922C402.341 446.922 447.709 422.764 447.709 374.447C447.736 372.454 447.574 370.488 447.224 368.522L447.709 368.414L508.092 375.901C517.235 376.992 526.015 379.376 534.472 383.038C542.915 386.701 550.658 391.482 557.701 397.393L556.61 398.605C516.441 398.605 459.815 429.766 459.815 483.16V603.952H484.014V671.471L329.974 599.117C327.725 598.067 325.382 597.367 322.918 597.044C320.453 596.707 318.003 596.747 315.565 597.178C313.114 597.596 310.785 598.377 308.576 599.508C306.381 600.639 304.388 602.08 302.624 603.83L302.018 604.558L301.668 604.194L311.579 558.773C312.374 553.413 312.697 548.013 312.549 542.586C311.7 515.048 297.426 494.269 275.288 472.171C261.97 458.772 246.524 448.632 228.937 441.724C224.049 435.207 218.487 429.322 212.252 424.07C206.017 418.805 199.284 414.307 192.026 410.577C184.781 406.847 177.2 403.965 169.295 401.945C161.39 399.925 153.365 398.807 145.204 398.605L144.113 397.393C151.17 391.495 158.913 386.715 167.356 383.052C175.799 379.402 184.593 377.006 193.723 375.901Z" fill="#2B8FFC"/>
<path d="M254.109 157.03H229.91V108.713H471.912V157.03H254.109Z" fill="#8949F5"/>
<path d="M484.013 193.268V205.347C484.013 207.73 483.784 210.087 483.312 212.417C482.841 214.746 482.154 217.022 481.252 219.217C480.336 221.412 479.219 223.499 477.899 225.479C476.566 227.458 475.058 229.29 473.374 230.973C471.691 232.656 469.86 234.151 467.88 235.484C465.901 236.804 463.8 237.922 461.605 238.824C459.396 239.74 457.134 240.426 454.791 240.884C452.448 241.356 450.091 241.585 447.708 241.585L446.98 241.463C447.465 237.491 447.708 233.505 447.708 229.505V169.109H459.814C461.403 169.109 462.965 169.271 464.527 169.581C466.089 169.904 467.597 170.362 469.065 170.968C470.519 171.574 471.92 172.328 473.24 173.203C474.559 174.092 475.785 175.088 476.902 176.206C478.02 177.324 479.03 178.549 479.905 179.869C480.794 181.175 481.535 182.576 482.154 184.03C482.76 185.498 483.218 187.006 483.528 188.555C483.851 190.117 483.999 191.679 484.013 193.268Z" fill="#FFCDBE"/>
<path d="M254.1 241.585C251.717 241.585 249.36 241.356 247.017 240.884C244.687 240.426 242.411 239.74 240.216 238.824C238.008 237.922 235.921 236.804 233.941 235.484C231.948 234.151 230.117 232.656 228.433 230.973C226.75 229.29 225.242 227.458 223.922 225.479C222.589 223.499 221.471 221.412 220.569 219.217C219.653 217.022 218.967 214.746 218.495 212.417C218.038 210.087 217.809 207.73 217.809 205.347V193.268C217.809 191.679 217.97 190.117 218.28 188.555C218.59 187.006 219.047 185.498 219.667 184.03C220.273 182.576 221.014 181.175 221.902 179.869C222.791 178.549 223.788 177.324 224.905 176.206C226.036 175.088 227.248 174.092 228.568 173.203C229.888 172.328 231.288 171.574 232.756 170.968C234.224 170.362 235.732 169.904 237.281 169.581C238.843 169.271 240.418 169.109 242.007 169.109H254.1V229.505C254.1 233.505 254.342 237.491 254.827 241.463L254.1 241.585Z" fill="#FFCDBE"/>
<path d="M459.81 108.714H242.008C242.008 105.549 242.156 102.398 242.466 99.2469C242.775 96.0958 243.247 92.9716 243.866 89.8609C244.486 86.7637 245.253 83.6934 246.169 80.6635C247.085 77.6336 248.162 74.6576 249.374 71.7354C250.586 68.8132 251.932 65.9584 253.427 63.1574C254.922 60.3699 256.551 57.6632 258.315 55.0238C260.079 52.3979 261.965 49.8528 263.971 47.4154C265.991 44.9646 268.119 42.6215 270.354 40.3861C272.603 38.1507 274.946 36.023 277.397 34.0165C279.848 32.0101 282.393 30.1248 285.019 28.3742C287.658 26.6101 290.378 24.9807 293.166 23.4994C295.967 22.0047 298.835 20.6446 301.757 19.4326C304.693 18.2207 307.669 17.1568 310.699 16.2411C313.742 15.3254 316.813 14.5579 319.923 13.9384C323.034 13.319 326.158 12.8611 329.323 12.5514C332.474 12.2417 335.638 12.0801 338.803 12.0801H363.002C366.18 12.0801 369.344 12.2417 372.495 12.5514C375.647 12.8611 378.784 13.319 381.895 13.9384C385.006 14.5579 388.076 15.3254 391.106 16.2411C394.136 17.1568 397.125 18.2207 400.047 19.4326C402.983 20.6446 405.838 22.0047 408.639 23.4994C411.426 24.9807 414.146 26.6101 416.786 28.3742C419.425 30.1248 421.97 32.0101 424.421 34.0165C426.872 36.023 429.215 38.1507 431.451 40.3861C433.699 42.6215 435.827 44.9646 437.834 47.4154C439.84 49.8528 441.725 52.3979 443.489 55.0238C445.253 57.6632 446.883 60.3699 448.378 63.1574C449.872 65.9584 451.219 68.8132 452.444 71.7354C453.656 74.6576 454.72 77.6336 455.636 80.6635C456.565 83.6934 457.333 86.7637 457.952 89.8609C458.572 92.9716 459.029 96.0958 459.339 99.2469C459.649 102.398 459.81 105.549 459.81 108.714Z" fill="#333940"/>
<path d="M125.959 603.961C128.545 607.125 131.292 610.142 134.187 613.024C156.097 634.879 176.66 649.019 203.767 650.096L181.508 760.99L121.004 700.595V603.961H125.959Z" fill="#FFCDBE"/>
<path d="M447.713 169.11V229.506C447.713 233.506 447.471 237.492 446.986 241.464C446.434 245.935 445.559 250.339 444.387 254.688C443.202 259.024 441.734 263.266 439.957 267.414C438.193 271.548 436.146 275.547 433.803 279.399C431.473 283.25 428.888 286.926 426.046 290.428C423.205 293.915 420.135 297.188 416.835 300.258C413.523 303.328 410.035 306.143 406.332 308.728C402.629 311.3 398.777 313.603 394.751 315.65C390.738 317.683 386.59 319.434 382.335 320.902C378.066 322.356 373.717 323.514 369.286 324.376C364.869 325.238 360.398 325.776 355.901 326.005C351.39 326.248 346.892 326.167 342.408 325.776C337.91 325.372 333.466 324.672 329.076 323.662C324.686 322.652 320.377 321.333 316.175 319.73C311.96 318.114 307.88 316.215 303.935 314.034C299.989 311.852 296.218 309.415 292.623 306.708C289.014 304.002 285.621 301.052 282.429 297.874C277.931 293.39 273.918 288.502 270.377 283.223C266.849 277.944 263.873 272.369 261.435 266.512C259.011 260.64 257.18 254.594 255.941 248.373C254.716 242.138 254.096 235.849 254.11 229.506V157.031H447.713V169.11Z" fill="#FFDECF"/>
<path d="M387.932 318.745C384.161 320.321 380.297 321.641 376.351 322.718C376.149 322.785 375.933 322.812 375.718 322.866C372.284 323.768 368.81 324.469 365.295 324.98C364.406 325.115 363.504 325.25 362.588 325.357C358.71 325.856 354.818 326.111 350.913 326.138C342.483 326.138 334.202 325.048 326.068 322.88C317.934 320.712 310.205 317.533 302.906 313.345L302.502 314.059V362.376L291.137 363.83C299.728 379.909 311.538 393.119 326.593 403.448C330.202 405.805 334.08 407.609 338.215 408.848C342.362 410.073 346.591 410.693 350.913 410.693C355.236 410.693 359.464 410.073 363.598 408.848C367.746 407.609 371.611 405.805 375.233 403.448C390.275 393.119 402.098 379.909 410.69 363.83L399.311 362.376V314.059L398.947 313.332C395.392 315.379 391.716 317.183 387.932 318.745Z" fill="#FFBEAA"/>
<path d="M125.952 603.96H108.891V578.348C113.55 587.572 119.233 596.11 125.952 603.96Z" fill="#6F3FF3"/>
<path d="M242.008 157.031H254.1V169.11H242.008V157.031Z" fill="#333940"/>
<path d="M447.707 157.031H459.813V169.11H447.707V157.031Z" fill="#333940"/>
<path d="M284.125 621.705L292.837 613.02C316.309 636.451 340.885 643.211 356.492 658.912C372.099 674.614 354.539 692.134 354.539 692.134C354.539 692.134 336.872 709.774 321.251 694.059C305.63 678.358 298.749 653.957 275.277 630.512L284.125 621.705Z" fill="#E9B789"/>
<path d="M312.549 542.596C312.697 548.023 312.374 553.423 311.579 558.782L301.668 604.204L292.834 613.024L284.122 621.71H284L275.288 630.53L266.454 639.35L220.952 649.262C215.579 650.043 210.165 650.366 204.738 650.218V648.171L310.488 542.596H312.549Z" fill="#E9B789"/>
<path d="M312.545 542.592H310.484L204.734 648.168V650.214C177.142 649.379 156.337 635.119 134.185 613.021C90.1366 568.932 82.2724 506.355 125.351 463.344C168.416 420.333 231.114 428.197 275.284 472.178C297.422 494.276 311.696 515.054 312.545 542.592Z" fill="#555A66"/>
<path d="M329.978 599.116L484.018 671.47V603.951H580.813V681.974C580.84 694.39 578.551 706.348 573.919 717.862C572.653 721.026 571.158 724.069 569.448 727.019C567.724 729.968 565.798 732.755 563.657 735.421C561.516 738.074 559.186 740.552 556.682 742.868C554.164 745.171 551.497 747.285 548.669 749.197C545.841 751.11 542.892 752.793 539.809 754.274C536.738 755.742 533.56 756.981 530.301 757.977C527.029 758.974 523.716 759.728 520.336 760.226C516.956 760.724 513.563 760.98 510.156 760.98H501.565C499.747 760.98 497.929 760.859 496.111 760.738C486.388 759.984 477.231 757.291 468.653 752.645L350.918 676.426L347.161 673.652L327.918 699.372C326.005 701.271 323.837 702.793 321.427 703.964C319.003 705.136 316.458 705.89 313.778 706.227C311.112 706.55 308.459 706.442 305.82 705.89C303.194 705.338 300.716 704.368 298.4 702.995L265.852 683.428C264.061 682.365 262.445 681.072 260.991 679.591C259.536 678.096 258.297 676.453 257.26 674.635C256.237 672.83 255.456 670.918 254.917 668.912C254.392 666.905 254.123 664.858 254.109 662.771V652.268L302.022 604.557L302.628 603.83C304.392 602.079 306.385 600.638 308.58 599.507C310.789 598.376 313.118 597.595 315.569 597.177C318.007 596.746 320.457 596.706 322.922 597.043C325.386 597.366 327.729 598.066 329.978 599.116Z" fill="#FFCDBE"/>
<path d="M60.5038 314.06C57.8509 314.06 55.2116 313.831 52.5856 313.4C49.9597 312.956 47.4011 312.309 44.883 311.447C42.3648 310.586 39.9409 309.522 37.5977 308.256C35.2681 306.99 33.0462 305.549 30.9454 303.92C28.8447 302.29 26.8921 300.499 25.1011 298.547C23.2966 296.594 21.6672 294.507 20.1994 292.298C18.745 290.077 17.4792 287.747 16.4154 285.323C15.3381 282.899 14.4762 280.394 13.8164 277.822C13.3181 279.613 12.9411 281.418 12.6583 283.249C12.3755 285.081 12.2005 286.912 12.1331 288.77C12.0658 290.615 12.1062 292.46 12.2543 294.305C12.4024 296.15 12.6448 297.981 13.0084 299.799C13.3586 301.617 13.8164 303.408 14.382 305.172C14.9476 306.936 15.6074 308.66 16.3615 310.357C17.1291 312.04 17.9775 313.683 18.9336 315.272C19.8762 316.861 20.9131 318.396 22.0443 319.864C23.162 321.332 24.3739 322.732 25.6667 324.065C26.946 325.398 28.306 326.664 29.7335 327.836C31.1744 329.007 32.6691 330.098 34.2177 331.108C35.7798 332.118 37.3823 333.034 39.0521 333.842C40.7084 334.663 42.4186 335.39 44.1693 336.023C45.9064 336.643 47.6839 337.168 49.4884 337.585C51.2929 338.003 53.1243 338.326 54.9557 338.541C56.8006 338.743 58.6589 338.851 60.5038 338.851C62.3621 338.851 64.207 338.743 66.0519 338.541C67.8967 338.326 69.7147 338.003 71.5191 337.585C73.3236 337.168 75.1012 336.643 76.8518 336.023C78.6024 335.39 80.2991 334.663 81.9689 333.842C83.6253 333.034 85.2412 332.118 86.7898 331.108C88.3519 330.098 89.8467 329.007 91.2741 327.836C92.7015 326.664 94.0616 325.398 95.3543 324.065C96.6336 322.732 97.8456 321.332 98.9768 319.864C100.094 318.396 101.131 316.861 102.087 315.272C103.03 313.683 103.892 312.04 104.646 310.357C105.414 308.66 106.073 306.936 106.639 305.172C107.191 303.408 107.649 301.617 108.013 299.799C108.363 297.981 108.619 296.15 108.753 294.305C108.901 292.46 108.942 290.615 108.874 288.77C108.807 286.912 108.632 285.081 108.349 283.249C108.08 281.418 107.689 279.613 107.205 277.822C106.545 280.394 105.683 282.899 104.606 285.323C103.528 287.747 102.263 290.077 100.808 292.298C99.3538 294.507 97.7244 296.594 95.9199 298.547C94.1155 300.499 92.1629 302.29 90.0621 303.92C87.9614 305.549 85.7529 306.99 83.4098 308.256C81.0667 309.522 78.6428 310.586 76.1246 311.447C73.6199 312.309 71.0478 312.956 68.4219 313.4C65.8095 313.831 63.1701 314.06 60.5038 314.06Z" fill="#D8E0E8"/>
<path d="M459.819 108.713H447.713V120.792C447.713 122.395 447.403 123.93 446.797 125.411C446.178 126.892 445.302 128.199 444.171 129.33C443.04 130.474 441.734 131.336 440.239 131.956C438.758 132.562 437.223 132.871 435.62 132.871H266.215C264.613 132.871 263.064 132.562 261.583 131.956C260.101 131.336 258.795 130.474 257.651 129.33C256.519 128.199 255.644 126.892 255.038 125.411C254.419 123.93 254.109 122.395 254.109 120.792V108.713H229.91V157.03H471.912V108.713H459.819Z" fill="#6F3FF3"/>
<path d="M471.907 211.392V201.32C471.759 199.879 471.476 198.451 471.046 197.064C470.628 195.677 470.076 194.331 469.389 193.051C468.702 191.759 467.908 190.56 466.979 189.429C466.063 188.298 465.04 187.261 463.922 186.332C462.804 185.403 461.606 184.581 460.326 183.881C459.047 183.181 457.714 182.615 456.327 182.171C454.926 181.74 453.513 181.43 452.058 181.269C450.617 181.093 449.163 181.08 447.709 181.188V229.505C447.709 230.999 447.507 232.494 447.426 234.016C448.947 233.975 450.456 233.8 451.95 233.491C453.445 233.181 454.886 232.736 456.3 232.157C457.714 231.592 459.061 230.892 460.34 230.084C461.633 229.262 462.831 228.333 463.949 227.31C465.067 226.273 466.076 225.155 466.992 223.93C467.908 222.718 468.702 221.425 469.376 220.065C470.062 218.705 470.615 217.304 471.032 215.836C471.463 214.382 471.759 212.901 471.907 211.392Z" fill="#FFBEAA"/>
<path d="M254.109 181.188C252.655 181.08 251.2 181.093 249.759 181.269C248.305 181.43 246.891 181.74 245.504 182.171C244.117 182.615 242.77 183.181 241.505 183.881C240.225 184.581 239.013 185.403 237.896 186.332C236.778 187.261 235.754 188.298 234.839 189.429C233.923 190.56 233.115 191.759 232.428 193.051C231.755 194.331 231.189 195.677 230.772 197.064C230.341 198.451 230.058 199.879 229.91 201.32V211.392C230.072 212.901 230.355 214.382 230.785 215.836C231.203 217.304 231.755 218.705 232.442 220.065C233.129 221.425 233.923 222.718 234.839 223.93C235.741 225.155 236.764 226.273 237.882 227.31C239 228.333 240.198 229.262 241.478 230.084C242.77 230.892 244.117 231.592 245.518 232.157C246.931 232.736 248.386 233.181 249.867 233.491C251.362 233.8 252.87 233.975 254.392 234.016C254.311 232.494 254.109 230.999 254.109 229.505V181.188Z" fill="#FFBEAA"/>
<path d="M447.713 181.19V157.031H254.11V229.506C254.096 235.849 254.716 242.138 255.941 248.373C257.18 254.594 259.011 260.64 261.435 266.512C263.873 272.369 266.849 277.944 270.377 283.223C273.918 288.502 277.931 293.39 282.429 297.874C288.543 303.961 295.357 309.105 302.871 313.334C310.183 317.535 317.913 320.713 326.046 322.895C334.193 325.063 342.488 326.14 350.918 326.14C354.958 326.127 358.998 325.857 363.011 325.332C350.231 323.73 338.26 319.73 327.083 313.334C319.555 309.105 312.741 303.961 306.628 297.874C302.13 293.39 298.117 288.502 294.589 283.223C291.047 277.944 288.071 272.369 285.647 266.512C283.21 260.64 281.379 254.594 280.153 248.373C278.914 242.138 278.308 235.849 278.308 229.506V205.348C278.308 203.759 278.47 202.197 278.78 200.635C279.089 199.086 279.547 197.565 280.153 196.11C280.759 194.642 281.513 193.242 282.389 191.922C283.277 190.603 284.274 189.391 285.405 188.273C286.523 187.142 287.748 186.145 289.068 185.256C290.388 184.381 291.788 183.64 293.256 183.035C294.724 182.429 296.232 181.971 297.794 181.661C299.356 181.351 300.918 181.19 302.507 181.19H447.713Z" fill="#FFCDBE"/>
<path d="M423.503 181.188V229.504C423.503 233.504 423.261 237.49 422.776 241.462C422.116 246.755 421.012 251.952 419.477 257.056C417.955 262.16 416.016 267.115 413.673 271.896C411.316 276.69 408.596 281.255 405.485 285.591C402.388 289.927 398.941 293.981 395.17 297.751C391.4 301.522 387.333 304.955 382.997 308.053C378.647 311.15 374.082 313.87 369.288 316.227C364.494 318.57 359.539 320.509 354.422 322.031C349.304 323.566 344.093 324.657 338.801 325.33C342.814 325.855 346.854 326.124 350.907 326.138C353.816 326.138 356.738 326.003 359.633 325.734C362.542 325.465 365.437 325.061 368.305 324.535C371.174 324.01 374.015 323.35 376.829 322.569C379.63 321.788 382.404 320.873 385.138 319.849C387.858 318.812 390.538 317.654 393.164 316.388C395.79 315.109 398.348 313.722 400.853 312.214C403.344 310.706 405.782 309.09 408.125 307.366C410.481 305.642 412.757 303.824 414.939 301.885C417.134 299.96 419.221 297.94 421.227 295.825C423.234 293.711 425.133 291.503 426.951 289.213C428.755 286.924 430.452 284.554 432.041 282.117C433.63 279.679 435.111 277.175 436.485 274.589C437.845 272.017 439.084 269.391 440.215 266.698C441.346 264.018 442.343 261.285 443.231 258.497C444.107 255.723 444.861 252.909 445.494 250.067C446.113 247.226 446.611 244.358 446.975 241.462C447.46 237.49 447.702 233.504 447.702 229.504V181.188H423.503Z" fill="#FFE8DE"/>
<path d="M496.111 760.744C486.388 759.99 477.231 757.297 468.653 752.651L350.918 676.432L347.161 673.658L327.918 699.379C326.006 701.277 323.837 702.799 321.427 703.971C319.003 705.142 316.458 705.896 313.778 706.233C311.112 706.556 308.459 706.448 305.82 705.896C303.194 705.344 300.716 704.375 298.4 703.001L265.852 683.435C261.92 681.038 258.93 677.792 256.856 673.685L254.109 676.432V686.936C254.123 689.023 254.392 691.07 254.917 693.076C255.456 695.083 256.237 696.995 257.26 698.8C258.297 700.618 259.536 702.26 260.991 703.755C262.445 705.236 264.061 706.529 265.852 707.593L298.4 727.159C300.716 728.533 303.194 729.503 305.82 730.055C308.459 730.607 311.112 730.715 313.778 730.391C316.458 730.055 319.003 729.301 321.427 728.129C323.837 726.957 326.006 725.436 327.918 723.537L328.254 723.106C330.544 723.779 332.887 724.143 335.284 724.183C337.681 724.237 340.024 723.955 342.353 723.349C344.67 722.756 346.851 721.854 348.925 720.655C350.999 719.457 352.871 718.002 354.54 716.292C357.126 713.518 359.2 710.408 360.775 706.96L444.212 760.987H496.111V760.744Z" fill="#1D47A8"/>
<path d="M220.958 673.418L254.556 666.159C254.327 665.042 254.179 663.924 254.112 662.779V652.276L302.024 604.565L301.674 604.201L284.007 621.707L266.46 639.348L220.958 649.259C215.262 650.121 209.538 650.404 203.775 650.094L199.008 673.848C200.907 674.037 202.778 674.32 204.744 674.374C210.171 674.522 215.585 674.199 220.958 673.418Z" fill="#1D47A8"/>
<path d="M317.153 361.07C316.951 360.087 316.871 359.09 316.925 358.08C316.978 357.084 317.14 356.101 317.45 355.131C317.746 354.175 318.15 353.259 318.675 352.411C319.2 351.549 319.833 350.768 320.56 350.068C321.274 349.368 322.069 348.762 322.944 348.263C323.819 347.765 324.748 347.375 325.718 347.105C326.688 346.836 327.684 346.701 328.681 346.674C329.69 346.661 330.687 346.755 331.67 346.984C354.603 350.189 377.145 348.425 399.311 341.705V314.059L398.947 313.332C395.392 315.379 391.716 317.183 387.932 318.745C384.161 320.321 380.297 321.641 376.351 322.718C376.149 322.785 375.933 322.812 375.718 322.866C372.284 323.768 368.81 324.469 365.295 324.98C364.406 325.115 363.504 325.25 362.588 325.357C358.71 325.856 354.818 326.111 350.913 326.138C342.483 326.138 334.202 325.048 326.068 322.88C317.934 320.712 310.205 317.533 302.906 313.345L302.502 314.059V362.376L291.137 363.83C299.728 379.909 311.538 393.119 326.593 403.448C334.027 408.121 342.133 410.531 350.913 410.693C353.243 410.679 355.546 410.477 357.848 410.073C331.549 406.909 321.126 381 317.153 361.07Z" fill="#FBB39F"/>
<path d="M508.218 688.515C509.821 688.515 511.369 688.206 512.851 687.6C514.332 686.98 515.638 686.105 516.769 684.974C517.914 683.843 518.789 682.536 519.395 681.055C520.015 679.574 520.311 678.039 520.324 676.436V664.357C520.311 662.768 520.473 661.192 520.782 659.644C521.092 658.082 521.55 656.573 522.156 655.106C522.762 653.651 523.516 652.251 524.391 650.931C525.28 649.611 526.277 648.399 527.408 647.268C528.525 646.151 529.751 645.154 531.07 644.265C532.39 643.39 533.791 642.649 535.258 642.03C536.726 641.424 538.235 640.966 539.797 640.656C541.359 640.347 542.934 640.199 544.523 640.199H580.815V603.961H484.02V664.357C484.02 665.946 484.168 667.508 484.477 669.07C484.787 670.619 485.245 672.14 485.864 673.595C486.47 675.063 487.211 676.463 488.1 677.783C488.975 679.089 489.985 680.314 491.103 681.432C492.234 682.563 493.446 683.56 494.779 684.449C496.099 685.324 497.486 686.064 498.954 686.67C500.421 687.276 501.943 687.734 503.492 688.044C505.054 688.354 506.629 688.515 508.218 688.515Z" fill="#FBB39F"/>
<path d="M483.825 732.663L381.468 664.551C380.229 663.716 378.91 663.016 377.536 662.423C376.149 661.844 374.722 661.386 373.254 661.063C371.8 660.74 370.318 660.551 368.81 660.511C367.315 660.457 365.821 660.551 364.339 660.78C362.858 661.009 361.404 661.373 359.99 661.871C358.576 662.383 357.216 663.002 355.923 663.756C354.617 664.497 353.405 665.372 352.26 666.342C351.129 667.325 350.092 668.389 349.149 669.56L347.547 673.937L350.913 676.428L468.649 752.647C477.227 757.293 486.384 759.986 496.106 760.74C497.924 760.861 499.742 760.982 501.56 760.982H510.151C517.087 760.982 523.887 759.945 530.512 757.885C537.138 755.825 543.319 752.835 549.042 748.903H537.515C527.967 748.903 518.608 747.516 509.465 744.756C500.321 741.981 491.784 737.955 483.825 732.663Z" fill="#FBB39F"/>
<path d="M332.637 667.04L339.895 663.269C341.538 661.627 343.383 660.253 345.417 659.135C347.463 658.031 349.618 657.223 351.88 656.738C354.156 656.24 356.445 656.079 358.775 656.254C361.091 656.415 363.34 656.913 365.508 657.721L375.123 661.344C376.375 659.364 377.399 657.277 378.207 655.082C379.015 652.887 379.58 650.625 379.904 648.308C380.24 645.992 380.307 643.663 380.146 641.333C379.971 638.99 379.567 636.701 378.907 634.452C378.247 632.216 377.358 630.062 376.254 628.001C375.136 625.941 373.817 624.015 372.295 622.238C370.76 620.46 369.077 618.858 367.205 617.444C365.347 616.017 363.354 614.818 361.226 613.822L329.971 599.116C327.722 598.066 325.379 597.366 322.914 597.043C320.45 596.706 317.999 596.746 315.562 597.177C313.111 597.595 310.781 598.376 308.573 599.507C306.378 600.638 304.385 602.079 302.621 603.83L302.015 604.557L261.684 644.726L297.167 665.99C299.833 667.579 302.661 668.818 305.637 669.693C308.613 670.555 311.657 671.039 314.767 671.134C317.865 671.228 320.935 670.918 323.965 670.232C326.995 669.531 329.877 668.467 332.637 667.04Z" fill="#FFDECF"/>
<path d="M544.519 579.802C538.675 579.788 533.019 578.738 527.551 576.651C522.098 574.577 517.182 571.601 512.806 567.723H459.816V603.96H592.916V579.802H544.519Z" fill="#6F3FF3"/>
<path d="M496.108 531.484V471.088C496.108 432.197 550.929 416.805 572.34 412.267C568.004 406.786 563.129 401.831 557.702 397.4L556.612 398.612C516.442 398.612 459.816 429.773 459.816 483.167V567.721H512.806C510.194 565.472 507.85 562.981 505.777 560.234C503.703 557.473 501.952 554.538 500.511 551.413C499.07 548.289 497.98 545.044 497.239 541.691C496.498 538.324 496.121 534.917 496.108 531.484Z" fill="#E1EAF2"/>
<path d="M203.767 650.096C176.66 649.019 156.097 634.879 134.187 613.024C131.292 610.142 128.545 607.125 125.959 603.961H121.004V642.043C131.938 653.961 144.61 663.603 159.019 670.969C160.42 671.575 161.753 672.329 163.019 673.191C164.284 674.066 165.442 675.036 166.52 676.126C167.597 677.217 168.567 678.402 169.415 679.668C170.277 680.947 171.004 682.28 171.596 683.694C172.202 685.095 172.66 686.549 172.984 688.044C173.32 689.539 173.495 691.047 173.536 692.582C173.576 694.104 173.468 695.625 173.226 697.134C172.984 698.642 172.593 700.123 172.068 701.564L158.4 737.923L181.508 760.99L203.767 650.096Z" fill="#FBB39F"/>
<path d="M291.139 363.83L302.505 362.376V339.551L290.722 342.15V350.297C289.092 350.31 287.476 350.499 285.887 350.876C284.298 351.253 282.763 351.805 281.295 352.532C279.841 353.259 278.468 354.135 277.215 355.185C275.949 356.222 274.818 357.38 273.822 358.686C272.839 359.979 272.004 361.38 271.33 362.861C270.657 364.356 270.159 365.891 269.836 367.493C269.526 369.096 269.391 370.712 269.445 372.341C269.499 373.984 269.728 375.586 270.159 377.162C270.671 380.421 271.546 383.572 272.758 386.642C273.983 389.699 275.532 392.581 277.404 395.301C279.276 398.021 281.417 400.499 283.841 402.734C286.264 404.97 288.904 406.922 291.759 408.565C292.634 408.902 293.442 409.319 294.21 409.844C294.977 410.37 295.677 410.962 296.31 411.649C296.93 412.322 297.482 413.063 297.94 413.871C298.398 414.679 298.748 415.527 299.017 416.402C299.273 417.291 299.434 418.207 299.488 419.123C299.542 420.052 299.502 420.968 299.34 421.883C299.179 422.785 298.923 423.674 298.559 424.523C298.209 425.371 297.751 426.179 297.213 426.933C295.381 429.115 293.2 430.865 290.681 432.185C288.15 433.491 285.457 434.272 282.615 434.515C287.786 439.268 293.402 443.416 299.488 446.93C313.52 446.93 325.263 427.849 326.596 403.448C311.541 393.119 299.731 379.909 291.139 363.83Z" fill="#E1EAF2"/>
<path d="M404.941 426.866C404.389 426.112 403.944 425.317 403.581 424.469C403.217 423.607 402.961 422.732 402.813 421.816C402.652 420.9 402.598 419.984 402.652 419.055C402.719 418.14 402.867 417.237 403.136 416.349C403.406 415.46 403.756 414.611 404.214 413.803C404.672 413.009 405.224 412.255 405.857 411.582C406.476 410.908 407.176 410.302 407.944 409.777C408.711 409.265 409.533 408.834 410.395 408.511C413.25 406.855 415.889 404.916 418.313 402.68C420.737 400.432 422.891 397.954 424.75 395.247C426.621 392.527 428.17 389.632 429.395 386.575C430.621 383.518 431.483 380.353 432.008 377.095C432.425 375.519 432.654 373.917 432.708 372.287C432.749 370.658 432.614 369.042 432.291 367.453C431.968 365.85 431.469 364.302 430.796 362.82C430.123 361.339 429.288 359.952 428.291 358.659C427.295 357.367 426.177 356.195 424.911 355.158C423.645 354.121 422.285 353.246 420.831 352.519C419.363 351.792 417.841 351.239 416.239 350.876C414.65 350.499 413.048 350.31 411.405 350.297V342.231L399.312 339.551V362.376L410.691 363.83C402.099 379.909 390.276 393.119 375.234 403.448C376.568 427.849 388.297 446.93 402.342 446.93C408.442 443.389 414.084 439.214 419.282 434.434C416.481 434.164 413.842 433.37 411.364 432.064C408.873 430.757 406.732 429.02 404.941 426.866Z" fill="#E1EAF2"/>
<path d="M344.855 410.207C346.862 410.517 348.882 410.678 350.915 410.692C359.695 410.53 367.802 408.12 375.235 403.447C390.277 393.118 402.1 379.908 410.692 363.829L399.313 362.375C399.313 362.375 377.753 405.359 344.855 410.207Z" fill="#FBB39F"/>
<path d="M452.862 446.627C447.233 453.158 442.937 460.471 439.975 468.55C436.999 476.63 435.544 484.979 435.612 493.584V628.112H459.81V660.107L484.009 671.473V603.953H459.81V483.161C459.81 442.668 492.385 414.995 525.647 403.98L522.334 402.916C508.814 406.538 496.129 412.073 484.279 419.52C472.442 426.98 461.965 436.016 452.862 446.627Z" fill="#2864F0"/>
<path d="M254.105 374.447V368.414L193.723 375.901C184.593 377.006 175.799 379.402 167.356 383.052C158.913 386.715 151.17 391.495 144.113 397.393L145.204 398.605C155.762 398.794 166.023 400.598 176.001 404.032C201.372 395.346 227.415 389.677 254.105 387.038V374.447Z" fill="#2CB5FF"/>
<path d="M557.699 397.393C550.656 391.482 542.913 386.701 534.47 383.038C526.027 379.376 517.233 376.992 508.09 375.901L447.707 368.414V387.038C474.343 389.65 500.32 395.293 525.649 403.938C535.682 400.518 546.01 398.74 556.608 398.605L557.699 397.393Z" fill="#2CB5FF"/>
<path d="M255.321 386.938L254.109 387.045V422.771C254.109 424.36 254.271 425.922 254.581 427.484C254.89 429.033 255.348 430.555 255.954 432.022C256.56 433.477 257.301 434.877 258.19 436.197C259.078 437.517 260.075 438.729 261.206 439.86C262.324 440.977 263.549 441.974 264.869 442.863C266.189 443.738 267.589 444.479 269.057 445.085C270.525 445.691 272.033 446.162 273.595 446.458C275.144 446.768 276.719 446.929 278.308 446.929H299.491C293.929 443.725 288.758 439.994 283.964 435.726C279.183 431.443 274.888 426.73 271.09 421.573C267.293 416.402 264.061 410.907 261.408 405.076C258.755 399.246 256.722 393.199 255.321 386.938Z" fill="#2864F0"/>
<path d="M375.232 403.441C371.609 405.798 367.745 407.602 363.597 408.841C359.463 410.067 355.235 410.686 350.912 410.686C346.589 410.686 342.361 410.067 338.213 408.841C334.079 407.602 330.201 405.798 326.592 403.441C325.259 427.842 313.516 446.924 299.484 446.924H311.752C314.001 446.924 316.209 446.614 318.364 446.008C320.532 445.389 322.565 444.5 324.478 443.315C326.39 442.13 328.1 440.716 329.622 439.06C331.13 437.403 332.396 435.572 333.392 433.565C334.214 431.936 335.237 430.455 336.463 429.121C337.688 427.788 339.075 426.63 340.61 425.688C342.159 424.731 343.815 424.004 345.552 423.506C347.303 423.008 349.094 422.765 350.912 422.765C352.73 422.765 354.507 423.008 356.258 423.506C358.009 424.004 359.651 424.731 361.2 425.688C362.749 426.63 364.136 427.788 365.361 429.121C366.587 430.455 367.596 431.936 368.418 433.565C369.414 435.572 370.68 437.403 372.202 439.06C373.71 440.716 375.42 442.13 377.333 443.315C379.245 444.5 381.292 445.389 383.446 446.008C385.614 446.614 387.809 446.924 390.058 446.924H402.339C388.294 446.924 376.565 427.842 375.232 403.441Z" fill="#2864F0"/>
<path d="M402.344 446.929H423.513C425.102 446.929 426.677 446.768 428.239 446.458C429.788 446.162 431.31 445.691 432.777 445.085C434.245 444.479 435.632 443.738 436.952 442.863C438.285 441.974 439.497 440.977 440.628 439.86C441.746 438.729 442.756 437.517 443.631 436.197C444.52 434.877 445.261 433.477 445.867 432.022C446.473 430.555 446.944 429.033 447.254 427.484C447.563 425.922 447.711 424.36 447.711 422.771V387.045L446.499 386.938C445.099 393.199 443.079 399.246 440.426 405.076C437.76 410.907 434.528 416.402 430.731 421.573C426.933 426.73 422.637 431.443 417.857 435.726C413.076 439.994 407.905 443.725 402.344 446.929Z" fill="#2864F0"/>
<path d="M284.114 621.705L292.827 613.019L301.661 604.198L301.863 603.296C301.041 602.421 300.341 601.546 299.439 600.697L290.605 609.518L245.116 619.415C240.955 620.008 236.78 620.318 232.592 620.318L204.758 648.098V650.159C210.185 650.307 215.598 649.984 220.971 649.189L266.473 639.291L275.294 630.471L284.006 621.651L284.114 621.705Z" fill="#C7874E"/>
<path d="M232.628 620.319C231.416 620.319 230.15 620.413 229.005 620.386C201.413 619.538 180.594 605.291 158.456 583.179C122.151 546.793 110.489 497.871 131.699 457.688C129.571 459.505 127.457 461.31 125.41 463.343C82.291 506.354 90.1418 568.932 134.19 613.02C156.342 635.118 177.147 649.379 204.739 650.214V648.167L232.628 620.319Z" fill="#333940"/>
<path d="M363.008 48.3164H338.81C334.016 48.3164 329.249 48.68 324.508 49.3802C319.768 50.0939 315.109 51.1443 310.531 52.5448C305.939 53.9453 301.495 55.669 297.159 57.7293C292.836 59.7896 288.688 62.1597 284.716 64.8395C280.743 67.5058 276.986 70.4683 273.445 73.7002C269.916 76.9321 266.644 80.4064 263.628 84.1231C260.611 87.8398 257.878 91.7584 255.454 95.8791C253.016 99.9997 250.902 104.282 249.098 108.712H452.72C450.929 104.282 448.815 99.9997 446.378 95.8791C443.94 91.7584 441.22 87.8398 438.204 84.1231C435.187 80.4064 431.902 76.9321 428.373 73.7002C424.832 70.4683 421.088 67.5058 417.116 64.8395C413.13 62.1597 408.982 59.7896 404.659 57.7293C400.337 55.669 395.879 53.9453 391.301 52.5448C386.709 51.1443 382.05 50.0939 377.31 49.3802C372.569 48.68 367.802 48.3164 363.008 48.3164Z" fill="#2A2E33"/>
<path d="M278.3 108.713H350.91C352.512 108.713 354.047 109.023 355.542 109.629C357.023 110.248 358.329 111.123 359.461 112.255C360.592 113.386 361.467 114.692 362.086 116.173C362.692 117.654 363.002 119.19 363.002 120.792C363.002 122.395 362.692 123.93 362.086 125.411C361.467 126.892 360.592 128.199 359.461 129.33C358.329 130.474 357.023 131.336 355.542 131.956C354.047 132.562 352.512 132.871 350.91 132.871H278.3C276.697 132.871 275.162 132.562 273.667 131.956C272.186 131.336 270.88 130.474 269.749 129.33C268.617 128.199 267.742 126.892 267.123 125.411C266.517 123.93 266.207 122.395 266.207 120.792C266.207 119.19 266.517 117.654 267.123 116.173C267.742 114.692 268.617 113.386 269.749 112.255C270.88 111.123 272.186 110.248 273.667 109.629C275.162 109.023 276.697 108.713 278.3 108.713Z" fill="#9863FC"/>
<path d="M387.206 108.713H411.405C413.021 108.713 414.556 109.023 416.037 109.629C417.518 110.248 418.838 111.123 419.969 112.255C421.1 113.386 421.976 114.692 422.595 116.173C423.201 117.654 423.511 119.19 423.511 120.792C423.511 122.395 423.201 123.93 422.595 125.411C421.976 126.892 421.1 128.199 419.969 129.33C418.838 130.474 417.518 131.336 416.037 131.956C414.556 132.562 413.021 132.871 411.405 132.871H387.206C385.603 132.871 384.068 132.562 382.574 131.956C381.092 131.336 379.786 130.474 378.655 129.33C377.524 128.199 376.648 126.892 376.029 125.411C375.423 123.93 375.113 122.395 375.113 120.792C375.113 119.19 375.423 117.654 376.029 116.173C376.648 114.692 377.524 113.386 378.655 112.255C379.786 111.123 381.092 110.248 382.574 109.629C384.068 109.023 385.603 108.713 387.206 108.713Z" fill="#9863FC"/>
<path d="M276.437 489.601C277.716 490.88 278.901 492.24 279.992 493.668C281.069 495.109 282.025 496.59 282.86 498.139C283.695 499.674 284.382 501.222 284.947 502.798C285.499 504.387 285.903 505.949 286.159 507.511C286.415 509.06 286.523 510.581 286.469 512.063C286.415 513.544 286.2 514.944 285.849 516.291C285.486 517.624 284.974 518.877 284.328 520.035C283.668 521.179 282.887 522.216 281.958 523.145C281.042 524.061 280.005 524.856 278.847 525.502C277.689 526.162 276.437 526.66 275.09 527.024C273.757 527.387 272.343 527.589 270.861 527.643C269.38 527.697 267.859 527.603 266.296 527.347C264.734 527.091 263.172 526.687 261.583 526.135C260.008 525.583 258.446 524.882 256.91 524.061C255.362 523.226 253.881 522.27 252.44 521.193C250.999 520.115 249.639 518.93 248.346 517.651C247.067 516.372 245.882 515.012 244.804 513.584C243.727 512.143 242.771 510.649 241.936 509.114C241.101 507.578 240.401 506.03 239.849 504.441C239.283 502.865 238.879 501.303 238.623 499.741C238.368 498.192 238.273 496.671 238.327 495.189C238.381 493.708 238.583 492.308 238.947 490.961C239.297 489.614 239.808 488.376 240.468 487.217C241.115 486.059 241.909 485.022 242.825 484.107C243.754 483.191 244.791 482.397 245.949 481.75C247.094 481.09 248.346 480.579 249.693 480.228C251.039 479.865 252.453 479.649 253.921 479.596C255.402 479.542 256.924 479.649 258.486 479.905C260.048 480.161 261.624 480.565 263.199 481.117C264.775 481.669 266.337 482.37 267.885 483.191C269.421 484.026 270.915 484.982 272.356 486.059C273.797 487.137 275.157 488.308 276.437 489.601Z" fill="#F6FAFD"/>
<path d="M269.419 545.051C270.726 546.344 271.803 547.771 272.651 549.333C273.5 550.895 274.052 552.457 274.308 554.046C274.563 555.622 274.51 557.09 274.146 558.45C273.782 559.81 273.136 560.968 272.193 561.897C271.264 562.826 270.106 563.486 268.746 563.85C267.386 564.213 265.905 564.267 264.329 564.011C262.74 563.755 261.165 563.203 259.602 562.355C258.04 561.52 256.613 560.443 255.307 559.15C254.014 557.844 252.937 556.416 252.088 554.854C251.24 553.292 250.688 551.73 250.432 550.155C250.176 548.566 250.23 547.098 250.594 545.738C250.957 544.378 251.604 543.233 252.546 542.29C253.475 541.361 254.633 540.701 255.994 540.338C257.354 539.974 258.821 539.92 260.41 540.176C261.986 540.432 263.562 540.984 265.124 541.832C266.686 542.681 268.127 543.745 269.419 545.051Z" fill="#F6FAFD"/>
<path d="M87.9174 267.237C89.2236 268.543 90.3009 269.97 91.1493 271.532C91.9842 273.094 92.5363 274.657 92.8056 276.232C93.0615 277.821 93.0076 279.289 92.6441 280.649C92.2805 282.009 91.6206 283.154 90.6915 284.096C89.7488 285.025 88.6042 285.672 87.2441 286.049C85.884 286.413 84.4027 286.466 82.8272 286.211C81.2382 285.955 79.6626 285.403 78.1005 284.554C76.5385 283.706 75.111 282.642 73.8048 281.336C72.4986 280.043 71.4348 278.616 70.5864 277.053C69.738 275.491 69.1859 273.929 68.93 272.34C68.6607 270.765 68.7146 269.297 69.0916 267.937C69.4552 266.577 70.1016 265.419 71.0442 264.49C71.9734 263.56 73.118 262.901 74.4916 262.537C75.8517 262.173 77.3195 262.119 78.9085 262.375C80.4841 262.631 82.0596 263.183 83.6217 264.032C85.1838 264.867 86.6112 265.944 87.9174 267.237Z" fill="#F6FAFD"/>
<mask id="mask0_1365_2138" style="mask-type:luminance" maskUnits="userSpaceOnUse" x="82" y="0" width="523" height="774">
<path d="M82.668 0H604.996V773.068H82.668V0Z" fill="white"/>
</mask>
<g mask="url(#mask0_1365_2138)">
<path d="M580.799 555.643H471.897V483.168C471.897 439.079 519.42 411.77 554.62 410.787C558.754 414.733 562.458 419.042 565.717 423.728C568.975 428.414 571.722 433.383 573.971 438.635C576.22 443.887 577.93 449.3 579.075 454.889C580.22 460.477 580.799 466.133 580.799 471.843H604.997C604.997 468.557 604.849 465.285 604.54 462.026C604.243 458.767 603.799 455.522 603.206 452.303C602.614 449.071 601.873 445.88 600.998 442.729C600.109 439.564 599.086 436.467 597.928 433.397C596.756 430.326 595.463 427.323 594.023 424.374C592.595 421.425 591.02 418.557 589.323 415.743C587.64 412.942 585.808 410.221 583.869 407.582C581.93 404.929 579.87 402.384 577.701 399.933C575.533 397.469 573.244 395.112 570.861 392.863C568.477 390.615 565.999 388.473 563.414 386.453C560.842 384.42 558.175 382.508 555.415 380.73C552.668 378.939 549.84 377.283 546.945 375.748C544.036 374.213 541.073 372.812 538.043 371.546C535.014 370.281 531.93 369.163 528.806 368.166C525.681 367.183 522.503 366.335 519.298 365.635C516.094 364.934 512.862 364.382 509.603 363.965L456.559 357.353C455.644 354.606 454.405 352.007 452.856 349.57C451.294 347.119 449.463 344.897 447.362 342.917C445.248 340.924 442.932 339.214 440.413 337.8C437.882 336.373 435.215 335.282 432.414 334.528L411.394 329.855V319.836C417.198 315.958 422.557 311.568 427.513 306.666C432.468 301.764 436.899 296.445 440.831 290.695C444.75 284.945 448.103 278.872 450.863 272.475C453.624 266.092 455.751 259.494 457.246 252.694C459.966 252.155 462.619 251.374 465.205 250.377C467.79 249.381 470.268 248.155 472.652 246.728C475.022 245.301 477.257 243.685 479.358 241.88C481.458 240.062 483.384 238.083 485.148 235.942C486.899 233.8 488.461 231.525 489.834 229.114C491.194 226.704 492.339 224.199 493.282 221.6C494.211 218.988 494.911 216.321 495.382 213.588C495.867 210.867 496.096 208.12 496.096 205.346V193.267C496.096 190.439 495.76 187.665 495.1 184.918C494.426 182.171 493.457 179.532 492.178 177.027C490.898 174.509 489.336 172.166 487.505 170.011C485.673 167.856 483.613 165.944 481.337 164.274C483.061 162.174 483.95 159.75 484.004 157.03V108.713C484.004 107.11 483.694 105.575 483.074 104.094C482.468 102.613 481.593 101.306 480.462 100.175C479.317 99.044 478.011 98.1687 476.53 97.5493C475.048 96.9433 473.5 96.6336 471.897 96.6336H471.184C470.82 93.3478 470.295 90.089 469.622 86.8571C468.962 83.6117 468.14 80.4068 467.184 77.2422C466.215 74.0911 465.11 70.967 463.872 67.9101C462.633 64.8398 461.246 61.8369 459.724 58.9012C458.202 55.9656 456.559 53.1108 454.768 50.3233C452.991 47.5357 451.092 44.829 449.059 42.2166C447.039 39.6041 444.898 37.086 442.635 34.662C440.373 32.2516 438.016 29.9354 435.552 27.7269C433.074 25.5185 430.516 23.4312 427.863 21.4651C425.197 19.4991 422.449 17.6542 419.635 15.9305C416.807 14.2069 413.898 12.6178 410.936 11.15C407.96 9.69568 404.93 8.37599 401.833 7.19096C398.735 6.0194 395.598 4.96903 392.406 4.08026C389.228 3.17803 385.996 2.43739 382.751 1.83141C379.492 1.22543 376.206 0.767573 372.907 0.471318C369.621 0.161594 366.309 0.0134654 362.996 0H338.797C335.485 0.0134654 332.185 0.161594 328.886 0.471318C325.587 0.767573 322.315 1.22543 319.056 1.83141C315.797 2.43739 312.579 3.17803 309.387 4.08026C306.196 4.96903 303.058 6.0194 299.961 7.19096C296.877 8.37599 293.847 9.69568 290.871 11.15C287.895 12.6178 285 14.2069 282.172 15.9305C279.344 17.6542 276.597 19.4991 273.944 21.4651C271.278 23.4312 268.719 25.5185 266.255 27.7269C263.777 29.9354 261.42 32.2516 259.158 34.662C256.909 37.086 254.768 39.6041 252.735 42.2166C250.715 44.829 248.803 47.5357 247.025 50.3233C245.248 53.1108 243.591 55.9656 242.069 58.9012C240.548 61.8369 239.174 64.8398 237.922 67.9101C236.683 70.967 235.579 74.0911 234.623 77.2422C233.653 80.4068 232.845 83.6117 232.172 86.8571C231.498 90.089 230.987 93.3478 230.61 96.6336H229.896C228.294 96.6336 226.745 96.9433 225.264 97.5493C223.782 98.1687 222.476 99.044 221.345 100.175C220.2 101.306 219.338 102.613 218.719 104.094C218.1 105.575 217.803 107.11 217.803 108.713V157.03C217.844 159.75 218.733 162.174 220.456 164.274C218.18 165.944 216.12 167.856 214.289 170.011C212.457 172.166 210.909 174.509 209.629 177.027C208.337 179.532 207.367 182.171 206.707 184.918C206.047 187.665 205.711 190.439 205.697 193.267V205.346C205.697 208.12 205.94 210.867 206.411 213.588C206.882 216.321 207.582 218.988 208.525 221.6C209.454 224.199 210.599 226.704 211.972 229.114C213.333 231.525 214.895 233.8 216.659 235.942C218.409 238.083 220.335 240.062 222.436 241.88C224.536 243.685 226.772 245.301 229.155 246.728C231.525 248.155 234.003 249.381 236.589 250.377C239.174 251.374 241.827 252.155 244.547 252.694C246.042 259.494 248.17 266.092 250.93 272.475C253.704 278.872 257.044 284.945 260.976 290.695C264.895 296.445 269.339 301.764 274.281 306.666C279.236 311.568 284.609 315.958 290.4 319.836V329.868L269.365 334.528C266.565 335.295 263.912 336.386 261.38 337.8C258.848 339.227 256.532 340.924 254.431 342.917C252.331 344.91 250.499 347.119 248.937 349.57C247.389 352.007 246.15 354.606 245.234 357.353L192.191 363.965C188.932 364.382 185.7 364.934 182.495 365.635C179.29 366.335 176.125 367.183 172.988 368.166C169.864 369.163 166.78 370.281 163.75 371.546C160.72 372.812 157.757 374.213 154.862 375.748C151.954 377.283 149.126 378.939 146.379 380.73C143.631 382.508 140.965 384.42 138.38 386.453C135.808 388.473 133.316 390.615 130.933 392.863C128.549 395.112 126.273 397.469 124.092 399.933C121.924 402.384 119.864 404.929 117.924 407.582C115.985 410.221 114.167 412.942 112.471 415.743C110.774 418.557 109.212 421.425 107.771 424.374C106.343 427.323 105.037 430.326 103.879 433.397C102.708 436.467 101.684 439.564 100.809 442.729C99.9201 445.88 99.1794 449.071 98.5869 452.303C97.9944 455.522 97.55 458.767 97.2538 462.026C96.9575 465.285 96.7959 468.557 96.7959 471.843V481.862C73.9303 525.344 83.9222 579.869 125.614 621.493C134.043 631 143.685 639.053 154.553 645.638C165.42 652.236 177.014 657.071 189.349 660.154L174.065 736.454L133.101 695.584V640.197H108.889V700.593C108.902 703.933 110.074 706.774 112.444 709.131L172.947 769.527L173.082 769.379C175.412 771.762 178.226 772.974 181.552 773.001H496.096V772.665C497.901 772.786 499.732 773.001 501.523 773.001H510.074C514.101 773.015 518.087 772.732 522.073 772.153C526.045 771.56 529.95 770.685 533.802 769.513C537.639 768.342 541.37 766.888 545.005 765.164C548.628 763.427 552.102 761.447 555.428 759.198C558.754 756.95 561.892 754.458 564.855 751.738C567.804 749.018 570.537 746.096 573.056 742.972C575.56 739.834 577.836 736.535 579.856 733.074C581.876 729.6 583.613 726.004 585.094 722.274C590.292 709.346 592.891 695.907 592.905 681.983V616.039C594.507 616.039 596.056 615.729 597.537 615.123C599.018 614.504 600.325 613.629 601.456 612.497C602.587 611.366 603.462 610.06 604.082 608.579C604.701 607.097 604.997 605.562 604.997 603.96V495.247H580.799V555.643ZM580.799 579.801V591.881H471.897V579.801H580.799ZM435.606 374.455C435.31 380.501 434.286 386.427 432.536 392.217C430.799 398.021 428.375 403.515 425.277 408.727C422.18 413.925 418.504 418.692 414.235 422.987C409.98 427.297 405.253 431.027 400.069 434.178C396.487 430.973 393.645 427.216 391.558 422.88C389.484 418.557 388.313 413.992 388.043 409.198C402.344 397.765 413.75 383.949 422.288 367.776L411.636 362.457L412.592 354.862L427.23 358.094C431.243 359.023 435.606 365.796 435.606 374.455ZM310.316 371.358C311.649 370.254 312.7 368.907 313.44 367.331C314.195 365.769 314.572 364.113 314.599 362.376V331.875C326.328 336.103 338.434 338.217 350.903 338.217C363.373 338.217 375.466 336.103 387.195 331.875V362.376C387.222 364.1 387.599 365.742 388.34 367.305C389.08 368.867 390.104 370.2 391.423 371.317C382.549 383.356 367.979 398.613 350.903 398.613C334.582 398.613 319.783 384.124 310.316 371.358ZM471.897 205.346C471.897 207.461 471.615 209.534 471.062 211.568C470.51 213.601 469.702 215.54 468.639 217.358C467.575 219.19 466.295 220.846 464.801 222.341C463.306 223.822 461.636 225.101 459.805 226.152V181.188C461.407 181.188 462.942 181.498 464.437 182.104C465.918 182.723 467.225 183.598 468.356 184.73C469.487 185.861 470.362 187.167 470.982 188.648C471.588 190.13 471.897 191.665 471.897 193.267V205.346ZM338.797 24.1584H362.996C365.514 24.1719 368.032 24.2796 370.537 24.5085C373.042 24.7374 375.533 25.0741 378.011 25.5319C380.489 25.9763 382.94 26.5419 385.377 27.2018C387.801 27.8751 390.198 28.6426 392.554 29.5314C394.911 30.4067 397.227 31.3898 399.49 32.4805C401.765 33.5713 403.987 34.7563 406.142 36.0356C408.31 37.3284 410.411 38.7019 412.458 40.1697C414.491 41.6375 416.47 43.1996 418.369 44.8425C420.268 46.4988 422.099 48.2225 423.85 50.027C425.601 51.8449 427.257 53.7302 428.846 55.6828C430.421 57.6354 431.916 59.6553 433.317 61.7561C434.704 63.8433 436.01 65.9845 437.222 68.1929C438.434 70.4014 439.538 72.6502 440.548 74.953C441.545 77.2557 442.447 79.6123 443.255 81.9958C444.049 84.3793 444.736 86.7898 445.315 89.2406C445.894 91.678 446.365 94.1423 446.729 96.6336H302.492V120.792H459.805V144.95H242.002V120.792H278.294V96.6336H255.064C255.428 94.1423 255.899 91.678 256.478 89.2406C257.057 86.7898 257.758 84.3793 258.552 81.9958C259.347 79.6123 260.249 77.2557 261.259 74.953C262.255 72.6502 263.373 70.4014 264.572 68.1929C265.783 65.9845 267.09 63.8433 268.49 61.7561C269.891 59.6553 271.372 57.6354 272.961 55.6828C274.537 53.7302 276.206 51.8449 277.943 50.027C279.694 48.2225 281.525 46.4988 283.424 44.8425C285.323 43.1996 287.303 41.6375 289.336 40.1697C291.383 38.7019 293.483 37.3284 295.652 36.0356C297.82 34.7563 300.028 33.5713 302.304 32.4805C304.58 31.3898 306.882 30.4067 309.252 29.5314C311.609 28.6426 313.993 27.8751 316.43 27.2018C318.854 26.5419 321.305 25.9763 323.782 25.5319C326.26 25.0741 328.752 24.7374 331.256 24.5085C333.774 24.2796 336.279 24.1719 338.797 24.1584ZM229.896 205.346V193.267C229.896 191.665 230.206 190.13 230.812 188.648C231.431 187.167 232.306 185.861 233.438 184.73C234.582 183.598 235.888 182.723 237.37 182.104C238.851 181.498 240.386 181.188 242.002 181.188V226.152C240.157 225.101 238.501 223.822 236.993 222.341C235.498 220.846 234.219 219.19 233.155 217.358C232.091 215.54 231.283 213.601 230.731 211.568C230.179 209.534 229.909 207.461 229.896 205.346ZM266.201 229.505V169.109H435.606V229.505C435.606 232.279 435.458 235.039 435.188 237.8C434.919 240.547 434.515 243.281 433.977 246.001C433.438 248.721 432.765 251.401 431.957 254.054C431.149 256.706 430.219 259.305 429.156 261.864C428.092 264.423 426.907 266.927 425.601 269.365C424.294 271.802 422.867 274.172 421.332 276.475C419.783 278.778 418.14 281 416.376 283.141C414.612 285.282 412.754 287.342 410.788 289.295C408.835 291.247 406.775 293.106 404.634 294.87C402.493 296.62 400.257 298.277 397.954 299.812C395.652 301.347 393.268 302.774 390.831 304.081C388.38 305.387 385.875 306.558 383.317 307.622C380.745 308.686 378.146 309.615 375.493 310.423C372.826 311.218 370.147 311.891 367.426 312.43C364.706 312.968 361.959 313.386 359.199 313.655C356.438 313.924 353.677 314.059 350.903 314.059C348.129 314.059 345.355 313.924 342.595 313.655C339.834 313.386 337.101 312.968 334.38 312.43C331.66 311.891 328.967 311.218 326.314 310.423C323.661 309.615 321.049 308.686 318.49 307.622C315.918 306.558 313.413 305.387 310.976 304.081C308.525 302.774 306.142 301.347 303.839 299.812C301.536 298.277 299.314 296.62 297.16 294.87C295.019 293.106 292.972 291.247 291.006 289.295C289.04 287.342 287.181 285.282 285.417 283.141C283.667 281 282.01 278.778 280.475 276.475C278.927 274.172 277.513 271.802 276.193 269.365C274.887 266.927 273.702 264.423 272.651 261.864C271.587 259.305 270.645 256.706 269.85 254.054C269.042 251.401 268.369 248.721 267.83 246.001C267.278 243.281 266.874 240.547 266.605 237.8C266.336 235.039 266.201 232.279 266.201 229.505ZM274.671 358.107L289.309 354.875L290.252 362.457L279.613 367.776C288.137 383.949 299.53 397.752 313.817 409.198C313.548 413.992 312.377 418.543 310.289 422.88C308.202 427.202 305.374 430.959 301.779 434.164C296.608 431 291.894 427.27 287.639 422.96C283.384 418.651 279.694 413.898 276.597 408.7C273.5 403.502 271.076 397.994 269.312 392.204C267.548 386.413 266.511 380.501 266.201 374.455C266.201 365.796 270.551 359.023 274.671 358.107ZM109.198 536.885C108.714 530.892 108.889 524.927 109.75 518.975C110.599 513.022 112.094 507.245 114.235 501.63C116.376 496.001 119.109 490.695 122.436 485.686C125.762 480.677 129.6 476.098 133.949 471.95C137.72 468.018 141.854 464.49 146.338 461.393C150.822 458.282 155.562 455.656 160.572 453.515C165.595 451.361 170.766 449.731 176.112 448.627C181.445 447.523 186.845 446.957 192.298 446.93C194.493 446.93 196.729 447.025 198.951 447.2C205.361 447.9 211.663 449.152 217.857 450.957C224.038 452.775 230.017 455.104 235.794 457.973C241.571 460.827 247.052 464.18 252.236 468.005C257.421 471.829 262.228 476.085 266.659 480.757C284.811 498.869 297.079 515.514 299.84 536.144L198.304 637.504C177.378 634.73 160.787 622.53 142.729 604.472C138.043 600.041 133.788 595.234 129.963 590.049C126.125 584.878 122.786 579.397 119.917 573.634C117.049 567.857 114.719 561.891 112.902 555.71C111.097 549.529 109.845 543.241 109.144 536.831L109.198 536.885ZM290.642 598.183L260.384 628.388L236.521 633.559L295.813 574.375L290.642 598.183ZM213.763 661.784C216.995 661.595 220.16 661.555 223.567 661.057L242.002 657.003V662.753C242.002 665.877 242.42 668.948 243.214 671.978C244.022 674.994 245.194 677.862 246.729 680.583C248.277 683.303 250.136 685.794 252.317 688.029C254.499 690.278 256.936 692.204 259.616 693.833L292.164 713.319C293.887 714.356 295.692 715.245 297.55 715.972C299.422 716.712 301.348 717.291 303.314 717.709C305.28 718.126 307.273 718.369 309.279 718.463C311.286 718.544 313.292 718.463 315.285 718.221C317.278 717.978 319.244 717.574 321.17 716.995C323.096 716.43 324.967 715.702 326.772 714.827C328.576 713.938 330.3 712.915 331.943 711.757C333.572 710.585 335.108 709.293 336.522 707.879C336.939 707.448 337.316 707.003 337.68 706.532L349.867 690.157L440.71 748.91H196.257L213.763 661.784ZM568.706 681.983C568.706 692.837 566.7 703.3 562.646 713.386C561.609 715.999 560.384 718.517 558.97 720.941C557.556 723.378 555.967 725.681 554.203 727.876C552.439 730.071 550.527 732.118 548.453 734.017C546.379 735.929 544.184 737.666 541.854 739.241C539.525 740.817 537.087 742.204 534.542 743.416C532.011 744.628 529.385 745.651 526.691 746.459C523.998 747.281 521.265 747.9 518.477 748.304C515.69 748.722 512.889 748.924 510.074 748.91H501.523C492.218 748.937 483.438 746.783 475.197 742.487L364.329 670.725L372.678 659.521L353.314 645.032L318.881 691.288C317.925 692.137 316.847 692.823 315.662 693.335C314.477 693.847 313.252 694.157 311.973 694.278C310.693 694.399 309.414 694.318 308.162 694.022C306.909 693.739 305.738 693.268 304.634 692.608L272.072 673.122C270.254 672.018 268.827 670.55 267.776 668.705C266.74 666.861 266.201 664.868 266.201 662.753V657.273L311.124 612.417C312 611.528 312.996 610.801 314.1 610.222C315.204 609.656 316.376 609.252 317.601 609.037C318.827 608.821 320.052 608.794 321.291 608.956C322.53 609.131 323.702 609.467 324.833 609.993L515.151 699.381L525.453 677.526L335.175 588.177C329.802 585.673 324.146 584.542 318.234 584.811L323.486 560.518C329.883 516.591 308.175 487.975 283.761 463.628C235.633 415.554 170.227 409.696 124.523 447.927C125.681 444.008 127.122 440.184 128.846 436.48C130.556 432.764 132.535 429.195 134.771 425.775C137.006 422.354 139.484 419.109 142.191 416.039C144.897 412.968 147.806 410.114 150.93 407.461C154.054 404.821 157.34 402.411 160.814 400.243C164.289 398.075 167.898 396.163 171.641 394.52C175.385 392.863 179.236 391.503 183.182 390.399C187.127 389.308 191.127 388.514 195.194 388.002L242.379 382.104C246.675 431.902 291.733 456.586 293.739 457.649C295.53 458.592 297.443 459.036 299.476 459.009C316.753 459.009 330.664 443.496 336.171 420.658C345.988 423.539 355.805 423.539 365.622 420.658C371.13 443.496 385.04 459.009 402.331 459.009C404.337 459.009 406.236 458.538 408.027 457.596C410.034 456.518 455.078 431.848 459.374 382.037L506.573 387.935C512.431 388.689 518.154 390.035 523.742 391.988C485.889 403.906 447.699 435.255 447.699 483.168V603.96C447.699 605.562 448.008 607.097 448.628 608.579C449.234 610.06 450.109 611.366 451.24 612.497C452.385 613.629 453.691 614.504 455.172 615.123C456.654 615.729 458.202 616.039 459.805 616.039H471.897V640.197H496.096V616.039H568.706V681.983Z" fill="black"/>
</g>
<path d="M338.801 434.852H363V459.01H338.801V434.852Z" fill="black"/>
<path d="M338.801 483.168H363V507.326H338.801V483.168Z" fill="black"/>
<mask id="mask1_1365_2138" style="mask-type:luminance" maskUnits="userSpaceOnUse" x="0" y="226" width="125" height="125">
<path d="M0 226.436H124.051V350.54H0V226.436Z" fill="white"/>
</mask>
<g mask="url(#mask1_1365_2138)">
<path d="M121.007 289.902C121.007 287.922 120.913 285.956 120.711 283.977C120.523 282.011 120.226 280.058 119.849 278.119C119.459 276.18 118.974 274.268 118.408 272.369C117.829 270.484 117.156 268.612 116.402 266.794C115.648 264.962 114.799 263.171 113.87 261.434C112.928 259.684 111.918 257.987 110.813 256.344C109.709 254.701 108.538 253.112 107.272 251.59C106.02 250.055 104.686 248.601 103.286 247.2C101.885 245.8 100.418 244.467 98.8824 243.214C97.3607 241.962 95.7717 240.791 94.1154 239.686C92.4725 238.582 90.7758 237.572 89.0252 236.643C87.2745 235.7 85.4835 234.865 83.6656 234.098C81.8342 233.344 79.9624 232.684 78.0637 232.105C76.1784 231.539 74.2527 231.054 72.3136 230.664C70.361 230.287 68.4084 229.991 66.4423 229.802C64.4628 229.6 62.4832 229.506 60.5037 229.506C58.5242 229.506 56.5446 229.6 54.5786 229.802C52.599 229.991 50.6464 230.287 48.7073 230.664C46.7547 231.054 44.8425 231.539 42.9438 232.105C41.045 232.684 39.1867 233.344 37.3553 234.098C35.5239 234.865 33.7329 235.7 31.9823 236.643C30.2451 237.572 28.5484 238.582 26.892 239.686C25.2492 240.791 23.6601 241.962 22.125 243.214C20.5898 244.467 19.122 245.8 17.7215 247.2C16.3211 248.601 15.0014 250.055 13.7355 251.59C12.4832 253.112 11.2982 254.701 10.2074 256.344C9.10316 257.987 8.07973 259.684 7.15056 261.434C6.22139 263.171 5.37302 264.962 4.60545 266.794C3.85134 268.612 3.19149 270.484 2.61245 272.369C2.0334 274.268 1.54861 276.18 1.17156 278.119C0.781041 280.058 0.484785 282.011 0.296257 283.977C0.107731 285.956 0 287.922 0 289.902C0 291.881 0.107731 293.847 0.296257 295.827C0.484785 297.793 0.781041 299.746 1.17156 301.685C1.54861 303.624 2.0334 305.536 2.61245 307.435C3.19149 309.334 3.85134 311.192 4.60545 313.01C5.37302 314.841 6.22139 316.632 7.15056 318.369C8.07973 320.12 9.10316 321.817 10.2074 323.46C11.2982 325.103 12.4832 326.692 13.7355 328.213C15.0014 329.748 16.3211 331.216 17.7215 332.603C19.122 334.004 20.5898 335.337 22.125 336.589C23.6601 337.842 25.2492 339.027 26.892 340.117C28.5484 341.222 30.2451 342.232 31.9823 343.161C33.7329 344.103 35.5239 344.938 37.3553 345.706C39.1867 346.46 41.045 347.12 42.9438 347.699C44.8425 348.278 46.7547 348.749 48.7073 349.14C50.6464 349.517 52.599 349.813 54.5786 350.002C56.5446 350.204 58.5242 350.298 60.5037 350.298C62.4832 350.298 64.4628 350.19 66.4288 350.002C68.4084 349.8 70.361 349.517 72.3001 349.126C74.2527 348.736 76.1649 348.251 78.0637 347.685C79.9624 347.106 81.8207 346.433 83.6521 345.679C85.4835 344.925 87.2611 344.076 89.0117 343.147C90.7623 342.218 92.459 341.195 94.1019 340.104C95.7448 339 97.3338 337.815 98.869 336.562C100.404 335.31 101.872 333.99 103.272 332.59C104.673 331.189 105.993 329.721 107.258 328.2C108.511 326.665 109.682 325.089 110.787 323.433C111.891 321.79 112.914 320.107 113.843 318.356C114.773 316.619 115.621 314.828 116.389 313.01C117.143 311.178 117.816 309.32 118.382 307.421C118.961 305.536 119.445 303.624 119.836 301.685C120.226 299.746 120.509 297.793 120.711 295.814C120.9 293.847 121.007 291.881 121.007 289.902ZM60.5037 326.139C58.1202 326.139 55.7636 325.911 53.4205 325.439C51.0908 324.981 48.815 324.295 46.62 323.379C44.4116 322.477 42.3243 321.359 40.3448 320.039C38.3518 318.706 36.5204 317.211 34.8371 315.528C33.1538 313.845 31.6456 312.013 30.3259 310.034C29.0062 308.054 27.8751 305.967 26.9728 303.772C26.0571 301.577 25.3704 299.301 24.899 296.972C24.4412 294.642 24.2123 292.285 24.2123 289.902C24.2123 287.518 24.4412 285.162 24.899 282.832C25.3704 280.502 26.0571 278.227 26.9728 276.032C27.8751 273.837 29.0062 271.749 30.3259 269.77C31.6456 267.79 33.1538 265.959 34.8371 264.276C36.5204 262.592 38.3518 261.098 40.3448 259.778C42.3243 258.445 44.4116 257.341 46.62 256.425C48.815 255.509 51.0908 254.822 53.4205 254.364C55.7636 253.893 58.1202 253.664 60.5037 253.664C62.8872 253.664 65.2573 253.893 67.5869 254.364C69.9301 254.822 72.1924 255.509 74.4008 256.425C76.5958 257.341 78.6966 258.445 80.6761 259.778C82.6556 261.098 84.487 262.592 86.1703 264.276C87.8671 265.959 89.3618 267.79 90.695 269.77C92.0147 271.749 93.1323 273.837 94.0481 276.032C94.9503 278.227 95.6505 280.502 96.1084 282.832C96.5797 285.162 96.8086 287.518 96.8086 289.902C96.8086 292.285 96.5797 294.642 96.1084 296.972C95.6505 299.301 94.9503 301.577 94.0481 303.772C93.1323 305.967 92.0147 308.054 90.695 310.034C89.3618 312.013 87.8671 313.845 86.1703 315.528C84.487 317.211 82.6556 318.706 80.6761 320.039C78.6966 321.359 76.5958 322.477 74.4008 323.379C72.1924 324.295 69.9301 324.981 67.5869 325.439C65.2573 325.911 62.8872 326.139 60.5037 326.139Z" fill="black"/>
</g>
<path d="M48.4102 144.951H72.6089V217.426H48.4102V144.951Z" fill="black"/>
<path d="M48.4102 108.713H72.6089V132.871H48.4102V108.713Z" fill="black"/>
<path d="M84.6992 144.951H108.898V217.426H84.6992V144.951Z" fill="black"/>
<path d="M84.6992 108.713H108.898V132.871H84.6992V108.713Z" fill="black"/>
<path d="M12.1016 144.951H36.3004V217.426H12.1016V144.951Z" fill="black"/>
<path d="M12.1016 108.713H36.3004V132.871H12.1016V108.713Z" fill="black"/>
</svg>
