<svg xmlns="http://www.w3.org/2000/svg" width="130" height="83" fill="none" viewBox="0 0 130 83">
  <path fill="url(#a)" d="M50.886 16.875c1.436 0 2.6-1.123 2.6-2.51 0-1.385-1.164-2.508-2.6-2.508-1.436 0-2.6 1.123-2.6 2.509s1.164 2.509 2.6 2.509Z"/>
  <path fill="#F8F3E3" d="M53.85 34.935c-.394-1-.644-2.05-.744-3.12-.02-2.027.327-4.521.674-6.935.095-.73.207-1.445.29-2.15a3.722 3.722 0 0 0-.843-2.89 3.522 3.522 0 0 0-2.697-1.238 3.505 3.505 0 0 0-2.673 1.289 3.772 3.772 0 0 0-.801 2.905c.107.702.22 1.416.33 2.143.39 2.407.795 4.894.813 6.885a11.066 11.066 0 0 1-.685 3.163c-1.105 2.92-3.202 4.752-4.966 5.84l16.362-.15c-1.772-1.05-3.91-2.842-5.06-5.742ZM31.694 16.674h3.243c2.206 0 3.565.378 4.078 1.134.245.356.434.7.568 1.034.156.333.256.856.3 1.567a50.34 50.34 0 0 1 .168 4.302c0 1.579-.011 2.724-.033 3.435-.023.69-.1 1.4-.234 2.134-.112.712-.268 1.234-.468 1.568-.201.31-.502.6-.903.867s-.87.444-1.404.533c-.535.067-1.226.1-2.072.1h-3.243v-2.5h1.805c.58 0 .947-.078 1.103-.234.179-.156.268-.4.268-.734v-9.704c0-.356-.09-.611-.268-.767-.156-.156-.523-.234-1.103-.234h-1.805v-2.501Zm-1.004 24.11h-2.04c-.98 0-1.726-.243-2.24-.733-.49-.467-.734-1.078-.734-1.834V19.242c0-.756.245-1.367.735-1.834.513-.49 1.26-.734 2.24-.734h2.039v24.11Zm38.756-24.11h4.68c2.429 0 3.643 1.19 3.643 3.569v13.105h-3.81c-.357 0-.647-.122-.87-.366-.222-.245-.334-.567-.334-.968V20.176c0-.356-.09-.611-.267-.767-.156-.156-.524-.234-1.103-.234h-1.94v-2.501Zm-5.85 0h2.039c.98 0 1.716.245 2.206.734.513.467.769 1.078.769 1.834v14.106H64.8c-.357 0-.647-.122-.87-.366-.223-.245-.334-.567-.334-.968v-15.34Zm26.11 2.5H87.9c-.58 0-.958.079-1.136.235-.156.155-.234.41-.234.767v9.704c0 .334.078.578.234.734.178.155.557.233 1.136.233h1.805v2.5h-3.242c-.847 0-1.538-.032-2.073-.1-.5-.075-.98-.257-1.404-.532-.4-.267-.702-.556-.902-.867-.2-.334-.368-.856-.502-1.568-.156-1-.234-2.4-.234-4.202 0-1.8.01-3.012.034-3.634.022-.645.055-1.323.1-2.035.067-.711.167-1.234.3-1.567.164-.347.355-.682.57-1 .244-.356.556-.6.935-.734.825-.29 1.883-.434 3.176-.434h3.242v2.5Zm-2.841 16.309v1.767c0 .378.056.634.167.767.112.156.4.234.87.234h1.804v2.5h-4.212c-2.43 0-3.643-1.19-3.643-3.567v-1.001c0-.334.033-.522.1-.567a.78.78 0 0 0 .167-.1c.022 0 .078-.011.167-.033h4.58Zm3.844-18.81h2.04c.98 0 1.715.246 2.206.735.512.467.769 1.078.769 1.834v18.975c0 .756-.257 1.367-.77 1.834-.49.49-1.225.734-2.206.734H90.71v-24.11l-.001-.001Zm-5.05 28.533h7.28c3.779 0 5.668 1.85 5.668 5.55v20.387h-5.928c-.555 0-1.005-.19-1.352-.57-.347-.38-.52-.882-.52-1.505V50.652c0-.553-.14-.95-.416-1.193-.243-.242-.815-.363-1.716-.363h-3.016v-3.89Zm-9.1 0h3.172c1.525 0 2.669.38 3.432 1.14.797.727 1.196 1.678 1.196 2.854v21.943h-5.93c-.554 0-1.004-.19-1.351-.57-.347-.38-.52-.882-.52-1.505V45.206Zm40.616 3.89h-2.808c-.901 0-1.491.12-1.768.363-.243.242-.364.64-.364 1.193v15.096c0 .519.121.9.364 1.14.277.243.867.364 1.768.364h2.808v3.89h-5.044c-1.317 0-2.392-.051-3.224-.155-.832-.138-1.56-.415-2.184-.83-.624-.415-1.092-.864-1.404-1.348-.312-.52-.572-1.332-.78-2.438-.243-1.557-.364-3.735-.364-6.537 0-2.8.017-4.686.052-5.654.035-1.003.087-2.058.156-3.164.104-1.107.26-1.92.468-2.44.243-.517.537-1.036.884-1.555.381-.553.867-.934 1.456-1.141 1.283-.45 2.929-.674 4.94-.674h5.044v3.89Zm-4.42 25.367v2.75c0 .587.087.985.26 1.193.173.242.624.363 1.352.363h2.808v3.89h-6.552c-3.779 0-5.668-1.85-5.668-5.55v-1.557c0-.518.052-.813.156-.881.139-.07.225-.121.26-.156.035 0 .121-.017.26-.052h7.124Zm5.98-29.257h3.172c1.525 0 2.669.38 3.432 1.14.797.727 1.196 1.678 1.196 2.854v29.517c0 1.176-.399 2.127-1.196 2.853-.763.76-1.907 1.14-3.432 1.14h-3.172V45.207Zm-106.411 0h5.044c3.432 0 5.547.587 6.344 1.763.38.554.676 1.09.884 1.608.243.52.399 1.332.468 2.439.173 2.005.26 4.236.26 6.69 0 2.457-.017 4.238-.052 5.345a22.607 22.607 0 0 1-.364 3.32c-.173 1.106-.416 1.919-.728 2.438-.312.484-.78.933-1.404 1.348-.624.415-1.352.692-2.184.83-.832.104-1.907.156-3.224.156h-5.044v-3.89h2.808c.9 0 1.473-.122 1.716-.364.277-.242.416-.622.416-1.14V50.65c0-.553-.14-.95-.416-1.193-.243-.242-.815-.363-1.716-.363h-2.808v-3.89Zm-1.56 37.505H7.592c-1.525 0-2.687-.38-3.484-1.141-.763-.726-1.144-1.677-1.144-2.853V49.2c0-1.176.38-2.127 1.144-2.853.797-.761 1.959-1.141 3.484-1.141h3.172V82.71Z"/>
  <path fill="url(#b)" fill-rule="evenodd" d="M38.51 45.206a12.338 12.338 0 0 0-2.11 1.852c-2.6 2.965-4.458 8.152-4.458 12.6 0 10.026 8.543 18.525 18.943 18.155 10.4-.37 18.943-8.129 18.943-18.156 0-5.558-2.228-10.375-5.2-13.34-.41-.404-.85-.775-1.316-1.11H38.51Z" clip-rule="evenodd"/>
  <defs>
    <linearGradient id="a" x1="50.886" x2="50.886" y1="11.857" y2="16.875" gradientUnits="userSpaceOnUse">
      <stop stop-color="#FF2047"/>
      <stop offset="1" stop-color="#D6192E"/>
    </linearGradient>
    <linearGradient id="b" x1="50.885" x2="50.885" y1="45.206" y2="77.825" gradientUnits="userSpaceOnUse">
      <stop stop-color="#FF2047"/>
      <stop offset="1" stop-color="#D6192E"/>
    </linearGradient>
  </defs>
</svg>
