<svg xmlns="http://www.w3.org/2000/svg" width="25" height="24" fill="none" viewBox="0 0 25 24">
  <path fill="#f8f3e3" d="M12.445 0C5.638 0 .068 5.4.068 12s5.57 12 12.377 12c6.808 0 12.377-5.4 12.377-12S19.252 0 12.445 0Zm0 22C6.773 22 2.131 17.5 2.131 12S6.773 2 12.445 2C18.118 2 22.76 6.5 22.76 12s-4.642 10-10.315 10Zm3.095-9c0-1.1-.929-2-2.063-2-1.135 0-2.063.9-2.063 2s.928 2 2.063 2c1.134 0 2.063-.9 2.063-2Zm3.094-1c-1.135 0-2.063.9-2.063 2s.928 2 2.063 2c1.134 0 2.063-.9 2.063-2s-.928-2-2.063-2Zm-4.126 4c-1.134 0-2.063.9-2.063 2s.929 2 2.063 2c1.135 0 2.063-.9 2.063-2s-.928-2-2.063-2Z"/>
</svg>
