<svg width="91" height="91" viewBox="0 0 91 91" fill="none" xmlns="http://www.w3.org/2000/svg">
<path d="M65.4991 63.2324H24.848C18.6148 63.2324 13.5546 68.2927 13.5546 74.5258V79.0441C13.5546 85.2772 18.6148 90.3375 24.848 90.3375H49.6918C52.1774 90.3375 54.21 88.3049 54.21 85.8193C54.21 83.3336 52.1774 81.301 49.6918 81.301H24.848C23.5818 81.301 22.591 80.3059 22.591 79.0441V74.5258C22.591 73.2597 23.5861 72.2689 24.848 72.2689H65.4991C66.7652 72.2689 67.756 73.264 67.756 74.5258V79.0441C67.756 80.3102 66.7609 81.301 65.4991 81.301H63.2421C60.7565 81.301 58.7239 83.3336 58.7239 85.8193C58.7239 88.3049 60.7565 90.3375 63.2421 90.3375H65.4991C71.7323 90.3375 76.7925 85.2772 76.7925 79.0441V74.5258C76.7925 68.2927 71.7323 63.2324 65.4991 63.2324Z" fill="#F8F3E3"/>
<path d="M85.8248 13.5504H79.7271L80.2691 10.6582C80.7646 8.03699 80.0447 5.32692 78.3255 3.25209C76.6105 1.17292 74.0782 0 71.3682 0H18.9749C16.3114 0 13.7791 1.17292 12.0175 3.25209C10.3026 5.33126 9.57848 7.99472 10.0739 10.6582L10.6159 13.5504H4.51823C2.03256 13.5504 0 15.5829 0 18.0686V36.1372C0 43.5899 6.09766 49.6876 13.5504 49.6876H22.5825C22.5825 49.6876 22.9424 49.5986 23.1245 49.5986C28.8623 55.2432 36.6283 58.724 45.165 58.724C53.7017 58.724 61.4721 55.2475 67.2055 49.5986C67.3876 49.5986 67.5231 49.6876 67.7475 49.6876H76.7796C84.2323 49.6876 90.33 43.5899 90.33 36.1372V18.0686C90.33 15.5829 88.2974 13.5504 85.8118 13.5504H85.8248ZM9.0408 36.1372V22.5868H12.2463L14.0967 32.7962C14.5922 35.5952 15.5873 38.1698 16.7602 40.6554H13.5547C11.069 40.6554 9.03647 38.6229 9.03647 36.1372H9.0408ZM45.1737 49.6876C34.2868 49.6876 24.937 41.9172 22.9977 31.1702L21.4605 22.769L58.724 22.5869C61.2097 22.5869 63.2423 20.5543 63.2423 18.0686C63.2423 15.583 61.2097 13.5504 58.724 13.5504L19.8345 13.7325L18.9749 9.03647H71.3682L67.3497 31.1702C65.406 41.875 56.0562 49.6876 45.1737 49.6876ZM81.3065 36.1372C81.3065 38.6229 79.274 40.6554 76.7883 40.6554H73.5828C74.7558 38.1698 75.7043 35.5952 76.2463 32.7962L78.0967 22.5868H81.3022V36.1372H81.3065Z" fill="#F8F3E3"/>
</svg>
