<svg xmlns="http://www.w3.org/2000/svg" width="37" height="37" fill="none" viewBox="0 0 37 37">
  <path fill="#F8F3E3" d="M28.746 22.836H13.922a1.084 1.084 0 0 1-1.059-.843l-2.496-10.875a1.084 1.084 0 0 1 1.057-1.326h19.82a1.084 1.084 0 0 1 1.059 1.326l-2.5 10.875a1.084 1.084 0 0 1-1.057.843Zm-13.961-2.168h13.098l2-8.706H12.785l2 8.706Zm1.259 11.852a4.153 4.153 0 1 1 0-8.307 4.153 4.153 0 0 1 0 8.307Zm0-6.14a1.986 1.986 0 1 0 0 3.973 1.986 1.986 0 0 0 0-3.972Zm10.581 6.14a4.153 4.153 0 1 1 0-8.307 4.153 4.153 0 0 1 0 8.307Zm0-6.14a1.986 1.986 0 1 0 0 3.973 1.986 1.986 0 0 0 0-3.972Z"/>
  <path fill="#F8F3E3" d="M11.424 11.96a1.083 1.083 0 0 1-1.028-.742L8.538 5.637H5.109a1.084 1.084 0 0 1 0-2.168h4.213a1.084 1.084 0 0 1 1.029.741l2.105 6.323a1.084 1.084 0 0 1-1.028 1.426h-.004Z"/>
</svg>
