<svg width="112" height="186" viewBox="0 0 112 186" fill="none" xmlns="http://www.w3.org/2000/svg">
<path d="M75.8607 110.298L85.0398 111.261V185.977L59.6855 158.903V115.831L67.0494 119.427L75.8607 110.298ZM35.4512 110.298L26.2672 111.261V185.977L51.621 158.903V115.831L44.2576 119.427L35.4512 110.298ZM104.982 63.4884L107.953 73.8278L99.0358 79.8397L98.289 90.5823L87.8541 93.1799L83.4865 103.01L72.7888 101.88L65.3194 109.597L55.6559 104.876L45.9924 109.597L38.523 101.855L27.8253 102.985L23.4577 93.1548L13.0228 90.5823L12.2761 79.8547L3.33383 73.8226L6.30461 63.4835L0 54.7733L6.32482 46.0729L3.33383 35.754L12.2559 29.7421L13.0026 19.0141L23.4577 16.4419L27.8253 6.61228L38.523 7.74188L45.9924 0L55.6559 4.72097L65.3194 0L72.7888 7.74188L83.4865 6.61228L87.8541 16.4419L98.289 19.0396L99.0358 29.7672L107.953 35.7791L104.982 46.1185L111.312 54.7733L104.982 63.4884ZM85.0851 54.7733C85.0851 48.9967 83.3721 43.3498 80.1628 38.5467C76.9535 33.7436 72.3919 30 67.055 27.7894C61.7181 25.5788 55.8455 25.0004 50.1798 26.1273C44.5142 27.2543 39.31 30.036 35.2253 34.1207C31.1405 38.2054 28.3588 43.4096 27.2319 49.0753C26.1049 54.7409 26.6833 60.6135 28.8939 65.9504C31.1045 71.2874 34.8481 75.8489 39.6512 79.0582C44.4543 82.2676 50.1012 83.9805 55.8779 83.9805C63.6204 83.9685 71.0423 80.8874 76.5171 75.4126C81.9919 69.9378 85.073 62.5159 85.0851 54.7733ZM55.8779 33.6355C51.6973 33.6355 47.6106 34.8752 44.1346 37.1978C40.6586 39.5203 37.9493 42.8215 36.3495 46.6839C34.7496 50.5462 34.331 54.7962 35.1465 58.8965C35.9621 62.9967 37.9752 66.7631 40.9313 69.7192C43.8874 72.6754 47.6537 74.6885 51.7539 75.5042C55.8541 76.3198 60.1042 75.9013 63.9665 74.3015C67.8289 72.7017 71.1302 69.9925 73.4528 66.5166C75.7755 63.0406 77.0152 58.9539 77.0153 54.7733C76.9993 49.1736 74.7667 43.8081 70.8057 39.8499C66.8447 35.8917 61.4776 33.6629 55.8779 33.6508V33.6355Z" fill="#F8C25C"/>
</svg>
