<svg xmlns="http://www.w3.org/2000/svg" width="23" height="29" fill="none" viewBox="0 0 23 29">
  <path fill="#fff" fill-rule="evenodd" d="M7.669 3.955v.762c-3.867 1.6-6.568 6.853-6.47 11.406v2.528c-1.98 2.567-1.863 6.394 3.075 6.394H7.67c0 1.05.405 2.055 1.126 2.797A3.793 3.793 0 0 0 11.515 29c1.02 0 1.998-.417 2.72-1.158a4.011 4.011 0 0 0 1.126-2.797h3.404c4.929 0 5-3.835 3.021-6.402l.055-2.517c.1-4.558-2.607-9.816-6.48-11.413v-.758a4.011 4.011 0 0 0-1.127-2.797A3.793 3.793 0 0 0 11.515 0c-1.02 0-1.998.417-2.72 1.158A4.012 4.012 0 0 0 7.67 3.955Zm5.128 0c0 .026 0 .053-.002.08a10.15 10.15 0 0 0-2.56 0 1.337 1.337 0 0 1 .373-1.013c.24-.247.567-.386.907-.386.34 0 .666.14.906.386.24.248.376.583.376.933Zm-2.564 21.09c0 .35.135.685.375.933.24.247.567.386.907.386.34 0 .666-.14.906-.386.24-.248.376-.583.376-.933h-2.564Zm8.532-2.636c1.095 0 1.686-1.32.973-2.176a2.245 2.245 0 0 1-.519-1.486l.059-2.68c.098-4.476-3.404-9.476-7.758-9.476-4.353 0-7.854 4.999-7.758 9.473l.058 2.683a2.246 2.246 0 0 1-.519 1.486c-.713.855-.122 2.176.973 2.176h14.49Z" clip-rule="evenodd"/>
</svg>
