<svg xmlns="http://www.w3.org/2000/svg" width="46" height="46" fill="none" viewBox="0 0 46 46">
  <path fill="#F8F3E3" d="M22.396 10.056c3.106 0 5.64 2.49 5.64 5.556v5.993h-7.64a.964.964 0 0 0-.98.964c0 .526.433.963.98.963h7.64v5.982c0 3.065-2.534 5.568-5.666 5.568h-6.2c-3.119 0-5.652-2.49-5.652-5.556V15.624c0-3.078 2.546-5.568 5.665-5.568h6.213Zm8.818 8.196a.956.956 0 0 1 1.364-.012l3.654 3.641a.956.956 0 0 1 0 1.364l-3.654 3.641a.97.97 0 0 1-.676.288c-.25 0-.5-.1-.688-.288a.967.967 0 0 1 0-1.364l2.002-1.99h-5.18v-1.926h5.18l-2.002-1.99a.967.967 0 0 1 0-1.364Z"/>
</svg>
