<svg width="1302" height="1246" viewBox="0 0 1302 1246" fill="none" xmlns="http://www.w3.org/2000/svg">
<rect x="0.746094" y="0.919922" width="1300.49" height="1244.78" rx="79" fill="#F9F9F9"/>
<path d="M94.5176 32.0898H62.7227V64.0716H94.5176V32.0898Z" fill="black"/>
<path d="M126.313 32.0898H94.5176V64.0716H126.313V32.0898Z" fill="black"/>
<path d="M158.108 32.0898H126.313V64.0716H158.108V32.0898Z" fill="black"/>
<path d="M189.902 32.0898H158.108V64.0716H189.902V32.0898Z" fill="black"/>
<path d="M221.697 32.0898H189.902V64.0716H221.697V32.0898Z" fill="black"/>
<path d="M253.492 32.0898H221.697V64.0716H253.492V32.0898Z" fill="black"/>
<path d="M285.287 32.0898H253.492V64.0716H285.287V32.0898Z" fill="black"/>
<path d="M348.877 32.0898H317.082V64.0716H348.877V32.0898Z" fill="black"/>
<path d="M412.467 32.0898H380.672V64.0716H412.467V32.0898Z" fill="black"/>
<path d="M476.057 32.0898H444.262V64.0716H476.057V32.0898Z" fill="black"/>
<path d="M539.647 32.0898H507.852V64.0716H539.647V32.0898Z" fill="black"/>
<path d="M603.237 32.0898H571.442V64.0716H603.237V32.0898Z" fill="black"/>
<path d="M635.032 32.0898H603.237V64.0716H635.032V32.0898Z" fill="black"/>
<path d="M698.622 32.0898H666.827V64.0716H698.622V32.0898Z" fill="black"/>
<path d="M730.417 32.0898H698.622V64.0716H730.417V32.0898Z" fill="black"/>
<path d="M794.007 32.0898H762.212V64.0716H794.007V32.0898Z" fill="black"/>
<path d="M889.391 32.0898H857.597V64.0716H889.391V32.0898Z" fill="black"/>
<path d="M921.186 32.0898H889.391V64.0716H921.186V32.0898Z" fill="black"/>
<path d="M952.981 32.0898H921.186V64.0716H952.981V32.0898Z" fill="black"/>
<path d="M984.776 32.0898H952.981V64.0716H984.776V32.0898Z" fill="black"/>
<path d="M1048.37 32.0898H1016.57V64.0716H1048.37V32.0898Z" fill="black"/>
<path d="M1080.16 32.0898H1048.37V64.0716H1080.16V32.0898Z" fill="black"/>
<path d="M1111.96 32.0898H1080.16V64.0716H1111.96V32.0898Z" fill="black"/>
<path d="M1143.75 32.0898H1111.96V64.0716H1143.75V32.0898Z" fill="black"/>
<path d="M1175.55 32.0898H1143.75V64.0716H1175.55V32.0898Z" fill="black"/>
<path d="M1207.34 32.0898H1175.55V64.0716H1207.34V32.0898Z" fill="black"/>
<path d="M1239.14 32.0898H1207.34V64.0716H1239.14V32.0898Z" fill="black"/>
<path d="M94.5176 64.0716H62.7227V96.0533H94.5176V64.0716Z" fill="black"/>
<path d="M285.287 64.0716H253.492V96.0533H285.287V64.0716Z" fill="black"/>
<path d="M380.672 64.0716H348.877V96.0533H380.672V64.0716Z" fill="black"/>
<path d="M444.262 64.0716H412.467V96.0533H444.262L444.262 64.0716Z" fill="black"/>
<path d="M476.057 64.0716H444.262L444.262 96.0533H476.057V64.0716Z" fill="black"/>
<path d="M507.852 64.0716H476.057V96.0533H507.852V64.0716Z" fill="black"/>
<path d="M571.442 64.0716H539.647L539.647 96.0533H571.442L571.442 64.0716Z" fill="black"/>
<path d="M635.032 64.0716H603.237L603.237 96.0533H635.032V64.0716Z" fill="black"/>
<path d="M730.417 64.0716H698.622V96.0533H730.417V64.0716Z" fill="black"/>
<path d="M762.212 64.0716H730.417V96.0533H762.212V64.0716Z" fill="black"/>
<path d="M794.007 64.0716H762.212V96.0533H794.007V64.0716Z" fill="black"/>
<path d="M857.597 64.0716H825.802V96.0533H857.597V64.0716Z" fill="black"/>
<path d="M889.391 64.0716H857.597V96.0533H889.391V64.0716Z" fill="black"/>
<path d="M1048.37 64.0716H1016.57V96.0533H1048.37V64.0716Z" fill="black"/>
<path d="M1239.14 64.0716H1207.34V96.0533H1239.14V64.0716Z" fill="black"/>
<path d="M94.5176 96.0533H62.7227V128.035H94.5176V96.0533Z" fill="black"/>
<path d="M158.108 96.0533H126.313V128.035H158.108V96.0533Z" fill="black"/>
<path d="M189.902 96.0533H158.108V128.035H189.902V96.0533Z" fill="black"/>
<path d="M221.697 96.0533H189.902V128.035H221.697V96.0533Z" fill="black"/>
<path d="M285.287 96.0533H253.492V128.035H285.287V96.0533Z" fill="black"/>
<path d="M348.877 96.0533H317.082V128.035H348.877V96.0533Z" fill="black"/>
<path d="M380.672 96.0533H348.877V128.035H380.672V96.0533Z" fill="black"/>
<path d="M476.057 96.0533H444.262L444.262 128.035H476.057V96.0533Z" fill="black"/>
<path d="M507.852 96.0533H476.057V128.035H507.852V96.0533Z" fill="black"/>
<path d="M539.647 96.0533H507.852V128.035H539.647L539.647 96.0533Z" fill="black"/>
<path d="M603.237 96.0533H571.442L571.442 128.035H603.237L603.237 96.0533Z" fill="black"/>
<path d="M635.032 96.0533H603.237L603.237 128.035H635.032V96.0533Z" fill="black"/>
<path d="M698.622 96.0533H666.827V128.035H698.622V96.0533Z" fill="black"/>
<path d="M730.417 96.0533H698.622V128.035H730.417V96.0533Z" fill="black"/>
<path d="M762.212 96.0533H730.417V128.035H762.212V96.0533Z" fill="black"/>
<path d="M857.597 96.0533H825.802V128.035H857.597V96.0533Z" fill="black"/>
<path d="M889.391 96.0533H857.597V128.035H889.391V96.0533Z" fill="black"/>
<path d="M921.186 96.0533H889.391V128.035H921.186V96.0533Z" fill="black"/>
<path d="M984.776 96.0533H952.981V128.035H984.776V96.0533Z" fill="black"/>
<path d="M1048.37 96.0533H1016.57V128.035H1048.37V96.0533Z" fill="black"/>
<path d="M1111.96 96.0533H1080.16V128.035H1111.96V96.0533Z" fill="black"/>
<path d="M1143.75 96.0533H1111.96V128.035H1143.75V96.0533Z" fill="black"/>
<path d="M1175.55 96.0533H1143.75V128.035H1175.55V96.0533Z" fill="black"/>
<path d="M1239.14 96.0533H1207.34V128.035H1239.14V96.0533Z" fill="black"/>
<path d="M94.5176 128.035H62.7227V160.017H94.5176V128.035Z" fill="black"/>
<path d="M158.108 128.035H126.313V160.017H158.108V128.035Z" fill="black"/>
<path d="M189.902 128.035H158.108V160.017H189.902V128.035Z" fill="black"/>
<path d="M221.697 128.035H189.902V160.017H221.697V128.035Z" fill="black"/>
<path d="M285.287 128.035H253.492V160.017H285.287V128.035Z" fill="black"/>
<path d="M348.877 128.035H317.082V160.017H348.877V128.035Z" fill="black"/>
<path d="M380.672 128.035H348.877V160.017H380.672V128.035Z" fill="black"/>
<path d="M444.262 128.035H412.467V160.017H444.262L444.262 128.035Z" fill="black"/>
<path d="M507.852 128.035H476.057L476.057 160.017H507.852V128.035Z" fill="black"/>
<path d="M635.032 128.035H603.237L603.237 160.017H635.032V128.035Z" fill="black"/>
<path d="M698.622 128.035H666.827V160.017H698.622V128.035Z" fill="black"/>
<path d="M857.597 128.035H825.802V160.017H857.597V128.035Z" fill="black"/>
<path d="M889.391 128.035H857.597V160.017H889.391V128.035Z" fill="black"/>
<path d="M952.981 128.035H921.186V160.017H952.981V128.035Z" fill="black"/>
<path d="M1048.37 128.035H1016.57V160.017H1048.37V128.035Z" fill="black"/>
<path d="M1111.96 128.035H1080.16V160.017H1111.96V128.035Z" fill="black"/>
<path d="M1143.75 128.035H1111.96V160.017H1143.75V128.035Z" fill="black"/>
<path d="M1175.55 128.035H1143.75V160.017H1175.55V128.035Z" fill="black"/>
<path d="M1239.14 128.035H1207.34V160.017H1239.14V128.035Z" fill="black"/>
<path d="M94.5176 160.017H62.7227V191.998H94.5176V160.017Z" fill="black"/>
<path d="M158.108 160.017H126.313V191.998H158.108V160.017Z" fill="black"/>
<path d="M189.902 160.017H158.108V191.998H189.902V160.017Z" fill="black"/>
<path d="M221.697 160.017H189.902V191.998H221.697V160.017Z" fill="black"/>
<path d="M285.287 160.017H253.492V191.998H285.287V160.017Z" fill="black"/>
<path d="M348.877 160.017H317.082V191.998H348.877V160.017Z" fill="black"/>
<path d="M380.672 160.017H348.877V191.998H380.672V160.017Z" fill="black"/>
<path d="M412.467 160.017H380.672V191.998H412.467V160.017Z" fill="black"/>
<path d="M444.262 160.017H412.467V191.998H444.262V160.017Z" fill="black"/>
<path d="M476.057 160.017H444.262V191.998H476.057L476.057 160.017Z" fill="black"/>
<path d="M507.852 160.017H476.057L476.057 191.998H507.852V160.017Z" fill="black"/>
<path d="M635.032 160.017H603.237V191.998H635.032V160.017Z" fill="black"/>
<path d="M698.622 160.017H666.827V191.998H698.622V160.017Z" fill="black"/>
<path d="M730.417 160.017H698.622V191.998H730.417V160.017Z" fill="black"/>
<path d="M889.391 160.017H857.597V191.998H889.391V160.017Z" fill="black"/>
<path d="M984.776 160.017H952.981V191.998H984.776V160.017Z" fill="black"/>
<path d="M1048.37 160.017H1016.57V191.998H1048.37V160.017Z" fill="black"/>
<path d="M1111.96 160.017H1080.16V191.998H1111.96V160.017Z" fill="black"/>
<path d="M1143.75 160.017H1111.96V191.998H1143.75V160.017Z" fill="black"/>
<path d="M1175.55 160.017H1143.75V191.998H1175.55V160.017Z" fill="black"/>
<path d="M1239.14 160.017H1207.34V191.998H1239.14V160.017Z" fill="black"/>
<path d="M94.5176 191.998H62.7227V223.98H94.5176V191.998Z" fill="black"/>
<path d="M285.287 191.998H253.492V223.98H285.287V191.998Z" fill="black"/>
<path d="M348.877 191.998H317.082V223.98H348.877V191.998Z" fill="black"/>
<path d="M603.237 191.998H571.442V223.98H603.237L603.237 191.998Z" fill="black"/>
<path d="M666.827 191.998H635.032V223.98H666.827V191.998Z" fill="black"/>
<path d="M730.417 191.998H698.622V223.98H730.417V191.998Z" fill="black"/>
<path d="M825.802 191.998H794.007V223.98H825.802V191.998Z" fill="black"/>
<path d="M857.597 191.998H825.802V223.98H857.597V191.998Z" fill="black"/>
<path d="M889.391 191.998H857.597V223.98H889.391V191.998Z" fill="black"/>
<path d="M921.186 191.998H889.391V223.98H921.186V191.998Z" fill="black"/>
<path d="M952.981 191.998H921.186V223.98H952.981V191.998Z" fill="black"/>
<path d="M1048.37 191.998H1016.57V223.98H1048.37V191.998Z" fill="black"/>
<path d="M1239.14 191.998H1207.34V223.98H1239.14V191.998Z" fill="black"/>
<path d="M94.5176 223.98H62.7227V255.962H94.5176V223.98Z" fill="black"/>
<path d="M126.313 223.98H94.5176V255.962H126.313V223.98Z" fill="black"/>
<path d="M158.108 223.98H126.313V255.962H158.108V223.98Z" fill="black"/>
<path d="M189.902 223.98H158.108V255.962H189.902V223.98Z" fill="black"/>
<path d="M221.697 223.98H189.902V255.962H221.697V223.98Z" fill="black"/>
<path d="M253.492 223.98H221.697V255.962H253.492V223.98Z" fill="black"/>
<path d="M285.287 223.98H253.492V255.962H285.287V223.98Z" fill="black"/>
<path d="M348.877 223.98H317.082V255.962H348.877V223.98Z" fill="black"/>
<path d="M412.467 223.98H380.672V255.962H412.467V223.98Z" fill="black"/>
<path d="M476.057 223.98H444.262V255.962H476.057V223.98Z" fill="black"/>
<path d="M539.647 223.98H507.852V255.962H539.647V223.98Z" fill="black"/>
<path d="M603.237 223.98H571.442V255.962H603.237V223.98Z" fill="black"/>
<path d="M666.827 223.98H635.032V255.962H666.827V223.98Z" fill="black"/>
<path d="M730.417 223.98H698.622V255.962H730.417V223.98Z" fill="black"/>
<path d="M794.007 223.98H762.212V255.962H794.007V223.98Z" fill="black"/>
<path d="M857.597 223.98H825.802V255.962H857.597V223.98Z" fill="black"/>
<path d="M921.186 223.98H889.391V255.962H921.186V223.98Z" fill="black"/>
<path d="M984.776 223.98H952.981V255.962H984.776V223.98Z" fill="black"/>
<path d="M1048.37 223.98H1016.57V255.962H1048.37V223.98Z" fill="black"/>
<path d="M1080.16 223.98H1048.37V255.962H1080.16V223.98Z" fill="black"/>
<path d="M1111.96 223.98H1080.16V255.962H1111.96V223.98Z" fill="black"/>
<path d="M1143.75 223.98H1111.96V255.962H1143.75V223.98Z" fill="black"/>
<path d="M1175.55 223.98H1143.75V255.962H1175.55V223.98Z" fill="black"/>
<path d="M1207.34 223.98H1175.55V255.962H1207.34V223.98Z" fill="black"/>
<path d="M1239.14 223.98H1207.34V255.962H1239.14V223.98Z" fill="black"/>
<path d="M380.672 255.962H348.877V287.944H380.672V255.962Z" fill="black"/>
<path d="M444.262 255.962H412.467V287.944H444.262L444.262 255.962Z" fill="black"/>
<path d="M507.852 255.962H476.057L476.057 287.944H507.852V255.962Z" fill="black"/>
<path d="M539.647 255.962H507.852V287.944H539.647V255.962Z" fill="black"/>
<path d="M571.442 255.962H539.647V287.944H571.442L571.442 255.962Z" fill="black"/>
<path d="M635.032 255.962H603.237L603.237 287.944H635.032V255.962Z" fill="black"/>
<path d="M666.827 255.962H635.032V287.944H666.827V255.962Z" fill="black"/>
<path d="M794.007 255.962H762.212V287.944H794.007V255.962Z" fill="black"/>
<path d="M857.597 255.962H825.802V287.944H857.597V255.962Z" fill="black"/>
<path d="M889.391 255.962H857.597V287.944H889.391V255.962Z" fill="black"/>
<path d="M921.186 255.962H889.391V287.944H921.186V255.962Z" fill="black"/>
<path d="M952.981 255.962H921.186V287.944H952.981V255.962Z" fill="black"/>
<path d="M984.776 255.962H952.981V287.944H984.776V255.962Z" fill="black"/>
<path d="M158.108 287.944H126.313V319.925H158.108V287.944Z" fill="black"/>
<path d="M189.902 287.944H158.108V319.925H189.902V287.944Z" fill="black"/>
<path d="M221.697 287.944H189.902V319.925H221.697V287.944Z" fill="black"/>
<path d="M253.492 287.944H221.697V319.925H253.492V287.944Z" fill="black"/>
<path d="M285.287 287.944H253.492V319.925H285.287V287.944Z" fill="black"/>
<path d="M317.082 287.944H285.287V319.925H317.082V287.944Z" fill="black"/>
<path d="M476.057 287.944H444.262L444.262 319.925H476.057L476.057 287.944Z" fill="black"/>
<path d="M507.852 287.944H476.057L476.057 319.925H507.852V287.944Z" fill="black"/>
<path d="M539.647 287.944H507.852V319.925H539.647V287.944Z" fill="black"/>
<path d="M571.442 287.944H539.647V319.925H571.442V287.944Z" fill="black"/>
<path d="M603.237 287.944H571.442V319.925H603.237L603.237 287.944Z" fill="black"/>
<path d="M635.032 287.944H603.237L603.237 319.925H635.032V287.944Z" fill="black"/>
<path d="M666.827 287.944H635.032V319.925H666.827V287.944Z" fill="black"/>
<path d="M698.622 287.944H666.827V319.925H698.622V287.944Z" fill="black"/>
<path d="M730.417 287.944H698.622V319.925H730.417V287.944Z" fill="black"/>
<path d="M762.212 287.944H730.417V319.925H762.212V287.944Z" fill="black"/>
<path d="M794.007 287.944H762.212V319.925H794.007V287.944Z" fill="black"/>
<path d="M825.802 287.944H794.007V319.925H825.802V287.944Z" fill="black"/>
<path d="M857.597 287.944H825.802V319.925H857.597V287.944Z" fill="black"/>
<path d="M889.391 287.944H857.597V319.925H889.391V287.944Z" fill="black"/>
<path d="M921.186 287.944H889.391V319.925H921.186V287.944Z" fill="black"/>
<path d="M952.981 287.944H921.186V319.925H952.981V287.944Z" fill="black"/>
<path d="M1016.57 287.944H984.776V319.925H1016.57V287.944Z" fill="black"/>
<path d="M1080.16 287.944H1048.37V319.925H1080.16V287.944Z" fill="black"/>
<path d="M1111.96 287.944H1080.16V319.925H1111.96V287.944Z" fill="black"/>
<path d="M1143.75 287.944H1111.96V319.925H1143.75V287.944Z" fill="black"/>
<path d="M1175.55 287.944H1143.75V319.925H1175.55V287.944Z" fill="black"/>
<path d="M1239.14 287.944H1207.34V319.925H1239.14V287.944Z" fill="black"/>
<path d="M94.5176 319.925H62.7227V351.907H94.5176V319.925Z" fill="black"/>
<path d="M158.108 319.925H126.313V351.907H158.108V319.925Z" fill="black"/>
<path d="M189.902 319.925H158.108V351.907H189.902V319.925Z" fill="black"/>
<path d="M221.697 319.925H189.902V351.907H221.697V319.925Z" fill="black"/>
<path d="M317.082 319.925H285.287V351.907H317.082V319.925Z" fill="black"/>
<path d="M348.877 319.925H317.082V351.907H348.877V319.925Z" fill="black"/>
<path d="M380.672 319.925H348.877V351.907H380.672V319.925Z" fill="black"/>
<path d="M507.852 319.925H476.057L476.057 351.907H507.852V319.925Z" fill="black"/>
<path d="M571.442 319.925H539.647L539.647 351.907H571.442V319.925Z" fill="black"/>
<path d="M635.032 319.925H603.237L603.237 351.907H635.032V319.925Z" fill="black"/>
<path d="M666.827 319.925H635.032V351.907H666.827V319.925Z" fill="black"/>
<path d="M698.622 319.925H666.827V351.907H698.622V319.925Z" fill="black"/>
<path d="M730.417 319.925H698.622V351.907H730.417V319.925Z" fill="black"/>
<path d="M857.597 319.925H825.802V351.907H857.597V319.925Z" fill="black"/>
<path d="M889.391 319.925H857.597V351.907H889.391V319.925Z" fill="black"/>
<path d="M921.186 319.925H889.391V351.907H921.186V319.925Z" fill="black"/>
<path d="M984.776 319.925H952.981V351.907H984.776V319.925Z" fill="black"/>
<path d="M1048.37 319.925H1016.57V351.907H1048.37V319.925Z" fill="black"/>
<path d="M94.5176 351.907H62.7227V383.889H94.5176V351.907Z" fill="black"/>
<path d="M158.108 351.907H126.313V383.889H158.108V351.907Z" fill="black"/>
<path d="M221.697 351.907H189.902V383.889H221.697V351.907Z" fill="black"/>
<path d="M285.287 351.907H253.492V383.889H285.287V351.907Z" fill="black"/>
<path d="M317.082 351.907H285.287V383.889H317.082V351.907Z" fill="black"/>
<path d="M348.877 351.907H317.082V383.889H348.877V351.907Z" fill="black"/>
<path d="M476.057 351.907H444.262V383.889H476.057L476.057 351.907Z" fill="black"/>
<path d="M539.647 351.907H507.852V383.889H539.647L539.647 351.907Z" fill="black"/>
<path d="M571.442 351.907H539.647L539.647 383.889H571.442V351.907Z" fill="black"/>
<path d="M762.212 351.907H730.417V383.889H762.212V351.907Z" fill="black"/>
<path d="M794.007 351.907H762.212V383.889H794.007V351.907Z" fill="black"/>
<path d="M825.802 351.907H794.007V383.889H825.802V351.907Z" fill="black"/>
<path d="M857.597 351.907H825.802V383.889H857.597V351.907Z" fill="black"/>
<path d="M889.391 351.907H857.597V383.889H889.391V351.907Z" fill="black"/>
<path d="M952.981 351.907H921.186V383.889H952.981V351.907Z" fill="black"/>
<path d="M984.776 351.907H952.981V383.889H984.776V351.907Z" fill="black"/>
<path d="M1016.57 351.907H984.776V383.889H1016.57V351.907Z" fill="black"/>
<path d="M1048.37 351.907H1016.57V383.889H1048.37V351.907Z" fill="black"/>
<path d="M1080.16 351.907H1048.37V383.889H1080.16V351.907Z" fill="black"/>
<path d="M1207.34 351.907H1175.55V383.889H1207.34V351.907Z" fill="black"/>
<path d="M126.313 383.889H94.5176V415.87H126.313V383.889Z" fill="black"/>
<path d="M189.902 383.889H158.108V415.87H189.902V383.889Z" fill="black"/>
<path d="M221.697 383.889H189.902V415.87H221.697V383.889Z" fill="black"/>
<path d="M253.492 383.889H221.697V415.87H253.492V383.889Z" fill="black"/>
<path d="M317.082 383.889H285.287V415.87H317.082V383.889Z" fill="black"/>
<path d="M412.467 383.889H380.672V415.87H412.467V383.889Z" fill="black"/>
<path d="M476.057 383.889H444.262V415.87H476.057V383.889Z" fill="black"/>
<path d="M507.852 383.889H476.057V415.87H507.852V383.889Z" fill="black"/>
<path d="M571.442 383.889H539.647L539.647 415.87H571.442V383.889Z" fill="black"/>
<path d="M603.237 383.889H571.442V415.87H603.237V383.889Z" fill="black"/>
<path d="M635.032 383.889H603.237V415.87H635.032V383.889Z" fill="black"/>
<path d="M698.622 383.889H666.827V415.87H698.622V383.889Z" fill="black"/>
<path d="M857.597 383.889H825.802V415.87H857.597V383.889Z" fill="black"/>
<path d="M889.391 383.889H857.597V415.87H889.391V383.889Z" fill="black"/>
<path d="M984.776 383.889H952.981V415.87H984.776V383.889Z" fill="black"/>
<path d="M1143.75 383.889H1111.96V415.87H1143.75V383.889Z" fill="black"/>
<path d="M1207.34 383.889H1175.55V415.87H1207.34V383.889Z" fill="black"/>
<path d="M1239.14 383.889H1207.34V415.87H1239.14V383.889Z" fill="black"/>
<path d="M126.313 415.87H94.5176V447.852H126.313V415.87Z" fill="black"/>
<path d="M285.287 415.87H253.492V447.852H285.287V415.87Z" fill="black"/>
<path d="M412.467 415.87H380.672V447.852H412.467V415.87Z" fill="black"/>
<path d="M444.262 415.87H412.467V447.852H444.262L444.262 415.87Z" fill="black"/>
<path d="M476.057 415.87H444.262L444.262 447.852H476.057V415.87Z" fill="black"/>
<path d="M507.852 415.87H476.057V447.852H507.852V415.87Z" fill="black"/>
<path d="M571.442 415.87H539.647V447.852H571.442V415.87Z" fill="black"/>
<path d="M635.032 415.87H603.237L603.237 447.852H635.032V415.87Z" fill="black"/>
<path d="M730.417 415.87L698.622 415.87V447.852H730.417V415.87Z" fill="black"/>
<path d="M762.212 415.87H730.417V447.852H762.212V415.87Z" fill="black"/>
<path d="M794.007 415.87H762.212V447.852H794.007V415.87Z" fill="black"/>
<path d="M857.597 415.87H825.802V447.852H857.597V415.87Z" fill="black"/>
<path d="M1048.37 415.87H1016.57V447.852H1048.37V415.87Z" fill="black"/>
<path d="M1080.16 415.87H1048.37V447.852H1080.16V415.87Z" fill="black"/>
<path d="M1143.75 415.87H1111.96V447.852H1143.75V415.87Z" fill="black"/>
<path d="M1207.34 415.87H1175.55V447.852H1207.34V415.87Z" fill="black"/>
<path d="M1239.14 415.87H1207.34V447.852H1239.14V415.87Z" fill="black"/>
<path d="M253.492 447.852L221.697 447.852V479.834H253.492V447.852Z" fill="black"/>
<path d="M348.877 447.852H317.082V479.834H348.877V447.852Z" fill="black"/>
<path d="M380.672 447.852L348.877 447.852V479.834H380.672V447.852Z" fill="black"/>
<path d="M412.467 447.852H380.672V479.834H412.467V447.852Z" fill="black"/>
<path d="M507.852 447.852H476.057L476.057 479.834H507.852V447.852Z" fill="black"/>
<path d="M539.647 447.852H507.852V479.834H539.647L539.647 447.852Z" fill="black"/>
<path d="M571.442 447.852H539.647L539.647 479.834H571.442V447.852Z" fill="black"/>
<path d="M635.032 447.852H603.237V479.834H635.032V447.852Z" fill="black"/>
<path d="M666.827 447.852L635.032 447.852V479.834H666.827V447.852Z" fill="black"/>
<path d="M730.417 447.852H698.622V479.834H730.417V447.852Z" fill="black"/>
<path d="M825.802 447.852H794.007V479.834H825.802V447.852Z" fill="black"/>
<path d="M857.597 447.852H825.802V479.834H857.597V447.852Z" fill="black"/>
<path d="M889.391 447.852L857.597 447.852V479.834H889.391V447.852Z" fill="black"/>
<path d="M921.186 447.852H889.391V479.834H921.186V447.852Z" fill="black"/>
<path d="M1080.16 447.852H1048.37V479.834H1080.16V447.852Z" fill="black"/>
<path d="M1111.96 447.852H1080.16V479.834H1111.96V447.852Z" fill="black"/>
<path d="M1143.75 447.852H1111.96V479.834H1143.75V447.852Z" fill="black"/>
<path d="M1175.55 447.852H1143.75V479.834H1175.55V447.852Z" fill="black"/>
<path d="M1207.34 447.852H1175.55V479.834H1207.34V447.852Z" fill="black"/>
<path d="M1239.14 447.852H1207.34V479.834H1239.14V447.852Z" fill="black"/>
<path d="M94.5176 479.834H62.7227V511.815H94.5176V479.834Z" fill="black"/>
<path d="M126.313 479.834H94.5176V511.815H126.313V479.834Z" fill="black"/>
<path d="M158.108 479.834H126.313V511.815H158.108V479.834Z" fill="black"/>
<path d="M189.902 479.834H158.108V511.815H189.902V479.834Z" fill="black"/>
<path d="M221.697 479.834H189.902V511.815H221.697V479.834Z" fill="black"/>
<path d="M253.492 479.834H221.697V511.815H253.492V479.834Z" fill="black"/>
<path d="M285.287 479.834H253.492V511.815H285.287V479.834Z" fill="black"/>
<path d="M539.647 479.834H507.852V511.815H539.647V479.834Z" fill="black"/>
<path d="M571.442 479.834H539.647V511.815H571.442V479.834Z" fill="black"/>
<path d="M603.237 479.834H571.442V511.815H603.237L603.237 479.834Z" fill="black"/>
<path d="M635.032 479.834H603.237L603.237 511.815H635.032V479.834Z" fill="black"/>
<path d="M666.827 479.834H635.032V511.815H666.827V479.834Z" fill="black"/>
<path d="M730.417 479.834H698.622V511.815H730.417V479.834Z" fill="black"/>
<path d="M762.212 479.834H730.417V511.815H762.212V479.834Z" fill="black"/>
<path d="M921.186 479.834H889.391V511.815H921.186V479.834Z" fill="black"/>
<path d="M1048.37 479.834H1016.57V511.815H1048.37V479.834Z" fill="black"/>
<path d="M1175.55 479.834H1143.75V511.815H1175.55V479.834Z" fill="black"/>
<path d="M1239.14 479.834H1207.34V511.815H1239.14V479.834Z" fill="black"/>
<path d="M94.5176 511.815H62.7227V543.797H94.5176V511.815Z" fill="black"/>
<path d="M189.902 511.815H158.108V543.797H189.902V511.815Z" fill="black"/>
<path d="M221.697 511.815H189.902V543.797H221.697V511.815Z" fill="black"/>
<path d="M317.082 511.815L285.287 511.815V543.797H317.082V511.815Z" fill="black"/>
<path d="M380.672 511.815H348.877V543.797H380.672V511.815Z" fill="black"/>
<path d="M412.467 511.815H380.672V543.797H412.467V511.815Z" fill="black"/>
<path d="M444.262 511.815H412.467V543.797H444.262V511.815Z" fill="black"/>
<path d="M476.057 511.815H444.262V543.797H476.057V511.815Z" fill="black"/>
<path d="M539.647 511.815H507.852V543.797H539.647V511.815Z" fill="black"/>
<path d="M571.442 511.815H539.647V543.797H571.442V511.815Z" fill="black"/>
<path d="M603.237 511.815H571.442V543.797H603.237V511.815Z" fill="black"/>
<path d="M635.032 511.815H603.237V543.797H635.032V511.815Z" fill="black"/>
<path d="M794.007 511.815L762.212 511.815V543.797H794.007V511.815Z" fill="black"/>
<path d="M857.597 511.815H825.802V543.797H857.597V511.815Z" fill="black"/>
<path d="M889.391 511.815L857.597 511.815V543.797H889.391V511.815Z" fill="black"/>
<path d="M921.186 511.815H889.391V543.797H921.186V511.815Z" fill="black"/>
<path d="M952.981 511.815L921.186 511.815V543.797H952.981V511.815Z" fill="black"/>
<path d="M984.776 511.815H952.981V543.797H984.776V511.815Z" fill="black"/>
<path d="M1048.37 511.815H1016.57V543.797H1048.37V511.815Z" fill="black"/>
<path d="M1080.16 511.815L1048.37 511.815V543.797H1080.16V511.815Z" fill="black"/>
<path d="M1143.75 511.815L1111.96 511.815V543.797H1143.75V511.815Z" fill="black"/>
<path d="M158.108 543.797L126.313 543.797V575.779H158.108V543.797Z" fill="black"/>
<path d="M189.902 543.797H158.108V575.779H189.902V543.797Z" fill="black"/>
<path d="M221.697 543.797H189.902V575.779H221.697V543.797Z" fill="black"/>
<path d="M253.492 543.797L221.697 543.797V575.779H253.492V543.797Z" fill="black"/>
<path d="M285.287 543.797L253.492 543.797V575.779H285.287V543.797Z" fill="black"/>
<path d="M317.082 543.797H285.287V575.779H317.082V543.797Z" fill="black"/>
<path d="M348.877 543.797H317.082V575.779H348.877V543.797Z" fill="black"/>
<path d="M412.467 543.797H380.672V575.779H412.467V543.797Z" fill="black"/>
<path d="M507.852 543.797H476.057L476.057 575.779H507.852V543.797Z" fill="black"/>
<path d="M635.032 543.797H603.237L603.237 575.779H635.032V543.797Z" fill="black"/>
<path d="M698.622 543.797H666.827V575.779H698.622V543.797Z" fill="black"/>
<path d="M794.007 543.797H762.212V575.779H794.007V543.797Z" fill="black"/>
<path d="M857.597 543.797H825.802V575.779H857.597V543.797Z" fill="black"/>
<path d="M921.186 543.797H889.391V575.779H921.186V543.797Z" fill="black"/>
<path d="M984.776 543.797H952.981V575.779H984.776V543.797Z" fill="black"/>
<path d="M1016.57 543.797H984.776V575.779H1016.57V543.797Z" fill="black"/>
<path d="M1048.37 543.797H1016.57V575.779H1048.37V543.797Z" fill="black"/>
<path d="M1143.75 543.797H1111.96V575.779H1143.75V543.797Z" fill="black"/>
<path d="M1207.34 543.797H1175.55V575.779H1207.34V543.797Z" fill="black"/>
<path d="M94.5176 575.779H62.7227V607.761H94.5176V575.779Z" fill="black"/>
<path d="M189.902 575.779H158.108V607.761H189.902V575.779Z" fill="black"/>
<path d="M221.697 575.779H189.902V607.761H221.697V575.779Z" fill="black"/>
<path d="M253.492 575.779H221.697V607.761H253.492V575.779Z" fill="black"/>
<path d="M317.082 575.779H285.287V607.761H317.082V575.779Z" fill="black"/>
<path d="M380.672 575.779H348.877V607.761H380.672V575.779Z" fill="black"/>
<path d="M476.057 575.779H444.262V607.761H476.057L476.057 575.779Z" fill="black"/>
<path d="M730.417 575.779H698.622V607.761H730.417V575.779Z" fill="black"/>
<path d="M762.212 575.779H730.417V607.761H762.212V575.779Z" fill="black"/>
<path d="M794.007 575.779H762.212V607.761H794.007V575.779Z" fill="black"/>
<path d="M825.802 575.779H794.007V607.761H825.802V575.779Z" fill="black"/>
<path d="M984.776 575.779H952.981V607.761H984.776V575.779Z" fill="black"/>
<path d="M1143.75 575.779H1111.96V607.761H1143.75V575.779Z" fill="black"/>
<path d="M1239.14 575.779H1207.34V607.761H1239.14V575.779Z" fill="black"/>
<path d="M126.313 607.761L94.5176 607.761V639.742H126.313V607.761Z" fill="black"/>
<path d="M189.902 607.761H158.108V639.742H189.902V607.761Z" fill="black"/>
<path d="M221.697 607.761H189.902V639.742H221.697V607.761Z" fill="black"/>
<path d="M285.287 607.761H253.492V639.742H285.287V607.761Z" fill="black"/>
<path d="M317.082 607.761H285.287V639.742H317.082V607.761Z" fill="black"/>
<path d="M380.672 607.761H348.877V639.742H380.672V607.761Z" fill="black"/>
<path d="M444.262 607.761L412.467 607.761V639.742H444.262L444.262 607.761Z" fill="black"/>
<path d="M476.057 607.761H444.262L444.262 639.742H476.057V607.761Z" fill="black"/>
<path d="M507.852 607.761L476.057 607.761V639.742H507.852V607.761Z" fill="black"/>
<path d="M539.647 607.761H507.852V639.742H539.647V607.761Z" fill="black"/>
<path d="M603.237 607.761H571.442V639.742H603.237V607.761Z" fill="black"/>
<path d="M666.827 607.761H635.032V639.742H666.827V607.761Z" fill="black"/>
<path d="M698.622 607.761L666.827 607.761V639.742H698.622V607.761Z" fill="black"/>
<path d="M825.802 607.761H794.007V639.742H825.802V607.761Z" fill="black"/>
<path d="M889.391 607.761H857.597V639.742H889.391V607.761Z" fill="black"/>
<path d="M952.981 607.761L921.186 607.761V639.742H952.981V607.761Z" fill="black"/>
<path d="M1016.57 607.761L984.776 607.761V639.742H1016.57V607.761Z" fill="black"/>
<path d="M1048.37 607.761H1016.57V639.742H1048.37V607.761Z" fill="black"/>
<path d="M1111.96 607.761L1080.16 607.761V639.742H1111.96V607.761Z" fill="black"/>
<path d="M1175.55 607.761L1143.75 607.761V639.742H1175.55V607.761Z" fill="black"/>
<path d="M1207.34 607.761L1175.55 607.761V639.742H1207.34V607.761Z" fill="black"/>
<path d="M221.697 639.742H189.902V671.724H221.697V639.742Z" fill="black"/>
<path d="M348.877 639.742H317.082V671.724H348.877V639.742Z" fill="black"/>
<path d="M412.467 639.742H380.672V671.724H412.467V639.742Z" fill="black"/>
<path d="M444.262 639.742H412.467V671.724H444.262V639.742Z" fill="black"/>
<path d="M476.057 639.742H444.262V671.724H476.057V639.742Z" fill="black"/>
<path d="M507.852 639.742H476.057V671.724H507.852V639.742Z" fill="black"/>
<path d="M603.237 639.742H571.442V671.724H603.237V639.742Z" fill="black"/>
<path d="M762.212 639.742H730.417V671.724H762.212V639.742Z" fill="black"/>
<path d="M857.597 639.742H825.802V671.724H857.597V639.742Z" fill="black"/>
<path d="M921.186 639.742H889.391V671.724H921.186V639.742Z" fill="black"/>
<path d="M952.981 639.742H921.186V671.724H952.981V639.742Z" fill="black"/>
<path d="M984.776 639.742H952.981V671.724H984.776V639.742Z" fill="black"/>
<path d="M1016.57 639.742H984.776V671.724H1016.57V639.742Z" fill="black"/>
<path d="M126.313 671.724H94.5176V703.706H126.313V671.724Z" fill="black"/>
<path d="M189.902 671.724H158.108V703.706H189.902V671.724Z" fill="black"/>
<path d="M221.697 671.724H189.902V703.706H221.697V671.724Z" fill="black"/>
<path d="M285.287 671.724H253.492V703.706H285.287V671.724Z" fill="black"/>
<path d="M317.082 671.724H285.287V703.706H317.082V671.724Z" fill="black"/>
<path d="M380.672 671.724H348.877V703.706H380.672V671.724Z" fill="black"/>
<path d="M444.262 671.724H412.467V703.706H444.262V671.724Z" fill="black"/>
<path d="M507.852 671.724H476.057L476.057 703.706H507.852V671.724Z" fill="black"/>
<path d="M539.647 671.724H507.852V703.706H539.647V671.724Z" fill="black"/>
<path d="M603.237 671.724H571.442V703.706H603.237V671.724Z" fill="black"/>
<path d="M666.827 671.724H635.032V703.706H666.827V671.724Z" fill="black"/>
<path d="M730.417 671.724H698.622V703.706H730.417V671.724Z" fill="black"/>
<path d="M762.212 671.724H730.417V703.706H762.212V671.724Z" fill="black"/>
<path d="M794.007 671.724H762.212V703.706H794.007V671.724Z" fill="black"/>
<path d="M889.391 671.724H857.597V703.706H889.391V671.724Z" fill="black"/>
<path d="M952.981 671.724H921.186V703.706H952.981V671.724Z" fill="black"/>
<path d="M1016.57 671.724H984.776V703.706H1016.57V671.724Z" fill="black"/>
<path d="M1048.37 671.724H1016.57V703.706H1048.37V671.724Z" fill="black"/>
<path d="M1111.96 671.724H1080.16V703.706H1111.96V671.724Z" fill="black"/>
<path d="M1175.55 671.724H1143.75V703.706H1175.55V671.724Z" fill="black"/>
<path d="M126.313 703.706H94.5176V735.687H126.313V703.706Z" fill="black"/>
<path d="M158.108 703.706H126.313V735.687H158.108V703.706Z" fill="black"/>
<path d="M221.697 703.706H189.902V735.687H221.697V703.706Z" fill="black"/>
<path d="M253.492 703.706H221.697V735.687H253.492V703.706Z" fill="black"/>
<path d="M317.082 703.706H285.287V735.687H317.082V703.706Z" fill="black"/>
<path d="M380.672 703.706H348.877V735.687H380.672V703.706Z" fill="black"/>
<path d="M412.467 703.706H380.672V735.687H412.467V703.706Z" fill="black"/>
<path d="M444.262 703.706H412.467V735.687H444.262V703.706Z" fill="black"/>
<path d="M507.852 703.706H476.057V735.687H507.852V703.706Z" fill="black"/>
<path d="M539.647 703.706H507.852V735.687H539.647V703.706Z" fill="black"/>
<path d="M571.442 703.706H539.647V735.687H571.442L571.442 703.706Z" fill="black"/>
<path d="M666.827 703.706H635.032V735.687H666.827V703.706Z" fill="black"/>
<path d="M698.622 703.706H666.827V735.687H698.622V703.706Z" fill="black"/>
<path d="M762.212 703.706H730.417V735.687H762.212V703.706Z" fill="black"/>
<path d="M794.007 703.706H762.212V735.687H794.007V703.706Z" fill="black"/>
<path d="M825.802 703.706H794.007V735.687H825.802V703.706Z" fill="black"/>
<path d="M857.597 703.706H825.802V735.687H857.597V703.706Z" fill="black"/>
<path d="M889.391 703.706H857.597V735.687H889.391V703.706Z" fill="black"/>
<path d="M952.981 703.706H921.186V735.687H952.981V703.706Z" fill="black"/>
<path d="M1111.96 703.706H1080.16V735.687H1111.96V703.706Z" fill="black"/>
<path d="M1175.55 703.706H1143.75V735.687H1175.55V703.706Z" fill="black"/>
<path d="M1207.34 703.706H1175.55V735.687H1207.34V703.706Z" fill="black"/>
<path d="M94.5176 735.687H62.7227V767.669H94.5176V735.687Z" fill="black"/>
<path d="M126.313 735.687H94.5176V767.669H126.313V735.687Z" fill="black"/>
<path d="M285.287 735.687H253.492V767.669H285.287V735.687Z" fill="black"/>
<path d="M317.082 735.687H285.287V767.669H317.082V735.687Z" fill="black"/>
<path d="M380.672 735.687H348.877V767.669H380.672V735.687Z" fill="black"/>
<path d="M476.057 735.687H444.262L444.262 767.669H476.057L476.057 735.687Z" fill="black"/>
<path d="M539.647 735.687H507.852V767.669H539.647V735.687Z" fill="black"/>
<path d="M635.032 735.687H603.237V767.669H635.032V735.687Z" fill="black"/>
<path d="M698.622 735.687H666.827V767.669H698.622V735.687Z" fill="black"/>
<path d="M730.417 735.687H698.622V767.669H730.417V735.687Z" fill="black"/>
<path d="M762.212 735.687H730.417V767.669H762.212V735.687Z" fill="black"/>
<path d="M952.981 735.687H921.186V767.669H952.981V735.687Z" fill="black"/>
<path d="M984.776 735.687H952.981V767.669H984.776V735.687Z" fill="black"/>
<path d="M1048.37 735.687H1016.57V767.669H1048.37V735.687Z" fill="black"/>
<path d="M1111.96 735.687H1080.16V767.669H1111.96V735.687Z" fill="black"/>
<path d="M1175.55 735.687H1143.75V767.669H1175.55V735.687Z" fill="black"/>
<path d="M1207.34 735.687H1175.55V767.669H1207.34V735.687Z" fill="black"/>
<path d="M1239.14 735.687H1207.34V767.669H1239.14V735.687Z" fill="black"/>
<path d="M94.5176 767.669H62.7227V799.651H94.5176V767.669Z" fill="black"/>
<path d="M158.108 767.669H126.313V799.651H158.108V767.669Z" fill="black"/>
<path d="M221.697 767.669H189.902V799.651H221.697V767.669Z" fill="black"/>
<path d="M380.672 767.669H348.877V799.651H380.672V767.669Z" fill="black"/>
<path d="M444.262 767.669H412.467V799.651H444.262L444.262 767.669Z" fill="black"/>
<path d="M507.852 767.669H476.057L476.057 799.651H507.852V767.669Z" fill="black"/>
<path d="M635.032 767.669H603.237V799.651H635.032V767.669Z" fill="black"/>
<path d="M762.212 767.669H730.417V799.651H762.212V767.669Z" fill="black"/>
<path d="M889.391 767.669H857.597V799.651H889.391V767.669Z" fill="black"/>
<path d="M1016.57 767.669H984.776V799.651H1016.57V767.669Z" fill="black"/>
<path d="M1111.96 767.669H1080.16V799.651H1111.96V767.669Z" fill="black"/>
<path d="M1143.75 767.669H1111.96V799.651H1143.75V767.669Z" fill="black"/>
<path d="M94.5176 799.651H62.7227V831.633H94.5176V799.651Z" fill="black"/>
<path d="M158.108 799.651H126.313V831.633H158.108V799.651Z" fill="black"/>
<path d="M189.902 799.651H158.108V831.633H189.902V799.651Z" fill="black"/>
<path d="M285.287 799.651H253.492V831.633H285.287V799.651Z" fill="black"/>
<path d="M380.672 799.651H348.877V831.633H380.672V799.651Z" fill="black"/>
<path d="M412.467 799.651H380.672V831.633H412.467V799.651Z" fill="black"/>
<path d="M476.057 799.651H444.262L444.262 831.633H476.057L476.057 799.651Z" fill="black"/>
<path d="M539.647 799.651H507.852V831.633H539.647V799.651Z" fill="black"/>
<path d="M571.442 799.651H539.647V831.633H571.442V799.651Z" fill="black"/>
<path d="M635.032 799.651H603.237V831.633H635.032V799.651Z" fill="black"/>
<path d="M730.417 799.651H698.622V831.633H730.417V799.651Z" fill="black"/>
<path d="M762.212 799.651H730.417V831.633H762.212V799.651Z" fill="black"/>
<path d="M794.007 799.651H762.212V831.633H794.007V799.651Z" fill="black"/>
<path d="M889.391 799.651H857.597V831.633H889.391V799.651Z" fill="black"/>
<path d="M952.981 799.651H921.186V831.633H952.981V799.651Z" fill="black"/>
<path d="M984.776 799.651H952.981V831.633H984.776V799.651Z" fill="black"/>
<path d="M1080.16 799.651H1048.37V831.633H1080.16V799.651Z" fill="black"/>
<path d="M1143.75 799.651H1111.96V831.633H1143.75V799.651Z" fill="black"/>
<path d="M1207.34 799.651H1175.55V831.633H1207.34V799.651Z" fill="black"/>
<path d="M1239.14 799.651H1207.34V831.633H1239.14V799.651Z" fill="black"/>
<path d="M189.902 831.633H158.108V863.614H189.902V831.633Z" fill="black"/>
<path d="M412.467 831.633H380.672V863.614H412.467V831.633Z" fill="black"/>
<path d="M476.057 831.633H444.262V863.614H476.057V831.633Z" fill="black"/>
<path d="M507.852 831.633H476.057V863.614H507.852V831.633Z" fill="black"/>
<path d="M539.647 831.633H507.852V863.614H539.647V831.633Z" fill="black"/>
<path d="M603.237 831.633H571.442L571.442 863.614H603.237L603.237 831.633Z" fill="black"/>
<path d="M730.417 831.633H698.622V863.614H730.417V831.633Z" fill="black"/>
<path d="M857.597 831.633H825.802V863.614H857.597V831.633Z" fill="black"/>
<path d="M921.186 831.633H889.391V863.614H921.186V831.633Z" fill="black"/>
<path d="M984.776 831.633H952.981V863.614H984.776V831.633Z" fill="black"/>
<path d="M1048.37 831.633H1016.57V863.614H1048.37V831.633Z" fill="black"/>
<path d="M1111.96 831.633H1080.16V863.614H1111.96V831.633Z" fill="black"/>
<path d="M1143.75 831.633H1111.96V863.614H1143.75V831.633Z" fill="black"/>
<path d="M1239.14 831.633H1207.34V863.614H1239.14V831.633Z" fill="black"/>
<path d="M189.902 863.614H158.108V895.596H189.902V863.614Z" fill="black"/>
<path d="M221.697 863.614H189.902V895.596H221.697V863.614Z" fill="black"/>
<path d="M253.492 863.614H221.697V895.596H253.492V863.614Z" fill="black"/>
<path d="M285.287 863.614H253.492V895.596H285.287V863.614Z" fill="black"/>
<path d="M317.082 863.614H285.287V895.596H317.082V863.614Z" fill="black"/>
<path d="M476.057 863.614H444.262V895.596H476.057V863.614Z" fill="black"/>
<path d="M635.032 863.614H603.237L603.237 895.596H635.032V863.614Z" fill="black"/>
<path d="M698.622 863.614H666.827V895.596H698.622V863.614Z" fill="black"/>
<path d="M730.417 863.614H698.622V895.596H730.417V863.614Z" fill="black"/>
<path d="M889.391 863.614H857.597V895.596H889.391V863.614Z" fill="black"/>
<path d="M952.981 863.614H921.186V895.596H952.981V863.614Z" fill="black"/>
<path d="M984.776 863.614H952.981V895.596H984.776V863.614Z" fill="black"/>
<path d="M1048.37 863.614H1016.57V895.596H1048.37V863.614Z" fill="black"/>
<path d="M1143.75 863.614H1111.96V895.596H1143.75V863.614Z" fill="black"/>
<path d="M1239.14 863.614H1207.34V895.596H1239.14V863.614Z" fill="black"/>
<path d="M126.313 895.596H94.5176V927.578H126.313V895.596Z" fill="black"/>
<path d="M253.492 895.596H221.697V927.578H253.492V895.596Z" fill="black"/>
<path d="M348.877 895.596H317.082V927.578H348.877V895.596Z" fill="black"/>
<path d="M412.467 895.596H380.672V927.578H412.467V895.596Z" fill="black"/>
<path d="M539.647 895.596H507.852V927.578H539.647V895.596Z" fill="black"/>
<path d="M571.442 895.596H539.647V927.578H571.442V895.596Z" fill="black"/>
<path d="M666.827 895.596H635.032V927.578H666.827V895.596Z" fill="black"/>
<path d="M698.622 895.596H666.827V927.578H698.622V895.596Z" fill="black"/>
<path d="M794.007 895.596H762.212V927.578H794.007V895.596Z" fill="black"/>
<path d="M825.802 895.596H794.007V927.578H825.802V895.596Z" fill="black"/>
<path d="M857.597 895.596H825.802V927.578H857.597V895.596Z" fill="black"/>
<path d="M921.186 895.596H889.391V927.578H921.186V895.596Z" fill="black"/>
<path d="M952.981 895.596H921.186V927.578H952.981V895.596Z" fill="black"/>
<path d="M984.776 895.596H952.981V927.578H984.776V895.596Z" fill="black"/>
<path d="M1016.57 895.596H984.776V927.578H1016.57V895.596Z" fill="black"/>
<path d="M1080.16 895.596H1048.37V927.578H1080.16V895.596Z" fill="black"/>
<path d="M1111.96 895.596H1080.16V927.578H1111.96V895.596Z" fill="black"/>
<path d="M94.5176 927.578H62.7227V959.559H94.5176V927.578Z" fill="black"/>
<path d="M158.108 927.578H126.313V959.559H158.108V927.578Z" fill="black"/>
<path d="M253.492 927.578H221.697V959.559H253.492V927.578Z" fill="black"/>
<path d="M285.287 927.578H253.492V959.559H285.287V927.578Z" fill="black"/>
<path d="M380.672 927.578H348.877V959.559H380.672V927.578Z" fill="black"/>
<path d="M412.467 927.578H380.672V959.559H412.467V927.578Z" fill="black"/>
<path d="M444.262 927.578H412.467V959.559H444.262V927.578Z" fill="black"/>
<path d="M476.057 927.578H444.262V959.559H476.057V927.578Z" fill="black"/>
<path d="M507.852 927.578H476.057V959.559H507.852V927.578Z" fill="black"/>
<path d="M539.647 927.578H507.852V959.559H539.647V927.578Z" fill="black"/>
<path d="M635.032 927.578H603.237V959.559H635.032V927.578Z" fill="black"/>
<path d="M762.212 927.578H730.417V959.559H762.212V927.578Z" fill="black"/>
<path d="M889.391 927.578H857.597V959.559H889.391V927.578Z" fill="black"/>
<path d="M984.776 927.578H952.981V959.559H984.776V927.578Z" fill="black"/>
<path d="M1016.57 927.578H984.776V959.559H1016.57V927.578Z" fill="black"/>
<path d="M1048.37 927.578H1016.57V959.559H1048.37V927.578Z" fill="black"/>
<path d="M1080.16 927.578H1048.37V959.559H1080.16V927.578Z" fill="black"/>
<path d="M1111.96 927.578H1080.16V959.559H1111.96V927.578Z" fill="black"/>
<path d="M1207.34 927.578H1175.55V959.559H1207.34V927.578Z" fill="black"/>
<path d="M412.467 959.559H380.672V991.541H412.467V959.559Z" fill="black"/>
<path d="M476.057 959.559H444.262L444.262 991.541H476.057V959.559Z" fill="black"/>
<path d="M539.647 959.559H507.852V991.541H539.647V959.559Z" fill="black"/>
<path d="M571.442 959.559H539.647V991.541H571.442V959.559Z" fill="black"/>
<path d="M603.237 959.559H571.442V991.541H603.237L603.237 959.559Z" fill="black"/>
<path d="M635.032 959.559H603.237L603.237 991.541H635.032V959.559Z" fill="black"/>
<path d="M698.622 959.559H666.827V991.541H698.622V959.559Z" fill="black"/>
<path d="M730.417 959.559H698.622V991.541H730.417V959.559Z" fill="black"/>
<path d="M921.186 959.559H889.391V991.541H921.186V959.559Z" fill="black"/>
<path d="M952.981 959.559H921.186V991.541H952.981V959.559Z" fill="black"/>
<path d="M984.776 959.559H952.981V991.541H984.776V959.559Z" fill="black"/>
<path d="M1111.96 959.559H1080.16V991.541H1111.96V959.559Z" fill="black"/>
<path d="M1143.75 959.559H1111.96V991.541H1143.75V959.559Z" fill="black"/>
<path d="M94.5176 991.541H62.7227V1023.52H94.5176V991.541Z" fill="black"/>
<path d="M126.313 991.541H94.5176V1023.52H126.313V991.541Z" fill="black"/>
<path d="M158.108 991.541H126.313V1023.52H158.108V991.541Z" fill="black"/>
<path d="M189.902 991.541H158.108V1023.52H189.902V991.541Z" fill="black"/>
<path d="M221.697 991.541H189.902V1023.52H221.697V991.541Z" fill="black"/>
<path d="M253.492 991.541H221.697V1023.52H253.492V991.541Z" fill="black"/>
<path d="M285.287 991.541H253.492V1023.52H285.287V991.541Z" fill="black"/>
<path d="M348.877 991.541H317.082V1023.52H348.877V991.541Z" fill="black"/>
<path d="M476.057 991.541H444.262V1023.52H476.057V991.541Z" fill="black"/>
<path d="M539.647 991.541H507.852V1023.52H539.647V991.541Z" fill="black"/>
<path d="M571.442 991.541H539.647V1023.52H571.442V991.541Z" fill="black"/>
<path d="M603.237 991.541H571.442V1023.52H603.237V991.541Z" fill="black"/>
<path d="M666.827 991.541H635.032V1023.52H666.827V991.541Z" fill="black"/>
<path d="M698.622 991.541H666.827V1023.52H698.622V991.541Z" fill="black"/>
<path d="M730.417 991.541H698.622V1023.52H730.417V991.541Z" fill="black"/>
<path d="M794.007 991.541H762.212V1023.52H794.007V991.541Z" fill="black"/>
<path d="M857.597 991.541H825.802V1023.52H857.597V991.541Z" fill="black"/>
<path d="M952.981 991.541H921.186V1023.52H952.981V991.541Z" fill="black"/>
<path d="M984.776 991.541H952.981V1023.52H984.776V991.541Z" fill="black"/>
<path d="M1048.37 991.541H1016.57V1023.52H1048.37V991.541Z" fill="black"/>
<path d="M1111.96 991.541H1080.16V1023.52H1111.96V991.541Z" fill="black"/>
<path d="M1143.75 991.541H1111.96V1023.52H1143.75V991.541Z" fill="black"/>
<path d="M1207.34 991.541H1175.55V1023.52H1207.34V991.541Z" fill="black"/>
<path d="M1239.14 991.541H1207.34V1023.52H1239.14V991.541Z" fill="black"/>
<path d="M94.5176 1023.52H62.7227V1055.5H94.5176V1023.52Z" fill="black"/>
<path d="M285.287 1023.52H253.492V1055.5H285.287V1023.52Z" fill="black"/>
<path d="M348.877 1023.52H317.082V1055.5H348.877V1023.52Z" fill="black"/>
<path d="M380.672 1023.52H348.877V1055.5H380.672V1023.52Z" fill="black"/>
<path d="M507.852 1023.52H476.057L476.057 1055.5H507.852V1023.52Z" fill="black"/>
<path d="M635.032 1023.52H603.237L603.237 1055.5H635.032V1023.52Z" fill="black"/>
<path d="M666.827 1023.52H635.032V1055.5H666.827V1023.52Z" fill="black"/>
<path d="M698.622 1023.52H666.827V1055.5H698.622V1023.52Z" fill="black"/>
<path d="M825.802 1023.52H794.007V1055.5H825.802V1023.52Z" fill="black"/>
<path d="M889.391 1023.52H857.597V1055.5H889.391V1023.52Z" fill="black"/>
<path d="M921.186 1023.52H889.391V1055.5H921.186V1023.52Z" fill="black"/>
<path d="M952.981 1023.52H921.186V1055.5H952.981V1023.52Z" fill="black"/>
<path d="M984.776 1023.52H952.981V1055.5H984.776V1023.52Z" fill="black"/>
<path d="M1111.96 1023.52H1080.16V1055.5H1111.96V1023.52Z" fill="black"/>
<path d="M1175.55 1023.52H1143.75V1055.5H1175.55V1023.52Z" fill="black"/>
<path d="M1239.14 1023.52H1207.34V1055.5H1239.14V1023.52Z" fill="black"/>
<path d="M94.5176 1055.5H62.7227V1087.49H94.5176V1055.5Z" fill="black"/>
<path d="M158.108 1055.5H126.313V1087.49H158.108V1055.5Z" fill="black"/>
<path d="M189.902 1055.5H158.108V1087.49H189.902V1055.5Z" fill="black"/>
<path d="M221.697 1055.5H189.902V1087.49H221.697V1055.5Z" fill="black"/>
<path d="M285.287 1055.5H253.492V1087.49H285.287V1055.5Z" fill="black"/>
<path d="M348.877 1055.5H317.082V1087.49H348.877V1055.5Z" fill="black"/>
<path d="M412.467 1055.5H380.672V1087.49H412.467V1055.5Z" fill="black"/>
<path d="M476.057 1055.5H444.262V1087.49H476.057L476.057 1055.5Z" fill="black"/>
<path d="M603.237 1055.5H571.442V1087.49H603.237L603.237 1055.5Z" fill="black"/>
<path d="M698.622 1055.5H666.827V1087.49H698.622V1055.5Z" fill="black"/>
<path d="M730.417 1055.5H698.622V1087.49H730.417V1055.5Z" fill="black"/>
<path d="M825.802 1055.5H794.007V1087.49H825.802V1055.5Z" fill="black"/>
<path d="M857.597 1055.5H825.802V1087.49H857.597V1055.5Z" fill="black"/>
<path d="M984.776 1055.5H952.981V1087.49H984.776V1055.5Z" fill="black"/>
<path d="M1016.57 1055.5H984.776V1087.49H1016.57V1055.5Z" fill="black"/>
<path d="M1048.37 1055.5H1016.57V1087.49H1048.37V1055.5Z" fill="black"/>
<path d="M1080.16 1055.5H1048.37V1087.49H1080.16V1055.5Z" fill="black"/>
<path d="M1111.96 1055.5H1080.16V1087.49H1111.96V1055.5Z" fill="black"/>
<path d="M1143.75 1055.5H1111.96V1087.49H1143.75V1055.5Z" fill="black"/>
<path d="M1239.14 1055.5H1207.34V1087.49H1239.14V1055.5Z" fill="black"/>
<path d="M94.5176 1087.49H62.7227V1119.47H94.5176V1087.49Z" fill="black"/>
<path d="M158.108 1087.49H126.313V1119.47H158.108V1087.49Z" fill="black"/>
<path d="M189.902 1087.49H158.108V1119.47H189.902V1087.49Z" fill="black"/>
<path d="M221.697 1087.49H189.902V1119.47H221.697V1087.49Z" fill="black"/>
<path d="M285.287 1087.49H253.492V1119.47H285.287V1087.49Z" fill="black"/>
<path d="M348.877 1087.49H317.082V1119.47H348.877V1087.49Z" fill="black"/>
<path d="M507.852 1087.49H476.057L476.057 1119.47H507.852V1087.49Z" fill="black"/>
<path d="M539.647 1087.49H507.852V1119.47H539.647V1087.49Z" fill="black"/>
<path d="M603.237 1087.49H571.442V1119.47H603.237V1087.49Z" fill="black"/>
<path d="M635.032 1087.49H603.237V1119.47H635.032V1087.49Z" fill="black"/>
<path d="M698.622 1087.49H666.827V1119.47H698.622V1087.49Z" fill="black"/>
<path d="M730.417 1087.49H698.622V1119.47H730.417V1087.49Z" fill="black"/>
<path d="M794.007 1087.49H762.212V1119.47H794.007V1087.49Z" fill="black"/>
<path d="M889.391 1087.49H857.597V1119.47H889.391V1087.49Z" fill="black"/>
<path d="M921.186 1087.49H889.391V1119.47H921.186V1087.49Z" fill="black"/>
<path d="M984.776 1087.49H952.981V1119.47H984.776V1087.49Z" fill="black"/>
<path d="M1111.96 1087.49H1080.16V1119.47H1111.96V1087.49Z" fill="black"/>
<path d="M1175.55 1087.49H1143.75V1119.47H1175.55V1087.49Z" fill="black"/>
<path d="M94.5176 1119.47H62.7227V1151.45H94.5176V1119.47Z" fill="black"/>
<path d="M158.108 1119.47H126.313V1151.45H158.108V1119.47Z" fill="black"/>
<path d="M189.902 1119.47H158.108V1151.45H189.902V1119.47Z" fill="black"/>
<path d="M221.697 1119.47H189.902V1151.45H221.697V1119.47Z" fill="black"/>
<path d="M285.287 1119.47H253.492V1151.45H285.287V1119.47Z" fill="black"/>
<path d="M348.877 1119.47H317.082V1151.45H348.877V1119.47Z" fill="black"/>
<path d="M380.672 1119.47H348.877V1151.45H380.672V1119.47Z" fill="black"/>
<path d="M476.057 1119.47H444.262V1151.45H476.057L476.057 1119.47Z" fill="black"/>
<path d="M603.237 1119.47H571.442V1151.45H603.237V1119.47Z" fill="black"/>
<path d="M635.032 1119.47H603.237V1151.45H635.032V1119.47Z" fill="black"/>
<path d="M730.417 1119.47H698.622V1151.45H730.417V1119.47Z" fill="black"/>
<path d="M794.007 1119.47H762.212V1151.45H794.007V1119.47Z" fill="black"/>
<path d="M857.597 1119.47H825.802V1151.45H857.597V1119.47Z" fill="black"/>
<path d="M984.776 1119.47H952.981V1151.45H984.776V1119.47Z" fill="black"/>
<path d="M1111.96 1119.47H1080.16V1151.45H1111.96V1119.47Z" fill="black"/>
<path d="M1143.75 1119.47H1111.96V1151.45H1143.75V1119.47Z" fill="black"/>
<path d="M1175.55 1119.47H1143.75V1151.45H1175.55V1119.47Z" fill="black"/>
<path d="M1239.14 1119.47H1207.34V1151.45H1239.14V1119.47Z" fill="black"/>
<path d="M94.5176 1151.45H62.7227V1183.43H94.5176V1151.45Z" fill="black"/>
<path d="M285.287 1151.45H253.492V1183.43H285.287V1151.45Z" fill="black"/>
<path d="M444.262 1151.45H412.467V1183.43H444.262L444.262 1151.45Z" fill="black"/>
<path d="M539.647 1151.45H507.852V1183.43H539.647V1151.45Z" fill="black"/>
<path d="M635.032 1151.45H603.237L603.237 1183.43H635.032V1151.45Z" fill="black"/>
<path d="M666.827 1151.45H635.032V1183.43H666.827V1151.45Z" fill="black"/>
<path d="M698.622 1151.45H666.827V1183.43H698.622V1151.45Z" fill="black"/>
<path d="M730.417 1151.45H698.622V1183.43H730.417V1151.45Z" fill="black"/>
<path d="M825.802 1151.45H794.007V1183.43H825.802V1151.45Z" fill="black"/>
<path d="M921.186 1151.45H889.391V1183.43H921.186V1151.45Z" fill="black"/>
<path d="M984.776 1151.45H952.981V1183.43H984.776V1151.45Z" fill="black"/>
<path d="M1016.57 1151.45H984.776V1183.43H1016.57V1151.45Z" fill="black"/>
<path d="M1048.37 1151.45H1016.57V1183.43H1048.37V1151.45Z" fill="black"/>
<path d="M1080.16 1151.45H1048.37V1183.43H1080.16V1151.45Z" fill="black"/>
<path d="M1175.55 1151.45H1143.75V1183.43H1175.55V1151.45Z" fill="black"/>
<path d="M1239.14 1151.45H1207.34V1183.43H1239.14V1151.45Z" fill="black"/>
<path d="M94.5176 1183.43H62.7227V1215.41H94.5176V1183.43Z" fill="black"/>
<path d="M126.313 1183.43H94.5176V1215.41H126.313V1183.43Z" fill="black"/>
<path d="M158.108 1183.43H126.313V1215.41H158.108V1183.43Z" fill="black"/>
<path d="M189.902 1183.43H158.108V1215.41H189.902V1183.43Z" fill="black"/>
<path d="M221.697 1183.43H189.902V1215.41H221.697V1183.43Z" fill="black"/>
<path d="M253.492 1183.43H221.697V1215.41H253.492V1183.43Z" fill="black"/>
<path d="M285.287 1183.43H253.492V1215.41H285.287V1183.43Z" fill="black"/>
<path d="M412.467 1183.43H380.672V1215.41H412.467V1183.43Z" fill="black"/>
<path d="M444.262 1183.43H412.467V1215.41H444.262V1183.43Z" fill="black"/>
<path d="M539.647 1183.43H507.852V1215.41H539.647V1183.43Z" fill="black"/>
<path d="M571.442 1183.43H539.647V1215.41H571.442V1183.43Z" fill="black"/>
<path d="M603.237 1183.43H571.442V1215.41H603.237L603.237 1183.43Z" fill="black"/>
<path d="M666.827 1183.43H635.032V1215.41H666.827V1183.43Z" fill="black"/>
<path d="M698.622 1183.43H666.827V1215.41H698.622V1183.43Z" fill="black"/>
<path d="M794.007 1183.43H762.212V1215.41H794.007V1183.43Z" fill="black"/>
<path d="M857.597 1183.43H825.802V1215.41H857.597V1183.43Z" fill="black"/>
<path d="M921.186 1183.43H889.391V1215.41H921.186V1183.43Z" fill="black"/>
<path d="M984.776 1183.43H952.981V1215.41H984.776V1183.43Z" fill="black"/>
<path d="M1048.37 1183.43H1016.57V1215.41H1048.37V1183.43Z" fill="black"/>
<path d="M1080.16 1183.43H1048.37V1215.41H1080.16V1183.43Z" fill="black"/>
<path d="M1143.75 1183.43H1111.96V1215.41H1143.75V1183.43Z" fill="black"/>
<path d="M1175.55 1183.43H1143.75V1215.41H1175.55V1183.43Z" fill="black"/>
<path d="M1207.34 1183.43H1175.55V1215.41H1207.34V1183.43Z" fill="black"/>
<path d="M1239.14 1183.43H1207.34V1215.41H1239.14V1183.43Z" fill="black"/>
</svg>
