<svg xmlns="http://www.w3.org/2000/svg" width="130" height="83" fill="none" viewBox="0 0 130 83">
  <path fill="url(#a)" d="M50.886 16.875c1.436 0 2.6-1.123 2.6-2.509s-1.164-2.509-2.6-2.509c-1.436 0-2.6 1.123-2.6 2.51 0 1.385 1.164 2.508 2.6 2.508Z"/>
  <path fill="#F8F3E3" d="M53.85 34.935a11.405 11.405 0 0 1-.744-3.12c-.019-2.027.327-4.521.674-6.935.095-.729.207-1.445.29-2.149a3.72 3.72 0 0 0-.843-2.89 3.521 3.521 0 0 0-2.697-1.239 3.503 3.503 0 0 0-2.673 1.289 3.773 3.773 0 0 0-.801 2.905c.107.702.221 1.416.33 2.143.39 2.407.795 4.894.813 6.885a11.061 11.061 0 0 1-.685 3.163c-1.105 2.92-3.202 4.752-4.966 5.841l16.362-.15c-1.772-1.05-3.909-2.843-5.06-5.743ZM31.694 16.674h3.243c2.206 0 3.565.378 4.078 1.134.245.356.434.7.568 1.034.156.333.256.856.3 1.567a50.07 50.07 0 0 1 .168 4.302c0 1.579-.011 2.723-.033 3.435-.023.69-.1 1.4-.234 2.134-.112.712-.268 1.234-.468 1.567-.201.312-.502.6-.903.868-.401.266-.87.444-1.404.533-.535.067-1.226.1-2.072.1h-3.243v-2.5h1.805c.58 0 .947-.079 1.103-.234.179-.156.268-.4.268-.734v-9.704c0-.356-.09-.612-.268-.767-.156-.156-.523-.234-1.103-.234h-1.805v-2.5Zm-1.003 24.11h-2.04c-.98 0-1.726-.244-2.239-.733-.49-.467-.735-1.078-.735-1.834V19.242c0-.756.245-1.367.735-1.834.513-.49 1.26-.734 2.24-.734h2.039v24.11Zm38.755-24.11h4.68c2.429 0 3.643 1.19 3.643 3.568v13.106h-3.81c-.357 0-.647-.122-.87-.367-.222-.244-.334-.567-.334-.967V20.176c0-.356-.089-.612-.267-.767-.156-.156-.524-.234-1.103-.234h-1.94v-2.5Zm-5.85 0h2.039c.98 0 1.716.245 2.206.734.513.467.769 1.078.769 1.834v14.106H64.8c-.357 0-.647-.122-.87-.367-.223-.244-.334-.567-.334-.967v-15.34Zm26.11 2.501h-1.805c-.58 0-.958.078-1.136.234-.156.155-.234.41-.234.767v9.704c0 .333.078.578.234.734.178.155.557.233 1.136.233h1.805v2.501h-3.242c-.847 0-1.538-.033-2.073-.1a3.555 3.555 0 0 1-1.404-.533c-.4-.267-.702-.556-.902-.868-.2-.333-.368-.855-.502-1.567-.156-1-.234-2.4-.234-4.202 0-1.8.011-3.012.034-3.635.022-.644.055-1.323.1-2.034.067-.711.167-1.234.3-1.567a7.53 7.53 0 0 1 .57-1c.244-.357.556-.601.935-.734.825-.29 1.883-.434 3.176-.434h3.242v2.501Zm-2.841 16.308v1.767c0 .378.056.633.167.767.112.156.401.233.87.233h1.804v2.502h-4.212c-2.429 0-3.643-1.19-3.643-3.569v-1c0-.334.033-.523.1-.567a.777.777 0 0 0 .167-.1c.022 0 .078-.011.167-.033h4.58Zm3.844-18.809h2.04c.98 0 1.715.245 2.206.734.512.467.769 1.078.769 1.834v18.975c0 .756-.257 1.367-.77 1.834-.49.49-1.225.734-2.206.734H90.71v-24.11Zm-5.05 28.531h7.28c3.779 0 5.668 1.85 5.668 5.55v20.388h-5.928c-.555 0-1.005-.19-1.352-.57-.347-.381-.52-.883-.52-1.505V50.652c0-.553-.14-.95-.416-1.193-.243-.242-.815-.363-1.716-.363h-3.016v-3.89Zm-9.1 0h3.172c1.525 0 2.669.38 3.432 1.142.797.726 1.196 1.677 1.196 2.853v21.943H78.43c-.555 0-1.005-.19-1.352-.57-.347-.381-.52-.883-.52-1.505V45.205Zm40.616 3.89h-2.808c-.901 0-1.491.122-1.768.364-.243.242-.364.64-.364 1.193v15.096c0 .519.121.899.364 1.141.277.242.867.363 1.768.363h2.808v3.89h-5.044c-1.317 0-2.392-.051-3.224-.155-.832-.138-1.56-.415-2.184-.83-.624-.415-1.092-.864-1.404-1.349-.312-.518-.572-1.331-.78-2.438-.243-1.556-.364-3.735-.364-6.536 0-2.801.017-4.686.052-5.654.035-1.003.087-2.058.156-3.165.104-1.106.26-1.92.468-2.438a11.82 11.82 0 0 1 .884-1.556c.381-.553.867-.934 1.456-1.141 1.283-.45 2.929-.675 4.94-.675h5.044v3.89Zm-4.42 25.368v2.75c0 .587.087.985.26 1.192.173.243.624.363 1.352.363h2.808v3.891h-6.552c-3.779 0-5.668-1.85-5.668-5.55v-1.557c0-.519.052-.813.156-.882.139-.069.225-.12.26-.155.035 0 .121-.017.26-.052h7.124Zm5.98-29.258h3.172c1.525 0 2.669.38 3.432 1.142.797.726 1.196 1.677 1.196 2.853v29.517c0 1.176-.399 2.126-1.196 2.853-.763.76-1.907 1.14-3.432 1.14h-3.172V45.206Zm-106.411 0h5.044c3.432 0 5.547.588 6.344 1.764.381.553.676 1.09.884 1.608.243.519.399 1.332.468 2.438.173 2.006.26 4.237.26 6.692 0 2.456-.017 4.237-.052 5.343a22.593 22.593 0 0 1-.364 3.32c-.173 1.107-.416 1.92-.728 2.438-.312.485-.78.934-1.404 1.35-.624.414-1.352.69-2.184.83-.832.103-1.907.155-3.224.155h-5.044v-3.89h2.808c.901 0 1.473-.122 1.716-.364.277-.242.416-.622.416-1.141V50.652c0-.553-.139-.95-.416-1.193-.243-.242-.815-.363-1.716-.363h-2.808v-3.89Zm-1.56 37.506H7.592c-1.525 0-2.687-.38-3.484-1.141-.763-.727-1.144-1.677-1.144-2.853V49.2c0-1.176.381-2.127 1.144-2.853.797-.761 1.959-1.142 3.484-1.142h3.172v37.506Z"/>
  <path fill="url(#b)" fill-rule="evenodd" d="M38.51 45.205a12.342 12.342 0 0 0-2.11 1.853c-2.6 2.964-4.458 8.152-4.458 12.598 0 10.028 8.543 18.527 18.943 18.157 10.4-.371 18.943-8.13 18.943-18.157 0-5.558-2.228-10.375-5.2-13.339-.388-.387-.83-.758-1.316-1.112H38.51Z" clip-rule="evenodd"/>
  <defs>
    <linearGradient id="a" x1="50.886" x2="50.886" y1="11.857" y2="16.875" gradientUnits="userSpaceOnUse">
      <stop stop-color="#DA6B75"/>
      <stop offset="1" stop-color="#460006"/>
    </linearGradient>
    <linearGradient id="b" x1="50.885" x2="50.885" y1="45.205" y2="77.824" gradientUnits="userSpaceOnUse">
      <stop stop-color="#DA6B75"/>
      <stop offset="1" stop-color="#460006"/>
    </linearGradient>
  </defs>
</svg>
