<svg width="34" height="25" viewBox="0 0 34 25" fill="none" xmlns="http://www.w3.org/2000/svg">
<path d="M21.7963 13.0953C23.16 11.801 24.0169 9.97441 24.0169 7.94584C24.0169 4.02265 20.8263 0.832031 16.9031 0.832031C12.9799 0.832031 9.78928 4.02265 9.78928 7.94584C9.78928 9.97438 10.6461 11.801 12.0098 13.0952C9.3434 14.3349 7.48682 17.0346 7.48682 20.1667V21.0888C7.48682 22.4205 8.43192 23.5706 9.73877 23.8211L9.73892 23.8212C12.095 24.2722 14.5052 24.5 16.904 24.5C19.303 24.5 21.7131 24.2712 24.0698 23.8212L24.0703 23.8211C25.3763 23.5705 26.3212 22.4204 26.3212 21.0888V20.1667V20.1664C26.3194 17.0345 24.462 14.3349 21.7963 13.0953ZM23.5617 21.1753L23.5613 21.1754C19.1833 22.0122 14.6207 22.0123 10.2445 21.1755C10.2126 21.1692 10.1796 21.1371 10.1796 21.0888V20.1667C10.1796 17.3508 12.4709 15.0596 15.2856 15.0596H18.5187C21.3334 15.0596 23.6247 17.3508 23.6247 20.1667V21.0888C23.6247 21.139 23.59 21.1699 23.5617 21.1753ZM12.482 7.94584C12.482 5.50928 14.4656 3.52571 16.9021 3.52571C19.3387 3.52571 21.3223 5.50928 21.3223 7.94584C21.3223 10.3824 19.3387 12.366 16.9021 12.366C14.4655 12.366 12.482 10.3833 12.482 7.94584Z" fill="#F8F3E3" stroke="#F8F3E3"/>
<path d="M27.7828 3.74882L27.7832 3.74897C30.0545 4.64476 31.5247 6.80417 31.5247 9.24526C31.5247 10.7077 30.9744 12.0905 30.0449 13.1502C31.9767 14.3885 33.3501 16.6001 33.3501 18.9171V19.6416C33.3501 20.8266 32.5117 21.8542 31.3515 22.0826C31.3513 22.0827 31.351 22.0827 31.3507 22.0828L31.2543 21.5922C31.1042 21.6222 30.9468 21.6496 30.7855 21.6776C30.7546 21.683 30.7237 21.6884 30.6926 21.6938L27.7828 3.74882ZM27.7828 3.74882C27.0945 3.47799 26.3109 3.81399 26.0368 4.50702L26.5017 4.69115C26.6738 4.2555 27.1669 4.04379 27.5997 4.2141L27.7828 3.74882ZM30.7786 22.1863L30.4376 22.2459C30.437 22.2461 30.4364 22.2462 30.4358 22.2463C30.357 22.2605 30.2778 22.2681 30.1958 22.2681C29.5572 22.2681 28.9895 21.8141 28.8711 21.1621L28.8709 21.1613C28.7394 20.4302 29.2239 19.7298 29.9557 19.5966L29.9593 19.596L29.9593 19.596L30.3206 19.533L30.321 19.5329C30.4376 19.5126 30.549 19.4933 30.6564 19.4735V18.9171C30.6564 18.0064 30.2402 17.0461 29.5608 16.2728C28.8815 15.4996 27.9812 14.9615 27.0751 14.8417L27.0748 14.8417C26.4663 14.761 25.987 14.2781 25.9148 13.6654C25.8417 13.053 26.1939 12.471 26.7678 12.2498L26.768 12.2498C27.9995 11.7755 28.8301 10.5666 28.8301 9.24432C28.8301 7.91496 28.0335 6.7428 26.7956 6.2545C26.1029 5.98209 25.7628 5.1993 26.0367 4.50737L30.7786 22.1863ZM30.7786 22.1863C30.7787 22.1863 30.7787 22.1863 30.7787 22.1863L30.7786 22.1863ZM30.8282 19.4409L30.828 19.4409L30.8282 19.4409Z" fill="#F8F3E3" stroke="#F8F3E3"/>
<path d="M3.89086 19.5973L3.89445 19.598C4.62531 19.731 5.11237 20.4309 4.97901 21.1636L4.48709 21.0741L4.97901 21.1636C4.86063 21.814 4.29339 22.2695 3.65437 22.2695C3.57237 22.2695 3.49316 22.2618 3.41441 22.2476C3.41377 22.2475 3.41314 22.2474 3.4125 22.2473L3.07148 22.1877C3.07146 22.1876 3.07145 22.1876 3.07143 22.1876C3.0411 22.1823 3.01049 22.177 2.97971 22.1717C2.81912 22.1438 2.65348 22.115 2.49502 22.0829M3.89086 19.5973L4.15762 13.5192C4.03489 13.4012 3.91735 13.2781 3.80532 13.1503M3.89086 19.5973L3.5296 19.5343C3.52958 19.5343 3.52956 19.5343 3.52954 19.5343C3.49997 19.5291 3.4709 19.5241 3.44226 19.5191C3.35605 19.5041 3.27377 19.4899 3.19368 19.4751V18.9184C3.19368 18.0077 3.60977 17.0473 4.28901 16.2741C4.96818 15.501 5.86843 14.9628 6.77503 14.8431L6.77534 14.843C7.3827 14.7625 7.86424 14.2804 7.93539 13.6661C8.00826 13.0532 7.65453 12.4723 7.08269 12.2513L7.08204 12.251C5.84989 11.7769 5.02003 10.5672 5.02003 9.24565C5.02003 7.9151 5.81684 6.74307 7.05457 6.2558L7.0552 6.25555C7.74793 5.98175 8.08587 5.19924 7.81367 4.50828L7.81346 4.50775C7.53989 3.81559 6.75562 3.47664 6.06665 3.74948C3.79551 4.64534 2.32541 6.80466 2.32541 9.24565C2.32541 10.7073 2.87639 12.0905 3.80532 13.1503M3.89086 19.5973L3.80532 13.1503M2.49502 22.0829C2.4945 22.0828 2.49398 22.0827 2.49346 22.0826L2.593 21.5926L2.49677 22.0832C2.49619 22.0831 2.4956 22.083 2.49502 22.0829ZM2.49502 22.0829C1.33748 21.855 0.5 20.8271 0.5 19.6429V18.9184C0.5 16.5999 1.87329 14.388 3.80532 13.1503" fill="#F8F3E3" stroke="#F8F3E3"/>
</svg>
