<svg width="31" height="36" viewBox="0 0 31 36" fill="none" xmlns="http://www.w3.org/2000/svg">
<path d="M13.6159 15.554C12.0777 15.554 10.5741 15.0979 9.29521 14.2434C8.01628 13.3888 7.01948 12.1742 6.43086 10.7532C5.84224 9.33209 5.68823 7.76839 5.9883 6.2598C6.28838 4.75121 7.02907 3.36547 8.1167 2.27784C9.20434 1.1902 10.5901 0.449515 12.0987 0.149437C13.6073 -0.150641 15.171 0.00336963 16.592 0.591994C18.0131 1.18062 19.2277 2.17742 20.0822 3.45634C20.9368 4.73526 21.3929 6.23887 21.3929 7.77702C21.3929 9.83961 20.5735 11.8177 19.1151 13.2762C17.6566 14.7347 15.6785 15.554 13.6159 15.554ZM13.6159 3.88851C12.8468 3.88851 12.095 4.11657 11.4555 4.54384C10.8161 4.97112 10.3177 5.57842 10.0234 6.28895C9.72906 6.99948 9.65206 7.78133 9.80209 8.53563C9.95213 9.28993 10.3225 9.98279 10.8663 10.5266C11.4101 11.0704 12.103 11.4408 12.8573 11.5908C13.6116 11.7408 14.3934 11.6638 15.104 11.3695C15.8145 11.0752 16.4218 10.5768 16.8491 9.93736C17.2763 9.2979 17.5044 8.54609 17.5044 7.77702C17.5044 6.74572 17.0947 5.75667 16.3655 5.02743C15.6362 4.29819 14.6472 3.88851 13.6159 3.88851Z" fill="#F8F3E3"/>
<path d="M24.275 35.05C23.1328 35.05 22.0163 34.7113 21.0666 34.0767C20.1169 33.4422 19.3767 32.5402 18.9396 31.485C18.5025 30.4298 18.3881 29.2686 18.611 28.1484C18.8338 27.0281 19.3838 25.9991 20.1915 25.1915C20.9991 24.3838 22.0281 23.8338 23.1484 23.611C24.2686 23.3881 25.4298 23.5025 26.485 23.9396C27.5402 24.3767 28.4422 25.1169 29.0767 26.0666C29.7113 27.0163 30.05 28.1328 30.05 29.275C30.05 30.8066 29.4416 32.2755 28.3585 33.3585C27.2755 34.4416 25.8066 35.05 24.275 35.05ZM24.275 25.6375C23.5556 25.6375 22.8523 25.8508 22.2541 26.2505C21.6559 26.6502 21.1897 27.2183 20.9144 27.883C20.6391 28.5477 20.567 29.279 20.7074 29.9846C20.8477 30.6902 21.1942 31.3384 21.7029 31.8471C22.2116 32.3558 22.8598 32.7023 23.5654 32.8426C24.271 32.983 25.0023 32.9109 25.667 32.6356C26.3317 32.3603 26.8998 31.8941 27.2995 31.2959C27.6992 30.6977 27.9125 29.9944 27.9125 29.275C27.9125 28.3103 27.5293 27.3851 26.8471 26.7029C26.1649 26.0207 25.2397 25.6375 24.275 25.6375Z" fill="#F8F3E3" stroke="#F8F3E3"/>
<path d="M1.94425 34.9985C1.42861 34.9985 0.934077 34.7937 0.569459 34.4291C0.20484 34.0644 0 33.5699 0 33.0543V27.2215C0.0030872 24.6442 1.02828 22.1734 2.8507 20.3509C4.67313 18.5285 7.14397 17.5033 9.72127 17.5002H17.4983C18.333 17.4943 19.1646 17.6036 19.9694 17.8249C20.466 17.9647 20.8867 18.2959 21.139 18.7459C21.3913 19.1958 21.4546 19.7276 21.3148 20.2241C21.1751 20.7207 20.8438 21.1414 20.3939 21.3937C19.944 21.646 19.4122 21.7093 18.9156 21.5696C18.454 21.4433 17.9769 21.3825 17.4983 21.3887H9.72127C8.17432 21.3887 6.69074 22.0033 5.59688 23.0971C4.50303 24.191 3.88851 25.6746 3.88851 27.2215V33.0543C3.88851 33.5699 3.68367 34.0644 3.31905 34.4291C2.95443 34.7937 2.4599 34.9985 1.94425 34.9985Z" fill="#F8F3E3"/>
</svg>
