<svg width="35" height="36" viewBox="0 0 35 36" fill="none" xmlns="http://www.w3.org/2000/svg">
<path d="M21.3841 16.1029C22.9223 16.1029 24.4259 15.6467 25.7048 14.7922C26.9837 13.9376 27.9805 12.723 28.5691 11.302C29.1578 9.88092 29.3118 8.31722 29.0117 6.80863C28.7116 5.30003 27.9709 3.9143 26.8833 2.82667C25.7957 1.73903 24.4099 0.998343 22.9013 0.698265C21.3927 0.398187 19.829 0.552198 18.408 1.14082C16.9869 1.72945 15.7723 2.72624 14.9178 4.00517C14.0632 5.28409 13.6071 6.7877 13.6071 8.32585C13.6071 10.3884 14.4265 12.3666 15.8849 13.825C17.3434 15.2835 19.3215 16.1029 21.3841 16.1029ZM21.3841 4.43734C22.1532 4.43734 22.905 4.6654 23.5445 5.09267C24.1839 5.51995 24.6823 6.12725 24.9766 6.83778C25.2709 7.54831 25.3479 8.33016 25.1979 9.08446C25.0479 9.83875 24.6775 10.5316 24.1337 11.0754C23.5899 11.6193 22.897 11.9896 22.1427 12.1396C21.3884 12.2897 20.6066 12.2127 19.896 11.9184C19.1855 11.624 18.5782 11.1256 18.1509 10.4862C17.7237 9.84672 17.4956 9.09492 17.4956 8.32585C17.4956 7.29455 17.9053 6.30549 18.6345 5.57626C19.3638 4.84702 20.3528 4.43734 21.3841 4.43734Z" fill="#F8F3E3"/>
<path d="M33.0557 35.5473C33.5714 35.5473 34.0659 35.3425 34.4305 34.9779C34.7952 34.6133 35 34.1187 35 33.6031V27.7703C34.9969 25.193 33.9717 22.7222 32.1493 20.8998C30.3269 19.0773 27.856 18.0521 25.2787 18.0491H17.5017C16.667 18.0432 15.8354 18.1524 15.0306 18.3737C14.534 18.5135 14.1133 18.8448 13.861 19.2947C13.6087 19.7446 13.5454 20.2764 13.6852 20.773C13.8249 21.2695 14.1562 21.6902 14.6061 21.9426C15.056 22.1949 15.5878 22.2581 16.0844 22.1184C16.546 21.9922 17.0231 21.9313 17.5017 21.9376H25.2787C26.8257 21.9376 28.3093 22.5521 29.4031 23.6459C30.497 24.7398 31.1115 26.2234 31.1115 27.7703V33.6031C31.1115 34.1187 31.3163 34.6133 31.681 34.9779C32.0456 35.3425 32.5401 35.5473 33.0557 35.5473Z" fill="#F8F3E3"/>
<path d="M7.7776 35.5458C8.29321 35.5457 8.78766 35.3407 9.15219 34.9761L14.9849 29.1433C15.3494 28.7787 15.5542 28.2843 15.5542 27.7688C15.5542 27.2532 15.3494 26.7588 14.9849 26.3942L9.15219 20.5614C8.7855 20.2072 8.29438 20.0113 7.7846 20.0157C7.27482 20.0201 6.78718 20.2246 6.4267 20.5851C6.06622 20.9456 5.86174 21.4332 5.85731 21.943C5.85288 22.4528 6.04885 22.9439 6.40301 23.3106L10.8612 27.7688L6.40301 32.2269C6.13119 32.4988 5.94608 32.8452 5.8711 33.2223C5.79611 33.5994 5.83462 33.9903 5.98174 34.3455C6.12886 34.7007 6.378 35.0043 6.69765 35.218C7.01731 35.4316 7.39313 35.5457 7.7776 35.5458Z" fill="#F8F3E3"/>
<path d="M1.94443 29.7117H13.6099C14.1256 29.7117 14.6201 29.5069 14.9847 29.1423C15.3494 28.7777 15.5542 28.2831 15.5542 27.7675C15.5542 27.2518 15.3494 26.7573 14.9847 26.3927C14.6201 26.0281 14.1256 25.8232 13.6099 25.8232H1.94443C1.42878 25.8232 0.934247 26.0281 0.569629 26.3927C0.20501 26.7573 0.000171661 27.2518 0.000171661 27.7675C0.000171661 28.2831 0.20501 28.7777 0.569629 29.1423C0.934247 29.5069 1.42878 29.7117 1.94443 29.7117Z" fill="#F8F3E3"/>
</svg>
