<svg width="17" height="17" viewBox="0 0 17 17" fill="none" xmlns="http://www.w3.org/2000/svg">
<mask id="mask0_904_2125" style="mask-type:luminance" maskUnits="userSpaceOnUse" x="0" y="0" width="17" height="17">
<path d="M0.75 0.6875H16.901V16.8385H0.75V0.6875Z" fill="white"/>
</mask>
<g mask="url(#mask0_904_2125)">
<path d="M16.8705 13.2865C16.8132 13.7188 16.558 14.0938 16.2351 14.3802C15.907 14.6407 15.5424 14.8646 15.1361 14.9896C14.7559 15.1302 14.3445 15.1719 13.9486 15.2188C13.6986 15.2344 13.4486 15.2604 13.2091 15.2084C12.8393 15.7344 12.2507 16.0573 11.657 16.2709C11.3653 16.3594 11.0841 16.4688 10.7924 16.5521C10.3653 16.724 9.89655 16.7448 9.43822 16.7448C9.15697 16.7396 8.8601 16.6823 8.62572 16.5313C8.4851 16.6667 8.26635 16.6927 8.07885 16.75C7.78718 16.8386 7.48509 16.7969 7.19864 16.7344C6.79759 16.6667 6.40176 16.5677 6.00593 16.4844C5.51635 16.4063 5.01635 16.2969 4.57364 16.0677C4.22989 15.875 3.9903 15.5521 3.79239 15.2188C3.51635 14.75 3.51635 14.1875 3.58405 13.6719C3.69864 12.6875 4.01114 11.7344 4.43301 10.8438C3.9903 10.724 3.57885 10.5052 3.2403 10.2032C3.20905 10.1667 3.16739 10.125 3.1153 10.0886C2.98509 9.95836 2.87051 9.81774 2.77155 9.66669C2.72989 9.59899 2.69864 9.52607 2.66218 9.45315C2.46947 9.63024 2.28197 9.8594 2.19343 10.1615C2.16739 10.2344 2.09968 10.2813 2.02676 10.2813C2.00593 10.2813 1.9903 10.2761 1.97468 10.2761C1.88093 10.25 1.82885 10.1511 1.8601 10.0625C1.9903 9.63544 2.26635 9.31774 2.54239 9.09899C2.48509 8.89586 2.44864 8.68232 2.4226 8.47919C1.99551 8.58857 1.44343 8.82294 1.09447 9.31253C1.05801 9.36461 1.00593 9.38544 0.948637 9.38544C0.917386 9.38544 0.880928 9.37503 0.849679 9.35419C0.771553 9.30211 0.75072 9.19794 0.808012 9.11461C1.23509 8.51044 1.90176 8.24482 2.39655 8.12503C2.38614 7.95315 2.38614 7.7969 2.38614 7.66149C1.97989 7.6719 1.4903 7.76044 1.08405 8.07294C1.04759 8.09378 1.01114 8.1094 0.974679 8.1094C0.922595 8.1094 0.870513 8.08857 0.839262 8.04169C0.776762 7.96878 0.797595 7.8594 0.870512 7.80211C1.36009 7.43232 1.93301 7.32295 2.40697 7.31774C2.41218 7.2969 2.41218 7.28649 2.41218 7.28649C2.4903 6.84378 2.60489 6.40107 2.76635 5.97919C2.67259 5.76565 2.66739 5.52607 2.64655 5.2969C2.62051 4.96878 2.59447 4.64586 2.56843 4.31774C2.54239 3.69274 2.43301 3.05211 2.6101 2.44274C2.71947 2.02607 3.10489 1.71878 3.53718 1.67711C4.15176 1.61461 4.75072 1.84378 5.3028 2.09378C5.57885 2.22399 5.83405 2.41149 6.06843 2.60419C6.09968 2.64586 6.14135 2.6094 6.1726 2.59899C6.78197 2.28649 8.68822 1.4844 9.01635 1.47399C9.14655 1.46878 9.27155 1.56253 9.27155 1.69274C9.3028 1.90628 9.12051 2.06774 8.99551 2.21878C9.1726 2.26044 9.3653 2.2969 9.5528 2.27086C10.3445 1.77086 11.1101 1.22919 11.9799 0.859402C12.2663 0.765652 12.5736 0.692735 12.8757 0.755235C13.1934 0.828152 13.3393 1.15107 13.4382 1.42711C13.5841 1.97919 13.683 2.54169 13.6934 3.11461C13.7455 3.69273 13.6882 4.27607 13.7299 4.85419C13.7299 5.1719 13.8549 5.46878 13.9018 5.78128C13.9486 6.0469 14.058 6.30211 14.0945 6.57294C14.1101 6.65107 14.1413 6.8594 14.1778 7.13024C14.6205 7.1094 15.1413 7.1719 15.6257 7.45836C15.7091 7.51044 15.7299 7.61461 15.683 7.69794C15.6466 7.75003 15.5893 7.77607 15.532 7.77607C15.5007 7.77607 15.4695 7.77086 15.4434 7.75003C15.0424 7.51044 14.5945 7.45836 14.2143 7.47399C14.2299 7.63024 14.2403 7.7969 14.2507 7.95836C14.7403 8.03649 15.3705 8.23961 15.8288 8.76044C15.8913 8.83336 15.8861 8.93753 15.8132 9.00003C15.7768 9.03128 15.7351 9.0469 15.6986 9.0469C15.6466 9.0469 15.5997 9.02607 15.5684 8.9844C15.1986 8.56774 14.683 8.39065 14.2611 8.31253C14.2611 8.56774 14.2403 8.80732 14.1986 8.98961C14.4695 9.17711 14.7299 9.44274 14.8913 9.80732C14.9278 9.89586 14.8861 9.99482 14.7976 10.0365C14.7768 10.0469 14.7507 10.0469 14.7299 10.0469C14.6674 10.0469 14.5997 10.0104 14.5736 9.94274C14.4538 9.66669 14.2559 9.45836 14.0476 9.30732C13.9538 9.43232 13.8549 9.55211 13.7455 9.66669C13.3288 10.0469 12.8132 10.3073 12.2976 10.5261C12.3653 10.5886 12.4122 10.6719 12.4486 10.7552C12.7716 11.4584 12.9851 12.2084 13.1882 12.9532C13.2403 13.1615 13.3184 13.3646 13.3393 13.5782C13.5684 13.4584 13.8288 13.375 14.0632 13.2604C13.9278 13.0469 13.9278 12.7761 13.9799 12.5365C14.0841 12.0886 14.3913 11.7032 14.7872 11.474C15.1361 11.2969 15.5476 11.3021 15.9122 11.4271C16.5111 11.599 16.8809 12.2292 16.8809 12.8282C16.8809 12.974 16.9018 13.1354 16.8705 13.2865Z" fill="#180303"/>
</g>
<mask id="mask1_904_2125" style="mask-type:luminance" maskUnits="userSpaceOnUse" x="2" y="0" width="13" height="6">
<path d="M2.33398 0.6875H14.334V6H2.33398V0.6875Z" fill="white"/>
</mask>
<g mask="url(#mask1_904_2125)">
<path d="M11.4904 2.42203C11.3758 2.55224 11.2508 2.66683 11.1467 2.81266C12.0737 3.14599 12.8967 3.80224 13.3654 4.67203C13.3394 4.55745 13.3915 4.44287 13.3915 4.33349C13.4435 4.06266 13.4019 3.79183 13.4123 3.52099C13.3758 2.9012 13.3394 2.2762 13.1987 1.67203C12.5842 1.50016 11.7821 2.1512 11.4904 2.42203ZM2.93312 3.32308C2.99562 4.05224 3.03208 4.7762 3.08937 5.50016C3.22479 5.19808 3.43833 4.91683 3.65187 4.6512C3.95395 4.30224 4.24562 3.93766 4.58937 3.62516C4.09458 3.20328 3.56854 2.79703 2.95916 2.54703C2.9175 2.80224 2.9227 3.06787 2.93312 3.32308Z" fill="#E08989"/>
</g>
<mask id="mask2_904_2125" style="mask-type:luminance" maskUnits="userSpaceOnUse" x="2" y="0" width="15" height="17">
<path d="M2.33398 0.6875H16.9017V16.6667H2.33398V0.6875Z" fill="white"/>
</mask>
<g mask="url(#mask2_904_2125)">
<path d="M14.9648 14.6457C14.9648 14.1457 14.6576 13.6978 14.2669 13.3957C14.168 13.4946 14.0378 13.5311 13.9076 13.5623C14.0742 13.7863 14.2409 14.0207 14.3138 14.2915C14.3659 14.4478 14.3919 14.6248 14.3138 14.7811C14.543 14.7811 14.7513 14.6925 14.9648 14.6457ZM16.1003 11.9478C15.9284 11.7811 15.668 11.7915 15.444 11.7655C15.0013 11.7238 14.5794 11.9894 14.3451 12.3488C14.2148 12.5363 14.1523 12.7967 14.2513 13.0103C14.5221 12.9269 14.7878 12.7342 15.0898 12.8019C15.6315 12.9009 16.1055 13.328 16.2253 13.8696C16.3346 13.6092 16.4961 13.354 16.4961 13.0623C16.5273 12.6613 16.444 12.203 16.1003 11.9478ZM13.5273 8.25505C13.4284 8.26546 13.3451 8.19255 13.3398 8.104C13.3294 8.00505 13.3971 7.92692 13.4961 7.9165C13.5117 7.9113 13.6523 7.90088 13.8607 7.9113C13.8503 7.7863 13.8346 7.65088 13.819 7.51025C13.4961 7.56755 13.2773 7.65609 13.2721 7.6613C13.1836 7.69775 13.0846 7.65088 13.0482 7.56755C13.0117 7.479 13.0534 7.38005 13.1419 7.34359C13.1628 7.33317 13.4128 7.23421 13.7721 7.17171C13.7096 6.77588 13.6263 6.37484 13.5586 6.08317C13.5273 5.9165 13.4909 5.75505 13.444 5.58838V5.58317C13.3659 5.31234 13.2617 5.04671 13.1263 4.79671C12.8659 4.32796 12.5534 3.86963 12.1107 3.5415C11.7669 3.32275 11.418 3.08838 11.0169 3.01025C10.944 2.99984 10.8555 2.98421 10.8346 2.90088C10.7878 2.7915 10.9023 2.71338 10.9805 2.65088C11.5898 2.00505 12.069 1.70296 12.3294 1.56234C12.4648 1.49463 12.6107 1.45296 12.7617 1.43734C12.8763 1.42692 13.0169 1.4165 13.1367 1.42692C13.0898 1.28109 12.9596 1.17171 12.8034 1.14567C12.7721 1.14567 12.7357 1.13525 12.7044 1.13525C12.194 1.15088 11.7513 1.43734 11.3242 1.69775C10.9388 1.9165 10.5846 2.17171 10.2201 2.42171C10.293 2.45817 10.4023 2.50505 10.4909 2.56234C10.5742 2.61963 10.5221 2.74984 10.418 2.729C9.34505 2.51546 9.51693 2.61442 8.97005 2.5415C8.83464 2.5363 8.69401 2.54671 8.5638 2.49463C8.42318 2.43734 8.39193 2.2238 8.50651 2.13005C8.57943 2.0415 8.73047 2.03109 8.79297 1.93734C8.23568 2.04671 7.75651 2.36963 7.21484 2.52588C6.52214 2.79671 5.74609 2.96859 5.1888 3.49463C5.06901 3.46859 5.11068 3.29671 5.17839 3.23421C5.36068 3.06234 5.6211 2.96338 5.76172 2.76546C5.07943 2.43734 4.36068 2.15609 3.59505 2.09359C3.44401 2.08317 3.27734 2.06755 3.13151 2.13005C3.06901 2.20296 3.06901 2.31234 2.99609 2.38525C3.30859 2.43213 3.57943 2.58838 3.85026 2.729C4.12109 2.90088 4.40755 3.05192 4.63672 3.28109C4.7513 3.42171 4.97005 3.53109 4.93359 3.73942C4.88151 3.7863 4.82422 3.73942 4.76693 3.71338C4.46484 3.95817 4.24089 4.28109 3.99089 4.56755C3.60547 4.98421 3.29297 5.46338 3.08984 5.98421C2.92318 6.29671 2.81901 6.63005 2.78255 6.979C2.78255 6.979 2.7461 7.10921 2.72005 7.32275C3.07422 7.3488 3.32422 7.42171 3.34505 7.42692C3.4388 7.45296 3.4961 7.54671 3.46484 7.64046C3.4388 7.73421 3.33984 7.7863 3.24609 7.75505C3.24089 7.74984 3.01172 7.68734 2.68359 7.6665C2.67839 7.7915 2.67839 7.92692 2.68359 8.06755C2.89193 8.0363 3.03776 8.0363 3.05859 8.0363C3.15755 8.0363 3.23568 8.10921 3.23568 8.20296C3.23568 8.30192 3.15755 8.38005 3.0638 8.38005C3.05859 8.38005 2.92318 8.38005 2.72005 8.4165C2.7461 8.57275 2.78255 8.73942 2.83464 8.90088C3.07943 8.74984 3.27734 8.68213 3.29818 8.67171C3.38672 8.64046 3.48568 8.69254 3.52214 8.78109C3.55339 8.86963 3.5013 8.96338 3.41276 8.99984C3.41276 8.99984 3.20964 9.07275 2.97005 9.229C3.22005 9.74984 3.6888 10.2186 4.50651 10.453H4.51172C4.5586 10.4686 4.60026 10.479 4.65234 10.4946C4.99089 10.6144 5.33464 10.7238 5.68359 10.8175C5.81901 10.854 5.95964 10.8905 6.10547 10.8748C6.1888 10.8592 6.44401 10.8592 6.39714 10.9217C6.32422 11.078 6.13672 11.1092 5.98568 11.1092C5.5586 11.1405 5.15755 10.979 4.7513 10.8905C4.62109 11.2759 4.43359 11.6509 4.32943 12.0467C4.20964 12.3436 4.16797 12.6665 4.07422 12.9738C3.98568 13.3332 3.9388 13.703 3.9388 14.0728C3.92839 14.3905 3.94401 14.7238 4.10547 15.005C4.23047 15.328 4.44401 15.6248 4.74089 15.8123C5.15755 16.0311 5.61589 16.229 6.10026 16.1978C5.97526 16.1196 5.91276 15.979 5.83984 15.8592C5.64714 15.5728 5.54297 15.2446 5.41276 14.9217C5.41276 14.8488 5.45964 14.703 5.5638 14.7446C5.65234 14.7655 5.69922 14.854 5.73047 14.9321C5.90234 15.3228 6.10547 15.7186 6.40234 16.0363C6.57943 16.2238 6.80859 16.3175 7.05859 16.38C7.05859 16.38 7.89193 16.7134 8.15755 16.3123C8.18359 16.2707 8.19922 16.229 8.20443 16.1717C8.37109 15.6144 8.37109 15.0207 8.40755 14.4478C8.44401 14.328 8.64714 14.3175 8.65755 14.4634C8.71484 14.8905 8.67839 15.354 8.79297 15.7967C8.8763 16.0936 9.13672 16.3175 9.44922 16.3332H9.45443C9.45443 16.3332 9.54297 16.3488 9.76172 16.2967C10.069 16.3332 10.4023 16.2811 10.6523 16.0884C11.168 15.7655 11.3815 15.1457 11.4544 14.5728C11.4648 14.453 11.6523 14.4009 11.6888 14.5311C11.7044 14.9946 11.5846 15.4478 11.4284 15.88C11.4076 15.9478 11.3503 15.9946 11.3034 16.0519C11.4544 15.9686 11.6263 15.9425 11.7826 15.88C12.1159 15.7498 12.444 15.5675 12.6784 15.2967C12.9128 15.0832 12.9857 14.7603 12.9857 14.4582C12.9857 13.6873 12.7878 12.9269 12.5586 12.1978C12.4128 11.6769 12.2201 11.1665 12.0169 10.6613C11.6211 10.8071 11.2357 10.979 10.8294 11.104C10.569 11.1717 10.2669 11.2342 10.0221 11.078C9.94401 11.005 9.85026 10.8071 10.1576 10.828C10.2721 10.9165 10.4284 10.8905 10.5586 10.854C11.1888 10.6769 11.7773 10.38 12.3763 10.1196C12.6263 9.98421 12.8711 9.84359 13.1055 9.68213C13.2826 9.55192 13.418 9.37484 13.5794 9.2238C13.6055 9.17171 13.6315 9.11963 13.6628 9.06755C13.4284 8.95817 13.2461 8.9113 13.2409 8.9113C13.1471 8.89046 13.0898 8.79671 13.1107 8.70817C13.1367 8.61442 13.2253 8.55713 13.319 8.57796C13.3398 8.58317 13.5378 8.63004 13.7878 8.74463C13.793 8.73942 13.793 8.73421 13.7982 8.729C13.8451 8.61442 13.8659 8.45296 13.8659 8.25505C13.668 8.24463 13.5326 8.25505 13.5273 8.25505ZM6.46484 7.9165C6.38151 7.94255 6.32943 8.05192 6.23047 8.06755C6.00651 8.13525 5.81901 7.94255 5.75651 7.74984C5.66276 7.43734 5.6888 7.06755 5.88672 6.79671C5.89714 6.80192 5.91276 6.81234 5.92318 6.81234C5.91797 6.80192 5.91276 6.7863 5.91276 6.78109C6.10547 6.63004 6.42839 6.73942 6.49609 6.9738C6.59505 7.26546 6.62109 7.61442 6.45964 7.89046C6.45964 7.89567 6.46484 7.9113 6.46484 7.9165ZM9.81901 8.54671C9.79297 8.95817 9.41276 9.36963 8.97005 9.31234C8.76693 9.28109 8.62109 9.11963 8.5013 8.9738C8.49089 9.17171 8.2513 9.2863 8.07422 9.31234C7.76172 9.32796 7.49089 9.09359 7.37109 8.82275C7.33464 8.73421 7.29297 8.61963 7.36068 8.53109C7.46484 8.48421 7.57943 8.54671 7.64193 8.63525C7.76172 8.7863 7.91797 8.98942 8.14714 8.93734C8.3138 8.8488 8.32422 8.63525 8.35026 8.479C8.16276 8.2863 8.04297 7.98421 8.16276 7.729C8.28776 7.58317 8.53776 7.6613 8.6263 7.81234C8.73047 8.01546 8.72005 8.26546 8.63672 8.4738C8.72526 8.61442 8.80339 8.77067 8.94401 8.87484C9.04818 8.96338 9.22005 8.96338 9.31901 8.85921C9.44922 8.74984 9.49089 8.57275 9.60026 8.44775C9.66276 8.36442 9.83984 8.40609 9.81901 8.54671ZM10.9753 7.7238C10.8398 7.93213 10.4544 7.94775 10.3555 7.70296C10.194 7.42692 10.2461 7.08838 10.3451 6.80192C10.3815 6.68213 10.4544 6.56234 10.5794 6.50505C10.7826 6.43734 10.9909 6.58838 11.0482 6.77588C11.1471 7.07796 11.168 7.44775 10.9753 7.7238Z" fill="#F6E5CB"/>
</g>
<path d="M12.0254 10.6616C12.0254 10.6616 11.6452 11.8022 8.7181 12.0522C5.79622 12.3022 4.74414 10.8804 4.74414 10.8804C9.74414 12.0418 12.0254 10.6616 12.0254 10.6616Z" fill="#DDC7AB"/>
<mask id="mask3_904_2125" style="mask-type:luminance" maskUnits="userSpaceOnUse" x="2" y="2" width="15" height="15">
<path d="M2.33398 2H16.9017V16.6667H2.33398V2Z" fill="white"/>
</mask>
<g mask="url(#mask3_904_2125)">
<path d="M14.0013 14.1874C13.918 14.0051 13.8242 13.8072 13.6471 13.6926C13.5482 13.7343 13.444 13.7604 13.3503 13.8176C13.4076 14.1458 13.3919 14.4843 13.3086 14.8072C13.543 14.8229 13.7826 14.8229 14.0117 14.7916C14.0794 14.5937 14.1003 14.3749 14.0013 14.1874ZM15.7826 13.4635C15.6003 13.2551 15.3607 13.0729 15.0846 13.0156C14.8867 12.9947 14.6888 13.0729 14.543 13.1874C14.7617 13.4791 15.0326 13.7551 15.1367 14.1197C15.1732 14.2708 15.2409 14.427 15.2096 14.5885C15.4857 14.4791 15.7357 14.3229 15.9648 14.1406C16.0169 13.8958 15.944 13.6406 15.7826 13.4635ZM8.27734 5.49994C8.5013 4.03119 7.06901 2.97911 6.66797 2.7239C6.13672 2.90619 5.60026 3.10411 5.18359 3.49473C5.0638 3.46869 5.10547 3.29682 5.17318 3.23432C5.35547 3.06244 5.61589 2.96348 5.75651 2.76557C5.07422 2.43744 4.35547 2.15619 3.59505 2.09369C3.4388 2.08328 3.27214 2.06765 3.13151 2.13015C3.0638 2.20307 3.0638 2.31244 2.99609 2.38536C3.30338 2.43223 3.57943 2.58848 3.84505 2.72911C4.11589 2.90098 4.40755 3.05202 4.63151 3.28119C4.7513 3.42182 4.96484 3.53119 4.93359 3.73952C4.8763 3.7864 4.81901 3.73953 4.76693 3.71348C4.46484 3.95828 4.24089 4.28119 3.98568 4.56765C3.60026 4.98432 3.29297 5.46348 3.08464 5.98432C2.92318 6.29682 2.81901 6.63015 2.77734 6.97911C2.77734 6.97911 2.74609 7.10932 2.71484 7.32286C3.06901 7.3489 3.31901 7.42182 3.34505 7.42702C3.4388 7.45307 3.49089 7.54682 3.45964 7.64057C3.43359 7.73432 3.33464 7.7864 3.24609 7.75515C3.23568 7.74994 3.00651 7.68744 2.68359 7.66661C2.67318 7.79161 2.67318 7.92702 2.68359 8.06765C2.89193 8.0364 3.03255 8.0364 3.05339 8.0364H3.05859C3.15234 8.0364 3.23047 8.10932 3.23047 8.20307C3.23047 8.30202 3.15234 8.38015 3.05859 8.38015C3.05338 8.38015 2.92318 8.38015 2.72005 8.41661C2.74089 8.57286 2.77734 8.73432 2.82943 8.89577C2.82943 8.89577 2.82943 8.89578 2.83464 8.90098C3.07943 8.74994 3.27214 8.68223 3.29297 8.67702C3.38151 8.64578 3.48047 8.69265 3.51172 8.78119C3.54818 8.86973 3.49609 8.96869 3.40755 8.99994C3.40234 8.99994 3.30859 9.0364 3.17318 9.10932C3.60547 9.32807 4.12109 9.45307 4.73047 9.35932C6.6888 9.05202 8.01172 7.19265 8.27734 5.49994ZM6.46484 7.91661C6.38151 7.94265 6.32943 8.05202 6.23047 8.06765C6.00651 8.13536 5.81901 7.94265 5.75651 7.74994C5.66276 7.43744 5.6888 7.06765 5.88672 6.79682C5.89714 6.80202 5.91276 6.81244 5.92318 6.81244C5.91797 6.80202 5.91276 6.7864 5.91276 6.78119C6.10547 6.63015 6.42839 6.73953 6.49609 6.9739C6.59505 7.26557 6.62109 7.61453 6.45964 7.89057C6.45964 7.89577 6.46484 7.9114 6.46484 7.91661ZM4.09505 13.7968C4.14714 14.5364 4.22526 15.2916 4.74089 15.8072C4.44401 15.6145 4.23047 15.3229 4.10547 15.0051C3.94401 14.7187 3.93359 14.3854 3.9388 14.0676C3.9388 13.6979 3.98568 13.3281 4.07422 12.9687C4.16797 12.6614 4.20964 12.3437 4.32943 12.0416C4.36589 11.9062 4.41276 11.7708 4.46484 11.6354C4.47526 11.8385 4.53255 12.1354 4.7513 12.4583C5.13672 13.0312 4.04818 13.0676 4.09505 13.7968ZM8.36068 15.1614C8.33984 15.4999 8.29818 15.8385 8.20443 16.1666C8.19922 16.2187 8.18359 16.2708 8.15755 16.3072C7.89193 16.7083 7.05859 16.3749 7.05859 16.3749C6.8138 16.3124 6.57943 16.2187 6.40234 16.0312C6.17318 15.7864 6.00651 15.4999 5.85547 15.1979C5.85547 15.1979 6.50651 16.2551 7.32422 16.0051C7.99609 15.802 8.28255 15.3229 8.36068 15.1614ZM5.89714 15.9583C5.94922 16.0468 6.00651 16.1406 6.10026 16.1926C6.07943 16.1926 6.05859 16.1979 6.03255 16.1979C5.97005 16.1197 5.92318 16.0416 5.89714 15.9583ZM10.6523 16.0937C10.4023 16.2864 10.069 16.3333 9.76172 16.302C9.54297 16.3489 9.45964 16.3333 9.45964 16.3333H9.45443C9.14193 16.3176 8.8763 16.0989 8.79818 15.802C8.74089 15.5885 8.72005 15.3801 8.70964 15.1666C8.70964 15.1666 9.05339 16.0572 9.97005 15.8124C10.8867 15.5624 11.2773 15.302 11.2773 15.302C11.1471 15.6145 10.9544 15.9062 10.6523 16.0937ZM11.3451 16.0156C11.3398 16.0208 11.3398 16.0312 11.3346 16.0364C11.3294 16.0416 11.319 16.0416 11.3138 16.052C11.3242 16.0364 11.3346 16.026 11.3451 16.0156ZM12.9596 13.8697C12.9492 13.8333 12.8034 13.052 12.4857 12.5833C12.1628 12.1041 11.1367 12.6562 11.7201 12.0885C12.3086 11.5156 12.0273 10.6666 12.0273 10.6666C12.2305 11.1666 12.418 11.677 12.5638 12.2031C12.7357 12.7447 12.8919 13.302 12.9596 13.8697Z" fill="#DBA76D"/>
</g>
</svg>
