<svg width="16" height="13" viewBox="0 0 16 13" fill="none" xmlns="http://www.w3.org/2000/svg">
<mask id="mask0_904_2126" style="mask-type:luminance" maskUnits="userSpaceOnUse" x="0" y="0" width="16" height="13">
<path d="M0 0H15.4115V12.75H0V0Z" fill="white"/>
</mask>
<g mask="url(#mask0_904_2126)">
<path d="M15.2714 11.75L15.2194 12.7448H11.5839L11.6464 11.75H15.2714ZM14.4329 7.39583C14.4329 7.39583 14.5266 5.77604 13.1569 4.09375C13.4694 2.54167 13.0475 0.458333 12.6516 0.15625C11.8964 0.197917 10.3183 0.75 9.43811 2.13021C8.55269 1.81771 7.30269 1.73438 6.03707 2.04688C6.03707 2.04688 4.54227 0.484374 2.79227 0.15625C1.93811 0.770833 2.20894 3.78125 2.19852 4.15625C1.60477 5.20833 -0.634809 8.42188 3.04748 10.6771C2.5579 11.9323 2.36519 12.7292 2.36519 12.7292L11.4485 12.7448C11.4485 12.7448 11.6204 10.9844 11.7975 10.1094C11.9798 9.23958 12.1464 7.77604 12.5319 7.60417C12.9173 7.43229 13.2194 7.83854 13.2194 7.83854C13.2194 7.83854 13.6569 6.77604 13.9954 7.72396C13.9016 7.36458 14.4329 7.39583 14.4329 7.39583Z" fill="white"/>
<path d="M12.0365 8.74993C12.3177 7.32805 12.8958 7.46868 13.2188 7.83847C13.2708 7.40097 13.7344 7.26034 14.0052 7.6093C15.0521 6.58326 15.2188 9.62493 15.2188 9.62493V11.5989C15.2188 11.5989 14.9844 12.3541 13.3802 12.3541C11.9844 12.3541 11.5833 11.7395 11.5833 11.7395C11.5833 11.7395 11.75 10.1718 12.0365 8.74993ZM6.08333 2.06764C5.77083 1.60409 3.78125 -7.29412e-05 2.81771 0.156178C1.71875 1.41139 2.25 4.15618 2.25 4.15618C2.25 4.15618 1.34375 5.36451 1.23438 6.52597C1.27083 7.38534 3.61458 8.88534 6.29688 6.65618C8.84375 4.53118 6.79167 1.93743 6.79167 1.93743C6.79167 1.93743 6.44271 1.96347 6.08333 2.06764ZM12.4323 0.900969L11.5833 2.6093C11.5833 2.6093 12.3385 3.2343 12.5417 3.77076C12.7396 3.26034 12.7917 1.95305 12.4323 0.900969Z" fill="#EFB07D"/>
<path d="M15.2201 12.7448C15.2201 12.7448 15.2201 12.7448 13.6523 12.7448C14.8711 12.6354 15.0169 9.36458 15.0169 9.36458L15.2201 12.7448ZM3.72526 2.60938C3.72526 2.60938 3.05859 1.22396 2.94401 0.901042C2.66276 1.58333 2.61589 3.29687 2.83464 3.77083C3.27214 3.24479 3.72526 2.60938 3.72526 2.60938ZM11.4596 12.7448C11.6003 11.849 11.7982 10.6198 11.9596 9.63021C11.9544 9.63021 11.9544 9.63021 11.9544 9.63021L12.1159 7.84896C12.1055 7.86458 12.0951 7.88021 12.0794 7.90104C11.9544 8.07813 11.6784 8.58854 11.4544 9.79688C10.5326 10.0729 9.31901 10.2604 7.72526 10.2708C1.53776 10.2292 1.11589 7.52604 1.11589 7.52604C1.11589 7.52604 1.00651 7.89063 1.24089 8.48438C1.17318 8.42708 1.12109 8.38021 1.08984 8.35417C1.27214 9.71875 3.05859 10.7708 3.05859 10.7708L2.36589 12.7448C2.36589 12.7448 3.08984 12.7448 3.88151 12.7448C4.36589 11.1823 4.94401 11.224 4.94401 11.224C6.15755 11.4844 7.31901 11.5573 7.72526 11.5573C8.13151 11.5573 9.29297 11.4844 10.5065 11.224C10.5065 11.224 10.8034 11.2031 11.1471 11.7604C11.0221 12.5573 10.9805 12.7448 10.9805 12.7448H11.4596ZM9.40755 2.13021L10.1211 2.33854C10.1211 2.33854 10.3867 1.38021 11.5534 0.578125C10.7409 0.796874 9.86589 1.38021 9.40755 2.13021ZM3.83984 0.578125C5.00651 1.38021 5.27214 2.33854 5.27214 2.33854L5.98568 2.13021C5.52734 1.38021 4.65234 0.796874 3.83984 0.578125ZM8.19401 8.09375C8.19401 8.09375 7.61068 8.22396 7.11068 8.07812C7.18359 8.64583 8.02214 8.69792 8.19401 8.09375Z" fill="#EF5454" fill-opacity="0.3"/>
</g>
<mask id="mask1_904_2126" style="mask-type:luminance" maskUnits="userSpaceOnUse" x="0" y="1" width="14" height="12">
<path d="M0 1.2085H13.3333V12.7502H0V1.2085Z" fill="white"/>
</mask>
<g mask="url(#mask1_904_2126)">
<path d="M2.33857 1.81787C2.33857 1.81787 2.20836 3.60433 2.82295 4.4585C2.17191 4.92725 1.05732 6.45329 1.08857 7.69808C0.843781 6.89079 1.19795 5.51058 2.1667 4.2762C2.06774 3.54183 2.1667 2.53662 2.33857 1.81787ZM11.8229 11.0575C12.1719 8.48454 12.7657 7.70329 12.7657 7.70329C11.7865 7.43766 11.7344 9.91162 11.8229 11.0575ZM1.78649 9.36475C1.78649 9.36475 2.98441 10.4585 3.71878 10.5731C3.42191 10.9429 2.82295 12.745 2.82295 12.745H2.28649L2.98441 10.7241C2.98441 10.7241 1.81253 10.1512 1.78649 9.36475Z" fill="white"/>
</g>
<mask id="mask2_904_2126" style="mask-type:luminance" maskUnits="userSpaceOnUse" x="0" y="0" width="16" height="13">
<path d="M0 0H15.4115V12.75H0V0Z" fill="white"/>
</mask>
<g mask="url(#mask2_904_2126)">
<path d="M15.4122 12.7448C15.2455 12.7448 15.0319 12.7448 15.0319 12.7448C15.0267 12.1198 15.1361 8.89063 14.808 7.80208C14.6361 7.22917 14.0944 7.50521 14.0163 7.98438C13.9694 7.73958 13.9122 7.48438 13.6674 7.51042C13.3601 7.54167 13.2351 8.07812 13.2351 8.07812C13.2351 8.07812 12.9903 7.6875 12.7663 7.70312C12.4122 7.72396 12.1778 8.23958 12.0111 9.34375C11.9122 9.96354 11.6674 12.7448 11.6674 12.7448H11.3549C11.3549 12.7448 11.5267 10.8281 11.584 10.4115V10.401L11.6309 10.0781C11.7299 9.36458 11.8444 8.71875 11.9538 8.3125C12.2351 7.25 12.8809 7.13542 13.1726 7.64583C13.3236 7.09896 13.9694 7.01042 14.0372 7.48958C14.0632 7.39062 14.1622 7.27083 14.3028 7.21875C14.2455 6.39583 13.8861 5.40625 13.0163 4.22396C13.209 3.82292 13.407 1.95313 12.6101 0.3125C12.209 0.3125 10.8549 0.640626 9.54757 2.05208C9.77153 2.13021 9.97987 2.22396 10.1517 2.33854C10.0997 2.33854 8.90695 2 7.71424 2C6.52153 2 5.32882 2.33854 5.27153 2.33854C5.44862 2.22396 5.65695 2.13021 5.88091 2.05208C4.57362 0.640626 3.21945 0.3125 2.81841 0.3125C2.01632 1.95313 2.21945 3.82292 2.41216 4.22396C-0.738885 8.51562 2.78716 10.25 3.28716 10.6406C3.00591 11.2187 2.47987 12.7448 2.47987 12.7448H2.13091C2.13091 12.7448 2.46945 11.6823 2.88091 10.7344C-0.264926 8.89063 0.755907 5.875 2.04237 4.27604C1.65695 2.00521 2.45382 0.0520827 2.76632 0C4.8132 0.390625 5.86007 1.60937 6.13612 1.97396C6.50591 1.86979 7.11007 1.71875 7.71424 1.71875C8.31841 1.71875 8.92257 1.86979 9.29237 1.97396C9.5632 1.60937 10.6153 0.390625 12.6622 0C12.9694 0.0520827 13.7715 2.00521 13.3861 4.27604C13.9955 5.03646 14.5476 6.11458 14.6205 7.23438C14.7247 7.28125 14.8392 7.36979 14.9486 7.52604C15.1517 7.81771 15.183 8.19271 15.2819 8.95312C15.3705 9.65104 15.4122 12.3333 15.4122 12.7448ZM12.433 0.901042C12.433 0.901042 11.8444 1.72917 11.4122 2.60938C11.6986 2.79688 12.2976 3.41667 12.5424 3.77083C12.6569 3.56771 12.058 2.69792 11.7559 2.53125C12.0736 2.19792 12.433 0.901042 12.433 0.901042ZM2.94341 0.901042C2.94341 0.901042 3.53195 1.72917 3.96424 2.60938C3.67778 2.79688 3.07882 3.41667 2.83403 3.77083C2.71945 3.56771 3.31841 2.69792 3.62049 2.53125C3.30278 2.19792 2.94341 0.901042 2.94341 0.901042ZM4.58403 5.04688C3.92778 5.19792 3.48507 5.84896 3.34966 6.39062C3.32882 6.47396 3.37049 6.54167 3.46424 6.5625C3.61528 6.59896 3.88612 6.52604 3.92257 6.36458C3.97466 6.15625 4.0632 5.96875 4.1882 5.80729C4.28195 5.68229 4.45903 5.46875 4.63091 5.42708C4.76632 5.39063 4.89653 5.61458 4.96945 5.73438L4.98507 5.76042C5.10487 5.96354 5.20382 6.19792 5.27153 6.45833C5.29757 6.54688 5.38611 6.58333 5.49028 6.58333C5.53195 6.58333 5.57362 6.57813 5.61528 6.56771C5.78195 6.52083 5.8757 6.41667 5.84445 6.30729C5.58403 5.34896 5.14653 4.91146 4.58403 5.04688ZM12.0267 6.30729C11.7663 5.34896 11.3288 4.91146 10.7663 5.04688C10.1101 5.19792 9.66737 5.84896 9.53195 6.39062C9.51632 6.44271 9.52674 6.48958 9.5632 6.52083C9.63612 6.58854 9.77674 6.57813 9.8757 6.55208C10.0007 6.51563 10.084 6.44792 10.1049 6.36458C10.1569 6.15625 10.2455 5.96875 10.3705 5.80729C10.459 5.68229 10.6413 5.46875 10.8132 5.42708C10.9486 5.39063 11.0788 5.61458 11.1465 5.73438L11.1674 5.76042C11.2872 5.96354 11.3809 6.19792 11.4538 6.45833C11.4694 6.51563 11.5163 6.55729 11.584 6.57292C11.6101 6.58333 11.6413 6.58333 11.6674 6.58333C11.7819 6.58333 11.9069 6.54167 11.9747 6.46875C12.0267 6.42188 12.0424 6.36458 12.0267 6.30729ZM8.64132 6.59375C8.56841 6.63021 8.53716 6.75 8.60487 6.875C8.64653 6.94792 8.59966 7.02604 8.57362 7.0625C8.5007 7.16667 8.36528 7.22917 8.26112 7.20833C8.07882 7.17708 7.97466 6.96875 7.90174 6.78646C7.86528 6.70312 7.79237 6.65625 7.70903 6.65625C7.63091 6.65625 7.55799 6.70312 7.52153 6.78646C7.46424 6.9375 7.34966 7.20833 7.16216 7.23958C7.08403 7.25521 6.98507 7.21875 6.90695 7.14062C6.78716 7.02604 6.82362 6.875 6.83924 6.83333C6.83924 6.82813 6.83924 6.82812 6.83924 6.82292L6.86528 6.75H6.85487C6.86007 6.67188 6.82882 6.60938 6.77153 6.58854C6.72466 6.56771 6.65695 6.58333 6.60487 6.68229C6.51112 6.85937 6.50591 7.07292 6.59445 7.25521C6.67257 7.41667 6.82362 7.53125 7.01112 7.56771C7.27674 7.61458 7.51632 7.5 7.70903 7.24479C7.8757 7.46354 8.07362 7.57812 8.29237 7.57812C8.33403 7.57812 8.37049 7.57292 8.41216 7.56771C8.59445 7.53125 8.7507 7.41667 8.82882 7.25521C8.91737 7.07292 8.91216 6.85937 8.81841 6.68229C8.76112 6.57812 8.6882 6.56771 8.64132 6.59375Z" fill="#2B0806"/>
</g>
<path d="M13.6035 9.17708C13.5045 9.06771 13.1191 8.77604 12.8743 9.25521C12.6243 9.73438 13.3014 10.2083 13.6035 10.2083C13.9004 10.2083 14.5774 9.73438 14.3326 9.25521C14.0826 8.77604 13.6972 9.06771 13.6035 9.17708ZM13.8379 8.375C13.8379 8.22917 13.7545 8.10938 13.6504 8.10938C13.5462 8.10938 13.4629 8.22917 13.4629 8.375C13.4629 8.52083 13.5462 8.63542 13.6504 8.63542C13.7545 8.63542 13.8379 8.52083 13.8379 8.375ZM14.416 8.27083C14.3118 8.25521 14.2076 8.34896 14.1816 8.48438C14.1608 8.61979 14.2233 8.74479 14.3274 8.76042C14.4316 8.77604 14.541 8.67708 14.5618 8.54167C14.5879 8.40625 14.5201 8.28646 14.416 8.27083ZM12.9056 8.77083C13.0149 8.74479 13.0618 8.60937 13.0097 8.47396C12.9629 8.33854 12.8379 8.25 12.7337 8.28125C12.6295 8.3125 12.5826 8.44792 12.6295 8.58333C12.6764 8.71875 12.8014 8.80208 12.9056 8.77083Z" fill="#EF5454"/>
</svg>
