<svg width="35" height="24" viewBox="0 0 35 24" fill="none" xmlns="http://www.w3.org/2000/svg">
<path fill-rule="evenodd" clip-rule="evenodd" d="M11.0741 14.446H23.9244C23.9531 14.446 23.9771 14.4323 23.9899 14.4104C26.0349 10.8423 27.2172 5.58301 23.9244 2.32618C20.7897 -0.774461 14.4818 -0.775858 11.3472 2.32478C8.05431 5.58168 8.96185 10.8423 11.0085 14.4104C11.0213 14.4323 11.0454 14.446 11.0741 14.446ZM17.5001 11.8262C15.6883 11.8262 14.3472 10.6887 14.3472 9.13434C14.3472 7.57989 15.6883 6.31881 17.5001 6.31881C19.3118 6.31881 20.5 7.57993 20.5 9.13434C20.5 10.6888 19.3118 11.8262 17.5001 11.8262ZM19.0578 19.4836L19.058 22.5528C19.058 22.7406 19.058 23.2439 18.8408 23.3262H17.5001H16.3408C15.8408 23.3262 15.9423 22.7406 15.9423 22.5528V19.4836C15.9423 19.4795 15.9423 19.4768 15.9407 19.4727C16.3408 17.8262 11.8408 15.3262 11.3472 14.9C12.8537 14.8903 21.8408 14.8262 23.8408 14.8262C22.8408 15.3262 18.6584 18.072 19.058 19.4727L19.0578 19.4836ZM30.0626 16.8861C29.8485 17.0698 29.8485 17.3699 30.0626 17.5536C30.2767 17.7373 30.6266 17.7373 30.8407 17.5536C36.3864 12.7956 36.3864 5.08246 30.8407 0.325824C30.6266 0.142142 30.2767 0.142142 30.0626 0.325824C29.8485 0.509507 29.8485 0.8097 30.0626 0.993369C35.1769 5.3826 35.1769 12.4982 30.0626 16.8861ZM26.9695 14.2323C30.3758 11.3098 30.3758 6.56971 26.9695 3.6473C26.7554 3.46362 26.7554 3.16342 26.9695 2.97976C27.1836 2.7947 27.7859 2.81632 28 3C31.8361 6.29118 31.8361 11.7088 28 15C27.7859 15.1837 27.1836 15.0836 26.9695 14.9C26.7538 14.7149 26.7538 14.4173 26.9695 14.2323ZM4.93738 16.8861C5.15147 17.0698 5.15147 17.3699 4.93738 17.5536C4.72329 17.7373 4.37339 17.7373 4.15932 17.5536C-1.38644 12.7956 -1.38644 5.08246 4.15932 0.325824C4.37341 0.142142 4.7233 0.142142 4.93738 0.325824C5.15147 0.509507 5.15147 0.8097 4.93738 0.993369C-0.176875 5.3826 -0.176875 12.4982 4.93738 16.8861ZM8.03051 14.2323C4.62424 11.3098 4.62424 6.56971 8.03051 3.6473C8.2446 3.46362 8.2446 3.16342 8.03051 2.97976C7.81642 2.79607 7.46653 2.79607 7.25245 2.97976C3.41639 6.27094 3.41639 11.6087 7.25245 14.9C7.46654 15.0836 7.81644 15.0836 8.03051 14.9C8.2462 14.7149 8.2462 14.4173 8.03051 14.2323Z" fill="black"/>
</svg>
