<svg width="35" height="30" viewBox="0 0 35 30" fill="none" xmlns="http://www.w3.org/2000/svg">
<path fill-rule="evenodd" clip-rule="evenodd" d="M11.0741 16.4515H23.9244C23.9531 16.4515 23.9771 16.4357 23.9899 16.4104C26.0349 12.2933 26.4535 7.50093 23.1607 3.74304C20.026 0.16537 14.9723 0.16537 11.8377 3.74304C8.54482 7.50101 8.96185 12.2933 11.0085 16.4104C11.0213 16.4357 11.0454 16.4515 11.0741 16.4515ZM17.5001 13.5713C15.6883 13.5713 14.2184 12.1162 14.2184 10.3226C14.2184 8.52903 15.6883 7.07394 17.5001 7.07394C19.3118 7.07394 20.7817 8.52908 20.7817 10.3226C20.7817 12.1162 19.3118 13.5713 17.5001 13.5713ZM19.0578 22.2641V29.6046C19.0578 29.8213 18.8773 30 18.6584 30H16.3417C16.1228 30 15.9423 29.8213 15.9423 29.6046V22.2641C15.9423 22.2594 15.9423 22.2562 15.9407 22.2515C15.8321 21.6457 13.5074 20.4057 11.7709 17.6522C11.7565 17.6285 11.7549 17.6032 11.7693 17.5779C11.782 17.5542 11.806 17.5399 11.8332 17.5399H23.1656C23.1927 17.5399 23.2167 17.5542 23.2295 17.5779C23.2423 17.6016 23.2423 17.6285 23.2279 17.6522C21.4912 20.4059 19.1666 21.6459 19.058 22.2515L19.0578 22.2641ZM30.0626 19.2669C29.8485 19.4789 29.8485 19.8253 30.0626 20.0372C30.2767 20.2491 30.6266 20.2491 30.8407 20.0372C36.3864 14.5471 36.3864 5.64739 30.8407 0.158956C30.6266 -0.0529854 30.2767 -0.0529854 30.0626 0.158956C29.8485 0.370898 29.8485 0.717275 30.0626 0.9292C35.1769 5.99371 35.1769 14.204 30.0626 19.2669ZM26.9695 16.2049C30.3758 12.8328 30.3758 7.36345 26.9695 3.99143C26.7554 3.77949 26.7554 3.43311 26.9695 3.22118C27.1836 3.00766 27.5335 3.00924 27.7475 3.22118C31.5836 7.01871 31.5836 13.1777 27.7475 16.9753C27.5335 17.1872 27.1836 17.1872 26.9695 16.9753C26.7538 16.7618 26.7538 16.4184 26.9695 16.2049ZM4.93738 19.2669C5.15147 19.4789 5.15147 19.8253 4.93738 20.0372C4.72329 20.2491 4.37339 20.2491 4.15932 20.0372C-1.38644 14.5471 -1.38644 5.64739 4.15932 0.158956C4.37341 -0.0529854 4.7233 -0.0529854 4.93738 0.158956C5.15147 0.370898 5.15147 0.717275 4.93738 0.9292C-0.176875 5.99371 -0.176875 14.204 4.93738 19.2669ZM8.03051 16.2049C4.62424 12.8328 4.62424 7.36345 8.03051 3.99143C8.2446 3.77949 8.2446 3.43311 8.03051 3.22118C7.81642 3.00924 7.46653 3.00924 7.25245 3.22118C3.41639 7.01871 3.41639 13.1777 7.25245 16.9753C7.46654 17.1872 7.81644 17.1872 8.03051 16.9753C8.2462 16.7618 8.2462 16.4184 8.03051 16.2049Z" fill="black"/>
</svg>
