<svg width="88" height="82" viewBox="0 0 88 82" fill="none" xmlns="http://www.w3.org/2000/svg">
<path d="M21.7188 30.0626C21.7656 30.1681 21.8164 30.2735 21.875 30.3751V75.8751C20.3438 79.1524 17.0547 81.2462 13.4375 81.2501H9.375C4.2031 81.2345 0.0156 77.047 0 71.8751V34.3751C0.015625 29.2032 4.2031 25.0157 9.375 25.0001H13.4375C16.9258 25.0118 20.1172 26.961 21.7188 30.0626ZM85.4688 34.9064C83.5898 32.5705 80.746 31.2228 77.7499 31.2502H60.9059C59.8043 31.2815 58.7536 30.7932 58.0621 29.9377C57.4996 29.2854 57.2809 28.4025 57.4684 27.5627L59.8434 16.2507C60.652 12.3679 59.6676 8.3249 57.1559 5.2507C54.4059 1.8913 50.2809 -0.0422977 45.9369 0.000702294C42.7299 -0.0344537 39.9955 2.321 39.5619 5.5007C38.8822 10.7585 36.8822 15.7547 33.7494 20.0317C32.1244 22.2075 30.2377 24.1684 28.1244 25.8755V78.5635L29.3744 79.4385C31.0658 80.626 33.0892 81.2588 35.1556 81.251H70.6556C75.1478 81.2901 79.0775 78.2354 80.1556 73.876L87.2806 42.626C87.89 39.9112 87.222 37.0674 85.4681 34.9072L85.4688 34.9064Z" fill="#F8F3E3"/>
</svg>
