<svg width="40" height="40" viewBox="0 0 40 40" fill="none" xmlns="http://www.w3.org/2000/svg">
<path fill-rule="evenodd" clip-rule="evenodd" d="M9.65892 37.3387C7.99359 41.1905 0 40.6881 0 35.6639V16.237C0 12.0502 7.66052 11.5478 9.49239 14.7298C12.9896 13.0551 16.9864 10.208 16.6533 5.85371C15.6541 -2.51995 22.815 -1.51511 25.1465 6.35613C26.1457 9.20317 25.6461 11.3803 24.8134 13.8924H35.9711C40.4675 14.0599 41.1337 19.419 38.3026 21.2612C39.9679 23.1034 39.3018 26.6204 36.8038 27.7927C38.3026 29.8024 37.3034 33.4868 35.1385 34.4916C36.1377 36.5013 34.972 39.6833 30.8086 39.8508C23.8142 40.1857 16.1537 40.1857 9.65892 37.3387ZM4.99599 33.3193C5.82866 33.3193 6.49479 33.9892 6.49479 34.8266C6.49479 35.6639 5.82866 36.3338 4.99599 36.3338C4.16333 36.3338 3.4972 35.6639 3.4972 34.8266C3.4972 33.9892 4.16333 33.3193 4.99599 33.3193ZM4.99599 34.3241C5.32906 34.3241 5.66213 34.4916 5.66213 34.8266C5.66213 35.1615 5.32906 35.4965 4.99599 35.4965C4.66293 35.4965 4.32986 35.1615 4.32986 34.8266C4.32986 34.4916 4.66293 34.3241 4.99599 34.3241ZM9.99199 35.6639C16.1537 38.511 23.8142 38.6784 30.6421 38.3435C34.9719 38.176 34.6389 34.3241 32.3074 34.3241C31.4748 34.3241 30.8086 34.3241 30.1425 34.3241C29.3098 34.3241 29.1433 33.3193 30.1425 33.3193C31.4748 33.3193 32.6405 33.3193 33.9728 33.3193C35.9711 33.1518 37.3034 28.1276 33.9728 28.1276C33.1401 28.1276 32.1409 28.1276 31.3082 28.1276C30.309 28.1276 30.309 26.7879 31.3082 26.7879C32.474 26.7879 33.6397 26.7879 34.6389 26.7879C38.1361 26.7879 38.9687 21.5962 35.305 21.5962H32.474C31.3082 21.5962 31.3082 20.4239 32.474 20.4239C33.6397 20.4239 34.6389 20.4239 35.9711 20.4239C39.3018 20.4239 39.3018 15.5672 35.9711 15.3997H22.6485C23.8142 12.0502 24.8134 10.0405 23.8142 6.69107C21.9824 0.829511 17.3194 -0.84522 18.1521 5.68623C18.6517 10.8779 14.3218 14.0599 9.99199 16.237V35.6639Z" fill="#F5F7FA"/>
</svg>
