<svg width="16" height="17" viewBox="0 0 16 17" fill="none" xmlns="http://www.w3.org/2000/svg">
<mask id="mask0_902_1778" style="mask-type:luminance" maskUnits="userSpaceOnUse" x="1" y="0" width="15" height="17">
<path d="M1.66602 0.0366211H15.9785V16.1877H1.66602V0.0366211Z" fill="white"/>
</mask>
<g mask="url(#mask0_902_1778)">
<path d="M1.83209 6.65636C1.82167 6.60948 1.73834 6.57303 1.77479 6.52615C1.80604 6.47928 1.87375 6.52094 1.92584 6.53657C2.16021 6.59386 2.39459 6.61469 2.64979 6.54699C2.60813 6.53136 2.58209 6.52094 2.55084 6.51574C2.24875 6.41157 2.03521 6.20324 1.85292 5.95324C1.83729 5.9324 1.82167 5.90636 1.83729 5.88032C1.85813 5.84386 1.89459 5.84386 1.93104 5.84907C2.04563 5.85948 2.155 5.85948 2.26438 5.82824C2.54563 5.75011 2.70188 5.54699 2.80604 5.29699C2.89459 5.07824 2.9675 4.84386 3.10813 4.64594C3.12896 4.61469 3.11854 4.59386 3.10292 4.56782C2.91021 4.1824 2.79042 3.77615 2.7175 3.34907C2.66021 3.01574 2.66021 2.68761 2.66021 2.34907C2.66542 1.85948 2.75917 1.38553 2.86854 0.911568C2.89459 0.796984 2.93625 0.687609 2.9675 0.578235C3.01438 0.390735 3.17583 0.328235 3.33209 0.364693C4.03521 0.520943 4.71229 0.75011 5.35292 1.06782C5.55084 1.16157 5.73834 1.26574 5.92063 1.38553C5.97271 1.42199 6.01438 1.42719 6.06646 1.39594C6.11334 1.3699 6.16542 1.34386 6.21229 1.33865C6.34771 1.31261 6.42063 1.23969 6.47271 1.1199C6.5925 0.849068 6.79563 0.651151 7.03 0.479277C7.12896 0.411569 7.23834 0.359485 7.31125 0.260527C7.34771 0.213652 7.39459 0.192817 7.45188 0.239693C7.4675 0.317817 7.52479 0.317818 7.58729 0.296985C7.7175 0.229277 7.84771 0.166777 7.97271 0.0938599C8.01438 0.0730278 8.05083 0.0365688 8.10292 0.0678182C8.14459 0.0990689 8.12896 0.151152 8.11854 0.192818C8.07167 0.427193 7.98313 0.645944 7.84771 0.84386C7.8425 0.854277 7.83729 0.869902 7.82688 0.890735C7.95188 0.859484 8.05604 0.828235 8.17063 0.807402C8.37896 0.760526 8.5925 0.739694 8.80604 0.75011C8.98834 0.755318 9.16021 0.734485 9.33209 0.677193C9.37375 0.666777 9.41021 0.656361 9.43104 0.692818C9.45709 0.729277 9.44146 0.760526 9.41021 0.791777C9.36334 0.828235 9.32167 0.869902 9.26438 0.921985C9.43625 0.958444 9.5925 0.989694 9.74354 1.04698C9.9675 1.13032 10.1863 1.22407 10.3894 1.34907C10.4415 1.38032 10.4831 1.38032 10.53 1.34907C11.181 0.942818 11.8946 0.682402 12.6342 0.479277C12.7435 0.448027 12.8477 0.421985 12.9571 0.395943C12.9883 0.338651 13.0404 0.380318 13.0821 0.359485C13.155 0.359485 13.2331 0.349068 13.3008 0.369902C13.4206 0.416776 13.4675 0.515735 13.504 0.62511C13.5613 0.671984 13.5769 0.739695 13.5925 0.802193C13.7175 1.25532 13.7904 1.71365 13.8217 2.1824C13.8685 2.84386 13.7852 3.48969 13.5665 4.1199C13.5248 4.2449 13.4779 4.3699 13.4206 4.48449C13.3842 4.55219 13.3842 4.60428 13.4258 4.66678C13.5508 4.84907 13.629 5.04699 13.7019 5.25532C13.7488 5.39594 13.8269 5.51574 13.931 5.62511C14.0508 5.75011 14.1915 5.81261 14.3685 5.8074C14.4206 5.80219 14.4727 5.80219 14.5248 5.8074C14.6394 5.82303 14.681 5.89074 14.6185 5.9949C14.5352 6.13032 14.4258 6.23969 14.3008 6.33865C14.1915 6.42719 14.0665 6.50011 13.931 6.54178C13.9519 6.54178 13.9779 6.54178 14.004 6.54699C14.0925 6.57303 14.1758 6.57303 14.2592 6.54699C14.3581 6.53657 14.4571 6.51053 14.5508 6.48969C14.6081 6.47928 14.6654 6.46886 14.7019 6.52615C14.7331 6.57824 14.6915 6.6199 14.6602 6.66157C14.405 6.95324 14.1133 7.20324 13.7227 7.30219C13.8321 7.34386 13.9467 7.35428 14.0665 7.35428C14.1185 7.35428 14.1915 7.33865 14.2175 7.40115C14.2488 7.47407 14.181 7.52094 14.1342 7.5574C13.9467 7.70844 13.7592 7.85428 13.5404 7.95324C13.5092 7.96886 13.4831 7.97407 13.4571 8.01053C13.504 8.05219 13.5613 8.07824 13.6133 8.1199C13.6498 8.15115 13.6863 8.1824 13.6758 8.23969C13.6654 8.29178 13.6238 8.31261 13.5769 8.32824C13.5404 8.33865 13.5092 8.34386 13.4779 8.34907C13.28 8.38553 13.1029 8.45844 12.9363 8.56782C12.5352 8.84386 12.1133 9.08865 11.655 9.27094C11.5456 9.31782 11.5456 9.31782 11.5769 9.43761C11.6342 9.65115 11.681 9.8699 11.6967 10.0887C11.7071 10.198 11.7488 10.2814 11.8321 10.3647C12.1133 10.6459 12.3113 10.9845 12.4831 11.3387C12.5092 11.422 12.5508 11.422 12.6185 11.3751C13.0144 11.0887 13.4571 10.9428 13.9467 10.9272C13.9988 10.9272 14.0508 10.9116 14.1029 10.9116C14.1446 10.9168 14.1863 10.9272 14.2019 10.9689C14.2175 11.0157 14.1915 11.047 14.1602 11.073C14.1446 11.0834 14.129 11.0939 14.1185 11.1043C14.0873 11.1251 14.056 11.1355 14.03 11.1459C14.0717 11.1251 14.1185 11.1303 14.1654 11.1355C14.4258 11.1668 14.681 11.2397 14.9363 11.2918C14.9675 11.297 14.9935 11.3074 15.004 11.3334C15.0404 11.3543 15.0769 11.3491 15.1133 11.3491C15.1967 11.3439 15.28 11.323 15.3581 11.3543C15.431 11.3907 15.431 11.4532 15.4206 11.5157C15.3633 11.8751 15.3008 12.2293 15.1498 12.5626C15.1446 12.5678 15.1498 12.573 15.1498 12.5834C15.2488 12.5418 15.3425 12.4845 15.4258 12.422C15.4519 12.4064 15.4779 12.3959 15.504 12.4168C15.5248 12.4324 15.5144 12.4584 15.5092 12.4793C15.3269 13.0991 15.0821 13.6824 14.5665 14.1043C14.2227 14.3855 13.8269 14.5262 13.3998 14.5834C13.3269 14.5939 13.254 14.5991 13.181 14.6043C13.0977 14.672 12.9935 14.6355 12.8998 14.6407C12.8269 14.6407 12.78 14.6616 12.78 14.7397C12.754 14.8699 12.7175 15.0001 12.6342 15.1147C12.4623 15.3543 12.2383 15.5001 11.9206 15.4584C11.879 15.4532 11.8425 15.4637 11.8008 15.4689C11.754 15.4741 11.7019 15.4949 11.6602 15.4793C11.504 15.4064 11.3373 15.4532 11.181 15.448C11.1446 15.4428 11.1133 15.4428 11.0873 15.4793C10.9935 15.6147 10.8581 15.6928 10.7123 15.7709C10.6133 15.8282 10.504 15.823 10.3946 15.8178C10.3269 15.8126 10.254 15.8178 10.1863 15.8439C10.0665 15.8855 9.94667 15.8907 9.82688 15.8543C9.74354 15.8178 9.66542 15.8126 9.57688 15.8282C9.36854 15.8543 9.17583 15.7918 9.01959 15.6512C8.95709 15.5991 8.89459 15.5782 8.81646 15.5782C8.42063 15.5782 8.02479 15.5782 7.63417 15.5782C7.57688 15.5782 7.51959 15.5782 7.47271 15.6251C7.29042 15.8022 7.06646 15.8491 6.82167 15.8282C6.76959 15.823 6.7175 15.8282 6.67063 15.8491C6.53521 15.8907 6.405 15.8907 6.27479 15.8387C6.21229 15.8178 6.14459 15.8178 6.08209 15.8178C5.9675 15.823 5.85292 15.8282 5.74354 15.7762C5.60813 15.7032 5.47271 15.6251 5.38417 15.4949C5.36855 15.4689 5.3425 15.448 5.31125 15.4584C5.22792 15.4741 5.155 15.4532 5.07688 15.4272C5.04563 15.4168 5.00917 15.4168 4.97792 15.4324C4.9675 15.4376 4.95188 15.4428 4.94146 15.448C4.82688 15.4845 4.31646 15.4741 4.20188 15.4272C3.93104 15.3178 3.77479 15.1147 3.7175 14.8334C3.69667 14.7397 3.655 14.6512 3.72792 14.5626C3.77479 14.448 3.72792 14.3387 3.70709 14.2241C3.63417 13.823 3.62896 13.422 3.63938 13.0157C3.66542 12.3178 3.8425 11.6616 4.17584 11.047C4.16021 11.0001 4.19146 10.9637 4.21229 10.922C4.33729 10.7241 4.47271 10.5314 4.63938 10.3699C4.69667 10.3126 4.72792 10.2449 4.73313 10.172C4.76438 9.91678 4.80084 9.66157 4.87896 9.41157C4.89979 9.33344 4.87375 9.29698 4.80084 9.26574C4.35292 9.08865 3.93625 8.85949 3.54563 8.58865C3.35292 8.45844 3.13938 8.39594 2.91542 8.34386C2.8425 8.32824 2.75396 8.32824 2.73834 8.23449C2.72792 8.14074 2.81125 8.10949 2.86854 8.06782C2.89459 8.04699 2.92583 8.04178 2.94667 8.00532C2.82688 7.92719 2.69667 7.86469 2.57167 7.78657C2.45188 7.70844 2.33729 7.61469 2.22271 7.52094C2.19146 7.4949 2.16021 7.46365 2.17584 7.41678C2.18625 7.36469 2.22271 7.34907 2.27479 7.34907C2.36334 7.35948 2.45188 7.3699 2.54563 7.34386C2.56125 7.33865 2.58209 7.33865 2.60292 7.33344C2.67063 7.31782 2.73834 7.28657 2.79042 7.29178C2.82688 7.28657 2.81125 7.27094 2.81646 7.28657C2.81646 7.28657 2.81125 7.28657 2.80604 7.28657C2.72792 7.3074 2.655 7.28136 2.58729 7.26053C2.29042 7.15636 2.06646 6.95844 1.85813 6.73969C1.83729 6.71365 1.82167 6.69282 1.83209 6.65636Z" fill="#49131F"/>
</g>
<mask id="mask1_902_1778" style="mask-type:luminance" maskUnits="userSpaceOnUse" x="0" y="14" width="16" height="3">
<path d="M0.677734 14H15.9798V16.1875H0.677734V14Z" fill="white"/>
</mask>
<g mask="url(#mask1_902_1778)">
<path d="M9.83482 15.8175C9.97545 15.8488 10.1109 15.8436 10.2463 15.7811C10.2671 15.7707 10.2932 15.7655 10.3244 15.7707C10.4598 15.7967 10.59 15.7863 10.715 15.7394C11.0223 15.6509 11.3452 15.6457 11.6577 15.5988C12.1317 15.5259 12.6057 15.4582 13.0588 15.3019C13.1473 15.2707 13.2411 15.2394 13.3192 15.1821C13.4025 15.1144 13.4025 15.0571 13.3088 14.9998C13.2359 14.953 13.1473 14.9217 13.064 14.9009C12.9859 14.88 12.9025 14.8644 12.8244 14.8384C12.7827 14.8228 12.7307 14.8071 12.7515 14.7394C12.7567 14.5988 12.7567 14.5988 12.9025 14.5988C12.9963 14.604 13.09 14.604 13.1838 14.604C13.3088 14.6144 13.4286 14.63 13.5484 14.6405C14.2254 14.703 14.8973 14.7863 15.5484 14.9998C15.6473 15.0311 15.7411 15.0623 15.8296 15.1248C15.9754 15.229 15.9754 15.3384 15.8244 15.4425C15.6057 15.5832 15.3504 15.6353 15.1004 15.6925C14.6317 15.8019 14.1577 15.8644 13.6786 15.9165C13.3557 15.953 13.0379 15.9842 12.7098 16.005C12.2723 16.0363 11.8296 16.0675 11.3869 16.0884C11.0848 16.0988 10.7827 16.1092 10.4859 16.1248C9.34003 16.1873 8.18899 16.1613 7.04316 16.1613C6.63691 16.1613 6.22545 16.1353 5.81399 16.1196C5.41816 16.1092 5.02753 16.0884 4.6317 16.0623C4.20982 16.0311 3.78795 15.9998 3.36607 15.9582C2.7567 15.9009 2.14732 15.8332 1.54836 15.6925C1.30357 15.6405 1.05878 15.5832 0.84524 15.4425C0.683782 15.3332 0.688989 15.1978 0.866073 15.0988C1.07961 14.9842 1.30878 14.9217 1.54316 14.8644C2.00149 14.7655 2.45982 14.703 2.92336 14.6457C3.1942 14.6092 3.45982 14.5884 3.72545 14.5571C3.73586 14.6561 3.74107 14.7498 3.75149 14.8436C3.71503 14.9009 3.65253 14.9061 3.60045 14.9217C3.48066 14.9582 3.35566 14.9842 3.24628 15.0519C3.12649 15.1196 3.12649 15.1821 3.24628 15.2498C3.46503 15.3748 3.70982 15.4269 3.95461 15.4738C4.47024 15.5832 4.99107 15.6509 5.51711 15.6821C5.60045 15.6821 5.66816 15.729 5.74628 15.7394C5.78274 15.7498 5.8192 15.7707 5.85045 15.7707C6.12649 15.7446 6.39211 15.8748 6.66295 15.8175C6.84524 15.8123 7.02232 15.828 7.19941 15.8019C7.28274 15.7915 7.37128 15.8175 7.45982 15.8175C7.95462 15.8175 8.44941 15.8228 8.93899 15.8123C9.13691 15.8123 9.33482 15.8123 9.53274 15.8175C9.6317 15.8228 9.73586 15.7863 9.83482 15.8175Z" fill="#68A1C0"/>
</g>
<mask id="mask2_902_1778" style="mask-type:luminance" maskUnits="userSpaceOnUse" x="15" y="10" width="1" height="3">
<path d="M15 10H15.9792V12.6667H15V10Z" fill="white"/>
</mask>
<g mask="url(#mask2_902_1778)">
<path d="M15.36 11.354C15.2767 11.3488 15.1986 11.3488 15.1152 11.3488C15.1882 11.3123 15.2663 11.3383 15.3444 11.2967C15.3757 11.2758 15.3861 11.3227 15.36 11.354Z" fill="#8AC7DF"/>
</g>
<mask id="mask3_902_1778" style="mask-type:luminance" maskUnits="userSpaceOnUse" x="1" y="0" width="14" height="8">
<path d="M1.66602 0.0366211H14.9993V7.3335H1.66602V0.0366211Z" fill="white"/>
</mask>
<g mask="url(#mask3_902_1778)">
<path d="M2.87997 1.69808C2.91643 1.32308 3.01538 0.958496 3.12476 0.604329C3.15601 0.500163 3.22893 0.489747 3.31747 0.510579C3.85913 0.635579 4.38518 0.797037 4.89559 1.01579C5.24976 1.17204 5.59872 1.34391 5.92163 1.56266C5.9633 1.59391 5.99976 1.59391 6.04143 1.56787C6.14038 1.521 6.23934 1.47933 6.35913 1.44808C6.35913 1.62516 6.34351 1.80225 6.40601 1.99495C6.42684 1.32829 6.72372 0.843912 7.29143 0.500163C7.27059 0.583496 7.25497 0.656414 7.23413 0.755371C7.44247 0.531414 7.68726 0.411621 7.94768 0.286621C7.81747 0.718912 7.49976 1.03141 7.29663 1.40641C7.80705 0.901203 8.4633 0.885578 9.13518 0.890788C9.06747 0.937662 9.01018 0.974122 8.93726 1.0262C9.31226 1.05225 9.65601 1.14079 9.97893 1.30745C9.93205 1.36475 9.87476 1.3387 9.81747 1.32829C9.49976 1.2762 9.17684 1.23975 8.84872 1.25016C8.70288 1.25537 8.56226 1.271 8.42163 1.28662C8.39038 1.29183 8.35913 1.29704 8.32788 1.29183C8.30705 1.29183 8.28101 1.28662 8.2758 1.271C8.26018 1.24495 8.28622 1.22412 8.30184 1.2085C8.36434 1.16162 8.44247 1.12516 8.51538 1.0887C8.08309 1.13558 7.71851 1.3335 7.45809 1.49495C7.55705 1.43766 7.78101 1.4012 7.99976 1.35433C8.54663 1.23975 9.09351 1.30225 9.63518 1.37516C9.80184 1.396 9.97372 1.42725 10.1456 1.43766C10.2081 1.43766 10.2654 1.4637 10.3227 1.47933C10.4373 1.56787 10.5362 1.521 10.6508 1.45329C11.4164 1.00016 12.2498 0.713704 13.1091 0.505371C13.255 0.474122 13.3018 0.50537 13.3487 0.640788C13.5831 1.35954 13.6768 2.10433 13.63 2.85954C13.5987 3.41162 13.4789 3.94287 13.2185 4.44808C13.0675 4.28662 12.9008 4.146 12.7289 4.01579C12.6821 3.98454 12.7185 3.9585 12.7341 3.93245C12.906 3.646 13.0258 3.34391 13.0883 3.01579C13.1768 2.54183 13.1977 2.06266 13.1039 1.5887C13.0518 1.34391 12.9112 1.271 12.6821 1.37516C12.3071 1.53662 11.9893 1.78662 11.6977 2.07308C11.5154 2.25537 11.3696 2.47412 11.1716 2.646C11.38 2.56787 11.5883 2.50537 11.8383 2.51058C11.6768 2.63037 11.5466 2.73975 11.4581 2.92204C11.8071 2.82308 12.1039 2.94808 12.4321 3.00537C12.255 3.18766 12.0466 3.2137 11.8227 3.21891C12.0154 3.26058 12.1977 3.3335 12.3748 3.43766C12.2602 3.4585 12.156 3.42204 12.031 3.42725C12.1612 3.51058 12.2914 3.55745 12.4008 3.66683C12.3331 3.6512 12.2706 3.64079 12.2133 3.63037C12.3123 3.69808 12.3591 3.80225 12.4216 3.896C12.531 4.05225 12.6873 4.15641 12.8331 4.2762C13.1404 4.53662 13.3696 4.84912 13.4893 5.23454C13.531 5.35954 13.5831 5.47412 13.656 5.5835C13.8227 5.8387 14.0571 5.98454 14.3643 6.00016C14.3643 6.04183 14.3383 6.05225 14.3175 6.06787C14.031 6.16162 13.7446 6.17725 13.4529 6.09391C13.3643 6.06787 13.2966 6.00537 13.2393 5.93766C13.0779 5.771 12.9008 5.62516 12.6977 5.50537C12.3227 5.28662 11.9477 5.271 11.5675 5.48975C11.4998 5.53141 11.4321 5.59912 11.3383 5.59391C11.2914 5.57829 11.2706 5.53141 11.2446 5.48975C11.0258 5.13037 10.6977 4.95329 10.2758 4.98975C9.86434 5.0262 9.59351 5.26058 9.43726 5.63037C9.42163 5.66683 9.40601 5.70329 9.38518 5.73454C9.34351 5.78141 9.32788 5.8387 9.32788 5.9012C9.32788 5.92725 9.32268 5.9637 9.28622 5.9637C9.25497 5.9637 9.24976 5.92725 9.24455 5.9012C9.23413 5.80225 9.23413 5.69808 9.24976 5.59912C9.2758 5.40641 9.32788 5.22412 9.43726 5.05225C9.40601 5.09391 9.4008 5.16683 9.3383 5.15641C9.27059 5.1512 9.2758 5.07829 9.26538 5.0262C9.24455 4.86996 9.28101 4.71891 9.31226 4.56266C9.34872 4.37516 9.41122 4.19287 9.52059 4.00537C9.31226 4.11475 9.16643 4.25537 9.04663 4.42204C8.98413 4.51579 8.92163 4.60954 8.86434 4.70329C8.84872 4.73454 8.82788 4.7762 8.79143 4.76579C8.74455 4.75016 8.76017 4.70329 8.76538 4.66683C8.81226 4.47412 8.86434 4.28141 8.89038 4.07829C8.92163 3.8335 8.94768 3.5835 8.89559 3.34391C8.76538 3.73975 8.62476 4.146 8.44247 4.53662C8.42684 4.57308 8.40601 4.63558 8.35913 4.61995C8.30184 4.59912 8.32788 4.53662 8.3383 4.49495C8.39559 4.2137 8.45288 3.93766 8.43726 3.646C8.42684 3.43766 8.39559 3.22933 8.30705 3.03662C8.28622 3.00016 8.27059 2.9637 8.24976 2.92725C8.2133 2.86996 8.17684 2.85954 8.12997 2.91683C8.04143 3.021 7.96851 3.13037 7.92163 3.26579C7.8383 3.521 7.8383 3.78141 7.9008 4.04704C7.91122 4.0887 7.92684 4.13037 7.92163 4.17204C7.91643 4.21891 7.89038 4.23454 7.84872 4.20329C7.8383 4.19808 7.84872 4.2085 7.84351 4.19808C7.62476 3.95329 7.47372 3.68245 7.46851 3.396C7.39559 3.70329 7.47893 4.03662 7.6508 4.34912C7.65601 4.36475 7.66122 4.37516 7.66643 4.38558C7.67684 4.41162 7.69247 4.44287 7.66643 4.4637C7.64559 4.48454 7.61434 4.47412 7.5883 4.4585C7.49455 4.41162 7.42163 4.3335 7.34351 4.26058C7.24455 4.16162 7.16643 4.04183 7.10913 3.88558C7.03622 4.0835 6.99976 4.26579 7.02059 4.4585C7.04143 4.68246 7.08309 4.9012 7.14038 5.11475C7.15601 5.16683 7.19247 5.23975 7.13518 5.26579C7.07268 5.29704 7.06226 5.2085 7.0258 5.17204C6.99976 5.14079 6.98934 5.09912 6.97372 5.0887C7.12997 5.31266 7.18726 5.5887 7.2133 5.87516C7.21851 5.91162 7.2133 5.95329 7.17684 5.9637C7.12997 5.96891 7.11955 5.92204 7.10913 5.88558C7.09872 5.82829 7.07788 5.7762 7.03622 5.73454C7.00497 5.7085 6.98934 5.66683 6.97893 5.63037C6.82788 5.25537 6.54143 5.04183 6.14559 4.99495C5.73413 4.94808 5.41122 5.11475 5.17684 5.44808C5.14559 5.48975 5.12997 5.54183 5.07268 5.55745C5.0258 5.56266 4.99455 5.53662 4.95809 5.51579C4.71851 5.36995 4.4633 5.30746 4.18726 5.31266C4.10393 5.31787 4.01538 5.3335 3.93205 5.29183C3.87997 5.23975 3.89559 5.17725 3.90601 5.11995C3.97372 4.70329 4.10393 4.31266 4.28101 3.93245C4.38517 3.71891 4.49455 3.50016 4.62476 3.30225C4.63518 3.28662 4.66122 3.271 4.6508 3.25016C4.59872 3.11995 4.70288 3.0262 4.74976 2.92725C4.78101 2.85954 4.84351 2.88558 4.9008 2.896C4.92684 2.89079 4.9633 2.91683 4.97372 2.88558C4.98934 2.86475 4.9633 2.8387 4.94768 2.81787C4.86434 2.69808 4.76018 2.60954 4.62476 2.51058C4.86955 2.51579 5.07268 2.57829 5.26538 2.6512C4.87997 2.20329 4.49455 1.74496 3.94768 1.4637C3.87476 1.42725 3.80184 1.39079 3.72893 1.35954C3.54663 1.29183 3.40601 1.35954 3.35913 1.54704C3.33309 1.67204 3.31226 1.79704 3.30184 1.92725C3.24976 2.63037 3.34351 3.30225 3.70809 3.92204C3.74455 3.98454 3.75497 4.021 3.68205 4.06266C3.61434 4.09912 3.56226 4.1512 3.49976 4.19808C3.43205 4.22933 3.4008 4.17725 3.36955 4.13558C3.14038 3.82829 3.00497 3.48454 2.92684 3.11995C2.84872 2.71891 2.8383 2.31266 2.86434 1.90641C2.86955 1.8387 2.89038 1.771 2.87997 1.69808Z" fill="#FEBB7D"/>
</g>
<path d="M7.05664 5.72408C7.11914 5.72929 7.10352 5.79179 7.12435 5.82825C7.14518 5.8595 7.15039 5.90117 7.17122 5.93763C7.17643 5.77096 7.14518 5.6095 7.09831 5.44804C7.05143 5.28658 6.97852 5.14075 6.91602 4.9845C6.98372 5.07304 7.05664 5.16158 7.13997 5.26575C7.08789 5.01054 7.01497 4.77617 6.98893 4.52617C6.96289 4.27096 7.00456 4.03138 7.11393 3.80221C7.19727 4.10429 7.40039 4.30221 7.6556 4.45846C7.55143 4.27096 7.4681 4.07825 7.42643 3.86992C7.38998 3.65638 7.40039 3.44804 7.49414 3.24492C7.47852 3.62512 7.6556 3.92721 7.88997 4.20325C7.8431 4.00533 7.80664 3.80742 7.81706 3.60429C7.83789 3.32304 7.92643 3.07825 8.11914 2.86471C8.18164 2.797 8.2181 2.80742 8.26497 2.88033C8.36914 3.047 8.42643 3.2345 8.45247 3.42721C8.50976 3.80742 8.45247 4.17721 8.36393 4.54179C8.35872 4.56263 8.35352 4.58346 8.35872 4.60429C8.58789 4.16158 8.73893 3.69283 8.9056 3.19283C9.0306 3.73971 8.92122 4.24492 8.79102 4.74492C8.85352 4.64075 8.92122 4.53138 8.99414 4.43242C9.06706 4.32825 9.14518 4.2345 9.23893 4.14596C9.33789 4.06263 9.44206 3.98971 9.58789 3.92721C9.39518 4.32304 9.24935 4.71367 9.32227 5.172C9.38997 5.08867 9.43685 5.02617 9.48372 4.96888C9.34831 5.27617 9.23893 5.58867 9.28581 5.93763C9.30143 5.8595 9.29102 5.77617 9.35872 5.71888C9.40039 5.75013 9.38998 5.79179 9.38477 5.83346C9.32227 6.51054 9.92643 7.04179 10.5983 6.90117C10.6348 6.89075 10.6712 6.88554 10.7129 6.88554C10.7858 6.90638 10.8639 6.90117 10.9421 6.90638C11.1504 6.91158 11.3327 6.96887 11.5098 7.07304C11.5358 7.08867 11.5723 7.1095 11.5671 7.15117C11.5566 7.19283 11.515 7.18762 11.4785 7.18242C11.3743 7.17721 11.2754 7.18242 11.1973 7.19283C11.3483 7.22408 11.515 7.297 11.666 7.39075C11.6973 7.40638 11.7181 7.43762 11.7129 7.47408C11.7025 7.51575 11.6608 7.52096 11.6296 7.52096C11.515 7.53138 11.3952 7.52617 11.2806 7.52617C11.3691 7.55221 11.4525 7.58346 11.5254 7.63033C11.5514 7.65117 11.5879 7.672 11.5775 7.70846C11.5671 7.73971 11.5306 7.74492 11.4993 7.75013C11.4733 7.75013 11.4525 7.75013 11.4264 7.75013C11.7754 7.87513 12.0879 8.05742 12.3431 8.32825C12.416 8.40638 12.4993 8.48971 12.5046 8.6095C12.4993 8.61471 12.4889 8.62513 12.4837 8.63033C11.9056 8.89075 11.2962 9.03658 10.6712 9.14075C10.2441 9.21367 9.81185 9.24492 9.37435 9.26575C9.08789 9.27617 8.80143 9.26054 8.51497 9.25013C7.9681 9.22408 7.42122 9.14596 6.87956 9.02096C6.33789 8.89596 5.81185 8.72929 5.31706 8.47929C5.07227 8.3595 4.8431 8.21887 4.63997 8.04179C4.60352 8.01054 4.56706 7.97929 4.55664 7.92721C4.55664 7.86992 4.60352 7.84908 4.64518 7.82825C4.79102 7.75533 4.94206 7.70846 5.08268 7.68242C5.00976 7.69283 4.91602 7.72408 4.82747 7.75533C4.80664 7.76054 4.7806 7.76575 4.75977 7.77096C4.73372 7.77617 4.70768 7.77617 4.69727 7.75013C4.68164 7.71887 4.71289 7.70325 4.73372 7.69283C4.83789 7.64075 4.95247 7.60429 5.05664 7.58346C4.98893 7.58346 4.91081 7.56262 4.83268 7.57825C4.79622 7.58346 4.74935 7.58867 4.73372 7.547C4.7181 7.50533 4.74935 7.47408 4.7806 7.45325C4.93685 7.34387 5.09831 7.25013 5.24935 7.21367C5.19206 7.22408 5.0931 7.23971 4.99414 7.24492C4.95247 7.25012 4.89518 7.26575 4.87956 7.21367C4.86393 7.16679 4.91081 7.13554 4.95247 7.11471C5.10872 7.02617 5.27018 6.95846 5.44727 6.92721C5.52539 6.91158 5.60352 6.90638 5.68164 6.89075C5.80664 6.89596 5.93164 6.92721 6.05664 6.922C6.5931 6.91679 7.11393 6.43242 7.0306 5.84388C7.02539 5.80221 7.01497 5.75533 7.05664 5.72408Z" fill="#FDFDFD"/>
<path d="M7.35918 13.1613C7.34876 13.0207 7.33314 12.88 7.32793 12.7446C7.30709 12.328 7.30189 11.9113 7.31751 11.4946C7.31751 11.453 7.34355 11.38 7.28105 11.3748C7.20814 11.3696 7.22897 11.4478 7.22376 11.4894C7.20814 11.63 7.20293 11.7655 7.19772 11.9061C7.17688 11.979 7.1248 11.9582 7.08314 11.9425C6.97897 11.9113 6.89564 11.8488 6.82272 11.7811C6.82793 11.8123 6.86439 11.854 6.82272 11.8853C6.77584 11.9165 6.73418 11.8905 6.69772 11.8592C6.59876 11.7863 6.52584 11.6873 6.47376 11.5728C6.51022 11.6717 6.54147 11.7707 6.60397 11.8592C6.61959 11.88 6.64564 11.9113 6.61959 11.9425C6.59355 11.9686 6.5623 11.9478 6.53626 11.9321C6.36439 11.8332 6.26543 11.6769 6.1873 11.505C6.16126 11.4478 6.14564 11.3905 6.1248 11.328C6.1248 11.4061 6.13001 11.479 6.14564 11.5571C6.15605 11.5884 6.16647 11.6353 6.1248 11.6561C6.08834 11.6717 6.05709 11.6405 6.03105 11.6092C5.86439 11.4165 5.76022 11.1925 5.72897 10.9425C5.71334 10.7967 5.71334 10.6457 5.73418 10.4946C5.64564 10.6248 5.58314 10.7603 5.53626 10.9061C5.52584 10.9321 5.52064 10.9634 5.48418 10.9634C5.45293 10.9634 5.44772 10.9321 5.44251 10.9061C5.36959 10.5728 5.39564 10.255 5.56751 9.98421C5.54147 10.005 5.51543 10.0728 5.4373 10.0207C5.40084 9.93734 5.4373 9.85921 5.44251 9.78109C5.44772 9.76025 5.45814 9.74463 5.47376 9.73421C5.53626 9.70817 5.59355 9.73421 5.65084 9.74984C6.05709 9.89046 6.47376 9.94775 6.89564 9.98942C7.40605 10.0467 7.91647 10.0363 8.42168 10.0259C8.98418 10.0155 9.54147 9.93734 10.0883 9.81755C10.3488 9.76025 10.604 9.68213 10.8592 9.604C10.9061 9.58838 10.9581 9.56755 11.0102 9.58317C11.0467 9.59359 11.0675 9.63005 11.0831 9.6613C11.1925 9.854 11.2394 10.0571 11.2498 10.2759C11.255 10.3071 11.2602 10.3488 11.2186 10.3592C11.1717 10.3748 11.1508 10.3332 11.1352 10.3019C11.0727 10.1561 10.979 10.0311 10.8904 9.90609C10.9008 9.92171 10.9217 9.93734 10.9321 9.95817C11.1144 10.3644 11.1821 10.7811 10.9738 11.203C10.9529 11.2446 10.9269 11.2915 10.8904 11.328C10.8748 11.3436 10.8488 11.3592 10.8279 11.354C10.7967 11.3436 10.7915 11.3123 10.7915 11.2863C10.7915 11.2811 10.7915 11.2707 10.7915 11.2655C10.8279 11.0311 10.7811 10.8071 10.7446 10.6353C10.7602 10.8488 10.7758 11.1144 10.6769 11.3696C10.6196 11.5155 10.5258 11.6353 10.4061 11.7342C10.38 11.755 10.3436 11.7863 10.3071 11.7603C10.2758 11.7342 10.2863 11.6925 10.3019 11.6665C10.38 11.5207 10.3227 11.354 10.3748 11.2238C10.3436 11.453 10.2029 11.63 10.0206 11.7863C10.005 11.7967 9.98939 11.8071 9.96855 11.8175C9.9321 11.8384 9.89564 11.8748 9.85918 11.8384C9.82793 11.8019 9.86439 11.7655 9.88522 11.7394C9.94772 11.6561 9.98939 11.5623 9.9998 11.4634C9.92689 11.5936 9.84355 11.7186 9.72376 11.8228C9.6873 11.854 9.65084 11.9009 9.59876 11.8436C9.57272 11.8175 9.5623 11.854 9.55189 11.8644C9.48939 11.8957 9.42689 11.9217 9.35918 11.9373C9.32272 11.9425 9.28626 11.9478 9.26022 11.9061C9.2498 11.755 9.23939 11.604 9.22376 11.453C9.21855 11.4217 9.23418 11.3644 9.17168 11.3748C9.11959 11.38 9.14043 11.4217 9.13522 11.453C9.13001 11.4946 9.13522 11.5363 9.13522 11.5728C9.11439 11.7342 9.09876 11.8957 9.06751 12.0519C8.97376 12.5311 8.8748 13.005 8.67168 13.4582C8.60918 13.5936 8.53626 13.729 8.42689 13.8384C8.28626 13.979 8.15605 14.005 7.98939 13.9113C7.69772 13.7498 7.47897 13.5207 7.38001 13.1978C7.3748 13.1821 7.3748 13.1665 7.35918 13.1613Z" fill="#FDFDFD"/>
<path d="M9.26107 11.9061C9.41732 11.9217 9.53711 11.8332 9.68294 11.7342C9.64648 11.7863 9.63086 11.8123 9.61523 11.8384C9.81315 11.729 9.91732 11.5415 10.0215 11.354C10.0632 11.4998 10.0215 11.6353 9.87044 11.8228C10.0788 11.7498 10.2611 11.5155 10.3757 11.1769C10.4173 11.3384 10.3965 11.5207 10.3132 11.7394C10.4642 11.6978 10.6517 11.4269 10.6934 11.1821C10.735 10.9478 10.7298 10.7134 10.6934 10.4686C10.8079 10.6248 10.8444 10.8592 10.8236 11.328C10.985 11.2238 11.0944 10.8384 11.0632 10.5728C11.0267 10.3019 10.9694 10.0363 10.8079 9.80192C10.9954 9.94255 11.1048 10.1405 11.209 10.3436C11.2142 10.1353 11.1777 9.94255 11.0944 9.75505C11.0684 9.70817 11.0319 9.6613 11.0215 9.5988C11.0163 9.56754 11.0319 9.54671 11.0579 9.5363C11.1621 9.48942 11.2559 9.43213 11.3652 9.40088C11.4694 9.69775 11.5111 10.005 11.5371 10.3123C11.6257 11.3019 11.459 12.2603 11.1777 13.2082C11.1621 13.2707 11.1413 13.3384 11.1257 13.4009C11.084 13.4113 11.0579 13.3853 11.0319 13.3696C10.7559 13.2394 10.4642 13.1509 10.1621 13.1092C10.1152 13.104 10.084 13.0936 10.0632 13.1613C10.0475 13.229 9.97982 13.2134 9.92773 13.2082C9.78711 13.1925 9.65169 13.1613 9.51628 13.1196C9.43294 13.0988 9.3444 13.0728 9.25586 13.078C9.26107 12.6873 9.28711 12.2967 9.26107 11.9061Z" fill="#FEBA7D"/>
<path d="M4.57348 7.9165C4.78182 8.13525 5.03182 8.2863 5.29744 8.42692C5.93807 8.75505 6.62036 8.94775 7.32869 9.07275C7.83911 9.1665 8.35994 9.20817 8.88078 9.2238C10.0839 9.25504 11.2506 9.06234 12.3756 8.64567C12.412 8.63525 12.4433 8.61963 12.4849 8.63005C12.162 8.854 11.8027 9.01546 11.4381 9.15088C10.787 9.39046 10.1099 9.5415 9.41723 9.62484C8.71932 9.71338 8.01619 9.729 7.30786 9.6613C6.2089 9.56234 5.15161 9.2915 4.17765 8.76546C4.06828 8.70817 3.96411 8.64567 3.86515 8.57275C3.84953 8.5415 3.85994 8.51025 3.87557 8.48421C4.03182 8.229 4.26098 8.04671 4.52661 7.90609C4.53182 7.90088 4.54224 7.90088 4.54744 7.90088C4.55786 7.90609 4.56828 7.9113 4.57348 7.9165Z" fill="#B6B9BD"/>
<path d="M11.339 5.58343C11.464 5.51572 11.5838 5.43239 11.7192 5.37509C12.0682 5.22926 12.3963 5.29176 12.7088 5.46884C12.9171 5.58864 13.1046 5.72926 13.2557 5.90634C13.3859 6.05739 13.5526 6.09905 13.7401 6.10947C13.9328 6.11989 14.1255 6.0678 14.3182 6.0678C14.0474 6.39072 13.5578 6.60426 12.9796 6.07301C13.0161 6.17197 13.0838 6.21884 13.1255 6.28655C13.1099 6.35947 13.0578 6.33864 13.0161 6.32822C12.8755 6.31259 12.7401 6.27093 12.5994 6.26051C12.5838 6.2553 12.563 6.24489 12.5369 6.26572C12.589 6.30739 12.6463 6.34384 12.7088 6.36989C12.8703 6.4428 13.0422 6.50009 13.2192 6.54176C13.2869 6.55218 13.3494 6.55739 13.4119 6.53655C13.5109 6.64593 13.6411 6.67718 13.7765 6.70843C13.8286 6.71884 13.8755 6.72405 13.9276 6.73447C14.0005 6.7553 14.0734 6.76572 14.1463 6.77093C14.1828 6.77093 14.2296 6.76051 14.2349 6.82301C14.0005 7.02613 13.7036 7.22405 13.1255 7.08864C13.2349 7.17718 13.3338 7.2553 13.4328 7.33864C13.4432 7.39593 13.3963 7.40634 13.3599 7.41676C13.1411 7.47926 12.9171 7.5053 12.6932 7.47926C12.5526 7.45843 12.438 7.39593 12.3442 7.29697C12.1359 7.0678 11.8807 6.91155 11.5838 6.8178C11.4796 6.78655 11.3703 6.76572 11.2609 6.7553C11.1984 6.75009 11.1307 6.7553 11.0838 6.70322C11.0682 6.65114 11.1047 6.61989 11.1359 6.58864C11.3442 6.33864 11.4224 6.05739 11.3442 5.73968C11.3338 5.68759 11.3026 5.63551 11.339 5.58343Z" fill="#FE854F"/>
<path d="M5.45243 10.0259C5.54097 9.99984 5.58264 9.9113 5.67118 9.86963C5.42638 10.1925 5.39514 10.5571 5.48368 10.9425C5.55138 10.7394 5.6243 10.5415 5.79097 10.38C5.70243 10.854 5.75972 11.2863 6.11909 11.6353C6.09305 11.4998 6.0618 11.3592 6.13472 11.2082C6.20764 11.5103 6.31701 11.7811 6.60868 11.9269C6.4993 11.7967 6.4368 11.6509 6.44722 11.4738C6.53576 11.6353 6.62951 11.7967 6.82743 11.8957C6.80659 11.8123 6.7493 11.7603 6.77534 11.6873C6.86389 11.7811 6.96284 11.8644 7.08784 11.9113C7.1243 11.9217 7.16076 11.953 7.19722 11.9061C7.17638 12.1821 7.18159 12.4582 7.1868 12.729C7.20243 12.7967 7.18159 12.8644 7.19722 12.9321C7.19722 12.953 7.19722 12.9738 7.19722 12.9946C7.17638 13.0259 7.14513 13.0467 7.10347 13.0571C6.97847 13.0988 6.84305 13.1353 6.70763 13.1509C6.66076 13.1613 6.60347 13.1665 6.5618 13.1405C6.44201 13.078 6.32222 13.0936 6.20243 13.1144C6.08263 13.13 5.96284 13.1561 5.83784 13.1717C5.78576 13.1821 5.73368 13.1978 5.68159 13.1717C5.67118 13.1613 5.66076 13.1561 5.65555 13.1457C5.57222 12.9582 5.54618 12.7603 5.4993 12.5675C5.35868 11.9269 5.30659 11.2811 5.33263 10.63C5.33784 10.4373 5.3743 10.2498 5.42118 10.0623C5.42118 10.0415 5.43159 10.0259 5.45243 10.0259Z" fill="#FEBA7D"/>
<path d="M2.98372 7.34388C3.07227 7.26055 3.18685 7.20847 3.28581 7.08347C2.80664 7.2293 2.45247 7.05742 2.11393 6.72409C2.7181 6.81263 3.13997 6.56263 3.45247 6.09909C3.24414 6.25013 3.04102 6.42201 2.75456 6.40117C2.47331 6.38034 2.27018 6.22409 2.08789 6.01576C2.16081 5.98451 2.22852 5.98972 2.29102 5.97409C2.56185 5.90638 2.74414 5.73451 2.87956 5.50013C2.90039 5.45847 2.92122 5.4168 2.94727 5.37513C3.02018 5.32305 3.10352 5.32305 3.18685 5.30742C3.40039 5.27617 3.60872 5.26055 3.82227 5.24492C3.85872 5.23972 3.89518 5.24492 3.92122 5.27617C3.94727 5.30742 3.95768 5.34388 3.95247 5.38034C3.91081 5.6668 3.91602 5.95326 3.9056 6.23451C3.9056 6.31784 3.93685 6.40117 3.92643 6.48451C3.9681 6.73972 4.02539 6.98972 4.13477 7.22409C4.16081 7.27617 4.19206 7.32826 4.16602 7.39076C4.0931 7.4793 3.98372 7.45847 3.88997 7.46367C3.61914 7.48451 3.34831 7.45847 3.07747 7.42722C3.0306 7.42201 2.97852 7.41159 2.98372 7.34388Z" fill="#E06C45"/>
<mask id="mask4_902_1778" style="mask-type:luminance" maskUnits="userSpaceOnUse" x="12" y="11" width="4" height="3">
<path d="M12.334 11.3335H15.9798V14.0002H12.334V11.3335Z" fill="white"/>
</mask>
<g mask="url(#mask4_902_1778)">
<path d="M12.7917 12.49C12.7708 12.3962 12.7552 12.2972 12.7344 12.2035C12.7448 12.167 12.75 12.1254 12.7812 12.0993C13.0833 11.8493 13.3854 11.615 13.7812 11.5368C13.8906 11.516 14 11.5004 14.1146 11.4847C14.1615 11.4795 14.2187 11.4639 14.2448 11.5108C14.276 11.5681 14.2135 11.5941 14.1823 11.6254C14.0521 11.7556 13.9115 11.8702 13.8073 12.042C13.9375 12.0212 14.0521 11.9847 14.1667 11.9743C14.2656 11.9639 14.3646 11.9587 14.4635 11.9743C14.6094 11.9952 14.6458 12.0733 14.5573 12.1931C14.5052 12.2712 14.4375 12.3389 14.375 12.4118C14.3021 12.5056 14.3125 12.5368 14.4271 12.5681C14.6458 12.6358 14.6667 12.6306 14.7917 12.4379C14.9531 12.1827 15.0469 11.9066 15.1458 11.6306C15.1667 11.5733 15.125 11.542 15.1198 11.4952C15.2708 11.4952 15.2656 11.4952 15.2448 11.641C15.1875 12.0056 15.1094 12.365 14.9062 12.6775C14.8698 12.74 14.8229 12.7972 14.7812 12.8545C14.776 12.891 14.7656 12.9275 14.7396 12.9535C14.4896 13.24 14.1719 13.4118 13.8125 13.5212C13.7969 13.5264 13.776 13.5264 13.7604 13.5264C13.75 13.5212 13.7396 13.5212 13.7344 13.5108C13.7031 13.4847 13.6927 13.4483 13.6823 13.417C13.5417 12.99 13.2708 12.6827 12.8438 12.5212C12.8229 12.5108 12.8073 12.5004 12.7917 12.49Z" fill="#FE854F"/>
</g>
<path d="M7.35938 13.1613C7.45313 13.2811 7.51042 13.4269 7.60938 13.5415C7.72396 13.6769 7.84375 13.8071 8.01042 13.8853C8.16146 13.9582 8.27083 13.9425 8.39062 13.8228C8.5 13.7134 8.57292 13.578 8.63542 13.4425C8.82292 13.0259 8.92188 12.5884 9.01042 12.1509C9.04167 11.979 9.08333 11.8123 9.09375 11.6405C9.09896 11.6092 9.10938 11.5884 9.13542 11.5728C9.15104 11.6457 9.15104 11.7186 9.15104 11.7967C9.15104 12.7498 9.08333 13.6925 8.90625 14.63C8.88542 14.729 8.83333 14.8123 8.80208 14.9061C8.79167 14.9217 8.78646 14.9373 8.76562 14.9373C8.75 14.9373 8.72396 14.8957 8.72917 14.9582C8.73437 15.0415 8.67708 15.0675 8.59896 15.0363C8.57812 15.0259 8.55729 15.0155 8.53646 14.9998C8.44792 14.9373 8.44792 14.9373 8.39583 15.0311C8.36458 15.0884 8.32813 15.0936 8.27604 15.0623C8.24479 15.0467 8.22396 15.0207 8.20312 14.9946C8.16667 14.9425 8.13021 14.9373 8.07292 14.9634C7.95833 15.0207 7.92187 14.9998 7.89062 14.8696C7.88542 14.8436 7.89583 14.8019 7.85938 14.7915C7.82292 14.7811 7.80208 14.8228 7.78125 14.8436C7.72917 14.8853 7.72917 14.9634 7.65625 14.9842C7.47396 14.3905 7.41146 13.7759 7.35938 13.1613Z" fill="#B7B8BD"/>
<path d="M11.0892 6.69775C11.4954 6.71338 11.86 6.83838 12.1777 7.08317C12.2507 7.14046 12.3184 7.20296 12.3809 7.27588C12.4694 7.37484 12.5788 7.43213 12.7142 7.44775C12.9486 7.46859 13.1725 7.43213 13.3913 7.36963C13.4069 7.36442 13.4173 7.3488 13.4329 7.33838C13.5684 7.42171 13.6986 7.51025 13.8757 7.5363C13.5788 7.76025 13.2507 7.88525 12.8965 7.9738C13.0579 8.04671 13.2038 8.11442 13.3704 8.18734C13.1309 8.23421 12.9434 8.33838 12.7611 8.45817C12.6777 8.51025 12.6048 8.57796 12.5059 8.60921C12.1361 8.11963 12.0371 8.04671 11.3027 7.73421C11.3913 7.69776 11.4746 7.7238 11.5632 7.70296C11.4434 7.5988 11.2923 7.57276 11.1361 7.49984C11.3392 7.4738 11.5163 7.48942 11.6986 7.48421C11.6465 7.38525 11.4954 7.31755 11.0475 7.18734C11.2246 7.14046 11.3861 7.14046 11.5736 7.15609C11.3757 7.01546 11.1777 6.95296 10.9642 6.94255C10.8809 6.93213 10.7923 6.93734 10.709 6.9165C10.709 6.89567 10.7246 6.87484 10.7402 6.86963C10.8444 6.81234 10.9434 6.75505 11.0423 6.69775C11.0579 6.68734 11.0736 6.68734 11.0892 6.69775Z" fill="#FEB97C"/>
<path d="M11.3125 13.3177C11.349 13.1875 11.3854 13.0521 11.4219 12.9167C11.5573 12.9583 11.6927 13.0156 11.8281 13.0729C11.9427 13.1146 12.0625 13.151 12.1823 13.1719C12.3281 13.1979 12.3802 13.1615 12.4115 13.0156C12.4896 12.6094 12.1979 12.2969 11.7812 12.349C11.7083 12.3594 11.6302 12.3802 11.5625 12.3438C11.5937 12.1094 11.6406 11.8802 11.6667 11.6458C11.7031 11.2969 11.7083 10.9531 11.7031 10.6042C11.7031 10.5729 11.7031 10.5417 11.7031 10.4844C12.099 10.9375 12.3646 11.4271 12.5208 11.9792C12.6823 12.5313 12.7187 13.0937 12.6875 13.6667C12.6615 13.6927 12.625 13.6927 12.5885 13.6875C12.4948 13.6823 12.401 13.6719 12.3073 13.6458C12.0104 13.5729 11.7188 13.5 11.4271 13.4115C11.375 13.401 11.3177 13.3906 11.3125 13.3177Z" fill="#FEBA7C"/>
<path d="M4.90556 2.4324C4.72847 2.39073 4.57743 2.38553 4.42118 2.39073C4.40035 2.39073 4.36389 2.38032 4.34826 2.41157C4.33785 2.44803 4.3691 2.46365 4.38993 2.48448C4.48889 2.57303 4.59306 2.65636 4.70243 2.75011C4.42118 2.77615 4.15556 2.82824 3.89514 2.89594C3.77014 2.92719 3.76493 2.94282 3.84826 3.04178C3.92639 3.13032 4.03056 3.19282 4.14514 3.26053C4.04618 3.31261 3.94722 3.35428 3.8691 3.42719C3.84826 3.44803 3.80139 3.45844 3.81701 3.50011C3.82743 3.53657 3.86389 3.54698 3.89514 3.56261C3.9316 3.57824 3.97327 3.5574 4.00451 3.58865C4.00451 3.61469 3.97327 3.62511 3.96285 3.64073C3.93681 3.67198 3.88472 3.68761 3.90035 3.73448C3.91077 3.78136 3.96806 3.76052 4.00972 3.78136C3.96285 3.84907 3.90035 3.89594 3.84306 3.94803C3.46285 3.31782 3.35347 2.63032 3.41076 1.91157C3.42118 1.79698 3.43681 1.68761 3.46285 1.57823C3.4941 1.43761 3.56701 1.39594 3.69722 1.45844C4.17118 1.6824 4.5566 2.01573 4.90556 2.4324Z" fill="#FD834E"/>
<path d="M12.4421 3.76033C12.4837 3.7395 12.5358 3.80721 12.5566 3.74991C12.5775 3.69783 12.5202 3.677 12.4889 3.64575C12.4681 3.62491 12.4421 3.60408 12.4108 3.57804C12.4733 3.57283 12.5306 3.56762 12.5827 3.552C12.6608 3.53637 12.6608 3.49471 12.6087 3.44783C12.5254 3.37491 12.416 3.33325 12.3171 3.27075C12.4264 3.19783 12.5358 3.13533 12.6139 3.03116C12.6816 2.94262 12.6764 2.92179 12.5723 2.90096C12.3066 2.84887 12.0462 2.77596 11.7702 2.75512C11.8691 2.66658 11.9629 2.58325 12.0566 2.49991C12.0827 2.47387 12.1296 2.45304 12.1139 2.41137C12.0983 2.3645 12.0514 2.39054 12.015 2.38533C11.8639 2.38533 11.7181 2.38533 11.5566 2.42179C11.8952 2.01033 12.2806 1.68741 12.7441 1.46346C12.89 1.39054 12.9629 1.427 12.9941 1.59366C13.0306 1.77596 13.041 1.96866 13.0462 2.15616C13.0514 2.75512 12.9577 3.32804 12.6608 3.85929C12.6191 3.93741 12.5931 3.94262 12.541 3.87491C12.5098 3.83846 12.4577 3.81241 12.4421 3.76033Z" fill="#FD824D"/>
<path d="M5.43132 10.0519C5.46777 10.1353 5.4209 10.2082 5.41048 10.2863C5.37402 10.5259 5.37402 10.7655 5.36882 11.005C5.3584 11.5675 5.44694 12.1196 5.56673 12.6665C5.59798 12.8228 5.63965 12.9842 5.67611 13.1405C5.66048 13.1613 5.64486 13.1821 5.62402 13.1821C5.50423 13.203 5.38965 13.2394 5.26986 13.2394C5.1084 12.6613 4.96257 12.078 4.91569 11.479C4.87402 10.953 4.86882 10.4269 4.95736 9.90088C4.9834 9.76025 5.00423 9.61442 5.05632 9.479C5.21777 9.51546 5.36361 9.58838 5.48861 9.70296C5.48861 9.71859 5.48861 9.73421 5.47819 9.74984C5.47819 9.76025 5.47298 9.77067 5.47298 9.7863C5.44173 9.93213 5.35319 10.0519 5.29069 10.1821C5.28548 10.1978 5.30111 10.1925 5.29069 10.1925C5.28548 10.1873 5.28548 10.1873 5.29069 10.1821C5.32194 10.1196 5.35319 10.0623 5.43132 10.0519Z" fill="#E18253"/>
<mask id="mask5_902_1778" style="mask-type:luminance" maskUnits="userSpaceOnUse" x="12" y="10" width="4" height="3">
<path d="M12.334 10H15.9798V12.6667H12.334V10Z" fill="white"/>
</mask>
<g mask="url(#mask5_902_1778)">
<path d="M15.1198 11.5C15.2135 11.5052 15.2083 11.5573 15.1823 11.6302C15.0729 11.9532 14.9531 12.2761 14.7552 12.5573C14.6979 12.6355 14.6406 12.6719 14.5469 12.6355C14.4896 12.6146 14.4271 12.6094 14.3698 12.5886C14.2604 12.5573 14.25 12.5261 14.3125 12.4375C14.3698 12.3594 14.4375 12.2865 14.5 12.2136C14.5208 12.1875 14.5417 12.1563 14.5625 12.1302C14.5937 12.073 14.5885 12.0365 14.5156 12.0209C14.349 11.9792 14.1875 12.0052 14.026 12.0313C13.9583 12.0417 13.8958 12.0677 13.8281 12.0834C13.8021 12.0886 13.7708 12.1146 13.7552 12.0886C13.7344 12.0573 13.7656 12.0313 13.7812 12.0105C13.8906 11.8386 14.0417 11.7032 14.1927 11.573C14.2083 11.5573 14.224 11.5469 14.2552 11.5157C14.0885 11.5052 13.9531 11.5417 13.8177 11.5625C13.4583 11.625 13.1771 11.823 12.9062 12.0417C12.8437 12.0938 12.776 12.1302 12.7344 12.2032C12.6875 12.0365 12.6406 11.875 12.5937 11.7084C12.5833 11.6719 12.5677 11.6459 12.6094 11.6146C12.9323 11.349 13.2969 11.1875 13.7083 11.1302C13.7187 11.125 13.7344 11.1302 13.7604 11.1302C13.6667 11.2188 13.5833 11.2969 13.4792 11.3907C13.599 11.3698 13.6979 11.3438 13.7969 11.3282C14.1146 11.2813 14.4219 11.3594 14.724 11.4323C14.8542 11.4636 14.9844 11.4896 15.1198 11.5Z" fill="#FEBA7D"/>
</g>
<path d="M9.25521 13.0784C9.28125 13.0263 9.3125 13.0263 9.35938 13.0367C9.53646 13.094 9.71354 13.1461 9.89583 13.1721C9.93229 13.1721 9.96875 13.1773 10.0104 13.1773C10.0417 13.1773 10.0625 13.1617 10.0365 13.1304C9.96875 13.0523 10.0313 13.0523 10.0833 13.0627C10.3802 13.1044 10.6719 13.1669 10.9479 13.2919C11.0104 13.3232 11.0885 13.3336 11.125 13.4013C11.0885 13.5471 11.0573 13.6877 11.0208 13.8336C11 13.8752 10.9583 13.8857 10.9115 13.8909C10.6406 13.9169 10.3646 13.9429 10.0938 13.969C10.0781 13.9742 10.0625 13.9742 10.0417 13.969C9.74479 13.9169 9.47396 13.7919 9.20312 13.6617C9.21875 13.469 9.23958 13.2711 9.25521 13.0784Z" fill="#FE864F"/>
<path d="M5.4783 9.74466C5.4783 9.73425 5.4783 9.71862 5.47309 9.703C5.44705 9.61966 5.48871 9.55196 5.51476 9.48425C5.90017 9.58321 6.28038 9.67175 6.67101 9.73425C7.36371 9.83841 8.05121 9.86966 8.74913 9.83841C9.4835 9.80196 10.2075 9.68216 10.9158 9.47904C11.0408 9.44258 11.171 9.40612 11.296 9.35925C11.3481 9.33841 11.3585 9.35925 11.3689 9.40091C11.3377 9.47383 11.2595 9.47383 11.2023 9.50508C11.145 9.54154 11.072 9.54675 11.02 9.60404C10.8168 9.66133 10.6189 9.72904 10.4106 9.78112C9.99392 9.8905 9.56684 9.96341 9.13976 10.0103C8.57205 10.078 8.00434 10.0832 7.43663 10.0676C6.87934 10.052 6.32205 9.98946 5.78038 9.84362C5.68142 9.81237 5.58246 9.7655 5.4783 9.74466Z" fill="#B5BABF"/>
<path d="M2.98372 7.34375C3.04622 7.42708 3.14518 7.39583 3.22331 7.40104C3.42643 7.41667 3.63477 7.44792 3.8431 7.42708C3.94727 7.41146 4.06185 7.4375 4.16081 7.36979C4.19206 7.35937 4.20247 7.38021 4.22331 7.40104C4.29622 7.54688 4.40039 7.68229 4.50456 7.8125C4.5306 7.84375 4.56706 7.86979 4.55143 7.91667C4.30664 8.06771 4.07747 8.23437 3.92122 8.47396C3.90039 8.50521 3.88476 8.53646 3.86393 8.56771C3.7806 8.53646 3.70768 8.47396 3.63477 8.42188C3.46289 8.3125 3.27539 8.23438 3.04622 8.19271C3.21289 8.11979 3.35872 8.05208 3.52018 7.97917C3.16602 7.88021 2.83789 7.76042 2.54102 7.53646C2.70768 7.51042 2.84831 7.42188 2.98372 7.34375Z" fill="#E18254"/>
<path d="M3.91081 5.2762C3.61393 5.30225 3.31706 5.32308 3.02018 5.37516C2.99935 5.38037 2.97331 5.4012 2.94727 5.37516C3.08268 4.86995 3.37435 4.4637 3.79622 4.146C3.93164 4.04183 4.04102 3.92204 4.11393 3.771C4.13997 3.7137 4.18685 3.69287 4.22852 3.65641C4.16602 3.62516 4.10872 3.67725 4.04622 3.66683C4.13997 3.56266 4.26497 3.521 4.41081 3.45329C4.2806 3.45329 4.17643 3.45329 4.07747 3.45329C4.17643 3.38037 4.27539 3.32308 4.38997 3.28662C4.47331 3.30225 4.55664 3.28662 4.63997 3.29704C4.64518 3.29704 4.64518 3.30225 4.65039 3.30745C4.54102 3.521 4.42122 3.73454 4.31706 3.95329C4.12956 4.3387 4.00456 4.75016 3.93164 5.17204C3.92643 5.2085 3.93164 5.23975 3.93164 5.2762C3.92643 5.28141 3.91602 5.28141 3.91081 5.2762Z" fill="#E18254"/>
<path d="M9.20384 13.6616C9.32884 13.6668 9.43301 13.7345 9.54759 13.771C9.72988 13.8283 9.89134 13.9533 10.0945 13.9272C10.4018 13.896 10.7143 13.8856 11.0268 13.8335C10.9851 14.1095 10.9486 14.3856 10.959 14.672C10.9018 14.646 10.8549 14.62 10.808 14.5991C10.7611 14.5783 10.709 14.5679 10.6674 14.5991C10.5997 14.646 10.5632 14.62 10.5111 14.5679C10.3497 14.4064 10.1361 14.3908 9.94342 14.521C9.92259 14.5366 9.90697 14.5627 9.87051 14.5366C9.69342 14.4116 9.52155 14.4429 9.36009 14.5627C9.29238 14.5575 9.28717 14.5002 9.26634 14.4585C9.1778 14.245 9.1778 14.0262 9.19342 13.8075C9.19863 13.7606 9.19863 13.7085 9.20384 13.6616Z" fill="#FEBA7C"/>
<path d="M5.68176 13.1561C5.92655 13.13 6.16613 13.0519 6.42134 13.0571C6.46822 13.0571 6.50988 13.0519 6.55676 13.0988C6.59842 13.1457 6.67655 13.1248 6.73905 13.1092C6.8953 13.0728 7.04634 13.0363 7.19738 12.9946C7.21301 13.203 7.22863 13.4165 7.24426 13.6248C7.23384 13.6717 7.19738 13.6873 7.15572 13.703C6.94217 13.7967 6.72343 13.8853 6.50467 13.9686C6.3953 14.005 6.29113 14.0155 6.18176 13.9842C6.06197 13.953 5.93697 13.9425 5.82759 13.8905C5.81717 13.88 5.80676 13.8748 5.80155 13.8644C5.74426 13.6561 5.71822 13.4478 5.66092 13.2394C5.65572 13.2134 5.65572 13.1769 5.68176 13.1561Z" fill="#FE8550"/>
<mask id="mask6_902_1778" style="mask-type:luminance" maskUnits="userSpaceOnUse" x="12" y="12" width="4" height="4">
<path d="M12.334 12.6665H15.9798V15.3332H12.334V12.6665Z" fill="white"/>
</mask>
<g mask="url(#mask6_902_1778)">
<path d="M13.7614 13.5052C14.1677 13.3854 14.5166 13.1875 14.7823 12.8542C14.9593 12.8437 15.1104 12.7552 15.2823 12.6875C15.277 12.7656 15.2406 12.8229 15.2198 12.8802C15.0375 13.3333 14.8031 13.75 14.3968 14.0469C14.1833 14.1979 13.9489 14.3073 13.6937 14.3698C13.6364 14.3437 13.652 14.2917 13.6625 14.2448C13.7145 14.0521 13.7198 13.8542 13.7198 13.6562C13.7145 13.599 13.7145 13.5469 13.7614 13.5052Z" fill="#E06843"/>
</g>
<path d="M5.01557 12.875C5.11973 13.2604 5.23432 13.6406 5.2864 14.0469C5.08848 13.8177 4.84369 13.6979 4.54161 13.7188C4.22911 13.7396 4.01557 13.9063 3.8489 14.1823C3.7864 13.8073 3.77598 13.4531 3.79161 13.099C3.9739 13.1302 4.15098 13.0885 4.32807 13.0521C4.55723 13.0052 4.78119 12.9219 5.01557 12.875Z" fill="#E07F52"/>
<mask id="mask7_902_1778" style="mask-type:luminance" maskUnits="userSpaceOnUse" x="4" y="14" width="5" height="3">
<path d="M4.33398 14H8.33398V16.1875H4.33398V14Z" fill="white"/>
</mask>
<g mask="url(#mask7_902_1778)">
<path d="M5.74545 14.698C5.81316 14.7449 5.87045 14.7136 5.92253 14.6615C6.01107 14.573 6.11003 14.5053 6.24545 14.5157C6.31836 14.5261 6.38607 14.547 6.43816 14.5938C6.48503 14.6355 6.52149 14.6459 6.57357 14.6042C6.70899 14.4897 6.92253 14.5261 7.03711 14.6667C7.07878 14.7188 7.11524 14.7292 7.18295 14.6928C7.28711 14.6355 7.35482 14.7032 7.41211 14.7813C7.45899 14.9688 7.30795 15.1928 7.11524 15.2136C7.08399 15.2188 7.06316 15.2136 7.04232 15.1876C7.03191 15.1667 7.03711 15.1303 6.99545 15.1355C6.9642 15.1355 6.95378 15.1615 6.95378 15.1928C6.95899 15.2136 6.95378 15.2345 6.95378 15.2501C6.89128 15.3282 6.79753 15.3386 6.70899 15.3542C6.54753 15.3803 6.39128 15.4063 6.22982 15.3907C6.1517 15.3855 6.06837 15.3855 6.01107 15.3126C6.00587 15.2813 5.99545 15.2553 5.99024 15.224C5.98503 15.198 5.99545 15.1615 5.9642 15.1615C5.93816 15.1615 5.90691 15.1824 5.90691 15.224C5.91211 15.2397 5.90691 15.2553 5.90691 15.2709C5.77149 15.2449 5.68295 15.1563 5.64128 15.0365C5.60482 14.9063 5.6517 14.7917 5.74545 14.698Z" fill="#FDFDFD"/>
</g>
<mask id="mask8_902_1778" style="mask-type:luminance" maskUnits="userSpaceOnUse" x="8" y="14" width="3" height="3">
<path d="M8.33398 14H11.0007V16.1875H8.33398V14Z" fill="white"/>
</mask>
<g mask="url(#mask8_902_1778)">
<path d="M9.50611 15.2497C9.5009 15.2289 9.5009 15.2081 9.49569 15.1925C9.48528 15.1716 9.49569 15.13 9.46444 15.13C9.43319 15.13 9.42798 15.1664 9.41757 15.1872C9.27694 15.182 9.20403 15.0883 9.15194 14.9789C9.10507 14.8747 9.09986 14.7706 9.19361 14.682C9.27174 14.7393 9.33944 14.7237 9.39674 14.656C9.52174 14.5154 9.72486 14.4997 9.84465 14.6091C9.89153 14.6508 9.92799 14.6404 9.96444 14.6039C10.0999 14.4633 10.3447 14.4945 10.4801 14.6456C10.5374 14.7081 10.579 14.7497 10.6676 14.6768C10.7405 14.6143 10.928 14.7289 10.9644 14.8539C10.9697 14.8852 10.9749 14.9164 10.9853 14.9477C10.9488 15.0935 10.829 15.1977 10.678 15.2185C10.6415 15.2237 10.6051 15.2185 10.5738 15.1872C10.5686 15.1612 10.5634 15.1247 10.5217 15.13C10.4905 15.1352 10.4957 15.1664 10.4905 15.1925C10.4905 15.2289 10.4905 15.2602 10.4697 15.2914C10.4228 15.3383 10.3603 15.3487 10.303 15.3487C10.0947 15.3539 9.89153 15.3695 9.6884 15.3331C9.62069 15.3175 9.55299 15.3122 9.50611 15.2497Z" fill="#FDFDFD"/>
</g>
<path d="M3.86914 12.4064C3.91081 12.0575 4.02539 11.7293 4.16602 11.4116C4.29622 11.1252 4.46289 10.8595 4.66602 10.6147C4.68164 10.5939 4.69206 10.5679 4.73372 10.5679C4.73372 10.5783 4.73893 10.5887 4.73893 10.6043C4.72331 11.1668 4.77018 11.7241 4.87435 12.2762C4.87956 12.2918 4.87956 12.3075 4.87956 12.3231C4.8431 12.37 4.79622 12.3543 4.74935 12.3543C4.5306 12.3335 4.31185 12.3075 4.08789 12.3439C4.00977 12.3543 3.94727 12.4064 3.86914 12.4064Z" fill="#E08255"/>
<path d="M5.82715 13.8698C5.93652 13.8958 6.0459 13.9167 6.15527 13.9427C6.27506 13.974 6.38965 13.974 6.50423 13.9271C6.75423 13.8333 6.99902 13.7344 7.24382 13.625C7.28548 13.8906 7.32194 14.1563 7.36361 14.4219C7.37402 14.4896 7.38444 14.5625 7.39486 14.6354C7.31152 14.6042 7.23861 14.5729 7.15527 14.6146C7.11881 14.6354 7.09798 14.6094 7.07715 14.5885C6.90006 14.4323 6.75944 14.4167 6.5459 14.526C6.52507 14.5365 6.50944 14.5469 6.4834 14.5313C6.20215 14.3906 6.08756 14.401 5.86361 14.6042C5.7959 14.5885 5.80111 14.5313 5.80632 14.4896C5.83756 14.3229 5.81152 14.1615 5.80111 13.9948C5.80111 13.9531 5.7959 13.9063 5.82715 13.8698Z" fill="#FEBA7D"/>
<path d="M3.86914 12.4063C3.95768 12.2813 4.10352 12.3021 4.22852 12.2865C4.44727 12.2656 4.66602 12.3073 4.87956 12.3229C4.92643 12.5104 4.97331 12.6927 5.01497 12.875C4.99935 12.8959 4.99414 12.9323 4.95247 12.9375C4.74414 12.9636 4.54622 13.0417 4.33789 13.0886C4.19206 13.125 4.04102 13.1302 3.89518 13.1563C3.8431 13.1667 3.81185 13.1459 3.79102 13.099C3.79102 12.8646 3.81185 12.6354 3.86914 12.4063Z" fill="#E06842"/>
<mask id="mask9_902_1778" style="mask-type:luminance" maskUnits="userSpaceOnUse" x="11" y="14" width="3" height="3">
<path d="M11 14H13.6667V16.1875H11V14Z" fill="white"/>
</mask>
<g mask="url(#mask9_902_1778)">
<path d="M12.0053 15.3125C12.0835 15.1927 12.0939 15.0729 12.0574 14.9427C12.0105 14.9739 12.0158 15.0156 12.0105 15.0469C11.9949 15.1458 11.9428 15.2239 11.8647 15.2812C11.7137 15.3958 11.5314 15.3385 11.4637 15.1666C11.4428 15.1146 11.4376 15.0573 11.4376 15C11.4376 14.9583 11.4741 14.8958 11.4272 14.8906C11.3647 14.8802 11.3751 14.9583 11.3647 14.9948C11.3439 15.0729 11.3439 15.1458 11.3751 15.2187C11.4116 15.2969 11.3699 15.3229 11.3022 15.3333C11.2658 15.3385 11.2241 15.3333 11.1824 15.3281C11.146 15.3229 11.1199 15.3073 11.1303 15.2604C11.1824 15.0937 11.1564 14.9323 11.0991 14.776C11.0783 14.7031 11.0835 14.651 11.1408 14.5989C11.198 14.5521 11.2658 14.5156 11.3439 14.5625C11.3855 14.5937 11.4168 14.5833 11.4585 14.5521C11.5626 14.4739 11.6251 14.4791 11.7241 14.5625C11.7449 14.5833 11.7658 14.6146 11.8022 14.5885C11.9012 14.5104 11.9793 14.5573 12.0522 14.6302C12.0783 14.6614 12.0991 14.6927 12.1564 14.6562C12.2345 14.6041 12.3022 14.6614 12.3491 14.7187C12.448 14.8437 12.4428 14.9791 12.3803 15.1146C12.3074 15.2604 12.1876 15.3229 12.0053 15.3125Z" fill="#BEC0C4"/>
</g>
<mask id="mask10_902_1778" style="mask-type:luminance" maskUnits="userSpaceOnUse" x="3" y="14" width="3" height="3">
<path d="M3 14H5.66667V16.1875H3V14Z" fill="white"/>
</mask>
<g mask="url(#mask10_902_1778)">
<path d="M5.04635 14.8698C5.03073 15.0573 5.08281 15.2917 4.8224 15.3334C4.55156 15.3698 4.47344 15.1563 4.42656 14.9115C4.35365 15.0677 4.40052 15.1823 4.45781 15.3021C4.30156 15.3334 4.16094 15.2604 4.08281 15.1146C4.00469 14.9792 4.02031 14.7917 4.11927 14.6979C4.17656 14.6406 4.24427 14.599 4.3276 14.6563C4.35885 14.6771 4.37448 14.6667 4.39531 14.6459C4.47865 14.5625 4.55677 14.4948 4.67656 14.5886C4.70261 14.6146 4.72344 14.5781 4.74427 14.5625C4.84323 14.4896 4.91615 14.4844 5.0099 14.5625C5.05156 14.6042 5.08281 14.6042 5.12448 14.5729C5.18177 14.5208 5.24427 14.5521 5.30677 14.5781C5.36927 14.6094 5.35365 14.6615 5.34844 14.7136C5.33802 14.8073 5.31719 14.9063 5.30677 15C5.30156 15.0677 5.30156 15.1354 5.31198 15.2031C5.3276 15.3333 5.31719 15.3438 5.18698 15.3334C5.11406 15.3334 5.08281 15.3073 5.10365 15.2292C5.1401 15.1042 5.1349 14.9792 5.04635 14.8698Z" fill="#BEC1C7"/>
</g>
<path d="M12.5042 14.9895C12.499 14.8437 12.4573 14.7343 12.3636 14.6458C12.3011 14.5937 12.2386 14.5572 12.1553 14.5989C12.1136 14.6249 12.0928 14.5937 12.0719 14.5729C11.999 14.5051 11.9157 14.4687 11.8167 14.5104C11.7855 14.526 11.7594 14.5156 11.7334 14.4999C11.6344 14.427 11.5355 14.4218 11.4417 14.4999C11.4157 14.5156 11.3948 14.5364 11.3636 14.5156C11.2803 14.4635 11.1969 14.4947 11.1136 14.526C11.1032 14.3124 11.3532 13.9895 11.598 13.8958C11.8844 13.7812 12.2021 13.8697 12.4105 14.1145C12.6292 14.3697 12.6709 14.7187 12.5042 14.9895Z" fill="#E7754B"/>
<path d="M3.96429 14.9637C3.81324 14.6512 3.87054 14.37 4.07366 14.1095C4.25595 13.8908 4.49554 13.8023 4.77679 13.8752C5.05804 13.9429 5.30283 14.2241 5.34449 14.5106C5.25595 14.5002 5.17262 14.4741 5.08929 14.521C5.06324 14.5366 5.04241 14.5106 5.02158 14.5002C4.99033 14.4845 4.95387 14.4533 4.93304 14.4637C4.75595 14.5158 4.55283 14.4533 4.38616 14.5731C4.37054 14.5887 4.35491 14.5991 4.32366 14.5939C4.13616 14.5679 4.01116 14.6616 3.9747 14.8543C3.96949 14.8908 3.96949 14.9273 3.96429 14.9637Z" fill="#E7764C"/>
<mask id="mask11_902_1778" style="mask-type:luminance" maskUnits="userSpaceOnUse" x="9" y="14" width="5" height="3">
<path d="M9.66602 14H13.666V16.1875H9.66602V14Z" fill="white"/>
</mask>
<g mask="url(#mask11_902_1778)">
<path d="M12.7493 14.7397C12.7598 14.7918 12.8014 14.797 12.8431 14.8075C12.9837 14.8439 13.1296 14.87 13.2598 14.9272C13.3327 14.9637 13.416 14.9897 13.4264 15.0783C13.4316 15.172 13.3535 15.2137 13.2858 15.2502C13.0358 15.3752 12.765 15.4377 12.4941 15.495C12.0827 15.5835 11.6608 15.6408 11.2389 15.6929C11.0618 15.7137 10.89 15.7502 10.7129 15.7397C10.8535 15.6512 10.9993 15.5731 11.0775 15.4168C11.0931 15.3804 11.1243 15.3908 11.1556 15.4012C11.2493 15.4272 11.3379 15.4272 11.4212 15.37C11.4525 15.3491 11.4733 15.3647 11.4941 15.3856C11.5723 15.4429 11.6608 15.4585 11.7546 15.4377C11.8431 15.422 11.9264 15.4272 12.0202 15.4272C12.2546 15.4377 12.4264 15.3127 12.5671 15.146C12.666 15.0262 12.7129 14.8856 12.7493 14.7397Z" fill="#5280A1"/>
</g>
<path d="M11.5625 12.3438C11.7396 12.3125 11.9167 12.2813 12.0938 12.3386C12.3385 12.4115 12.5052 12.7188 12.4531 12.9948C12.4115 13.2136 12.3698 13.2396 12.1406 13.2031C11.9115 13.1615 11.7031 13.0521 11.4844 12.9792C11.4531 12.9688 11.4375 12.9427 11.4219 12.9167C11.4687 12.724 11.5156 12.5365 11.5625 12.3438Z" fill="#FE854F"/>
<mask id="mask12_902_1778" style="mask-type:luminance" maskUnits="userSpaceOnUse" x="3" y="14" width="4" height="3">
<path d="M3 14H7V16.1875H3V14Z" fill="white"/>
</mask>
<g mask="url(#mask12_902_1778)">
<path d="M5.74423 15.7396C5.40048 15.7135 5.05673 15.6875 4.71819 15.6406C4.33798 15.5937 3.96819 15.5313 3.60361 15.4323C3.46298 15.3958 3.32757 15.349 3.20257 15.276C3.07757 15.2083 3.07236 15.1146 3.19215 15.0365C3.35882 14.9323 3.55673 14.8906 3.74944 14.8438C3.81194 15.0417 3.90569 15.2187 4.09319 15.3333C4.2234 15.4115 4.35361 15.4583 4.50986 15.4167C4.55153 15.4063 4.5984 15.4115 4.64007 15.4271C4.66611 15.4323 4.69736 15.4375 4.7234 15.4375C4.83278 15.4531 4.92653 15.3906 5.02548 15.375C5.11923 15.3646 5.21819 15.4583 5.32757 15.4115C5.36403 15.3958 5.37965 15.4063 5.39528 15.4323C5.4734 15.5729 5.5984 15.6667 5.74423 15.7396Z" fill="#507EA0"/>
</g>
<mask id="mask13_902_1778" style="mask-type:luminance" maskUnits="userSpaceOnUse" x="5" y="15" width="6" height="2">
<path d="M5.66602 15.3335H10.9993V16.1877H5.66602V15.3335Z" fill="white"/>
</mask>
<g mask="url(#mask13_902_1778)">
<path d="M9.83203 15.8179C9.04557 15.8752 8.25391 15.8647 7.46745 15.8595C7.22787 15.8543 6.98828 15.8439 6.7487 15.8387C6.71745 15.8387 6.69141 15.8335 6.66016 15.8179C6.71224 15.7866 6.76432 15.7918 6.82161 15.797C7.06641 15.8231 7.27995 15.7606 7.45703 15.5835C7.48828 15.547 7.51953 15.5366 7.56641 15.5366C8.00391 15.5418 8.44661 15.5418 8.88932 15.5418C8.93099 15.5418 8.96745 15.5522 8.9987 15.5835C9.18099 15.7554 9.38932 15.8387 9.64453 15.7866C9.71224 15.771 9.77474 15.7866 9.83203 15.8179Z" fill="#4E7B9D"/>
</g>
<mask id="mask14_902_1778" style="mask-type:luminance" maskUnits="userSpaceOnUse" x="7" y="14" width="3" height="3">
<path d="M7 14H9.66667V16.1875H7V14Z" fill="white"/>
</mask>
<g mask="url(#mask14_902_1778)">
<path d="M7.6556 14.9845C7.68164 14.8907 7.74414 14.823 7.81706 14.7553C7.86914 14.7084 7.90039 14.7293 7.91602 14.7866C7.92122 14.8022 7.91602 14.823 7.92122 14.8386C7.93164 14.9897 7.95247 15.0001 8.07747 14.922C8.13476 14.8907 8.17643 14.8699 8.20768 14.948C8.2181 14.9689 8.23893 14.9897 8.25977 15.0105C8.28581 15.0314 8.30143 15.073 8.3431 15.0574C8.37956 15.047 8.36914 15.0053 8.37435 14.9793C8.38476 14.8803 8.41081 14.8699 8.48893 14.922C8.49935 14.9324 8.50977 14.9376 8.52539 14.948C8.57227 14.9793 8.61393 15.0418 8.67122 15.0209C8.73372 14.9949 8.68164 14.922 8.71289 14.8699C8.73893 14.8751 8.74935 14.948 8.80143 14.9064C8.75977 15.0678 8.79622 15.2241 8.85872 15.3855C8.43685 15.3855 8.02018 15.3855 7.60352 15.3855C7.64518 15.2605 7.68164 15.1251 7.6556 14.9845Z" fill="#A2A1A5"/>
</g>
<path d="M12.791 12.4897C12.9473 12.4897 13.0723 12.5783 13.1868 12.6668C13.4733 12.8752 13.6608 13.1564 13.7389 13.5054C13.7441 13.547 13.7077 13.5575 13.6816 13.5627C13.5671 13.5991 13.4525 13.6356 13.3327 13.6304C13.3223 13.6252 13.3118 13.62 13.3014 13.6147C13.265 13.5835 13.2598 13.5314 13.2441 13.4897C13.166 13.2606 13.041 13.0575 12.8379 12.9116C12.8223 12.771 12.8066 12.6304 12.791 12.4897Z" fill="#FEBB7B"/>
<path d="M11.3125 13.3179C11.4323 13.4012 11.5781 13.4168 11.7135 13.4533C11.9635 13.521 12.2083 13.5991 12.4635 13.6356C12.5365 13.646 12.6146 13.6564 12.6875 13.6668C12.6875 13.8335 12.6563 13.995 12.6406 14.1825C12.4635 13.9116 12.2344 13.7502 11.9219 13.7241C11.6042 13.6981 11.3594 13.8231 11.1406 14.0835C11.1875 13.8022 11.2344 13.5575 11.3125 13.3179Z" fill="#E18357"/>
<path d="M10.3223 1.47906C10.0671 1.48947 9.81185 1.4426 9.56185 1.40614C8.85872 1.30197 8.16081 1.28635 7.47852 1.53114C7.40039 1.56239 7.32227 1.59885 7.24414 1.6301C7.36914 1.43739 8.24935 0.984264 8.66602 1.05718C8.52539 1.1301 8.40039 1.18218 8.27018 1.27072C8.82227 1.17176 9.34831 1.20302 9.87956 1.30197C9.91081 1.31239 9.94727 1.30718 9.97852 1.30718C10.0983 1.35406 10.2129 1.41135 10.3223 1.47906Z" fill="#FDFDFA"/>
<path d="M13.308 14.4429C13.1413 14.4793 12.9694 14.4585 12.8028 14.4533C12.7611 14.4533 12.7351 14.4377 12.7507 14.3908C12.8132 14.1043 12.8288 13.8127 12.8496 13.521C12.8861 13.6512 12.9851 13.6043 13.0684 13.5991C13.1517 13.5939 13.2298 13.5575 13.308 13.6043C13.3392 13.6304 13.3601 13.6564 13.3653 13.6981C13.4069 13.9168 13.3913 14.1356 13.3548 14.3491C13.3496 14.3856 13.3288 14.4116 13.308 14.4429Z" fill="#E16842"/>
<path d="M2.87924 1.69775C2.9157 1.73421 2.90528 1.78109 2.90007 1.82275C2.84799 2.42692 2.89486 3.02067 3.1084 3.59359C3.18653 3.80192 3.30632 3.979 3.43132 4.15609C3.44695 4.18213 3.47299 4.19775 3.49903 4.19775C3.40528 4.28109 3.31153 4.36442 3.21257 4.44775C3.12924 4.2915 3.05632 4.0988 2.99903 3.90609C2.78549 3.18734 2.77507 2.45817 2.86882 1.7238C2.86882 1.71338 2.87403 1.70817 2.87924 1.69775Z" fill="#E38455"/>
<path d="M13.3066 14.4429C13.3118 14.2762 13.3587 14.1095 13.3483 13.9429C13.3431 13.8283 13.3275 13.7189 13.3066 13.6043C13.4525 13.5783 13.5983 13.5627 13.7389 13.5054C13.7441 13.5054 13.7493 13.5054 13.7598 13.5054C13.7598 13.7762 13.7754 14.047 13.6868 14.3127C13.6816 14.3335 13.6868 14.3543 13.6921 14.37C13.5671 14.4064 13.4421 14.4377 13.3066 14.4429Z" fill="#E18052"/>
<path d="M5.82878 13.8696C5.8444 14.0571 5.88086 14.2446 5.84961 14.4321C5.8444 14.4894 5.82878 14.5467 5.86523 14.5988C5.85482 14.6248 5.8444 14.6405 5.80794 14.63C5.64128 14.5832 5.64128 14.5832 5.49544 14.6769C5.50065 14.3905 5.45378 14.1092 5.41211 13.828C5.41732 13.828 5.41732 13.8227 5.42253 13.8227C5.51628 13.7707 5.74544 13.7967 5.82357 13.8696H5.82878Z" fill="#E17F53"/>
<mask id="mask15_902_1778" style="mask-type:luminance" maskUnits="userSpaceOnUse" x="8" y="14" width="2" height="3">
<path d="M8.33398 14H9.66732V16.1875H8.33398V14Z" fill="white"/>
</mask>
<g mask="url(#mask15_902_1778)">
<path d="M9.19372 14.6824C9.15205 14.8022 9.13642 14.922 9.22497 15.0366C9.27705 15.1043 9.34997 15.1408 9.41767 15.1876C9.41247 15.3543 9.4333 15.5158 9.56872 15.646C9.4958 15.672 9.4333 15.6564 9.36559 15.6408C8.98538 15.5366 8.80309 15.0783 9.02184 14.771C9.06351 14.7137 9.11038 14.6616 9.19372 14.6824Z" fill="#B8BBC0"/>
</g>
<path d="M5.82357 13.8698C5.68815 13.8542 5.55273 13.8437 5.41211 13.8281C5.36523 13.6302 5.31836 13.4375 5.27148 13.2396C5.34961 13.1615 5.45378 13.1875 5.54753 13.1615C5.58919 13.1458 5.63607 13.1458 5.67773 13.1406C5.67773 13.1458 5.68294 13.151 5.68294 13.1562C5.72982 13.3594 5.78711 13.5625 5.81315 13.7708C5.81836 13.8021 5.81836 13.8333 5.82357 13.8698Z" fill="#E06842"/>
<mask id="mask16_902_1778" style="mask-type:luminance" maskUnits="userSpaceOnUse" x="8" y="14" width="3" height="3">
<path d="M8.33398 14H11.0007V16.1875H8.33398V14Z" fill="white"/>
</mask>
<g mask="url(#mask16_902_1778)">
<path d="M9.50586 15.25C9.82357 15.3385 10.1465 15.3229 10.4694 15.2917C10.4329 15.5156 10.2194 15.6875 9.98503 15.6823C9.73503 15.6771 9.5319 15.4948 9.50586 15.25Z" fill="#BBBDC0"/>
</g>
<mask id="mask17_902_1778" style="mask-type:luminance" maskUnits="userSpaceOnUse" x="4" y="14" width="3" height="3">
<path d="M4.33398 14H7.00065V16.1875H4.33398V14Z" fill="white"/>
</mask>
<g mask="url(#mask17_902_1778)">
<path d="M5.74586 14.698C5.74586 14.7293 5.73545 14.7605 5.71982 14.7918C5.62607 14.9532 5.65211 15.073 5.80836 15.1876C5.84482 15.2136 5.87607 15.2449 5.90732 15.2709C5.92815 15.4011 5.94378 15.5418 6.05315 15.6407C5.7667 15.6876 5.47503 15.422 5.4542 15.1303C5.44378 14.974 5.4542 14.8282 5.5844 14.7136C5.63128 14.6772 5.68336 14.6303 5.74586 14.698Z" fill="#B8BBC1"/>
</g>
<mask id="mask18_902_1778" style="mask-type:luminance" maskUnits="userSpaceOnUse" x="5" y="14" width="2" height="3">
<path d="M5.66602 14H6.99935V16.1875H5.66602V14Z" fill="white"/>
</mask>
<g mask="url(#mask18_902_1778)">
<path d="M6.00977 15.3125C6.30664 15.3906 6.59831 15.349 6.88477 15.2656C6.9056 15.2604 6.93164 15.2552 6.95247 15.25C6.94727 15.4271 6.80664 15.6042 6.62956 15.6667C6.45247 15.7292 6.24414 15.6719 6.11914 15.526C6.06706 15.4635 6.02018 15.3958 6.00977 15.3125Z" fill="#BBBDC1"/>
</g>
<mask id="mask19_902_1778" style="mask-type:luminance" maskUnits="userSpaceOnUse" x="5" y="14" width="4" height="3">
<path d="M5.66602 14H8.33268V16.1875H5.66602V14Z" fill="white"/>
</mask>
<g mask="url(#mask19_902_1778)">
<path d="M7.04167 15.1875C7.25 15.1719 7.40104 15.0104 7.41146 14.7812C7.55208 14.9635 7.55208 15.1563 7.44792 15.349C7.33333 15.5625 7.15104 15.6667 6.89062 15.6615C7.02083 15.5208 7.05729 15.3646 7.04167 15.1875Z" fill="#BABDC1"/>
</g>
<path d="M13.3066 13.6042C13.2025 13.6198 13.0983 13.6302 12.9993 13.6459C12.8952 13.6615 12.8275 13.6407 12.8483 13.5209C12.8431 13.3177 12.8431 13.1146 12.8379 12.9115C12.8535 12.8854 12.8743 12.8802 12.9004 12.9063C13.1087 13.099 13.2546 13.3229 13.3066 13.6042Z" fill="#FE874F"/>
<mask id="mask20_902_1778" style="mask-type:luminance" maskUnits="userSpaceOnUse" x="9" y="14" width="4" height="3">
<path d="M9.66602 14H12.3327V16.1875H9.66602V14Z" fill="white"/>
</mask>
<g mask="url(#mask20_902_1778)">
<path d="M10.5723 15.1873C10.7389 15.1925 10.8691 15.1353 10.9473 14.979C10.9525 14.9686 10.9681 14.9582 10.9837 14.9478C11.0827 15.2967 10.7754 15.6769 10.416 15.6457C10.5462 15.5155 10.5775 15.3592 10.5723 15.1873Z" fill="#B9BCC4"/>
</g>
<path d="M4.90104 2.89603C4.83333 2.89603 4.77083 2.89603 4.75521 2.98457C4.74479 3.0679 4.60937 3.12519 4.70312 3.23457C4.71354 3.25019 4.68229 3.29186 4.65104 3.30228V3.30748C4.63021 3.28665 4.625 3.26582 4.63021 3.24498C4.56771 3.19811 4.49479 3.20853 4.42708 3.20332C4.26563 3.1929 4.13542 3.12519 4.01562 3.0054C4.3125 2.93249 4.59896 2.84394 4.90104 2.89603Z" fill="#F1A169"/>
<path d="M13.4111 6.53635C13.385 6.59364 13.3381 6.59885 13.2861 6.58843C13.0152 6.53635 12.7548 6.45301 12.5256 6.30718C12.4944 6.29156 12.4423 6.26552 12.4579 6.22906C12.4736 6.18739 12.5256 6.20822 12.5569 6.21343C12.7131 6.23947 12.8746 6.27072 13.0309 6.29676C13.0621 6.30718 13.0934 6.3176 13.1246 6.28635C13.2184 6.36968 13.3121 6.45301 13.4111 6.53635Z" fill="#FDB97A"/>
<path d="M9.19271 13.8071C9.21875 14.0623 9.22917 14.328 9.35938 14.5623C9.32813 14.6092 9.29688 14.6405 9.23438 14.6092C9.18229 14.5884 9.13021 14.5988 9.0625 14.6144C9.10417 14.3436 9.15104 14.0728 9.19271 13.8071Z" fill="#E5855D"/>
<path d="M5.51497 9.48436C5.56706 9.56769 5.48372 9.63019 5.47331 9.70311C5.33268 9.63019 5.18685 9.5729 5.05664 9.47915C5.06185 9.46353 5.06185 9.4479 5.06185 9.42707C5.07747 9.34894 5.10872 9.32811 5.19206 9.36457C5.29622 9.41144 5.4056 9.44269 5.51497 9.48436Z" fill="#A5A6A7"/>
<path d="M14.2344 6.82292C14.1302 6.79687 14.0208 6.77604 13.9167 6.75521C13.9115 6.75521 13.9115 6.75521 13.9062 6.75521C13.9167 6.74479 13.9219 6.73958 13.9271 6.73438C14.0573 6.73438 14.1875 6.73438 14.349 6.73438C14.2969 6.77604 14.2656 6.79687 14.2344 6.82292Z" fill="#F7A97E"/>
<path d="M4.63021 3.24463C4.65104 3.26025 4.65104 3.28109 4.65104 3.30192C4.5625 3.354 4.47396 3.32275 4.39062 3.2863C4.46875 3.27067 4.54688 3.24463 4.63021 3.24463Z" fill="#FEBB7D"/>
<path d="M13.9941 6.57812C14.0879 6.57812 14.1816 6.57812 14.2754 6.57812C14.1816 6.60417 14.0879 6.60417 13.9941 6.57812Z" fill="#83C0D9"/>
<path d="M7.19737 12.9323C7.17133 12.8646 7.18175 12.7969 7.18175 12.7344C7.20258 12.7969 7.19737 12.8646 7.19737 12.9323Z" fill="#FE8550"/>
<path d="M7.05819 5.7238C7.08423 5.90088 7.09465 6.08317 7.03215 6.26025C6.84986 6.77588 6.30298 7.06754 5.75611 6.93213C5.73007 6.92692 5.70402 6.92171 5.67798 6.9165C5.52173 6.9165 5.41757 6.81755 5.30298 6.729C4.99048 6.44255 4.88111 6.09359 4.99048 5.68213C5.00611 5.62484 5.02173 5.56755 5.07902 5.5415C5.28736 5.1613 5.60507 4.95296 6.04777 4.94775C6.48527 4.94775 6.8759 5.229 7.02173 5.64046C7.03215 5.6665 7.02694 5.70296 7.05819 5.7238Z" fill="#43141F"/>
<path d="M11.0887 6.69779C10.9741 6.79154 10.8439 6.85404 10.7085 6.91654C10.37 7.00508 10.0471 6.96862 9.7606 6.75508C9.44289 6.5155 9.30226 6.19779 9.35435 5.80195C9.35955 5.77591 9.35955 5.74466 9.36476 5.71862C9.43247 5.50508 9.54705 5.31758 9.72935 5.17175C10.2346 4.7707 10.9793 4.92175 11.2918 5.48945C11.3075 5.5207 11.3231 5.55195 11.3387 5.5832C11.495 6.00508 11.4012 6.37487 11.0887 6.69779Z" fill="#43141F"/>
<path d="M5.07849 5.54149C4.89619 5.9894 4.98474 6.38003 5.32849 6.71857C5.31807 6.76024 5.2764 6.76545 5.23994 6.77586C4.93265 6.83836 4.68265 6.99982 4.45869 7.21336C4.41182 7.26024 4.36495 7.30711 4.31286 7.35399C4.28161 7.38524 4.24515 7.41128 4.19828 7.40607C4.18265 7.39565 4.17224 7.38003 4.16182 7.36961C4.02119 7.08836 3.92744 6.8019 3.89099 6.49461C3.92744 6.45295 3.97432 6.44253 4.01599 6.4269C4.14619 6.39045 4.2764 6.35399 4.4014 6.27586C4.26078 6.22899 4.13057 6.27065 4.00036 6.27586C3.95349 6.27586 3.91182 6.28628 3.87536 6.24982C3.85453 5.9269 3.89099 5.59878 3.91182 5.27586C3.91703 5.27586 3.92744 5.27586 3.93265 5.27586C4.09411 5.27586 4.26078 5.26545 4.42224 5.28107C4.66703 5.30711 4.87536 5.41649 5.07849 5.54149Z" fill="#FE854F"/>
<path d="M4.40625 1.01562C4.92708 1.18229 5.41667 1.40625 5.84896 1.74479C5.34375 1.54167 4.875 1.27604 4.40625 1.01562Z" fill="#FBF9F4"/>
<path d="M10.1716 4.14578C10.1351 4.15099 10.1143 4.13536 10.1039 4.0989C10.0935 4.06245 10.1195 4.04682 10.1508 4.0312C10.307 3.95828 10.4789 3.91661 10.6508 3.89057C10.7081 3.88536 10.7706 3.86453 10.8331 3.87495C10.8695 3.88015 10.8956 3.90099 10.8956 3.94265C10.9008 3.97911 10.8695 3.99474 10.8383 3.99995C10.6143 4.03641 10.3904 4.07807 10.1716 4.14578Z" fill="#FDFBF8"/>
<path d="M5.67745 3.875C5.89099 3.89583 6.10453 3.94792 6.30765 4.03125C6.3389 4.04687 6.37015 4.06771 6.35453 4.10938C6.34411 4.15625 6.30765 4.15625 6.26599 4.14583C6.06286 4.08854 5.85974 4.02604 5.6462 4.00521C5.60974 4 5.55765 3.99479 5.56286 3.9375C5.56807 3.875 5.62015 3.875 5.67745 3.875Z" fill="#FCFCF9"/>
<path d="M8.62538 7.64064C8.62017 7.75522 8.60454 7.85939 8.5785 7.95835C8.53683 8.13022 8.40663 8.23439 8.23996 8.2448C8.04725 8.25001 7.91704 8.16147 7.85454 7.9896C7.82329 7.89584 7.81808 7.80209 7.80767 7.70835C7.79725 7.65626 7.78683 7.64064 7.72433 7.65105C7.57329 7.66668 7.41704 7.65626 7.29204 7.5521C7.21392 7.48439 7.16704 7.41147 7.14621 7.31251C7.13579 7.26564 7.14621 7.21876 7.19829 7.20835C7.25037 7.19272 7.27121 7.22397 7.28683 7.27605C7.34412 7.44793 7.43787 7.51043 7.62017 7.51043C7.88579 7.51564 8.11496 7.29689 8.13058 7.03647C8.13579 6.97397 8.13579 6.91147 8.13579 6.85418C8.13058 6.69272 8.04725 6.60418 7.891 6.57293C7.80246 6.5573 7.73475 6.51043 7.71913 6.42189C7.7035 6.33335 7.75558 6.27084 7.83371 6.2396C8.0785 6.13022 8.3285 6.13022 8.57329 6.2448C8.65663 6.28126 8.71912 6.33855 8.7035 6.43751C8.68787 6.54168 8.60454 6.57293 8.52121 6.59376C8.50038 6.59897 8.47954 6.59897 8.45871 6.60418C8.35975 6.63022 8.28163 6.72397 8.28163 6.83335C8.28163 6.91668 8.28163 7.00522 8.29204 7.09376C8.32329 7.38022 8.66704 7.58855 8.93267 7.4896C9.02642 7.45834 9.09933 7.40105 9.11496 7.29168C9.12537 7.2448 9.13579 7.19272 9.2035 7.20314C9.27642 7.21876 9.266 7.27605 9.26079 7.32293C9.24517 7.47918 9.07329 7.63022 8.891 7.65105C8.80246 7.66147 8.71912 7.66147 8.62538 7.64064Z" fill="#451220"/>
<path d="M4.19727 7.40625C4.4056 7.22396 4.58789 7.01563 4.83789 6.88021C4.99414 6.79688 5.16081 6.75521 5.32747 6.71875C5.43685 6.79688 5.55664 6.85937 5.67643 6.91667C5.47852 6.96875 5.27018 6.98958 5.08268 7.08854C5.00976 7.125 4.94206 7.15625 4.86914 7.22396C5.05664 7.20833 5.22331 7.17188 5.41602 7.19271C5.16081 7.27604 4.93685 7.36979 4.74935 7.53646C4.90039 7.53125 5.04622 7.54167 5.19206 7.5625C5.04102 7.63542 4.86393 7.65625 4.71289 7.74479C4.86393 7.70312 5.01498 7.67187 5.17643 7.66146C4.9681 7.73958 4.74935 7.78646 4.57227 7.91667C4.56185 7.91667 4.55664 7.91667 4.55143 7.91667C4.42122 7.75521 4.27539 7.60417 4.19727 7.40625Z" fill="#FEB97C"/>
<path d="M7.55125 11.005C7.53042 10.8905 7.52 10.7967 7.56167 10.6821C7.59292 10.7186 7.62938 10.7655 7.66583 10.8019C7.81688 10.9634 8.01479 11.0467 8.21271 11.13C8.23875 11.1405 8.26479 11.1561 8.29083 11.1405C8.32209 11.1144 8.29083 11.0832 8.28563 11.0571C8.27 10.9998 8.24917 10.9478 8.24917 10.8644C8.36896 10.9321 8.48875 10.9738 8.61375 10.9738C8.63979 10.9738 8.67625 10.9842 8.67104 10.9582C8.65542 10.8436 8.73354 10.9061 8.77 10.9009C8.84292 10.9009 8.91063 10.9009 8.97833 10.9009C8.99917 10.9009 9.03042 10.8957 9.04083 10.9269C9.04604 10.9478 9.02521 10.9634 9.00958 10.9738C8.90021 11.0832 8.80646 11.2134 8.61896 11.1665C8.61375 11.2082 8.645 11.2186 8.66583 11.229C8.70229 11.2446 8.74396 11.2603 8.73354 11.3019C8.72833 11.354 8.68146 11.3644 8.63979 11.3696C8.55646 11.38 8.47833 11.3696 8.40021 11.3332C8.37938 11.328 8.35333 11.3228 8.32208 11.3123C8.34292 11.3488 8.36375 11.3748 8.37938 11.4061C8.38979 11.4321 8.42625 11.4634 8.38979 11.4946C8.36375 11.5259 8.32208 11.5155 8.28563 11.4946C8.21792 11.453 8.15021 11.4217 8.09292 11.3644C8.06167 11.3384 8.03042 11.3123 7.98875 11.3071C7.98354 11.3592 8.04083 11.4321 7.97833 11.453C7.93667 11.4686 7.895 11.3957 7.85854 11.3592C7.81167 11.3071 7.77521 11.255 7.72833 11.1978C7.72833 11.2134 7.72313 11.2186 7.72313 11.2238C7.73354 11.2655 7.75438 11.328 7.71271 11.3488C7.67104 11.3696 7.645 11.3071 7.61375 11.2811C7.42625 11.1405 7.28563 10.9634 7.23354 10.7342C7.22313 10.6821 7.21792 10.63 7.22833 10.5571C7.30646 10.7342 7.38979 10.88 7.55125 11.005Z" fill="#CBD3D8"/>
<path d="M9.22316 10.6147C9.1867 10.7814 9.00441 10.8908 8.8742 10.8231C8.84816 10.8127 8.8117 10.797 8.81691 10.7658C8.82733 10.7293 8.86378 10.7397 8.88982 10.745C9.02003 10.7502 9.11899 10.6772 9.22316 10.6147Z" fill="#D0D7DB"/>
<path d="M5.43294 10.0522C5.37565 10.1147 5.30794 10.1772 5.25586 10.2554C5.2819 10.0731 5.39648 9.93766 5.47461 9.78662C5.46419 9.86475 5.45898 9.94808 5.45378 10.0262C5.44857 10.0366 5.44336 10.0418 5.43294 10.0522Z" fill="#D7C2B1"/>
<path d="M3.87547 6.25003C4.04734 6.23961 4.22443 6.19794 4.40151 6.22919C4.42755 6.2344 4.46922 6.22399 4.47443 6.26565C4.47964 6.2969 4.44318 6.31253 4.41714 6.32294C4.24526 6.39586 4.07859 6.46357 3.89109 6.49482C3.89109 6.41149 3.85984 6.33336 3.87547 6.25003Z" fill="#FDB97B"/>
<path d="M6.35938 5.80225C6.22917 5.80225 6.125 5.69287 6.125 5.56266C6.125 5.43245 6.22917 5.3335 6.36458 5.3335C6.5 5.3335 6.60417 5.43246 6.60417 5.56787C6.60417 5.69808 6.49479 5.80225 6.35938 5.80225Z" fill="#FDFDFC"/>
<path d="M5.15039 6.03662C5.29102 6.48454 5.5931 6.72412 6.04622 6.79183C5.7181 6.84912 5.18164 6.55745 5.15039 6.03662Z" fill="#EDC6C7"/>
<path d="M10.8648 5.57295C10.8648 5.70316 10.7554 5.80212 10.6252 5.80212C10.495 5.80212 10.3856 5.68753 10.3908 5.55733C10.3908 5.43233 10.495 5.33337 10.6304 5.33858C10.7658 5.33337 10.87 5.43753 10.8648 5.57295Z" fill="#FDFDFC"/>
<path d="M9.52539 6.09375C9.66081 6.44271 9.88997 6.66667 10.2493 6.77604C9.88476 6.76563 9.55143 6.40625 9.52539 6.09375Z" fill="#E1BCC6"/>
<path d="M8.21354 7.3125C8.28125 7.41146 8.35417 7.5 8.45312 7.55729C8.47917 7.57292 8.49479 7.58854 8.48958 7.625C8.46875 7.72917 8.45833 7.83854 8.43229 7.94271C8.41146 8.04688 8.33333 8.09896 8.22396 8.10417C8.11458 8.10937 8.03646 8.0625 8 7.96354C7.95833 7.85417 7.95313 7.73437 7.9375 7.61458C7.9375 7.58854 7.94792 7.57292 7.96875 7.55729C8.06771 7.49479 8.14063 7.41146 8.21354 7.3125Z" fill="#FC824B"/>
<path d="M8.1875 6.30225C8.29687 6.30746 8.40104 6.31266 8.5 6.35433C8.53125 6.36995 8.56771 6.38558 8.56771 6.42204C8.56771 6.46891 8.52083 6.45329 8.49479 6.4585C8.40625 6.47933 8.32813 6.51579 8.26042 6.57308C8.21875 6.60433 8.18229 6.60954 8.15625 6.56787C8.09375 6.48975 8.01563 6.4585 7.92188 6.43766C7.90104 6.43245 7.86458 6.44287 7.85938 6.41162C7.85938 6.38037 7.89062 6.36475 7.91146 6.35433C7.99479 6.30225 8.09375 6.30746 8.1875 6.30225Z" fill="#FAD3D2"/>
</svg>
