<svg width="40" height="45" viewBox="0 0 40 45" fill="none" xmlns="http://www.w3.org/2000/svg">
<path fill-rule="evenodd" clip-rule="evenodd" d="M17.6359 31.6492C19.0282 29.4284 20.4205 28.54 22.741 28.54C25.5255 28.54 27.846 30.3167 27.846 32.5375C27.846 36.535 22.741 40.5325 17.6359 44.53C12.5308 40.5325 7.42578 36.535 7.42578 32.5375C7.42578 30.3167 9.74626 28.54 12.5308 28.54C15.3154 28.54 16.2436 29.4284 17.6359 31.6492Z" fill="#FF2047"/>
<path fill-rule="evenodd" clip-rule="evenodd" d="M32.0206 13.438C33.4128 12.1055 34.8051 11.6613 36.6615 12.1055C38.982 12.9938 40.3743 14.7705 39.9102 16.5472C38.982 19.6563 33.8769 21.433 29.236 23.6538C25.9873 19.2122 22.7386 15.2147 23.6668 12.1055C24.1309 10.3288 26.4514 9.44051 28.7719 9.88467C30.6283 10.773 31.5565 11.6613 32.0206 13.438Z" fill="#FF2047"/>
<path fill-rule="evenodd" clip-rule="evenodd" d="M8.35373 3.66652C8.81783 1.88985 9.74602 0.557355 11.6024 0.113189C13.9229 -0.330977 16.2434 0.557355 16.2434 2.33402C17.1716 5.44318 13.9229 9.88484 10.6742 13.8823C6.03325 11.6615 0.928193 9.44067 0 6.33151C0 4.55485 1.39229 2.77818 3.71277 1.88985C5.56916 1.44569 6.49735 2.33402 8.35373 3.66652Z" fill="#FF2047"/>
</svg>
