<svg width="44" height="44" viewBox="0 0 44 44" fill="none" xmlns="http://www.w3.org/2000/svg">
<ellipse cx="21.9858" cy="21.9858" rx="21.9858" ry="21.9858" fill="#283245"/>
<path fill-rule="evenodd" clip-rule="evenodd" d="M22 18C19.791 18 18 19.79 18 22C18 24.209 19.791 26 22 26C24.209 26 26 24.209 26 22C26 19.79 24.209 18 22 18ZM34 18C31.791 18 30 19.79 30 22C30 24.209 31.791 26 34 26C36.209 26 38 24.209 38 22C38 19.79 36.209 18 34 18ZM10 18C7.791 18 6 19.79 6 22C6 24.209 7.791 26 10 26C12.209 26 14 24.209 14 22C14 19.79 12.209 18 10 18Z" fill="#F8F3E3"/>
</svg>
