<svg width="21" height="21" viewBox="0 0 21 21" fill="none" xmlns="http://www.w3.org/2000/svg">
<path d="M8.18448 9.90495C7.78655 10.3029 7.52127 10.7892 7.38863 11.3198L6.72542 14.0168C6.6812 14.1716 6.81384 14.3042 6.96859 14.26L9.66564 13.5968C10.1962 13.4642 10.6826 13.1989 11.0805 12.801L11.2131 12.6683L19.4811 4.40032C19.5696 4.31189 19.5696 4.20136 19.4811 4.11293L16.8725 1.50431C16.7841 1.41588 16.6735 1.41588 16.5851 1.50431L8.31712 9.77231L8.18448 9.90495Z" fill="#F8F3E3"/>
<path d="M20.4028 0.596887C19.607 -0.198962 18.3027 -0.198962 17.5068 0.596887C17.4847 0.618994 17.4847 0.663208 17.5068 0.685315L20.3144 3.4929C20.3365 3.515 20.3807 3.515 20.4028 3.4929C21.1987 2.69705 21.1987 1.39274 20.4028 0.596887Z" fill="#F8F3E3"/>
<path d="M18.9678 6.78827C18.393 6.78827 17.9287 7.25252 17.9287 7.8273V17.7754C17.9287 18.3502 17.4424 18.8366 16.8676 18.8366H3.16129C2.58651 18.8366 2.10016 18.3502 2.10016 17.7754V4.06912C2.10016 3.49434 2.58651 3.00799 3.16129 3.00799H13.1094C13.6842 3.00799 14.1484 2.54374 14.1484 1.96896C14.1484 1.39418 13.6842 0.929932 13.1094 0.929932H3.16129C1.41484 0.929932 0 2.34478 0 4.09123V17.7975C0 19.544 1.41484 20.9588 3.16129 20.9588H16.8676C18.6141 20.9588 20.0289 19.544 20.0289 17.7975V7.84941C20.0068 7.25252 19.5425 6.78827 18.9678 6.78827Z" fill="#F8F3E3"/>
</svg>
