<svg width="60" height="60" viewBox="0 0 60 60" fill="none" xmlns="http://www.w3.org/2000/svg">
<path d="M46.16 48.74L52.64 45.5L35 39L41.5 56.64L44.74 50.16L51.54 56.96C51.74 57.16 51.99 57.25 52.25 57.25C52.51 57.25 52.76 57.15 52.96 56.96C53.35 56.57 53.35 55.94 52.96 55.55L46.16 48.74ZM38.38 42.37L47.61 45.77L43.72 47.71L41.78 51.6L38.38 42.37Z" fill="#F8F3E3"/>
<path d="M42 0H18C8.08 0 0 8.08 0 18V32C0 41.59 7.54 49.45 17 49.97V58.31C17 59 17.41 59.61 18.05 59.88C18.26 59.97 18.48 60.01 18.7 60.01C19.14 60.01 19.57 59.84 19.9 59.51L21.78 57.63C23.69 55.72 25.87 54.13 28.27 52.89C28.76 52.64 28.95 52.03 28.7 51.54C28.45 51.05 27.84 50.85 27.35 51.11C24.77 52.44 22.41 54.16 20.36 56.21L19 57.59V48H18C9.18 48 2 40.82 2 32V18C2 9.18 9.18 2 18 2H42C50.82 2 58 9.18 58 18V32C58 34.31 57.5 36.55 56.52 38.68C56.29 39.18 56.51 39.77 57.01 40.01C57.51 40.24 58.1 40.02 58.34 39.52C59.44 37.13 60 34.6 60 32V18C60 8.08 51.92 0 42 0Z" fill="#F8F3E3"/>
</svg>
