<svg width="40" height="39" viewBox="0 0 40 39" fill="none" xmlns="http://www.w3.org/2000/svg">
<path d="M25.925 17.1566C25.8424 16.4404 25.7267 15.7085 25.5705 14.9969C25.5555 14.9288 25.5402 14.861 25.5245 14.7935C25.4632 14.9377 25.3813 15.0701 25.2792 15.1863C25.0043 15.4994 24.5913 15.669 24.1348 15.5736C23.7024 15.4833 23.3123 15.1732 22.9853 14.7104C22.6838 14.2983 22.5218 13.8505 22.4919 13.4295C22.2559 13.443 22.004 13.3688 21.8083 13.1843C21.6049 12.9925 21.5067 12.7241 21.506 12.4342L25.925 17.1566ZM25.925 17.1566L25.4345 17.0876C25.0066 18.1398 24.2113 18.9227 23.0535 19.0901C21.8729 19.2282 21.108 18.7836 20.6405 18.0884C20.1505 17.3596 19.9588 16.3055 20.0876 15.2341C20.2162 14.1641 20.6549 13.1582 21.3244 12.521C21.3832 12.465 21.444 12.4117 21.5068 12.3612L25.925 17.1566ZM13.557 22.0432C13.5569 22.0432 13.5578 22.043 13.5599 22.0424L13.5592 22.0426C13.5578 22.043 13.5571 22.0432 13.557 22.0432ZM26.7663 21.553L26.7641 21.5526L26.7663 21.553ZM23.1631 15.5007C23.0044 15.4035 22.8531 15.2757 22.6976 15.1293C22.645 15.0797 22.5811 15.017 22.5146 14.9518C22.4163 14.8553 22.3121 14.7532 22.23 14.6792C22.0823 14.5461 21.877 14.3783 21.6292 14.3059C21.3268 14.2176 21.0255 14.2866 20.7728 14.5022L20.7592 14.5138L20.7465 14.5263C20.5081 14.761 20.4212 15.0911 20.4033 15.3817C20.3847 15.6852 20.4354 16.0203 20.5459 16.3487C20.7666 17.0049 21.2502 17.7029 22.039 18.1196C22.818 18.5354 23.593 18.5101 24.1832 18.2409C24.7351 17.9891 25.2168 17.4639 25.1929 16.8387L25.1924 16.825L25.1911 16.8115C25.1631 16.5101 25.044 16.2557 24.826 16.0691C24.63 15.9013 24.394 15.8248 24.2082 15.7772C24.111 15.7524 24.0102 15.7316 23.917 15.7127C23.9064 15.7105 23.8958 15.7083 23.8853 15.7062C23.8004 15.689 23.7198 15.6727 23.6374 15.6536C23.4689 15.6147 23.3115 15.5686 23.1631 15.5007Z" fill="#F8F3E3" stroke="#F8F3E3"/>
<mask id="path-2-inside-1_702_667" fill="white">
<path d="M26.2694 23.1607C26.2393 23.3041 26.3314 23.4459 26.4749 23.476C27.2791 23.646 28.0674 23.9312 28.1772 24.0907C28.1896 24.4326 27.4474 25.3643 26.8274 25.0579C26.5032 24.9232 26.2941 25.3909 26.6095 25.5432C27.1303 25.7664 27.6387 25.6212 28.0939 25.2173C28.473 24.8736 28.8078 24.3015 28.6803 23.9188C28.5173 23.4299 27.2968 23.1057 26.5829 22.9552C26.4394 22.9251 26.2977 23.0172 26.2676 23.1607L26.2694 23.1607Z"/>
</mask>
<path d="M26.2694 23.1607C26.2393 23.3041 26.3314 23.4459 26.4749 23.476C27.2791 23.646 28.0674 23.9312 28.1772 24.0907C28.1896 24.4326 27.4474 25.3643 26.8274 25.0579C26.5032 24.9232 26.2941 25.3909 26.6095 25.5432C27.1303 25.7664 27.6387 25.6212 28.0939 25.2173C28.473 24.8736 28.8078 24.3015 28.6803 23.9188C28.5173 23.4299 27.2968 23.1057 26.5829 22.9552C26.4394 22.9251 26.2977 23.0172 26.2676 23.1607L26.2694 23.1607Z" fill="#F8F3E3"/>
<path d="M26.2694 23.1607L27.2481 23.3661L27.4998 22.1666L26.2742 22.1607L26.2694 23.1607ZM26.4749 23.476L26.6817 22.4976L26.6802 22.4973L26.4749 23.476ZM28.1772 24.0907L29.1766 24.0544L29.166 23.7633L29.0007 23.5234L28.1772 24.0907ZM26.8274 25.0579L27.2705 24.1614L27.2411 24.1469L27.2109 24.1344L26.8274 25.0579ZM26.6095 25.5432L26.1745 26.4437L26.1948 26.4535L26.2155 26.4624L26.6095 25.5432ZM28.0939 25.2173L28.7576 25.9654L28.7656 25.9582L28.0939 25.2173ZM28.6803 23.9188L29.629 23.6027L29.629 23.6026L28.6803 23.9188ZM26.5829 22.9552L26.7893 21.9767L26.7883 21.9765L26.5829 22.9552ZM26.2676 23.1607L25.2889 22.9553L25.0372 24.1547L26.2628 24.1606L26.2676 23.1607ZM25.2907 22.9553C25.1477 23.6368 25.583 24.3106 26.2695 24.4547L26.6802 22.4973C27.0798 22.5811 27.3309 22.9715 27.2481 23.3661L25.2907 22.9553ZM26.268 24.4543C26.629 24.5307 26.9824 24.6323 27.2466 24.7278C27.3804 24.7761 27.4727 24.8162 27.5248 24.8427C27.5513 24.8562 27.5511 24.8579 27.5346 24.8465C27.5339 24.846 27.4418 24.7859 27.3537 24.658L29.0007 23.5234C28.8851 23.3556 28.7444 23.2517 28.6764 23.2044C28.5927 23.1462 28.5066 23.0982 28.4312 23.0599C28.2794 22.9827 28.1038 22.911 27.9262 22.8468C27.5678 22.7173 27.1249 22.5913 26.6817 22.4976L26.268 24.4543ZM27.1779 24.1269C27.1753 24.0566 27.183 24.0031 27.1889 23.9725C27.195 23.9407 27.2019 23.9195 27.2052 23.9103C27.2111 23.8933 27.2118 23.8968 27.1987 23.9188C27.1868 23.9389 27.1686 23.9657 27.1443 23.9955C27.1202 24.025 27.0938 24.0529 27.0673 24.077C27.0406 24.1012 27.0183 24.1174 27.0029 24.127C26.9871 24.1368 26.9856 24.1352 26.9996 24.1308C27.0144 24.1261 27.0508 24.117 27.1038 24.1191C27.1304 24.1202 27.159 24.124 27.1886 24.1314C27.2183 24.1389 27.2459 24.1492 27.2705 24.1614L26.3842 25.9543C27.2744 26.3944 28.0698 25.8681 28.4115 25.5579C28.6162 25.3721 28.7905 25.1555 28.9187 24.9395C29.0211 24.7669 29.1904 24.4369 29.1766 24.0544L27.1779 24.1269ZM27.2109 24.1344C25.6603 23.4904 24.7205 25.7413 26.1745 26.4437L27.0445 24.6428C27.2019 24.7189 27.3528 24.8722 27.4196 25.0867C27.4802 25.2812 27.4529 25.464 27.3912 25.6018C27.3295 25.7396 27.211 25.8821 27.0248 25.9664C26.8194 26.0594 26.6045 26.0481 26.4438 25.9814L27.2109 24.1344ZM26.2155 26.4624C27.1905 26.8802 28.1022 26.5468 28.7576 25.9654L27.4303 24.4693C27.2931 24.5909 27.1961 24.6305 27.1462 24.6423C27.1095 24.6509 27.0707 24.653 27.0034 24.6241L26.2155 26.4624ZM28.7656 25.9582C29.0404 25.709 29.2988 25.3806 29.4742 25.0245C29.6326 24.7029 29.8166 24.1657 29.629 23.6027L27.7316 24.235C27.6983 24.1351 27.7097 24.0687 27.7102 24.0655C27.7109 24.0617 27.7063 24.0874 27.68 24.1409C27.625 24.2524 27.5265 24.382 27.4223 24.4764L28.7656 25.9582ZM29.629 23.6026C29.4857 23.1727 29.1642 22.905 28.9485 22.7576C28.7116 22.5957 28.4432 22.4723 28.2 22.3779C27.7101 22.1877 27.1646 22.0559 26.7893 21.9767L26.3765 23.9336C26.715 24.005 27.1368 24.1106 27.4763 24.2424C27.6479 24.309 27.7598 24.3677 27.8199 24.4088C27.9012 24.4643 27.7934 24.4205 27.7316 24.2351L29.629 23.6026ZM26.7883 21.9765C26.1068 21.8335 25.433 22.2688 25.2889 22.9553L27.2463 23.366C27.1624 23.7655 26.772 24.0167 26.3775 23.9338L26.7883 21.9765ZM26.2628 24.1606L26.2646 24.1606L26.2742 22.1607L26.2724 22.1607L26.2628 24.1606Z" fill="#F8F3E3" mask="url(#path-2-inside-1_702_667)"/>
<mask id="path-4-inside-2_702_667" fill="white">
<path d="M37.966 28.3652C41.4486 24.934 40.0527 17.9881 36.834 11.6696C37.1228 11.6236 37.3106 11.5846 37.3389 11.5775C37.431 11.558 37.5054 11.4889 37.5355 11.3986C37.5639 11.3082 37.5426 11.209 37.4806 11.14L33.9997 7.28707C30.3541 2.77346 25.2982 -0.154669 19.9275 0.00631925C16.6982 -0.101738 11.0156 1.79193 7.4956 5.43049C2.29455 10.1445 -2.39271 22.849 1.35038 27.5399C2.88621 30.468 7.74548 32.0888 13.3411 32.7604C13.3163 34.1811 13.5466 35.5079 14.0195 36.4698C14.6484 37.7842 16.3915 37.5451 17.4402 36.8808C17.3835 37.6053 18.0389 38.0287 18.7971 38.018C19.6687 38.0039 20.6961 37.5734 20.9707 36.5796C21.7714 36.8241 23.1159 36.6027 23.1885 35.6868C23.231 35.2829 23.1513 34.6363 22.9954 34.0039C23.3692 33.8303 23.6296 33.4885 23.7607 33.0155C25.7252 32.8915 27.587 32.6771 29.2275 32.3866C29.2594 33.1855 29.5623 33.7612 30.0866 34.0039C29.9307 34.6363 29.8493 35.2829 29.8935 35.6868C29.9662 36.6026 31.3107 36.8241 32.1114 36.5796C32.3877 37.5734 33.4134 38.0038 34.2849 38.018C35.0414 38.0304 35.6986 37.6053 35.6419 36.8808C36.6906 37.5451 38.4336 37.7842 39.0625 36.4698C39.8172 34.934 39.9571 32.4646 39.4186 30.1758C39.2538 29.4726 38.7685 28.8685 37.9678 28.3672L37.966 28.3652ZM33.2184 11.0089C32.0847 10.5767 31.6418 7.31545 32.4602 6.3765L36.7648 11.1418C35.9641 11.2675 34.299 11.45 33.2202 11.0089L33.2184 11.0089ZM29.6773 21.2051C29.594 19.2158 29.6383 11.5544 32.0493 10.4933C32.4656 11.3241 32.9881 11.5827 33.8366 11.7244C31.7906 12.7571 31.2309 18.5426 33.7729 19.2777C35.0182 19.6214 35.9181 18.454 36.3273 16.9288C36.5328 18.3796 36.6001 19.7028 36.6036 20.4433C35.4097 20.2573 32.8535 20.0872 29.6757 21.205L29.6773 21.2051ZM35.9554 14.9166C35.92 15.6234 35.4116 15.9972 34.7721 15.1061C33.8562 13.8785 34.5205 12.2222 35.509 13.5668C35.5568 13.6288 35.5993 13.6943 35.6383 13.7581C35.757 14.1319 35.8633 14.5216 35.9554 14.9166ZM34.0015 12.7625C34.1078 13.4038 33.5179 13.604 33.4223 12.9521C33.3177 12.3161 33.9041 12.1124 34.0015 12.7625ZM34.0458 16.7624C34.6516 17.0565 35.2167 16.7412 35.3708 17.4533C35.486 18.1069 34.8093 18.959 33.8722 18.4205C32.9492 17.8961 32.5348 16.4524 32.7562 16.0007C33.0255 15.5348 33.4542 16.3922 34.044 16.7624H34.0458ZM13.3626 32.25C7.33804 31.6158 3.60221 29.9843 1.79324 27.2457C-1.78328 22.7746 2.84547 10.3496 7.84958 5.82202C14.6982 -0.907745 24.8749 -1.35398 31.7675 5.58642C31.8897 5.69979 32.0137 5.81848 32.1377 5.94248C31.275 6.8973 31.4043 8.75905 31.8419 10.015C28.6781 11.5827 29.1705 20.3441 29.1546 21.3985C29.105 21.418 29.0572 21.4357 29.0093 21.4552C28.8729 21.5101 28.8074 21.6642 28.8605 21.8006C28.9013 21.9051 29.0022 21.9671 29.1068 21.9671C33.4911 20.2046 37.2092 21.0619 37.1861 21.1045C37.5227 21.1913 37.6679 20.7006 37.3314 20.5925C37.3136 20.5872 37.2446 20.5677 37.1294 20.5429C37.0798 19.5367 37.1666 15.2552 35.3863 11.8114C35.6945 11.8008 35.9868 11.776 36.249 11.7459C39.1045 17.1451 40.7378 23.8944 38.2489 27.1042C38.008 27.4514 37.7423 27.7756 37.4589 28.0802C36.4563 27.5665 34.9133 27.1555 33.1986 26.9129C32.2615 26.7641 27.691 26.7003 27.0289 26.7003C26.834 26.7003 26.6675 26.7818 26.54 26.9288C26.4124 26.7818 26.2459 26.7003 26.0511 26.7003C25.2805 26.7074 20.7403 26.7499 19.7145 26.9377C16.0777 27.4833 14.0422 28.571 13.6649 30.1723C13.5037 30.8578 13.4028 31.5593 13.362 32.2484L13.3626 32.25ZM22.8451 33.4775C22.636 32.831 22.3562 32.2836 22.0621 32.1472C21.5926 31.9311 19.5608 31.7415 19.1587 31.7061C19.0135 31.6937 18.8841 31.8018 18.87 31.947C18.8576 32.094 18.9656 32.2216 19.1109 32.2358C20.0072 32.3155 21.5395 32.4909 21.8371 32.629C22.1117 32.7814 22.7636 34.6431 22.6591 35.6263C22.6166 36.2073 21.3836 36.1861 21.0896 36.0568C21.2331 35.2667 21.226 34.3898 20.8912 33.9204C20.7424 33.7096 20.5351 33.5927 20.296 33.5821C19.5644 33.5467 18.7088 33.5803 18.6716 33.5821C18.5246 33.5874 18.4112 33.7114 18.4165 33.8584C18.4218 34.0055 18.5458 34.1188 18.6928 34.1135C18.7017 34.1135 19.5626 34.0799 20.2694 34.1135C20.7335 34.1915 20.6964 35.3748 20.5334 36.1206C20.42 36.9106 19.9063 37.2915 19.1871 37.4438C18.691 37.5413 18.2376 37.4545 18.0551 37.2277C17.8532 36.9744 18.0268 36.5599 18.2517 36.218C18.3952 35.9983 18.56 35.8088 18.6609 35.7061C18.9019 35.4527 18.5387 35.0896 18.2854 35.3305C18.2624 35.3535 18.0356 35.5838 17.8213 35.908C16.9976 36.7742 15.1252 37.4545 14.4946 36.2357C13.7913 34.8044 13.6673 32.4732 14.1792 30.2977C14.4414 28.9178 16.6539 27.8903 19.9612 27.4422C20.8257 27.3058 25.2403 27.2367 26.0479 27.2367C26.2446 27.2579 26.2676 27.6866 26.2711 27.8159V27.8974C26.2552 28.544 25.9381 29.389 25.3765 29.5661C24.3562 29.8885 23.4776 30.0444 23.157 30.0958C23.0489 30.0019 22.9284 29.9434 22.7938 29.9363C22.0817 29.8991 19.3785 30.3048 19.2633 30.3207C19.1181 30.342 19.0189 30.4784 19.0401 30.6237C19.0614 30.7689 19.1978 30.8681 19.343 30.8469C20.2961 30.7034 22.2393 30.4412 22.7637 30.466C22.7849 30.4713 22.8097 30.489 22.8363 30.5174C22.8487 30.5386 22.8664 30.5564 22.8841 30.5741C23.2331 31.0169 23.6937 32.8822 22.8434 33.481L22.8451 33.4775ZM23.8406 31.8833C23.8052 31.4935 23.6936 30.9781 23.5005 30.5742C23.9363 30.4962 24.6838 30.3403 25.5412 30.0693C26 29.9241 26.333 29.5343 26.542 29.0738C26.7741 29.5875 27.1266 29.9382 27.5411 30.0693C28.3985 30.3403 29.1461 30.4962 29.5818 30.5742C29.3905 30.9745 29.2789 31.4865 29.2435 31.8762C27.5146 32.1809 25.69 32.3438 23.8529 32.436C23.8617 32.2624 23.86 32.0781 23.8422 31.8815L23.8406 31.8833ZM38.5844 36.2339C37.9556 37.4527 36.0796 36.7707 35.2577 35.9062C35.0433 35.5821 34.8166 35.3517 34.7936 35.3287C34.5403 35.0878 34.1771 35.451 34.418 35.7043C34.5208 35.807 34.6855 35.9984 34.829 36.218C35.054 36.5617 35.2276 36.9744 35.0239 37.2277C34.8414 37.4545 34.3879 37.5413 33.8919 37.4439C33.1727 37.2915 32.6572 36.9106 32.5456 36.1206V36.1188C32.3826 35.3748 32.3472 34.1897 32.8113 34.1135C33.5181 34.0799 34.379 34.1135 34.3879 34.1135C34.5349 34.1188 34.6589 34.0055 34.6643 33.8584C34.6696 33.7114 34.5562 33.5874 34.4092 33.5821C34.3737 33.5803 33.5163 33.5467 32.7848 33.5821C32.5456 33.5927 32.3384 33.7114 32.1896 33.9204C31.8565 34.3899 31.8477 35.2668 31.9912 36.0568C31.6971 36.1861 30.466 36.2073 30.4217 35.6263C30.3154 34.6414 30.9691 32.7796 31.2419 32.629C31.5413 32.4909 33.0736 32.3137 33.9681 32.2358C34.3153 32.1968 34.271 31.6849 33.9221 31.7061C33.5199 31.7415 31.4899 31.9293 31.0187 32.1472C30.7246 32.2818 30.4448 32.831 30.2357 33.4775C29.3872 32.8806 29.8424 31.0294 30.1861 30.5777C30.2091 30.5582 30.2304 30.5352 30.2446 30.5086C30.2676 30.4856 30.2888 30.4697 30.3083 30.4643C30.838 30.4378 32.7795 30.7017 33.7325 30.8434C33.876 30.8647 34.0124 30.7655 34.0354 30.6202C34.0567 30.475 33.9575 30.3403 33.8122 30.3173C33.6971 30.2996 30.9957 29.8975 30.2817 29.9329C30.1471 29.94 30.0267 29.9984 29.9186 30.0923C29.598 30.041 28.7194 29.8851 27.699 29.5627C27.141 29.3873 26.8239 28.5494 26.8062 27.9046V27.7842C26.8115 27.6548 26.8398 27.2545 27.0294 27.2314C27.8371 27.2314 32.2517 27.3005 33.1161 27.4369C36.4252 27.8851 38.636 28.9143 38.8981 30.2925C39.41 32.4678 39.286 34.799 38.5828 36.2305L38.5844 36.2339Z"/>
</mask>
<path d="M37.966 28.3652C41.4486 24.934 40.0527 17.9881 36.834 11.6696C37.1228 11.6236 37.3106 11.5846 37.3389 11.5775C37.431 11.558 37.5054 11.4889 37.5355 11.3986C37.5639 11.3082 37.5426 11.209 37.4806 11.14L33.9997 7.28707C30.3541 2.77346 25.2982 -0.154669 19.9275 0.00631925C16.6982 -0.101738 11.0156 1.79193 7.4956 5.43049C2.29455 10.1445 -2.39271 22.849 1.35038 27.5399C2.88621 30.468 7.74548 32.0888 13.3411 32.7604C13.3163 34.1811 13.5466 35.5079 14.0195 36.4698C14.6484 37.7842 16.3915 37.5451 17.4402 36.8808C17.3835 37.6053 18.0389 38.0287 18.7971 38.018C19.6687 38.0039 20.6961 37.5734 20.9707 36.5796C21.7714 36.8241 23.1159 36.6027 23.1885 35.6868C23.231 35.2829 23.1513 34.6363 22.9954 34.0039C23.3692 33.8303 23.6296 33.4885 23.7607 33.0155C25.7252 32.8915 27.587 32.6771 29.2275 32.3866C29.2594 33.1855 29.5623 33.7612 30.0866 34.0039C29.9307 34.6363 29.8493 35.2829 29.8935 35.6868C29.9662 36.6026 31.3107 36.8241 32.1114 36.5796C32.3877 37.5734 33.4134 38.0038 34.2849 38.018C35.0414 38.0304 35.6986 37.6053 35.6419 36.8808C36.6906 37.5451 38.4336 37.7842 39.0625 36.4698C39.8172 34.934 39.9571 32.4646 39.4186 30.1758C39.2538 29.4726 38.7685 28.8685 37.9678 28.3672L37.966 28.3652ZM33.2184 11.0089C32.0847 10.5767 31.6418 7.31545 32.4602 6.3765L36.7648 11.1418C35.9641 11.2675 34.299 11.45 33.2202 11.0089L33.2184 11.0089ZM29.6773 21.2051C29.594 19.2158 29.6383 11.5544 32.0493 10.4933C32.4656 11.3241 32.9881 11.5827 33.8366 11.7244C31.7906 12.7571 31.2309 18.5426 33.7729 19.2777C35.0182 19.6214 35.9181 18.454 36.3273 16.9288C36.5328 18.3796 36.6001 19.7028 36.6036 20.4433C35.4097 20.2573 32.8535 20.0872 29.6757 21.205L29.6773 21.2051ZM35.9554 14.9166C35.92 15.6234 35.4116 15.9972 34.7721 15.1061C33.8562 13.8785 34.5205 12.2222 35.509 13.5668C35.5568 13.6288 35.5993 13.6943 35.6383 13.7581C35.757 14.1319 35.8633 14.5216 35.9554 14.9166ZM34.0015 12.7625C34.1078 13.4038 33.5179 13.604 33.4223 12.9521C33.3177 12.3161 33.9041 12.1124 34.0015 12.7625ZM34.0458 16.7624C34.6516 17.0565 35.2167 16.7412 35.3708 17.4533C35.486 18.1069 34.8093 18.959 33.8722 18.4205C32.9492 17.8961 32.5348 16.4524 32.7562 16.0007C33.0255 15.5348 33.4542 16.3922 34.044 16.7624H34.0458ZM13.3626 32.25C7.33804 31.6158 3.60221 29.9843 1.79324 27.2457C-1.78328 22.7746 2.84547 10.3496 7.84958 5.82202C14.6982 -0.907745 24.8749 -1.35398 31.7675 5.58642C31.8897 5.69979 32.0137 5.81848 32.1377 5.94248C31.275 6.8973 31.4043 8.75905 31.8419 10.015C28.6781 11.5827 29.1705 20.3441 29.1546 21.3985C29.105 21.418 29.0572 21.4357 29.0093 21.4552C28.8729 21.5101 28.8074 21.6642 28.8605 21.8006C28.9013 21.9051 29.0022 21.9671 29.1068 21.9671C33.4911 20.2046 37.2092 21.0619 37.1861 21.1045C37.5227 21.1913 37.6679 20.7006 37.3314 20.5925C37.3136 20.5872 37.2446 20.5677 37.1294 20.5429C37.0798 19.5367 37.1666 15.2552 35.3863 11.8114C35.6945 11.8008 35.9868 11.776 36.249 11.7459C39.1045 17.1451 40.7378 23.8944 38.2489 27.1042C38.008 27.4514 37.7423 27.7756 37.4589 28.0802C36.4563 27.5665 34.9133 27.1555 33.1986 26.9129C32.2615 26.7641 27.691 26.7003 27.0289 26.7003C26.834 26.7003 26.6675 26.7818 26.54 26.9288C26.4124 26.7818 26.2459 26.7003 26.0511 26.7003C25.2805 26.7074 20.7403 26.7499 19.7145 26.9377C16.0777 27.4833 14.0422 28.571 13.6649 30.1723C13.5037 30.8578 13.4028 31.5593 13.362 32.2484L13.3626 32.25ZM22.8451 33.4775C22.636 32.831 22.3562 32.2836 22.0621 32.1472C21.5926 31.9311 19.5608 31.7415 19.1587 31.7061C19.0135 31.6937 18.8841 31.8018 18.87 31.947C18.8576 32.094 18.9656 32.2216 19.1109 32.2358C20.0072 32.3155 21.5395 32.4909 21.8371 32.629C22.1117 32.7814 22.7636 34.6431 22.6591 35.6263C22.6166 36.2073 21.3836 36.1861 21.0896 36.0568C21.2331 35.2667 21.226 34.3898 20.8912 33.9204C20.7424 33.7096 20.5351 33.5927 20.296 33.5821C19.5644 33.5467 18.7088 33.5803 18.6716 33.5821C18.5246 33.5874 18.4112 33.7114 18.4165 33.8584C18.4218 34.0055 18.5458 34.1188 18.6928 34.1135C18.7017 34.1135 19.5626 34.0799 20.2694 34.1135C20.7335 34.1915 20.6964 35.3748 20.5334 36.1206C20.42 36.9106 19.9063 37.2915 19.1871 37.4438C18.691 37.5413 18.2376 37.4545 18.0551 37.2277C17.8532 36.9744 18.0268 36.5599 18.2517 36.218C18.3952 35.9983 18.56 35.8088 18.6609 35.7061C18.9019 35.4527 18.5387 35.0896 18.2854 35.3305C18.2624 35.3535 18.0356 35.5838 17.8213 35.908C16.9976 36.7742 15.1252 37.4545 14.4946 36.2357C13.7913 34.8044 13.6673 32.4732 14.1792 30.2977C14.4414 28.9178 16.6539 27.8903 19.9612 27.4422C20.8257 27.3058 25.2403 27.2367 26.0479 27.2367C26.2446 27.2579 26.2676 27.6866 26.2711 27.8159V27.8974C26.2552 28.544 25.9381 29.389 25.3765 29.5661C24.3562 29.8885 23.4776 30.0444 23.157 30.0958C23.0489 30.0019 22.9284 29.9434 22.7938 29.9363C22.0817 29.8991 19.3785 30.3048 19.2633 30.3207C19.1181 30.342 19.0189 30.4784 19.0401 30.6237C19.0614 30.7689 19.1978 30.8681 19.343 30.8469C20.2961 30.7034 22.2393 30.4412 22.7637 30.466C22.7849 30.4713 22.8097 30.489 22.8363 30.5174C22.8487 30.5386 22.8664 30.5564 22.8841 30.5741C23.2331 31.0169 23.6937 32.8822 22.8434 33.481L22.8451 33.4775ZM23.8406 31.8833C23.8052 31.4935 23.6936 30.9781 23.5005 30.5742C23.9363 30.4962 24.6838 30.3403 25.5412 30.0693C26 29.9241 26.333 29.5343 26.542 29.0738C26.7741 29.5875 27.1266 29.9382 27.5411 30.0693C28.3985 30.3403 29.1461 30.4962 29.5818 30.5742C29.3905 30.9745 29.2789 31.4865 29.2435 31.8762C27.5146 32.1809 25.69 32.3438 23.8529 32.436C23.8617 32.2624 23.86 32.0781 23.8422 31.8815L23.8406 31.8833ZM38.5844 36.2339C37.9556 37.4527 36.0796 36.7707 35.2577 35.9062C35.0433 35.5821 34.8166 35.3517 34.7936 35.3287C34.5403 35.0878 34.1771 35.451 34.418 35.7043C34.5208 35.807 34.6855 35.9984 34.829 36.218C35.054 36.5617 35.2276 36.9744 35.0239 37.2277C34.8414 37.4545 34.3879 37.5413 33.8919 37.4439C33.1727 37.2915 32.6572 36.9106 32.5456 36.1206V36.1188C32.3826 35.3748 32.3472 34.1897 32.8113 34.1135C33.5181 34.0799 34.379 34.1135 34.3879 34.1135C34.5349 34.1188 34.6589 34.0055 34.6643 33.8584C34.6696 33.7114 34.5562 33.5874 34.4092 33.5821C34.3737 33.5803 33.5163 33.5467 32.7848 33.5821C32.5456 33.5927 32.3384 33.7114 32.1896 33.9204C31.8565 34.3899 31.8477 35.2668 31.9912 36.0568C31.6971 36.1861 30.466 36.2073 30.4217 35.6263C30.3154 34.6414 30.9691 32.7796 31.2419 32.629C31.5413 32.4909 33.0736 32.3137 33.9681 32.2358C34.3153 32.1968 34.271 31.6849 33.9221 31.7061C33.5199 31.7415 31.4899 31.9293 31.0187 32.1472C30.7246 32.2818 30.4448 32.831 30.2357 33.4775C29.3872 32.8806 29.8424 31.0294 30.1861 30.5777C30.2091 30.5582 30.2304 30.5352 30.2446 30.5086C30.2676 30.4856 30.2888 30.4697 30.3083 30.4643C30.838 30.4378 32.7795 30.7017 33.7325 30.8434C33.876 30.8647 34.0124 30.7655 34.0354 30.6202C34.0567 30.475 33.9575 30.3403 33.8122 30.3173C33.6971 30.2996 30.9957 29.8975 30.2817 29.9329C30.1471 29.94 30.0267 29.9984 29.9186 30.0923C29.598 30.041 28.7194 29.8851 27.699 29.5627C27.141 29.3873 26.8239 28.5494 26.8062 27.9046V27.7842C26.8115 27.6548 26.8398 27.2545 27.0294 27.2314C27.8371 27.2314 32.2517 27.3005 33.1161 27.4369C36.4252 27.8851 38.636 28.9143 38.8981 30.2925C39.41 32.4678 39.286 34.799 38.5828 36.2305L38.5844 36.2339Z" fill="#F8F3E3" stroke="#F8F3E3" stroke-width="2" mask="url(#path-4-inside-2_702_667)"/>
<mask id="path-5-inside-3_702_667" fill="white">
<path d="M19.7347 24.2339L18.1829 25.8087C18.0164 25.9664 18.1457 26.2693 18.3725 26.2604C18.4415 26.2604 18.5089 26.2338 18.562 26.1807L20.1138 24.6059C20.3529 24.3508 19.988 23.9894 19.7347 24.2321V24.2339Z"/>
</mask>
<path d="M19.7347 24.2339L18.1829 25.8087C18.0164 25.9664 18.1457 26.2693 18.3725 26.2604C18.4415 26.2604 18.5089 26.2338 18.562 26.1807L20.1138 24.6059C20.3529 24.3508 19.988 23.9894 19.7347 24.2321V24.2339Z" fill="#F8F3E3"/>
<path d="M19.7347 24.2339L20.447 24.9358L20.7347 24.6438V24.2339H19.7347ZM18.1829 25.8087L18.8705 26.5349L18.883 26.5229L18.8952 26.5106L18.1829 25.8087ZM18.3725 26.2604V25.2604H18.353L18.3335 25.2612L18.3725 26.2604ZM18.562 26.1807L19.2691 26.8878L19.2743 26.8826L18.562 26.1807ZM20.1138 24.6059L20.8261 25.3078L20.8348 25.2989L20.8433 25.2898L20.1138 24.6059ZM19.7347 24.2321L19.0429 23.51L18.7347 23.8053V24.2321H19.7347ZM19.0224 23.532L17.4706 25.1068L18.8952 26.5106L20.447 24.9358L19.0224 23.532ZM17.4954 25.0825C17.0482 25.5059 17.0423 26.0915 17.2091 26.4862C17.3749 26.8787 17.797 27.2836 18.4115 27.2597L18.3335 25.2612C18.7212 25.2461 18.9652 25.504 19.0514 25.7078C19.1384 25.9138 19.1511 26.2691 18.8705 26.5349L17.4954 25.0825ZM18.3725 27.2604C18.7063 27.2604 19.0281 27.1289 19.2691 26.8878L17.8549 25.4736C17.9897 25.3388 18.1768 25.2604 18.3725 25.2604V27.2604ZM19.2743 26.8826L20.8261 25.3078L19.4015 23.904L17.8497 25.4788L19.2743 26.8826ZM20.8433 25.2898C21.9893 24.0675 20.2134 22.3886 19.0429 23.51L20.4265 24.9542C20.3001 25.0753 20.1031 25.1634 19.878 25.1507C19.6742 25.1391 19.5129 25.0492 19.4061 24.9436C19.2993 24.8381 19.2075 24.678 19.1934 24.4744C19.178 24.2494 19.2636 24.0506 19.3843 23.9219L20.8433 25.2898ZM18.7347 24.2321V24.2339H20.7347V24.2321H18.7347Z" fill="#F8F3E3" mask="url(#path-5-inside-3_702_667)"/>
<mask id="path-7-inside-4_702_667" fill="white">
<path d="M17.514 24.2339L15.9622 25.8087C15.7957 25.9664 15.925 26.2693 16.1518 26.2604C16.2208 26.2604 16.2882 26.2338 16.3413 26.1807L17.8931 24.6059C18.1322 24.3508 17.7673 23.9894 17.514 24.2321V24.2339Z"/>
</mask>
<path d="M17.514 24.2339L15.9622 25.8087C15.7957 25.9664 15.925 26.2693 16.1518 26.2604C16.2208 26.2604 16.2882 26.2338 16.3413 26.1807L17.8931 24.6059C18.1322 24.3508 17.7673 23.9894 17.514 24.2321V24.2339Z" fill="#F8F3E3"/>
<path d="M17.514 24.2339L18.2263 24.9358L18.514 24.6438V24.2339H17.514ZM15.9622 25.8087L16.6497 26.5349L16.6623 26.5229L16.6745 26.5106L15.9622 25.8087ZM16.1518 26.2604V25.2604H16.1323L16.1128 25.2612L16.1518 26.2604ZM16.3413 26.1807L17.0484 26.8878L17.0536 26.8826L16.3413 26.1807ZM17.8931 24.6059L18.6054 25.3078L18.6141 25.2989L18.6226 25.2898L17.8931 24.6059ZM17.514 24.2321L16.8222 23.51L16.514 23.8053V24.2321H17.514ZM16.8017 23.532L15.2499 25.1068L16.6745 26.5106L18.2263 24.9358L16.8017 23.532ZM15.2747 25.0825C14.8275 25.5059 14.8216 26.0915 14.9884 26.4862C15.1542 26.8787 15.5763 27.2836 16.1908 27.2597L16.1128 25.2612C16.5005 25.2461 16.7445 25.504 16.8307 25.7078C16.9177 25.9138 16.9304 26.2691 16.6497 26.5349L15.2747 25.0825ZM16.1518 27.2604C16.4856 27.2604 16.8074 27.1289 17.0484 26.8878L15.6342 25.4736C15.769 25.3388 15.9561 25.2604 16.1518 25.2604V27.2604ZM17.0536 26.8826L18.6054 25.3078L17.1808 23.904L15.629 25.4788L17.0536 26.8826ZM18.6226 25.2898C19.7686 24.0675 17.9927 22.3886 16.8222 23.51L18.2058 24.9542C18.0794 25.0753 17.8824 25.1634 17.6573 25.1507C17.4535 25.1391 17.2922 25.0492 17.1854 24.9436C17.0786 24.8381 16.9868 24.678 16.9727 24.4744C16.9573 24.2494 17.0429 24.0506 17.1636 23.9219L18.6226 25.2898ZM16.514 24.2321V24.2339H18.514V24.2321H16.514Z" fill="#F8F3E3" mask="url(#path-7-inside-4_702_667)"/>
<path d="M15.3143 24.2555L15.314 24.2559C15.3141 24.2558 15.3142 24.2556 15.3143 24.2555Z" fill="#F8F3E3" stroke="#F8F3E3"/>
<mask id="path-10-inside-5_702_667" fill="white">
<path d="M13.0687 24.2339L11.5169 25.8087C11.3504 25.9664 11.4797 26.2693 11.7064 26.2604C11.7755 26.2604 11.8428 26.2338 11.896 26.1807L13.4478 24.6059C13.6869 24.3508 13.322 23.9894 13.0687 24.2321V24.2339Z"/>
</mask>
<path d="M13.0687 24.2339L11.5169 25.8087C11.3504 25.9664 11.4797 26.2693 11.7064 26.2604C11.7755 26.2604 11.8428 26.2338 11.896 26.1807L13.4478 24.6059C13.6869 24.3508 13.322 23.9894 13.0687 24.2321V24.2339Z" fill="#F8F3E3"/>
<path d="M13.0687 24.2339L13.781 24.9358L14.0687 24.6438V24.2339H13.0687ZM11.5169 25.8087L12.2044 26.5349L12.217 26.5229L12.2292 26.5106L11.5169 25.8087ZM11.7064 26.2604V25.2604H11.6869L11.6675 25.2612L11.7064 26.2604ZM11.896 26.1807L12.6031 26.8878L12.6083 26.8826L11.896 26.1807ZM13.4478 24.6059L14.1601 25.3078L14.1688 25.2989L14.1773 25.2898L13.4478 24.6059ZM13.0687 24.2321L12.3769 23.51L12.0687 23.8053V24.2321H13.0687ZM12.3564 23.532L10.8046 25.1068L12.2292 26.5106L13.781 24.9358L12.3564 23.532ZM10.8294 25.0825C10.3822 25.5059 10.3763 26.0915 10.5431 26.4862C10.7089 26.8787 11.1309 27.2836 11.7454 27.2597L11.6675 25.2612C12.0552 25.2461 12.2992 25.504 12.3853 25.7078C12.4724 25.9138 12.4851 26.2691 12.2044 26.5349L10.8294 25.0825ZM11.7064 27.2604C12.0402 27.2604 12.362 27.1289 12.6031 26.8878L11.1889 25.4736C11.3236 25.3388 11.5108 25.2604 11.7064 25.2604V27.2604ZM12.6083 26.8826L14.1601 25.3078L12.7355 23.904L11.1837 25.4788L12.6083 26.8826ZM14.1773 25.2898C15.3232 24.0676 13.5475 22.3885 12.3769 23.51L13.7605 24.9542C13.6341 25.0753 13.4371 25.1634 13.212 25.1507C13.0082 25.1391 12.8469 25.0492 12.74 24.9436C12.6333 24.8381 12.5414 24.678 12.5274 24.4744C12.5119 24.2494 12.5976 24.0506 12.7182 23.9219L14.1773 25.2898ZM12.0687 24.2321V24.2339H14.0687V24.2321H12.0687Z" fill="#F8F3E3" mask="url(#path-10-inside-5_702_667)"/>
<mask id="path-12-inside-6_702_667" fill="white">
<path d="M32.0189 26.2607C32.088 26.2607 32.1553 26.2341 32.2085 26.1809L33.7603 24.6061C33.9994 24.351 33.6345 23.9896 33.3812 24.2323L31.8294 25.8072C31.6629 25.9648 31.7922 26.2677 32.0189 26.2589V26.2607Z"/>
</mask>
<path d="M32.0189 26.2607C32.088 26.2607 32.1553 26.2341 32.2085 26.1809L33.7603 24.6061C33.9994 24.351 33.6345 23.9896 33.3812 24.2323L31.8294 25.8072C31.6629 25.9648 31.7922 26.2677 32.0189 26.2589V26.2607Z" fill="#F8F3E3"/>
<path d="M32.0189 26.2607H31.0189V27.2607H32.0189V26.2607ZM32.2085 26.1809L32.9156 26.8881L32.9208 26.8828L32.2085 26.1809ZM33.7603 24.6061L34.4726 25.308L34.4813 25.2991L34.4898 25.2901L33.7603 24.6061ZM33.3812 24.2323L32.6894 23.5103L32.679 23.5202L32.6689 23.5305L33.3812 24.2323ZM31.8294 25.8072L32.5169 26.5333L32.5295 26.5214L32.5417 26.5091L31.8294 25.8072ZM32.0189 26.2589H33.0189V25.2191L31.98 25.2597L32.0189 26.2589ZM32.0189 27.2607C32.3527 27.2607 32.6746 27.1291 32.9156 26.8881L31.5014 25.4738C31.6361 25.3391 31.8233 25.2607 32.0189 25.2607V27.2607ZM32.9208 26.8828L34.4726 25.308L33.048 23.9042L31.4962 25.4791L32.9208 26.8828ZM34.4898 25.2901C35.6356 24.0679 33.8601 22.3886 32.6894 23.5103L34.073 24.9544C33.9466 25.0756 33.7496 25.1636 33.5245 25.1509C33.3207 25.1394 33.1594 25.0494 33.0525 24.9439C32.9458 24.8384 32.8539 24.6783 32.8399 24.4746C32.8244 24.2496 32.9101 24.0509 33.0307 23.9222L34.4898 25.2901ZM32.6689 23.5305L31.1171 25.1053L32.5417 26.5091L34.0935 24.9342L32.6689 23.5305ZM31.1419 25.081C30.6947 25.5044 30.6888 26.09 30.8556 26.4847C31.0214 26.8772 31.4434 27.2821 32.0579 27.2581L31.98 25.2597C32.3677 25.2445 32.6117 25.5024 32.6978 25.7063C32.7849 25.9123 32.7976 26.2676 32.5169 26.5333L31.1419 25.081ZM31.0189 26.2589V26.2607H33.0189V26.2589H31.0189Z" fill="#F8F3E3" mask="url(#path-12-inside-6_702_667)"/>
<mask id="path-14-inside-7_702_667" fill="white">
<path d="M34.2416 26.2607C34.3107 26.2607 34.378 26.2341 34.4311 26.1809L35.9829 24.6061C36.2221 24.351 35.8572 23.9896 35.6039 24.2323L34.0521 25.8072C33.8855 25.9648 34.0149 26.2677 34.2416 26.2589V26.2607Z"/>
</mask>
<path d="M34.2416 26.2607C34.3107 26.2607 34.378 26.2341 34.4311 26.1809L35.9829 24.6061C36.2221 24.351 35.8572 23.9896 35.6039 24.2323L34.0521 25.8072C33.8855 25.9648 34.0149 26.2677 34.2416 26.2589V26.2607Z" fill="#F8F3E3"/>
<path d="M34.2416 26.2607H33.2416V27.2607H34.2416V26.2607ZM34.4311 26.1809L35.1383 26.8881L35.1434 26.8828L34.4311 26.1809ZM35.9829 24.6061L36.6952 25.308L36.704 25.2991L36.7125 25.2901L35.9829 24.6061ZM35.6039 24.2323L34.912 23.5103L34.9017 23.5202L34.8916 23.5305L35.6039 24.2323ZM34.0521 25.8072L34.7396 26.5333L34.7522 26.5214L34.7644 26.5091L34.0521 25.8072ZM34.2416 26.2589H35.2416V25.2191L34.2026 25.2597L34.2416 26.2589ZM34.2416 27.2607C34.5754 27.2607 34.8972 27.1291 35.1382 26.8881L33.7241 25.4738C33.8588 25.3391 34.046 25.2607 34.2416 25.2607V27.2607ZM35.1434 26.8828L36.6952 25.308L35.2706 23.9042L33.7189 25.4791L35.1434 26.8828ZM36.7125 25.2901C37.8582 24.0679 36.0828 22.3886 34.912 23.5103L36.2957 24.9544C36.1692 25.0756 35.9722 25.1636 35.7471 25.1509C35.5433 25.1394 35.382 25.0494 35.2752 24.9439C35.1684 24.8384 35.0766 24.6783 35.0626 24.4746C35.0471 24.2496 35.1328 24.0509 35.2534 23.9222L36.7125 25.2901ZM34.8916 23.5305L33.3398 25.1053L34.7644 26.5091L36.3161 24.9342L34.8916 23.5305ZM33.3645 25.081C32.9174 25.5044 32.9114 26.09 33.0782 26.4847C33.244 26.8772 33.6661 27.2821 34.2806 27.2581L34.2026 25.2597C34.5904 25.2445 34.8344 25.5024 34.9205 25.7063C35.0076 25.9123 35.0202 26.2676 34.7396 26.5333L33.3645 25.081ZM33.2416 26.2589V26.2607H35.2416V26.2589H33.2416Z" fill="#F8F3E3" mask="url(#path-14-inside-7_702_667)"/>
<mask id="path-16-inside-8_702_667" fill="white">
<path d="M36.4623 26.2607C36.5314 26.2607 36.5987 26.2341 36.6519 26.1809L38.2036 24.6061C38.4428 24.351 38.0779 23.9896 37.8246 24.2323L36.2728 25.8072C36.1062 25.9648 36.2356 26.2677 36.4623 26.2589V26.2607Z"/>
</mask>
<path d="M36.4623 26.2607C36.5314 26.2607 36.5987 26.2341 36.6519 26.1809L38.2036 24.6061C38.4428 24.351 38.0779 23.9896 37.8246 24.2323L36.2728 25.8072C36.1062 25.9648 36.2356 26.2677 36.4623 26.2589V26.2607Z" fill="#F8F3E3"/>
<path d="M36.4623 26.2607H35.4623V27.2607H36.4623V26.2607ZM36.6519 26.1809L37.359 26.8881L37.3642 26.8828L36.6519 26.1809ZM38.2036 24.6061L38.9159 25.308L38.9247 25.2991L38.9332 25.2901L38.2036 24.6061ZM37.8246 24.2323L37.1327 23.5103L37.1224 23.5202L37.1123 23.5305L37.8246 24.2323ZM36.2728 25.8072L36.9603 26.5333L36.9729 26.5214L36.9851 26.5091L36.2728 25.8072ZM36.4623 26.2589H37.4623V25.2191L36.4233 25.2597L36.4623 26.2589ZM36.4623 27.2607C36.7961 27.2607 37.1179 27.1291 37.3589 26.8881L35.9448 25.4738C36.0795 25.3391 36.2667 25.2607 36.4623 25.2607V27.2607ZM37.3642 26.8828L38.9159 25.308L37.4913 23.9042L35.9396 25.4791L37.3642 26.8828ZM38.9332 25.2901C40.0789 24.0679 38.3035 22.3886 37.1327 23.5103L38.5164 24.9544C38.3899 25.0756 38.1929 25.1636 37.9679 25.1509C37.764 25.1394 37.6027 25.0494 37.4959 24.9439C37.3891 24.8384 37.2973 24.6783 37.2833 24.4746C37.2678 24.2496 37.3535 24.0509 37.4741 23.9222L38.9332 25.2901ZM37.1123 23.5305L35.5605 25.1053L36.9851 26.5091L38.5369 24.9342L37.1123 23.5305ZM35.5852 25.081C35.1381 25.5044 35.1321 26.09 35.2989 26.4847C35.4648 26.8772 35.8868 27.2821 36.5013 27.2581L36.4233 25.2597C36.8111 25.2445 37.0551 25.5024 37.1412 25.7063C37.2283 25.9123 37.2409 26.2676 36.9603 26.5333L35.5852 25.081ZM35.4623 26.2589V26.2607H37.4623V26.2589H35.4623Z" fill="#F8F3E3" mask="url(#path-16-inside-8_702_667)"/>
</svg>
