<svg width="40" height="40" viewBox="0 0 40 40" fill="none" xmlns="http://www.w3.org/2000/svg">
<path fill-rule="evenodd" clip-rule="evenodd" d="M24.8924 27.3064C25.1972 27.6107 25.3849 28.0129 25.4222 28.442C25.8852 28.0506 26.3026 27.6084 26.6667 27.1237C27.1027 26.5429 27.4612 25.9078 27.7333 25.2344H12.4609C13.0945 26.7882 14.1903 28.1098 15.6 29.0202V28.6348C15.6055 28.1415 15.804 27.6699 16.1529 27.321C16.5017 26.9722 16.9733 26.7737 17.4667 26.7682H23.6C24.0658 26.768 24.514 26.9459 24.8529 27.2655L24.8973 27.3051L24.8924 27.3064ZM24.1369 35.6984C24.1371 36.1648 24.0448 36.6265 23.8654 37.057C23.686 37.4875 23.423 37.8781 23.0916 38.2063C22.7603 38.5344 22.3671 38.7937 21.9349 38.9689C21.5028 39.1442 21.0401 39.232 20.5738 39.2273C19.6029 39.2295 18.669 38.8555 17.968 38.1837C17.2998 37.5449 16.9118 36.6674 16.8889 35.7433V35.6988V28.6348C16.8946 28.4843 16.957 28.3414 17.0635 28.2348C17.1701 28.1283 17.313 28.0659 17.4636 28.0602H23.5969C23.7303 28.0597 23.8593 28.1081 23.9596 28.1962L23.9809 28.2188C24.0314 28.2692 24.0715 28.329 24.0988 28.3949C24.1261 28.4609 24.1401 28.5315 24.14 28.6028V35.6984H24.1369ZM23.3742 29.4682V35.6984V35.706C23.3747 36.0712 23.3024 36.4328 23.1617 36.7699C23.021 37.1069 22.8146 37.4125 22.5546 37.669C22.2946 37.9255 21.9861 38.1276 21.6472 38.2637C21.3082 38.3997 20.9456 38.467 20.5804 38.4615C19.823 38.4627 19.093 38.1783 18.536 37.6651C18.272 37.423 18.0586 37.1311 17.9081 36.8061C17.7576 36.4812 17.673 36.1296 17.6591 35.7717C17.6563 35.7469 17.6548 35.722 17.6547 35.6971V29.4682C17.6547 29.297 17.7227 29.1329 17.8437 29.0119C17.9647 28.8908 18.1288 28.8228 18.3 28.8228H22.7311C22.9019 28.8234 23.0655 28.8917 23.186 29.0126C23.3065 29.1336 23.3742 29.2974 23.3742 29.4682ZM22.0853 35.6971V30.1148H18.9436V35.6984V35.7357C18.9632 36.114 19.1316 36.4691 19.412 36.7237C19.7307 37.0149 20.1475 37.1752 20.5791 37.1726C20.776 37.1787 20.972 37.145 21.1555 37.0735C21.339 37.002 21.5062 36.8942 21.647 36.7566C21.7878 36.6189 21.8994 36.4542 21.975 36.2724C22.0506 36.0906 22.0888 35.8953 22.0871 35.6984L22.0853 35.6971ZM11.7556 28.1531C10.7034 26.6877 10.0534 24.9722 9.87022 23.1775L30.3778 23.1886C30.2115 24.778 29.6779 26.307 28.819 27.6547C27.9602 29.0024 26.7998 30.1319 25.4293 30.954V30.046C26.3001 29.4619 27.0663 28.7354 27.696 27.8971C28.4006 26.9575 28.9292 25.898 29.256 24.77C29.2836 24.6741 29.2886 24.5732 29.2705 24.4752C29.2525 24.3771 29.2119 24.2846 29.152 24.2049C29.0921 24.1252 29.0145 24.0605 28.9254 24.0158C28.8362 23.9712 28.7379 23.9479 28.6382 23.9477V23.9437H11.5556C11.4505 23.9439 11.347 23.9696 11.2542 24.0188C11.1613 24.068 11.0819 24.1391 11.0227 24.2259C10.9635 24.3127 10.9265 24.4127 10.9147 24.5171C10.9029 24.6215 10.9168 24.7272 10.9551 24.8251C11.3123 26.0345 11.907 27.1605 12.7046 28.1373C13.5021 29.1142 14.4865 29.9221 15.6 30.514V31.3793C14.0699 30.6413 12.7489 29.532 11.7573 28.1526L11.7556 28.1531ZM13.916 18.7126C13.9206 18.8001 13.9073 18.8876 13.877 18.9698C13.8467 19.052 13.8 19.1271 13.7397 19.1907C13.6794 19.2542 13.6068 19.3048 13.5263 19.3394C13.4458 19.374 13.3592 19.3918 13.2716 19.3918C13.184 19.3918 13.0973 19.374 13.0168 19.3394C12.9363 19.3048 12.8637 19.2542 12.8034 19.1907C12.7431 19.1271 12.6964 19.052 12.6661 18.9698C12.6358 18.8876 12.6225 18.8001 12.6271 18.7126V17.5704C12.2654 17.4863 11.9242 17.3303 11.624 17.1117C11.1477 16.7688 10.8085 16.268 10.6667 15.6984C10.6266 15.5326 10.654 15.3577 10.7429 15.2121C10.8318 15.0666 10.9749 14.9623 11.1407 14.9222C11.3065 14.8821 11.4814 14.9095 11.6269 14.9984C11.7725 15.0873 11.8768 15.2304 11.9169 15.3962C11.9877 15.6696 12.1532 15.9089 12.384 16.0717C12.643 16.2572 12.9544 16.3553 13.2729 16.3517C13.6408 16.3564 13.9973 16.2236 14.2724 15.9793C14.3922 15.8764 14.4883 15.7488 14.5542 15.6054C14.6201 15.4619 14.6542 15.3058 14.6542 15.148C14.6542 14.9901 14.6201 14.834 14.5542 14.6906C14.4883 14.5471 14.3922 14.4195 14.2724 14.3166C13.9973 14.0722 13.6409 13.9392 13.2729 13.9437C12.5838 13.9474 11.9182 13.6938 11.4062 13.2326C11.1531 13.0094 10.9504 12.735 10.8116 12.4274C10.6727 12.1199 10.6009 11.7863 10.6009 11.4488C10.6009 11.1114 10.6727 10.7778 10.8116 10.4703C10.9504 10.1627 11.1531 9.88825 11.4062 9.66507C11.7521 9.35168 12.1726 9.13238 12.6276 9.02818V7.88596C12.623 7.79848 12.6362 7.71098 12.6665 7.6288C12.6968 7.54661 12.7436 7.47146 12.8039 7.40791C12.8642 7.34437 12.9368 7.29376 13.0172 7.25918C13.0977 7.2246 13.1844 7.20676 13.272 7.20676C13.3596 7.20676 13.4463 7.2246 13.5268 7.25918C13.6072 7.29376 13.6798 7.34437 13.7401 7.40791C13.8004 7.47146 13.8472 7.54661 13.8775 7.6288C13.9078 7.71098 13.921 7.79848 13.9164 7.88596V9.02818C14.2783 9.11206 14.6194 9.26806 14.9196 9.48685C15.395 9.82949 15.7336 10.3296 15.8751 10.8984C15.9103 11.0624 15.8801 11.2336 15.7909 11.3756C15.7017 11.5176 15.5605 11.6192 15.3975 11.6586C15.2345 11.698 15.0625 11.6722 14.9183 11.5866C14.774 11.5011 14.6689 11.3626 14.6253 11.2006C14.5543 10.9273 14.3888 10.688 14.1582 10.5251C13.8992 10.3396 13.5879 10.2415 13.2693 10.2451C12.9015 10.2405 12.5453 10.3733 12.2702 10.6175C12.1503 10.7203 12.0541 10.8478 11.9881 10.9913C11.9221 11.1348 11.888 11.2909 11.888 11.4488C11.888 11.6068 11.9221 11.7629 11.9881 11.9063C12.0541 12.0498 12.1503 12.1774 12.2702 12.2802C12.5453 12.5244 12.9015 12.6572 13.2693 12.6526C13.9584 12.649 14.624 12.9026 15.136 13.3637C15.389 13.587 15.5916 13.8615 15.7303 14.169C15.8691 14.4766 15.9408 14.8101 15.9408 15.1475C15.9408 15.4849 15.8691 15.8184 15.7303 16.126C15.5916 16.4335 15.389 16.708 15.136 16.9313C14.79 17.2445 14.3695 17.4638 13.9147 17.5682V18.7126H13.916ZM29.3333 10.8993C29.3686 11.0633 29.3384 11.2345 29.2491 11.3765C29.1599 11.5185 29.0187 11.6201 28.8557 11.6595C28.6927 11.6989 28.5208 11.6731 28.3765 11.5875C28.2323 11.502 28.1271 11.3635 28.0836 11.2015C28.0126 10.9282 27.8471 10.6889 27.6164 10.526C27.3581 10.3409 27.0476 10.2428 26.7298 10.246C26.3618 10.2413 26.0054 10.3741 25.7302 10.6184C25.6105 10.7213 25.5143 10.8488 25.4484 10.9923C25.3826 11.1358 25.3484 11.2918 25.3484 11.4497C25.3484 11.6076 25.3826 11.7637 25.4484 11.9071C25.5143 12.0506 25.6105 12.1782 25.7302 12.2811C26.0054 12.5253 26.3618 12.6581 26.7298 12.6535C27.4188 12.6499 28.0845 12.9034 28.5964 13.3646C28.8495 13.5878 29.0522 13.8623 29.1911 14.1698C29.3299 14.4774 29.4017 14.811 29.4017 15.1484C29.4017 15.4858 29.3299 15.8194 29.1911 16.127C29.0522 16.4345 28.8495 16.709 28.5964 16.9322C28.2505 17.2454 27.83 17.4647 27.3751 17.5691V18.7126C27.3797 18.8001 27.3664 18.8876 27.3361 18.9698C27.3058 19.052 27.2591 19.1271 27.1988 19.1907C27.1385 19.2542 27.0659 19.3048 26.9854 19.3394C26.9049 19.374 26.8183 19.3918 26.7307 19.3918C26.6431 19.3918 26.5564 19.374 26.4759 19.3394C26.3954 19.3048 26.3228 19.2542 26.2625 19.1907C26.2022 19.1271 26.1555 19.052 26.1252 18.9698C26.0949 18.8876 26.0816 18.8001 26.0862 18.7126V17.5704C25.7245 17.4862 25.3834 17.3303 25.0831 17.1117C24.6076 16.7691 24.269 16.2689 24.1276 15.7002C24.0923 15.5362 24.1225 15.365 24.2118 15.223C24.301 15.0809 24.4421 14.9794 24.6052 14.94C24.7682 14.9006 24.9401 14.9264 25.0844 15.0119C25.2286 15.0975 25.3338 15.236 25.3773 15.398C25.4483 15.6713 25.6138 15.9106 25.8444 16.0735C26.1034 16.259 26.4148 16.3571 26.7333 16.3535C27.1011 16.3581 27.4574 16.2253 27.7324 15.9811C27.8522 15.8782 27.9483 15.7506 28.0142 15.6071C28.0801 15.4637 28.1142 15.3076 28.1142 15.1497C28.1142 14.9918 28.0801 14.8358 28.0142 14.6923C27.9483 14.5488 27.8522 14.4213 27.7324 14.3184C27.4575 14.074 27.1012 13.941 26.7333 13.9455C26.0443 13.9491 25.3787 13.6955 24.8667 13.2344C24.6136 13.0112 24.4109 12.7367 24.272 12.4292C24.1332 12.1216 24.0614 11.7881 24.0614 11.4506C24.0614 11.1132 24.1332 10.7796 24.272 10.4721C24.4109 10.1645 24.6136 9.89002 24.8667 9.66685C25.2125 9.35346 25.6331 9.13416 26.088 9.02996V7.88774C26.0834 7.80026 26.0967 7.71276 26.127 7.63058C26.1573 7.54839 26.204 7.47323 26.2643 7.40969C26.3246 7.34614 26.3972 7.29554 26.4777 7.26096C26.5582 7.22638 26.6448 7.20854 26.7324 7.20854C26.82 7.20854 26.9067 7.22638 26.9872 7.26096C27.0677 7.29554 27.1403 7.34614 27.2006 7.40969C27.2609 7.47323 27.3076 7.54839 27.3379 7.63058C27.3682 7.71276 27.3815 7.80026 27.3769 7.88774V9.02996C27.7387 9.11384 28.0799 9.26984 28.38 9.48862C28.8545 9.83142 29.1922 10.3312 29.3333 10.8993ZM40 19.998C39.9991 24.7406 38.3132 29.3287 35.2433 32.9437C32.1734 36.5588 27.919 38.9656 23.2391 39.7348C23.513 39.5567 23.7679 39.351 24 39.1211C24.9084 38.2152 25.4214 36.9866 25.4267 35.7037V35.6984H25.4293V32.4264C27.2557 31.4876 28.7998 30.0804 29.9036 28.3488C31.0074 26.6171 31.6312 24.6232 31.7111 22.5713V22.546C31.711 22.3755 31.6432 22.2121 31.5227 22.0917C31.4023 21.9712 31.2389 21.9034 31.0684 21.9033L9.15556 21.8913C8.98535 21.8981 8.82478 21.9721 8.70899 22.097C8.59321 22.222 8.53165 22.3877 8.53778 22.558C8.62338 24.8409 9.37926 27.0481 10.7111 28.9042C11.9498 30.6265 13.6423 31.9713 15.6 32.7886V35.6984C15.6 35.7215 15.6 35.7428 15.6036 35.7664C15.6327 37.0334 16.1637 38.237 17.08 39.1126C17.4098 39.4303 17.7818 39.7011 18.1853 39.9175C14.3231 39.5656 10.6466 38.0984 7.60323 35.6946C4.5599 33.2907 2.28111 30.0539 1.04431 26.3782C-0.192488 22.7026 -0.333942 18.7466 0.637173 14.9919C1.60829 11.2373 3.65008 7.84599 6.51394 5.23091C9.37781 2.61584 12.9402 0.889812 16.7674 0.262982C20.5946 -0.363849 24.5215 0.135559 28.07 1.7004C31.6184 3.26524 34.6354 5.82801 36.7535 9.07668C38.8717 12.3253 39.9996 16.1198 40 19.998Z" fill="#D0D8E7"/>
</svg>
