<svg width="40" height="40" viewBox="0 0 40 40" fill="none" xmlns="http://www.w3.org/2000/svg">
<path fill-rule="evenodd" clip-rule="evenodd" d="M28.6729 14.0796C29.3729 14.7797 29.8085 15.7009 29.9054 16.6862C30.0024 17.6715 29.7547 18.66 29.2046 19.4832C28.6545 20.3063 27.836 20.9133 26.8886 21.2007C25.9411 21.488 24.9233 21.438 24.0086 21.0591C23.0939 20.6802 22.3389 19.9958 21.8722 19.1227C21.4055 18.2495 21.256 17.2415 21.4491 16.2705C21.6423 15.2994 22.1661 14.4254 22.9314 13.7973C23.6967 13.1692 24.6562 12.8258 25.6462 12.8258C26.2084 12.825 26.7653 12.9354 27.2847 13.1506C27.8041 13.3658 28.2759 13.6815 28.6729 14.0796ZM28.636 17.1062C28.6359 16.4146 28.396 15.7445 27.9572 15.21C27.5184 14.6754 26.9078 14.3096 26.2295 14.1747C25.5512 14.0399 24.8471 14.1444 24.2373 14.4704C23.6274 14.7965 23.1494 15.3239 22.8848 15.9629C22.6202 16.6019 22.5853 17.3128 22.7861 17.9746C22.9869 18.6364 23.4109 19.2081 23.986 19.5923C24.561 19.9765 25.2515 20.1494 25.9397 20.0816C26.628 20.0138 27.2714 19.7095 27.7604 19.2204C28.0385 18.9431 28.2589 18.6135 28.4092 18.2507C28.5594 17.8879 28.6365 17.4989 28.636 17.1062ZM17.4502 14.0796C18.1502 14.7797 18.5858 15.701 18.6828 16.6863C18.7797 17.6716 18.532 18.6601 17.9819 19.4833C17.4318 20.3064 16.6132 20.9134 15.6657 21.2007C14.7183 21.488 13.7005 21.438 12.7858 21.059C11.8711 20.68 11.1161 19.9956 10.6494 19.1224C10.1828 18.2492 10.0333 17.2412 10.2265 16.2702C10.4197 15.2991 10.9437 14.4251 11.7091 13.797C12.4744 13.169 13.4339 12.8257 14.424 12.8258C14.9861 12.8251 15.5429 12.9355 16.0622 13.1507C16.5816 13.3658 17.0533 13.6815 17.4502 14.0796ZM17.4138 17.1062C17.4137 16.4146 17.1738 15.7445 16.735 15.21C16.2962 14.6754 15.6856 14.3096 15.0073 14.1747C14.329 14.0399 13.6249 14.1444 13.015 14.4704C12.4051 14.7965 11.9272 15.3239 11.6626 15.9629C11.398 16.6019 11.3631 17.3128 11.5639 17.9746C11.7647 18.6364 12.1887 19.2081 12.7638 19.5923C13.3388 19.9765 14.0293 20.1494 14.7175 20.0816C15.4058 20.0138 16.0492 19.7095 16.5382 19.2204C16.8162 18.9431 17.0367 18.6135 17.187 18.2507C17.3372 17.8879 17.4143 17.4989 17.4138 17.1062ZM32.7178 12.168C33.0094 11.875 33.1918 11.4909 33.2345 11.0797C33.2771 10.6686 33.1776 10.2552 32.9523 9.90853C32.7271 9.5619 32.3898 9.30296 31.9968 9.17491C31.6037 9.04686 31.1786 9.05744 30.7924 9.20489C30.4614 9.31031 30.1119 9.34469 29.7667 9.30578C29.4479 9.26775 29.1431 9.15357 28.8778 8.97289C28.5881 8.77612 28.3464 8.51667 28.1707 8.21378C27.9988 7.91668 27.8973 7.58419 27.8738 7.24178C27.8389 6.7656 27.6171 6.32254 27.2569 6.00924C26.8966 5.69594 26.427 5.53782 25.9506 5.56939C25.4742 5.60095 25.0296 5.81963 24.7138 6.17773C24.398 6.53582 24.2366 7.00427 24.2649 7.48089V7.48355C24.3272 8.35921 24.5952 9.20781 25.0471 9.96044C25.5095 10.734 26.1354 11.3972 26.8809 11.9036C27.6025 12.3974 28.4268 12.7211 29.2916 12.8503C30.1565 12.9795 31.0393 12.9108 31.8738 12.6493C32.1939 12.569 32.4855 12.4025 32.7178 12.168ZM31.5622 11.3991L31.524 11.4098C30.8706 11.6185 30.1782 11.6755 29.4995 11.5764C28.8207 11.4773 28.1735 11.2247 27.6071 10.8378C27.0175 10.438 26.5224 9.91424 26.1564 9.30311C25.8074 8.72366 25.5997 8.07018 25.5502 7.39555C25.5456 7.32735 25.5545 7.25891 25.5763 7.19414C25.5982 7.12937 25.6325 7.06953 25.6775 7.01805C25.7225 6.96656 25.7771 6.92444 25.8384 6.89408C25.8996 6.86372 25.9662 6.84572 26.0344 6.84111C26.1026 6.8365 26.1711 6.84537 26.2359 6.86721C26.3006 6.88904 26.3605 6.92343 26.412 6.96839C26.4634 7.01336 26.5056 7.06802 26.5359 7.12926C26.5663 7.19051 26.5843 7.25713 26.5889 7.32533C26.6258 7.86497 26.786 8.38895 27.0573 8.85689C27.3294 9.32654 27.7037 9.72893 28.1524 10.0342C28.5889 10.3324 29.0908 10.521 29.6156 10.584C30.1417 10.6431 30.6745 10.5901 31.1787 10.4284C31.2004 10.4222 31.2231 10.4151 31.2444 10.4067C31.3338 10.3727 31.4308 10.3637 31.5249 10.3804C31.6184 10.3965 31.7058 10.4379 31.7775 10.5001C31.8492 10.5623 31.9025 10.643 31.9316 10.7333C31.9606 10.825 31.964 10.923 31.9413 11.0164C31.9197 11.1077 31.8736 11.1912 31.808 11.2582C31.7408 11.3258 31.6565 11.3738 31.564 11.3969L31.5622 11.3991ZM26.296 32.4511C25.5535 32.7754 24.7227 32.837 23.9404 32.6258C23.9069 32.6165 23.8741 32.6047 23.8422 32.5907C22.6811 32.0657 21.4196 31.7997 20.1453 31.8111C18.8538 31.8226 17.5795 32.1088 16.4071 32.6507C16.3836 32.6609 16.3591 32.6702 16.3342 32.6782C15.5784 32.9209 14.762 32.895 14.0231 32.6049C13.2803 32.3138 12.6569 31.7817 12.2529 31.0938C11.8458 30.399 11.6815 29.5886 11.7858 28.7902C11.8832 28.0088 12.2456 27.2844 12.8124 26.7378L12.8444 26.7067C14.8051 24.945 17.3369 23.9521 19.9724 23.9113C22.6079 23.8704 25.1692 24.7844 27.1836 26.4844V26.4871C27.7996 27.0107 28.2195 27.7279 28.3747 28.5213C28.5277 29.3119 28.4052 30.131 28.0276 30.8422C27.6491 31.5595 27.0378 32.1266 26.2942 32.4502L26.296 32.4511ZM24.3191 31.3929C24.8143 31.5161 25.3365 31.4697 25.8024 31.2613C26.2682 31.0529 26.6507 30.6944 26.8889 30.2431C27.1299 29.79 27.2084 29.2679 27.1111 28.764C27.0114 28.2586 26.7435 27.8018 26.3511 27.468C24.5753 25.9675 22.3163 25.1605 19.9917 25.1964C17.667 25.2323 15.434 26.1085 13.7053 27.6631L13.6982 27.6693C13.3452 28.0127 13.1201 28.4663 13.06 28.9551C12.9924 29.4705 13.0983 29.9937 13.3609 30.4422C13.619 30.8809 14.017 31.2201 14.4911 31.4053C14.9411 31.5826 15.4376 31.6036 15.9009 31.4649C17.2301 30.8581 18.6722 30.5381 20.1333 30.5258C21.5743 30.512 23.0014 30.8077 24.3182 31.3929H24.3191ZM20.0738 27.4782C18.4011 27.5124 16.7893 28.1122 15.5013 29.18C18.5109 27.9754 21.8711 27.9886 24.8711 29.2169C24.878 29.2109 24.884 29.2041 24.8889 29.1964L24.8911 29.1911L24.8822 29.1827C23.539 28.05 21.8296 27.4445 20.0729 27.4791L20.0738 27.4782ZM14.42 28.4116L14.3938 28.436C14.2063 28.6233 14.0833 28.8653 14.0423 29.127C14.0013 29.3888 14.0445 29.6568 14.1658 29.8924C14.287 30.1254 14.4748 30.3169 14.7053 30.4427C14.9211 30.5611 15.1685 30.6091 15.4129 30.58C15.4864 30.5745 15.5584 30.5565 15.6258 30.5267C17.0273 29.9069 18.5414 29.5822 20.0738 29.5726C21.6062 29.5631 23.1242 29.8689 24.5333 30.4711C24.5943 30.4971 24.6589 30.5135 24.7249 30.5196C25.0102 30.5441 25.2957 30.4736 25.5369 30.3191C25.7602 30.1786 25.9397 29.9785 26.0551 29.7413L26.0773 29.6947C26.1885 29.441 26.2128 29.1578 26.1467 28.8889C26.0796 28.624 25.9321 28.3864 25.7244 28.2089L25.7178 28.2031C24.1376 26.866 22.1242 26.1507 20.0547 26.1911C17.9719 26.2314 15.9728 27.0179 14.4209 28.4076L14.42 28.4116ZM4.58489 17.9804L1.72267 22.4889L1.68889 22.5378C1.33785 22.9893 1.09638 23.5162 0.983481 24.0769C0.870583 24.6376 0.889336 25.2168 1.03826 25.769C1.18719 26.3212 1.46223 26.8314 1.84175 27.2593C2.22126 27.6872 2.69489 28.0212 3.22537 28.235C3.75585 28.4488 4.32871 28.5366 4.89888 28.4914C5.46904 28.4463 6.02096 28.2695 6.5112 27.9749C7.00144 27.6803 7.41662 27.2759 7.72409 26.7936C8.03156 26.3114 8.22291 25.7643 8.28311 25.1956C8.38105 24.2849 8.14043 23.37 7.60711 22.6253C7.59378 22.6089 7.58089 22.5911 7.56889 22.5729L4.58489 17.9804ZM5.11822 20.6076L6.72222 23.1182C7.13833 23.6675 7.34209 24.3485 7.296 25.036C7.25283 25.7249 6.94099 26.3693 6.42756 26.8307C5.91457 27.2894 5.24705 27.537 4.55901 27.5239C3.87097 27.5108 3.21336 27.2379 2.71822 26.76C2.22011 26.2839 1.91409 25.6415 1.85822 24.9547C1.80539 24.286 2.01358 23.6229 2.43911 23.1044L4.02933 20.6156C4.08656 20.523 4.16631 20.4465 4.26115 20.3932C4.35598 20.3399 4.46278 20.3115 4.57157 20.3107C4.68035 20.3099 4.78756 20.3367 4.88317 20.3887C4.97877 20.4406 5.05965 20.5159 5.11822 20.6076ZM5.64444 23.8133C5.65934 23.8389 5.67581 23.8636 5.69378 23.8871C5.92638 24.1907 6.04017 24.5687 6.01378 24.9502C5.99344 25.3036 5.83549 25.635 5.57378 25.8733C5.3024 26.1157 4.94927 26.2462 4.58551 26.2386C4.22175 26.231 3.87437 26.0859 3.61333 25.8324C3.3436 25.5761 3.17751 25.2295 3.14667 24.8587C3.11893 24.5139 3.22797 24.1721 3.45022 23.9071C3.46791 23.8857 3.48438 23.8633 3.49956 23.84L4.57778 22.1462L5.64444 23.8133ZM10.7453 12.8547C11.6215 12.7263 12.4572 12.401 13.1895 11.9032C13.9218 11.4054 14.5317 10.748 14.9733 9.98044C15.414 9.21712 15.674 8.36297 15.7333 7.48355V7.46444C15.7586 6.98949 15.5961 6.52366 15.2808 6.16751C14.9656 5.81136 14.5229 5.59347 14.0484 5.56089C13.816 5.54307 13.5823 5.57304 13.3619 5.64894C13.1415 5.72484 12.9389 5.84507 12.7667 6.00222C12.4208 6.32341 12.2122 6.7657 12.1844 7.23689C12.161 7.58041 12.0603 7.91421 11.8899 8.21341C11.7195 8.51261 11.4837 8.76949 11.2002 8.9649C10.9167 9.16031 10.5928 9.28921 10.2525 9.342C9.91228 9.39479 9.5645 9.3701 9.23511 9.26978C8.94208 9.1521 8.62458 9.10844 8.31067 9.14267C7.98893 9.18241 7.68685 9.31896 7.44444 9.53422C7.19646 9.75131 7.01252 10.032 6.91249 10.3461C6.81246 10.6601 6.80015 10.9955 6.87689 11.316C6.95193 11.6353 7.11089 11.9289 7.33733 12.1662C7.56604 12.4041 7.85742 12.5724 8.17778 12.6516H8.18711C9.01486 12.9082 9.88946 12.9768 10.7471 12.8524L10.7453 12.8547ZM40 20C40 14.6957 37.8929 9.60859 34.1421 5.85786C30.3914 2.10714 25.3043 0 20 0C14.6957 0 9.60859 2.10714 5.85786 5.85786C2.10714 9.60859 3.59776e-07 14.6957 3.59776e-07 20C-0.000160878 20.8544 0.0538735 21.708 0.161778 22.5556C0.297668 22.2862 0.45789 22.0299 0.640445 21.7898L4.03333 16.4444C4.09323 16.3499 4.17671 16.2726 4.27556 16.2202C4.3744 16.1677 4.4852 16.1419 4.59705 16.1452C4.70891 16.1486 4.81796 16.181 4.91347 16.2393C5.00898 16.2977 5.08767 16.3798 5.14178 16.4778L8.64711 21.8756C9.31097 22.7915 9.64344 23.906 9.58987 25.036C9.53629 26.1659 9.09986 27.244 8.35232 28.093C7.60477 28.942 6.59061 29.5114 5.47654 29.7076C4.36247 29.9037 3.21481 29.715 2.22222 29.1724C4.27703 33.1594 7.61236 36.3398 11.6924 38.2029C15.7724 40.066 20.3603 40.5036 24.7189 39.4453C29.0775 38.387 32.9539 35.8944 35.7253 32.3677C38.4967 28.8411 40.0022 24.4853 40 20ZM8.57022 11.4276C8.54352 11.4172 8.51621 11.4084 8.48844 11.4013C8.40383 11.3809 8.32676 11.3368 8.26622 11.2742C8.19853 11.2027 8.15099 11.1145 8.12844 11.0187C8.10627 10.9251 8.1098 10.8273 8.13867 10.7356C8.16758 10.6449 8.22095 10.564 8.29289 10.5018C8.34208 10.4584 8.4033 10.4309 8.46844 10.4231C8.57676 10.4141 8.68566 10.4315 8.78578 10.4738L8.82311 10.4867C9.33929 10.6514 9.8862 10.6965 10.4224 10.6186C10.9586 10.5407 11.47 10.3417 11.918 10.0368C12.3659 9.73195 12.7385 9.32913 13.0077 8.85888C13.2769 8.38864 13.4355 7.8633 13.4716 7.32267C13.477 7.18364 13.5358 7.05205 13.6356 6.95511C13.6801 6.91554 13.7322 6.88547 13.7888 6.86675C13.8453 6.84802 13.9051 6.84104 13.9644 6.84622C14.101 6.8547 14.2286 6.91685 14.3194 7.01911C14.4103 7.12137 14.457 7.25543 14.4493 7.392V7.39778C14.4036 8.08186 14.2018 8.74638 13.8596 9.34044C13.513 9.93911 13.0356 10.4517 12.4631 10.84C11.8996 11.2232 11.2573 11.4749 10.5835 11.5766C9.90971 11.6783 9.22169 11.6274 8.57022 11.4276Z" fill="#D0D8E7"/>
</svg>
